ISO-10303-21;
HEADER;
/* Generated by software containing ST-Developer
 * from STEP Tools, Inc. (www.steptools.com) 
 */

FILE_DESCRIPTION(
/* description */ (''),
/* implementation_level */ '2;1');

FILE_NAME(
/* name */ 'back_mount.step',
/* time_stamp */ '2026-09-05T12:50:00-04:00',
/* author */ (''),
/* organization */ (''),
/* preprocessor_version */ 'ST-DEVELOPER v20.1',
/* originating_system */ 'Autodesk Translation Framework v15.8.0.0',
/* authorisation */ '');

FILE_SCHEMA (('AUTOMOTIVE_DESIGN { 1 0 10303 214 3 1 1 }'));
ENDSEC;

DATA;
#10=MECHANICAL_DESIGN_GEOMETRIC_PRESENTATION_REPRESENTATION('',(#13),#538);
#11=SHAPE_REPRESENTATION_RELATIONSHIP('SRR','None',#545,#12);
#12=ADVANCED_BREP_SHAPE_REPRESENTATION('',(#14),#537);
#13=STYLED_ITEM('',(#554),#14);
#14=MANIFOLD_SOLID_BREP('Body1',#310);
#15=LINE('',#462,#34);
#16=LINE('',#467,#35);
#17=LINE('',#473,#36);
#18=LINE('',#478,#37);
#19=LINE('',#483,#38);
#20=LINE('',#488,#39);
#21=LINE('',#490,#40);
#22=LINE('',#492,#41);
#23=LINE('',#493,#42);
#24=LINE('',#496,#43);
#25=LINE('',#498,#44);
#26=LINE('',#499,#45);
#27=LINE('',#505,#46);
#28=LINE('',#508,#47);
#29=LINE('',#510,#48);
#30=LINE('',#511,#49);
#31=LINE('',#519,#50);
#32=LINE('',#525,#51);
#33=LINE('',#531,#52);
#34=VECTOR('',#372,4.1);
#35=VECTOR('',#377,3.175);
#36=VECTOR('',#384,21.05);
#37=VECTOR('',#391,11.);
#38=VECTOR('',#396,3.175);
#39=VECTOR('',#401,10.);
#40=VECTOR('',#402,10.);
#41=VECTOR('',#403,10.);
#42=VECTOR('',#404,10.);
#43=VECTOR('',#407,10.);
#44=VECTOR('',#408,10.);
#45=VECTOR('',#409,10.);
#46=VECTOR('',#416,10.);
#47=VECTOR('',#419,10.);
#48=VECTOR('',#420,10.);
#49=VECTOR('',#421,10.);
#50=VECTOR('',#432,21.05);
#51=VECTOR('',#439,3.175);
#52=VECTOR('',#446,3.175);
#53=CYLINDRICAL_SURFACE('',#327,4.1);
#54=CYLINDRICAL_SURFACE('',#329,3.175);
#55=CYLINDRICAL_SURFACE('',#332,21.05);
#56=CYLINDRICAL_SURFACE('',#335,11.);
#57=CYLINDRICAL_SURFACE('',#337,3.175);
#58=CYLINDRICAL_SURFACE('',#342,45.);
#59=CYLINDRICAL_SURFACE('',#346,45.);
#60=CYLINDRICAL_SURFACE('',#349,21.05);
#61=CYLINDRICAL_SURFACE('',#352,3.175);
#62=CYLINDRICAL_SURFACE('',#355,3.175);
#63=FACE_BOUND('',#95,.T.);
#64=FACE_BOUND('',#110,.T.);
#65=FACE_BOUND('',#111,.T.);
#66=FACE_BOUND('',#112,.T.);
#67=FACE_BOUND('',#113,.T.);
#68=FACE_BOUND('',#114,.T.);
#69=FACE_BOUND('',#115,.T.);
#70=FACE_BOUND('',#116,.T.);
#71=FACE_BOUND('',#118,.T.);
#72=FACE_BOUND('',#119,.T.);
#73=FACE_BOUND('',#120,.T.);
#74=FACE_BOUND('',#121,.T.);
#75=FACE_BOUND('',#122,.T.);
#76=FACE_BOUND('',#123,.T.);
#77=FACE_BOUND('',#124,.T.);
#78=FACE_OUTER_BOUND('',#94,.T.);
#79=FACE_OUTER_BOUND('',#96,.T.);
#80=FACE_OUTER_BOUND('',#97,.T.);
#81=FACE_OUTER_BOUND('',#98,.T.);
#82=FACE_OUTER_BOUND('',#99,.T.);
#83=FACE_OUTER_BOUND('',#100,.T.);
#84=FACE_OUTER_BOUND('',#101,.T.);
#85=FACE_OUTER_BOUND('',#102,.T.);
#86=FACE_OUTER_BOUND('',#103,.T.);
#87=FACE_OUTER_BOUND('',#104,.T.);
#88=FACE_OUTER_BOUND('',#105,.T.);
#89=FACE_OUTER_BOUND('',#106,.T.);
#90=FACE_OUTER_BOUND('',#107,.T.);
#91=FACE_OUTER_BOUND('',#108,.T.);
#92=FACE_OUTER_BOUND('',#109,.T.);
#93=FACE_OUTER_BOUND('',#117,.T.);
#94=EDGE_LOOP('',(#210));
#95=EDGE_LOOP('',(#211));
#96=EDGE_LOOP('',(#212,#213,#214,#215));
#97=EDGE_LOOP('',(#216,#217,#218,#219));
#98=EDGE_LOOP('',(#220,#221,#222,#223));
#99=EDGE_LOOP('',(#224,#225,#226,#227));
#100=EDGE_LOOP('',(#228,#229,#230,#231));
#101=EDGE_LOOP('',(#232,#233,#234,#235));
#102=EDGE_LOOP('',(#236,#237,#238,#239));
#103=EDGE_LOOP('',(#240,#241,#242,#243));
#104=EDGE_LOOP('',(#244,#245,#246,#247));
#105=EDGE_LOOP('',(#248,#249,#250,#251));
#106=EDGE_LOOP('',(#252,#253,#254,#255));
#107=EDGE_LOOP('',(#256,#257,#258,#259));
#108=EDGE_LOOP('',(#260,#261,#262,#263));
#109=EDGE_LOOP('',(#264,#265,#266,#267,#268));
#110=EDGE_LOOP('',(#269));
#111=EDGE_LOOP('',(#270));
#112=EDGE_LOOP('',(#271));
#113=EDGE_LOOP('',(#272));
#114=EDGE_LOOP('',(#273));
#115=EDGE_LOOP('',(#274));
#116=EDGE_LOOP('',(#275));
#117=EDGE_LOOP('',(#276,#277,#278,#279,#280));
#118=EDGE_LOOP('',(#281));
#119=EDGE_LOOP('',(#282));
#120=EDGE_LOOP('',(#283));
#121=EDGE_LOOP('',(#284));
#122=EDGE_LOOP('',(#285));
#123=EDGE_LOOP('',(#286));
#124=EDGE_LOOP('',(#287));
#125=CIRCLE('',#325,11.);
#126=CIRCLE('',#326,4.1);
#127=CIRCLE('',#328,4.1);
#128=CIRCLE('',#330,3.175);
#129=CIRCLE('',#331,3.175);
#130=CIRCLE('',#333,21.05);
#131=CIRCLE('',#334,21.05);
#132=CIRCLE('',#336,11.);
#133=CIRCLE('',#338,3.175);
#134=CIRCLE('',#339,3.175);
#135=CIRCLE('',#343,45.);
#136=CIRCLE('',#344,45.);
#137=CIRCLE('',#347,45.);
#138=CIRCLE('',#348,45.);
#139=CIRCLE('',#350,21.05);
#140=CIRCLE('',#351,21.05);
#141=CIRCLE('',#353,3.175);
#142=CIRCLE('',#354,3.175);
#143=CIRCLE('',#356,3.175);
#144=CIRCLE('',#357,3.175);
#145=VERTEX_POINT('',#455);
#146=VERTEX_POINT('',#457);
#147=VERTEX_POINT('',#460);
#148=VERTEX_POINT('',#464);
#149=VERTEX_POINT('',#466);
#150=VERTEX_POINT('',#470);
#151=VERTEX_POINT('',#472);
#152=VERTEX_POINT('',#476);
#153=VERTEX_POINT('',#480);
#154=VERTEX_POINT('',#482);
#155=VERTEX_POINT('',#486);
#156=VERTEX_POINT('',#487);
#157=VERTEX_POINT('',#489);
#158=VERTEX_POINT('',#491);
#159=VERTEX_POINT('',#495);
#160=VERTEX_POINT('',#497);
#161=VERTEX_POINT('',#501);
#162=VERTEX_POINT('',#503);
#163=VERTEX_POINT('',#507);
#164=VERTEX_POINT('',#509);
#165=VERTEX_POINT('',#516);
#166=VERTEX_POINT('',#518);
#167=VERTEX_POINT('',#522);
#168=VERTEX_POINT('',#524);
#169=VERTEX_POINT('',#528);
#170=VERTEX_POINT('',#530);
#171=EDGE_CURVE('',#145,#145,#125,.T.);
#172=EDGE_CURVE('',#146,#146,#126,.T.);
#173=EDGE_CURVE('',#147,#147,#127,.T.);
#174=EDGE_CURVE('',#147,#146,#15,.T.);
#175=EDGE_CURVE('',#148,#148,#128,.T.);
#176=EDGE_CURVE('',#148,#149,#16,.T.);
#177=EDGE_CURVE('',#149,#149,#129,.T.);
#178=EDGE_CURVE('',#150,#150,#130,.T.);
#179=EDGE_CURVE('',#150,#151,#17,.T.);
#180=EDGE_CURVE('',#151,#151,#131,.T.);
#181=EDGE_CURVE('',#152,#152,#132,.T.);
#182=EDGE_CURVE('',#152,#145,#18,.T.);
#183=EDGE_CURVE('',#153,#153,#133,.T.);
#184=EDGE_CURVE('',#153,#154,#19,.T.);
#185=EDGE_CURVE('',#154,#154,#134,.T.);
#186=EDGE_CURVE('',#155,#156,#20,.T.);
#187=EDGE_CURVE('',#157,#156,#21,.T.);
#188=EDGE_CURVE('',#158,#157,#22,.T.);
#189=EDGE_CURVE('',#155,#158,#23,.T.);
#190=EDGE_CURVE('',#155,#159,#24,.T.);
#191=EDGE_CURVE('',#160,#158,#25,.T.);
#192=EDGE_CURVE('',#159,#160,#26,.T.);
#193=EDGE_CURVE('',#161,#159,#135,.T.);
#194=EDGE_CURVE('',#162,#160,#136,.T.);
#195=EDGE_CURVE('',#161,#162,#27,.T.);
#196=EDGE_CURVE('',#163,#161,#28,.T.);
#197=EDGE_CURVE('',#164,#162,#29,.T.);
#198=EDGE_CURVE('',#163,#164,#30,.T.);
#199=EDGE_CURVE('',#156,#163,#137,.T.);
#200=EDGE_CURVE('',#157,#164,#138,.T.);
#201=EDGE_CURVE('',#165,#165,#139,.T.);
#202=EDGE_CURVE('',#165,#166,#31,.T.);
#203=EDGE_CURVE('',#166,#166,#140,.T.);
#204=EDGE_CURVE('',#167,#167,#141,.T.);
#205=EDGE_CURVE('',#167,#168,#32,.T.);
#206=EDGE_CURVE('',#168,#168,#142,.T.);
#207=EDGE_CURVE('',#169,#169,#143,.T.);
#208=EDGE_CURVE('',#169,#170,#33,.T.);
#209=EDGE_CURVE('',#170,#170,#144,.T.);
#210=ORIENTED_EDGE('',*,*,#171,.F.);
#211=ORIENTED_EDGE('',*,*,#172,.F.);
#212=ORIENTED_EDGE('',*,*,#173,.F.);
#213=ORIENTED_EDGE('',*,*,#174,.T.);
#214=ORIENTED_EDGE('',*,*,#172,.T.);
#215=ORIENTED_EDGE('',*,*,#174,.F.);
#216=ORIENTED_EDGE('',*,*,#175,.F.);
#217=ORIENTED_EDGE('',*,*,#176,.T.);
#218=ORIENTED_EDGE('',*,*,#177,.T.);
#219=ORIENTED_EDGE('',*,*,#176,.F.);
#220=ORIENTED_EDGE('',*,*,#178,.F.);
#221=ORIENTED_EDGE('',*,*,#179,.T.);
#222=ORIENTED_EDGE('',*,*,#180,.T.);
#223=ORIENTED_EDGE('',*,*,#179,.F.);
#224=ORIENTED_EDGE('',*,*,#181,.F.);
#225=ORIENTED_EDGE('',*,*,#182,.T.);
#226=ORIENTED_EDGE('',*,*,#171,.T.);
#227=ORIENTED_EDGE('',*,*,#182,.F.);
#228=ORIENTED_EDGE('',*,*,#183,.F.);
#229=ORIENTED_EDGE('',*,*,#184,.T.);
#230=ORIENTED_EDGE('',*,*,#185,.T.);
#231=ORIENTED_EDGE('',*,*,#184,.F.);
#232=ORIENTED_EDGE('',*,*,#186,.T.);
#233=ORIENTED_EDGE('',*,*,#187,.F.);
#234=ORIENTED_EDGE('',*,*,#188,.F.);
#235=ORIENTED_EDGE('',*,*,#189,.F.);
#236=ORIENTED_EDGE('',*,*,#190,.F.);
#237=ORIENTED_EDGE('',*,*,#189,.T.);
#238=ORIENTED_EDGE('',*,*,#191,.F.);
#239=ORIENTED_EDGE('',*,*,#192,.F.);
#240=ORIENTED_EDGE('',*,*,#193,.T.);
#241=ORIENTED_EDGE('',*,*,#192,.T.);
#242=ORIENTED_EDGE('',*,*,#194,.F.);
#243=ORIENTED_EDGE('',*,*,#195,.F.);
#244=ORIENTED_EDGE('',*,*,#196,.T.);
#245=ORIENTED_EDGE('',*,*,#195,.T.);
#246=ORIENTED_EDGE('',*,*,#197,.F.);
#247=ORIENTED_EDGE('',*,*,#198,.F.);
#248=ORIENTED_EDGE('',*,*,#187,.T.);
#249=ORIENTED_EDGE('',*,*,#199,.T.);
#250=ORIENTED_EDGE('',*,*,#198,.T.);
#251=ORIENTED_EDGE('',*,*,#200,.F.);
#252=ORIENTED_EDGE('',*,*,#201,.F.);
#253=ORIENTED_EDGE('',*,*,#202,.T.);
#254=ORIENTED_EDGE('',*,*,#203,.T.);
#255=ORIENTED_EDGE('',*,*,#202,.F.);
#256=ORIENTED_EDGE('',*,*,#204,.F.);
#257=ORIENTED_EDGE('',*,*,#205,.T.);
#258=ORIENTED_EDGE('',*,*,#206,.T.);
#259=ORIENTED_EDGE('',*,*,#205,.F.);
#260=ORIENTED_EDGE('',*,*,#207,.F.);
#261=ORIENTED_EDGE('',*,*,#208,.T.);
#262=ORIENTED_EDGE('',*,*,#209,.T.);
#263=ORIENTED_EDGE('',*,*,#208,.F.);
#264=ORIENTED_EDGE('',*,*,#200,.T.);
#265=ORIENTED_EDGE('',*,*,#197,.T.);
#266=ORIENTED_EDGE('',*,*,#194,.T.);
#267=ORIENTED_EDGE('',*,*,#191,.T.);
#268=ORIENTED_EDGE('',*,*,#188,.T.);
#269=ORIENTED_EDGE('',*,*,#175,.T.);
#270=ORIENTED_EDGE('',*,*,#178,.T.);
#271=ORIENTED_EDGE('',*,*,#181,.T.);
#272=ORIENTED_EDGE('',*,*,#183,.T.);
#273=ORIENTED_EDGE('',*,*,#207,.T.);
#274=ORIENTED_EDGE('',*,*,#204,.T.);
#275=ORIENTED_EDGE('',*,*,#201,.T.);
#276=ORIENTED_EDGE('',*,*,#199,.F.);
#277=ORIENTED_EDGE('',*,*,#186,.F.);
#278=ORIENTED_EDGE('',*,*,#190,.T.);
#279=ORIENTED_EDGE('',*,*,#193,.F.);
#280=ORIENTED_EDGE('',*,*,#196,.F.);
#281=ORIENTED_EDGE('',*,*,#173,.T.);
#282=ORIENTED_EDGE('',*,*,#203,.F.);
#283=ORIENTED_EDGE('',*,*,#206,.F.);
#284=ORIENTED_EDGE('',*,*,#209,.F.);
#285=ORIENTED_EDGE('',*,*,#185,.F.);
#286=ORIENTED_EDGE('',*,*,#180,.F.);
#287=ORIENTED_EDGE('',*,*,#177,.F.);
#288=PLANE('',#324);
#289=PLANE('',#340);
#290=PLANE('',#341);
#291=PLANE('',#345);
#292=PLANE('',#358);
#293=PLANE('',#359);
#294=ADVANCED_FACE('',(#78,#63),#288,.F.);
#295=ADVANCED_FACE('',(#79),#53,.F.);
#296=ADVANCED_FACE('',(#80),#54,.F.);
#297=ADVANCED_FACE('',(#81),#55,.F.);
#298=ADVANCED_FACE('',(#82),#56,.F.);
#299=ADVANCED_FACE('',(#83),#57,.F.);
#300=ADVANCED_FACE('',(#84),#289,.T.);
#301=ADVANCED_FACE('',(#85),#290,.T.);
#302=ADVANCED_FACE('',(#86),#58,.T.);
#303=ADVANCED_FACE('',(#87),#291,.T.);
#304=ADVANCED_FACE('',(#88),#59,.T.);
#305=ADVANCED_FACE('',(#89),#60,.F.);
#306=ADVANCED_FACE('',(#90),#61,.F.);
#307=ADVANCED_FACE('',(#91),#62,.F.);
#308=ADVANCED_FACE('',(#92,#64,#65,#66,#67,#68,#69,#70),#292,.T.);
#309=ADVANCED_FACE('',(#93,#71,#72,#73,#74,#75,#76,#77),#293,.F.);
#310=CLOSED_SHELL('',(#294,#295,#296,#297,#298,#299,#300,#301,#302,#303,
#304,#305,#306,#307,#308,#309));
#311=DERIVED_UNIT_ELEMENT(#313,1.);
#312=DERIVED_UNIT_ELEMENT(#540,-3.);
#313=(
MASS_UNIT()
NAMED_UNIT(*)
SI_UNIT(.KILO.,.GRAM.)
);
#314=DERIVED_UNIT((#311,#312));
#315=MEASURE_REPRESENTATION_ITEM('density measure',
POSITIVE_RATIO_MEASURE(7850.),#314);
#316=PROPERTY_DEFINITION_REPRESENTATION(#321,#318);
#317=PROPERTY_DEFINITION_REPRESENTATION(#322,#319);
#318=REPRESENTATION('material name',(#320),#537);
#319=REPRESENTATION('density',(#315),#537);
#320=DESCRIPTIVE_REPRESENTATION_ITEM('Steel','Steel');
#321=PROPERTY_DEFINITION('material property','material name',#547);
#322=PROPERTY_DEFINITION('material property','density of part',#547);
#323=AXIS2_PLACEMENT_3D('',#453,#360,#361);
#324=AXIS2_PLACEMENT_3D('',#454,#362,#363);
#325=AXIS2_PLACEMENT_3D('',#456,#364,#365);
#326=AXIS2_PLACEMENT_3D('',#458,#366,#367);
#327=AXIS2_PLACEMENT_3D('',#459,#368,#369);
#328=AXIS2_PLACEMENT_3D('',#461,#370,#371);
#329=AXIS2_PLACEMENT_3D('',#463,#373,#374);
#330=AXIS2_PLACEMENT_3D('',#465,#375,#376);
#331=AXIS2_PLACEMENT_3D('',#468,#378,#379);
#332=AXIS2_PLACEMENT_3D('',#469,#380,#381);
#333=AXIS2_PLACEMENT_3D('',#471,#382,#383);
#334=AXIS2_PLACEMENT_3D('',#474,#385,#386);
#335=AXIS2_PLACEMENT_3D('',#475,#387,#388);
#336=AXIS2_PLACEMENT_3D('',#477,#389,#390);
#337=AXIS2_PLACEMENT_3D('',#479,#392,#393);
#338=AXIS2_PLACEMENT_3D('',#481,#394,#395);
#339=AXIS2_PLACEMENT_3D('',#484,#397,#398);
#340=AXIS2_PLACEMENT_3D('',#485,#399,#400);
#341=AXIS2_PLACEMENT_3D('',#494,#405,#406);
#342=AXIS2_PLACEMENT_3D('',#500,#410,#411);
#343=AXIS2_PLACEMENT_3D('',#502,#412,#413);
#344=AXIS2_PLACEMENT_3D('',#504,#414,#415);
#345=AXIS2_PLACEMENT_3D('',#506,#417,#418);
#346=AXIS2_PLACEMENT_3D('',#512,#422,#423);
#347=AXIS2_PLACEMENT_3D('',#513,#424,#425);
#348=AXIS2_PLACEMENT_3D('',#514,#426,#427);
#349=AXIS2_PLACEMENT_3D('',#515,#428,#429);
#350=AXIS2_PLACEMENT_3D('',#517,#430,#431);
#351=AXIS2_PLACEMENT_3D('',#520,#433,#434);
#352=AXIS2_PLACEMENT_3D('',#521,#435,#436);
#353=AXIS2_PLACEMENT_3D('',#523,#437,#438);
#354=AXIS2_PLACEMENT_3D('',#526,#440,#441);
#355=AXIS2_PLACEMENT_3D('',#527,#442,#443);
#356=AXIS2_PLACEMENT_3D('',#529,#444,#445);
#357=AXIS2_PLACEMENT_3D('',#532,#447,#448);
#358=AXIS2_PLACEMENT_3D('',#533,#449,#450);
#359=AXIS2_PLACEMENT_3D('',#534,#451,#452);
#360=DIRECTION('axis',(0.,0.,1.));
#361=DIRECTION('refdir',(1.,0.,0.));
#362=DIRECTION('center_axis',(0.,-1.,0.));
#363=DIRECTION('ref_axis',(1.,0.,0.));
#364=DIRECTION('center_axis',(0.,-1.,0.));
#365=DIRECTION('ref_axis',(1.,0.,0.));
#366=DIRECTION('center_axis',(0.,1.,0.));
#367=DIRECTION('ref_axis',(1.,0.,0.));
#368=DIRECTION('center_axis',(0.,-1.,0.));
#369=DIRECTION('ref_axis',(1.,0.,0.));
#370=DIRECTION('center_axis',(0.,1.,0.));
#371=DIRECTION('ref_axis',(1.,0.,0.));
#372=DIRECTION('',(0.,1.,0.));
#373=DIRECTION('center_axis',(0.,1.,0.));
#374=DIRECTION('ref_axis',(1.,0.,0.));
#375=DIRECTION('center_axis',(0.,-1.,0.));
#376=DIRECTION('ref_axis',(1.,0.,0.));
#377=DIRECTION('',(0.,-1.,0.));
#378=DIRECTION('center_axis',(0.,-1.,0.));
#379=DIRECTION('ref_axis',(1.,0.,0.));
#380=DIRECTION('center_axis',(0.,1.,0.));
#381=DIRECTION('ref_axis',(1.,0.,0.));
#382=DIRECTION('center_axis',(0.,-1.,0.));
#383=DIRECTION('ref_axis',(1.,0.,0.));
#384=DIRECTION('',(0.,-1.,0.));
#385=DIRECTION('center_axis',(0.,-1.,0.));
#386=DIRECTION('ref_axis',(1.,0.,0.));
#387=DIRECTION('center_axis',(0.,1.,0.));
#388=DIRECTION('ref_axis',(1.,0.,0.));
#389=DIRECTION('center_axis',(0.,-1.,0.));
#390=DIRECTION('ref_axis',(1.,0.,0.));
#391=DIRECTION('',(0.,-1.,0.));
#392=DIRECTION('center_axis',(0.,1.,0.));
#393=DIRECTION('ref_axis',(1.,0.,0.));
#394=DIRECTION('center_axis',(0.,-1.,0.));
#395=DIRECTION('ref_axis',(1.,0.,0.));
#396=DIRECTION('',(0.,-1.,0.));
#397=DIRECTION('center_axis',(0.,-1.,0.));
#398=DIRECTION('ref_axis',(1.,0.,0.));
#399=DIRECTION('center_axis',(-1.30307766855178E-5,0.,0.999999999915099));
#400=DIRECTION('ref_axis',(0.999999999915099,0.,1.30307766855178E-5));
#401=DIRECTION('',(0.999999999915099,0.,1.30307766855178E-5));
#402=DIRECTION('',(0.,-1.,0.));
#403=DIRECTION('',(0.999999999915099,0.,1.30307766855178E-5));
#404=DIRECTION('',(0.,1.,0.));
#405=DIRECTION('center_axis',(-1.,0.,0.));
#406=DIRECTION('ref_axis',(0.,0.,1.));
#407=DIRECTION('',(0.,0.,-1.));
#408=DIRECTION('',(0.,0.,1.));
#409=DIRECTION('',(0.,1.,0.));
#410=DIRECTION('center_axis',(0.,1.,0.));
#411=DIRECTION('ref_axis',(7.37674407397352E-7,0.,-0.999999999999728));
#412=DIRECTION('center_axis',(0.,1.,0.));
#413=DIRECTION('ref_axis',(1.,0.,0.));
#414=DIRECTION('center_axis',(0.,1.,0.));
#415=DIRECTION('ref_axis',(1.,0.,0.));
#416=DIRECTION('',(0.,1.,0.));
#417=DIRECTION('center_axis',(1.,0.,0.));
#418=DIRECTION('ref_axis',(0.,0.,-1.));
#419=DIRECTION('',(0.,0.,-1.));
#420=DIRECTION('',(0.,0.,-1.));
#421=DIRECTION('',(0.,1.,0.));
#422=DIRECTION('center_axis',(0.,1.,0.));
#423=DIRECTION('ref_axis',(5.07309143630724E-12,0.,1.));
#424=DIRECTION('center_axis',(0.,1.,0.));
#425=DIRECTION('ref_axis',(1.,0.,0.));
#426=DIRECTION('center_axis',(0.,1.,0.));
#427=DIRECTION('ref_axis',(1.,0.,0.));
#428=DIRECTION('center_axis',(0.,1.,0.));
#429=DIRECTION('ref_axis',(1.,0.,0.));
#430=DIRECTION('center_axis',(0.,-1.,0.));
#431=DIRECTION('ref_axis',(1.,0.,0.));
#432=DIRECTION('',(0.,-1.,0.));
#433=DIRECTION('center_axis',(0.,-1.,0.));
#434=DIRECTION('ref_axis',(1.,0.,0.));
#435=DIRECTION('center_axis',(0.,1.,0.));
#436=DIRECTION('ref_axis',(1.,0.,0.));
#437=DIRECTION('center_axis',(0.,-1.,0.));
#438=DIRECTION('ref_axis',(1.,0.,0.));
#439=DIRECTION('',(0.,-1.,0.));
#440=DIRECTION('center_axis',(0.,-1.,0.));
#441=DIRECTION('ref_axis',(1.,0.,0.));
#442=DIRECTION('center_axis',(0.,1.,0.));
#443=DIRECTION('ref_axis',(1.,0.,0.));
#444=DIRECTION('center_axis',(0.,-1.,0.));
#445=DIRECTION('ref_axis',(1.,0.,0.));
#446=DIRECTION('',(0.,-1.,0.));
#447=DIRECTION('center_axis',(0.,-1.,0.));
#448=DIRECTION('ref_axis',(1.,0.,0.));
#449=DIRECTION('center_axis',(0.,1.,0.));
#450=DIRECTION('ref_axis',(1.,0.,0.));
#451=DIRECTION('center_axis',(0.,1.,0.));
#452=DIRECTION('ref_axis',(1.,0.,0.));
#453=CARTESIAN_POINT('',(0.,0.,0.));
#454=CARTESIAN_POINT('Origin',(0.,7.,85.));
#455=CARTESIAN_POINT('',(-11.,7.,85.));
#456=CARTESIAN_POINT('Origin',(0.,7.,85.));
#457=CARTESIAN_POINT('',(-4.1,7.,85.));
#458=CARTESIAN_POINT('Origin',(0.,7.,85.));
#459=CARTESIAN_POINT('Origin',(0.,7.,85.));
#460=CARTESIAN_POINT('',(-4.1,0.,85.));
#461=CARTESIAN_POINT('Origin',(0.,0.,85.));
#462=CARTESIAN_POINT('',(-4.1,7.,85.));
#463=CARTESIAN_POINT('Origin',(0.,0.,-30.));
#464=CARTESIAN_POINT('',(-3.175,14.,-30.));
#465=CARTESIAN_POINT('Origin',(0.,14.,-30.));
#466=CARTESIAN_POINT('',(-3.175,0.,-30.));
#467=CARTESIAN_POINT('',(-3.175,0.,-30.));
#468=CARTESIAN_POINT('Origin',(0.,0.,-30.));
#469=CARTESIAN_POINT('Origin',(0.,0.,0.));
#470=CARTESIAN_POINT('',(-21.05,14.,4.44089209850063E-15));
#471=CARTESIAN_POINT('Origin',(0.,14.,0.));
#472=CARTESIAN_POINT('',(-21.05,0.,2.57788151220518E-15));
#473=CARTESIAN_POINT('',(-21.05,0.,2.57788151220518E-15));
#474=CARTESIAN_POINT('Origin',(0.,0.,0.));
#475=CARTESIAN_POINT('Origin',(0.,0.,85.));
#476=CARTESIAN_POINT('',(-11.,14.,85.));
#477=CARTESIAN_POINT('Origin',(0.,14.,85.));
#478=CARTESIAN_POINT('',(-11.,0.,85.));
#479=CARTESIAN_POINT('Origin',(0.,0.,30.));
#480=CARTESIAN_POINT('',(-3.175,14.,30.));
#481=CARTESIAN_POINT('Origin',(0.,14.,30.));
#482=CARTESIAN_POINT('',(-3.175,0.,30.));
#483=CARTESIAN_POINT('',(-3.175,0.,30.));
#484=CARTESIAN_POINT('Origin',(0.,0.,30.));
#485=CARTESIAN_POINT('Origin',(-39.7970154946537,0.,148.995238057021));
#486=CARTESIAN_POINT('',(-39.7970154946537,0.,148.995238057021));
#487=CARTESIAN_POINT('',(-39.7969845055595,0.,148.995238057425));
#488=CARTESIAN_POINT('',(-39.7970154946537,0.,148.995238057021));
#489=CARTESIAN_POINT('',(-39.7969845055595,14.,148.995238057425));
#490=CARTESIAN_POINT('',(-39.7969845055595,0.,148.995238057425));
#491=CARTESIAN_POINT('',(-39.7970154946537,14.,148.995238057021));
#492=CARTESIAN_POINT('',(-39.7970154946537,14.,148.995238057021));
#493=CARTESIAN_POINT('',(-39.7970154946537,0.,148.995238057021));
#494=CARTESIAN_POINT('Origin',(-39.7970154946537,0.,21.0047032285223));
#495=CARTESIAN_POINT('',(-39.7970154946537,0.,21.0047032285223));
#496=CARTESIAN_POINT('',(-39.7970154946537,0.,148.995238057021));
#497=CARTESIAN_POINT('',(-39.7970154946537,14.,21.0047032285223));
#498=CARTESIAN_POINT('',(-39.7970154946537,14.,148.995238057021));
#499=CARTESIAN_POINT('',(-39.7970154946537,0.,21.0047032285223));
#500=CARTESIAN_POINT('Origin',(0.,0.,0.));
#501=CARTESIAN_POINT('',(39.7969845053463,0.,21.0047619429791));
#502=CARTESIAN_POINT('Origin',(0.,0.,0.));
#503=CARTESIAN_POINT('',(39.7969845053463,14.,21.0047619429791));
#504=CARTESIAN_POINT('Origin',(0.,14.,0.));
#505=CARTESIAN_POINT('',(39.7969845053463,0.,21.0047619429791));
#506=CARTESIAN_POINT('Origin',(39.7969845053463,0.,148.995238057021));
#507=CARTESIAN_POINT('',(39.7969845053463,0.,148.995238057021));
#508=CARTESIAN_POINT('',(39.7969845053463,0.,148.99627522866));
#509=CARTESIAN_POINT('',(39.7969845053463,14.,148.995238057021));
#510=CARTESIAN_POINT('',(39.7969845053463,14.,148.99627522866));
#511=CARTESIAN_POINT('',(39.7969845053463,0.,148.995238057021));
#512=CARTESIAN_POINT('Origin',(0.,0.,170.));
#513=CARTESIAN_POINT('Origin',(0.,0.,170.));
#514=CARTESIAN_POINT('Origin',(0.,14.,170.));
#515=CARTESIAN_POINT('Origin',(0.,0.,170.));
#516=CARTESIAN_POINT('',(-21.05,14.,170.));
#517=CARTESIAN_POINT('Origin',(0.,14.,170.));
#518=CARTESIAN_POINT('',(-21.05,0.,170.));
#519=CARTESIAN_POINT('',(-21.05,0.,170.));
#520=CARTESIAN_POINT('Origin',(0.,0.,170.));
#521=CARTESIAN_POINT('Origin',(0.,0.,200.));
#522=CARTESIAN_POINT('',(-3.175,14.,200.));
#523=CARTESIAN_POINT('Origin',(0.,14.,200.));
#524=CARTESIAN_POINT('',(-3.175,0.,200.));
#525=CARTESIAN_POINT('',(-3.175,0.,200.));
#526=CARTESIAN_POINT('Origin',(0.,0.,200.));
#527=CARTESIAN_POINT('Origin',(0.,0.,140.));
#528=CARTESIAN_POINT('',(-3.175,14.,140.));
#529=CARTESIAN_POINT('Origin',(0.,14.,140.));
#530=CARTESIAN_POINT('',(-3.175,0.,140.));
#531=CARTESIAN_POINT('',(-3.175,0.,140.));
#532=CARTESIAN_POINT('Origin',(0.,0.,140.));
#533=CARTESIAN_POINT('Origin',(0.,14.,170.));
#534=CARTESIAN_POINT('Origin',(0.,0.,170.));
#535=UNCERTAINTY_MEASURE_WITH_UNIT(LENGTH_MEASURE(0.01),#539,
'DISTANCE_ACCURACY_VALUE',
'Maximum model space distance between geometric entities at asserted c
onnectivities');
#536=UNCERTAINTY_MEASURE_WITH_UNIT(LENGTH_MEASURE(0.01),#539,
'DISTANCE_ACCURACY_VALUE',
'Maximum model space distance between geometric entities at asserted c
onnectivities');
#537=(
GEOMETRIC_REPRESENTATION_CONTEXT(3)
GLOBAL_UNCERTAINTY_ASSIGNED_CONTEXT((#535))
GLOBAL_UNIT_ASSIGNED_CONTEXT((#539,#541,#542))
REPRESENTATION_CONTEXT('','3D')
);
#538=(
GEOMETRIC_REPRESENTATION_CONTEXT(3)
GLOBAL_UNCERTAINTY_ASSIGNED_CONTEXT((#536))
GLOBAL_UNIT_ASSIGNED_CONTEXT((#539,#541,#542))
REPRESENTATION_CONTEXT('','3D')
);
#539=(
LENGTH_UNIT()
NAMED_UNIT(*)
SI_UNIT(.MILLI.,.METRE.)
);
#540=(
LENGTH_UNIT()
NAMED_UNIT(*)
SI_UNIT($,.METRE.)
);
#541=(
NAMED_UNIT(*)
PLANE_ANGLE_UNIT()
SI_UNIT($,.RADIAN.)
);
#542=(
NAMED_UNIT(*)
SI_UNIT($,.STERADIAN.)
SOLID_ANGLE_UNIT()
);
#543=SHAPE_DEFINITION_REPRESENTATION(#544,#545);
#544=PRODUCT_DEFINITION_SHAPE('',$,#547);
#545=SHAPE_REPRESENTATION('',(#323),#537);
#546=PRODUCT_DEFINITION_CONTEXT('part definition',#551,'design');
#547=PRODUCT_DEFINITION('2026-07-13-19-21-05-383','back mount',#548,#546);
#548=PRODUCT_DEFINITION_FORMATION('',$,#553);
#549=PRODUCT_RELATED_PRODUCT_CATEGORY('back mount','back mount',(#553));
#550=APPLICATION_PROTOCOL_DEFINITION('international standard',
'automotive_design',2009,#551);
#551=APPLICATION_CONTEXT(
'Core Data for Automotive Mechanical Design Process');
#552=PRODUCT_CONTEXT('part definition',#551,'mechanical');
#553=PRODUCT('2026-07-13-19-21-05-383','back mount',$,(#552));
#554=PRESENTATION_STYLE_ASSIGNMENT((#555));
#555=SURFACE_STYLE_USAGE(.BOTH.,#556);
#556=SURFACE_SIDE_STYLE('',(#557));
#557=SURFACE_STYLE_FILL_AREA(#558);
#558=FILL_AREA_STYLE('Polymide (Kapton)',(#559));
#559=FILL_AREA_STYLE_COLOUR('Polymide (Kapton)',#560);
#560=COLOUR_RGB('Polymide (Kapton)',0.784313725490196,0.556862745098039,
0.0274509803921569);
ENDSEC;
END-ISO-10303-21;
