ISO-10303-21;
HEADER;
/* Generated by software containing ST-Developer
 * from STEP Tools, Inc. (www.steptools.com) 
 */

FILE_DESCRIPTION(
/* description */ (''),
/* implementation_level */ '2;1');

FILE_NAME(
/* name */ 'motor.step',
/* time_stamp */ '2026-09-04T15:51:11-04:00',
/* author */ (''),
/* organization */ (''),
/* preprocessor_version */ 'ST-DEVELOPER v20.1',
/* originating_system */ 'Autodesk Translation Framework v15.8.0.0',
/* authorisation */ '');

FILE_SCHEMA (('AUTOMOTIVE_DESIGN { 1 0 10303 214 3 1 1 }'));
ENDSEC;

DATA;
#10=MECHANICAL_DESIGN_GEOMETRIC_PRESENTATION_REPRESENTATION('',(#368,#369,
#370,#371,#372,#373,#374,#375,#376,#377,#378,#379,#380,#381,#382),#707);
#11=SHAPE_REPRESENTATION_RELATIONSHIP('SRR','None',#714,#12);
#12=ADVANCED_BREP_SHAPE_REPRESENTATION('',(#13),#706);
#13=MANIFOLD_SOLID_BREP('Body2',#409);
#14=CYLINDRICAL_SURFACE('',#437,2.5);
#15=CYLINDRICAL_SURFACE('',#441,8.00000011920929);
#16=CYLINDRICAL_SURFACE('',#445,21.0000001564622);
#17=CYLINDRICAL_SURFACE('',#449,22.0000003278255);
#18=CYLINDRICAL_SURFACE('',#453,21.);
#19=CYLINDRICAL_SURFACE('',#457,9.);
#20=CYLINDRICAL_SURFACE('',#461,2.5);
#21=CIRCLE('',#436,2.5);
#22=CIRCLE('',#438,2.5);
#23=CIRCLE('',#440,8.00000011920929);
#24=CIRCLE('',#442,8.00000011920929);
#25=CIRCLE('',#444,21.);
#26=CIRCLE('',#446,21.0000003129244);
#27=CIRCLE('',#448,22.0000003278255);
#28=CIRCLE('',#450,22.0000003278255);
#29=CIRCLE('',#452,21.);
#30=CIRCLE('',#454,21.);
#31=CIRCLE('',#456,9.);
#32=CIRCLE('',#458,9.);
#33=CIRCLE('',#460,2.5);
#34=CIRCLE('',#462,2.5);
#35=FACE_BOUND('',#91,.T.);
#36=FACE_BOUND('',#94,.T.);
#37=FACE_BOUND('',#105,.T.);
#38=FACE_BOUND('',#108,.T.);
#39=FACE_BOUND('',#109,.T.);
#40=FACE_BOUND('',#110,.T.);
#41=FACE_BOUND('',#113,.T.);
#42=FACE_BOUND('',#116,.T.);
#43=FACE_BOUND('',#119,.T.);
#44=FACE_BOUND('',#122,.T.);
#45=PLANE('',#425);
#46=PLANE('',#426);
#47=PLANE('',#427);
#48=PLANE('',#428);
#49=PLANE('',#429);
#50=PLANE('',#430);
#51=PLANE('',#431);
#52=PLANE('',#432);
#53=PLANE('',#433);
#54=PLANE('',#434);
#55=PLANE('',#435);
#56=PLANE('',#439);
#57=PLANE('',#443);
#58=PLANE('',#447);
#59=PLANE('',#451);
#60=PLANE('',#455);
#61=PLANE('',#459);
#62=PLANE('',#463);
#63=FACE_OUTER_BOUND('',#89,.T.);
#64=FACE_OUTER_BOUND('',#90,.T.);
#65=FACE_OUTER_BOUND('',#92,.T.);
#66=FACE_OUTER_BOUND('',#93,.T.);
#67=FACE_OUTER_BOUND('',#95,.T.);
#68=FACE_OUTER_BOUND('',#96,.T.);
#69=FACE_OUTER_BOUND('',#97,.T.);
#70=FACE_OUTER_BOUND('',#98,.T.);
#71=FACE_OUTER_BOUND('',#99,.T.);
#72=FACE_OUTER_BOUND('',#100,.T.);
#73=FACE_OUTER_BOUND('',#101,.T.);
#74=FACE_OUTER_BOUND('',#102,.T.);
#75=FACE_OUTER_BOUND('',#103,.T.);
#76=FACE_OUTER_BOUND('',#104,.T.);
#77=FACE_OUTER_BOUND('',#106,.T.);
#78=FACE_OUTER_BOUND('',#107,.T.);
#79=FACE_OUTER_BOUND('',#111,.T.);
#80=FACE_OUTER_BOUND('',#112,.T.);
#81=FACE_OUTER_BOUND('',#114,.T.);
#82=FACE_OUTER_BOUND('',#115,.T.);
#83=FACE_OUTER_BOUND('',#117,.T.);
#84=FACE_OUTER_BOUND('',#118,.T.);
#85=FACE_OUTER_BOUND('',#120,.T.);
#86=FACE_OUTER_BOUND('',#121,.T.);
#87=FACE_OUTER_BOUND('',#123,.T.);
#88=FACE_OUTER_BOUND('',#124,.T.);
#89=EDGE_LOOP('',(#271,#272,#273,#274));
#90=EDGE_LOOP('',(#275,#276,#277,#278));
#91=EDGE_LOOP('',(#279));
#92=EDGE_LOOP('',(#280,#281,#282,#283));
#93=EDGE_LOOP('',(#284,#285,#286,#287));
#94=EDGE_LOOP('',(#288));
#95=EDGE_LOOP('',(#289,#290,#291,#292));
#96=EDGE_LOOP('',(#293,#294,#295,#296));
#97=EDGE_LOOP('',(#297,#298,#299,#300));
#98=EDGE_LOOP('',(#301,#302,#303,#304));
#99=EDGE_LOOP('',(#305,#306,#307,#308));
#100=EDGE_LOOP('',(#309,#310,#311,#312));
#101=EDGE_LOOP('',(#313,#314,#315,#316));
#102=EDGE_LOOP('',(#317));
#103=EDGE_LOOP('',(#318,#319,#320,#321));
#104=EDGE_LOOP('',(#322));
#105=EDGE_LOOP('',(#323));
#106=EDGE_LOOP('',(#324,#325,#326,#327));
#107=EDGE_LOOP('',(#328));
#108=EDGE_LOOP('',(#329,#330,#331,#332));
#109=EDGE_LOOP('',(#333,#334,#335,#336));
#110=EDGE_LOOP('',(#337));
#111=EDGE_LOOP('',(#338,#339,#340,#341));
#112=EDGE_LOOP('',(#342));
#113=EDGE_LOOP('',(#343));
#114=EDGE_LOOP('',(#344,#345,#346,#347));
#115=EDGE_LOOP('',(#348));
#116=EDGE_LOOP('',(#349));
#117=EDGE_LOOP('',(#350,#351,#352,#353));
#118=EDGE_LOOP('',(#354));
#119=EDGE_LOOP('',(#355));
#120=EDGE_LOOP('',(#356,#357,#358,#359));
#121=EDGE_LOOP('',(#360));
#122=EDGE_LOOP('',(#361));
#123=EDGE_LOOP('',(#362,#363,#364,#365));
#124=EDGE_LOOP('',(#366));
#125=LINE('',#602,#157);
#126=LINE('',#607,#158);
#127=LINE('',#609,#159);
#128=LINE('',#611,#160);
#129=LINE('',#612,#161);
#130=LINE('',#615,#162);
#131=LINE('',#617,#163);
#132=LINE('',#618,#164);
#133=LINE('',#621,#165);
#134=LINE('',#623,#166);
#135=LINE('',#624,#167);
#136=LINE('',#626,#168);
#137=LINE('',#627,#169);
#138=LINE('',#632,#170);
#139=LINE('',#634,#171);
#140=LINE('',#636,#172);
#141=LINE('',#637,#173);
#142=LINE('',#640,#174);
#143=LINE('',#642,#175);
#144=LINE('',#643,#176);
#145=LINE('',#646,#177);
#146=LINE('',#648,#178);
#147=LINE('',#649,#179);
#148=LINE('',#651,#180);
#149=LINE('',#652,#181);
#150=LINE('',#660,#182);
#151=LINE('',#667,#183);
#152=LINE('',#674,#184);
#153=LINE('',#681,#185);
#154=LINE('',#688,#186);
#155=LINE('',#695,#187);
#156=LINE('',#702,#188);
#157=VECTOR('',#468,1.70000018551946);
#158=VECTOR('',#473,10.);
#159=VECTOR('',#474,10.);
#160=VECTOR('',#475,10.);
#161=VECTOR('',#476,10.);
#162=VECTOR('',#479,10.);
#163=VECTOR('',#480,10.);
#164=VECTOR('',#481,10.);
#165=VECTOR('',#484,10.);
#166=VECTOR('',#485,10.);
#167=VECTOR('',#486,10.);
#168=VECTOR('',#489,10.);
#169=VECTOR('',#490,10.);
#170=VECTOR('',#495,10.);
#171=VECTOR('',#496,10.);
#172=VECTOR('',#497,10.);
#173=VECTOR('',#498,10.);
#174=VECTOR('',#501,10.);
#175=VECTOR('',#502,10.);
#176=VECTOR('',#503,10.);
#177=VECTOR('',#506,10.);
#178=VECTOR('',#507,10.);
#179=VECTOR('',#508,10.);
#180=VECTOR('',#511,10.);
#181=VECTOR('',#512,10.);
#182=VECTOR('',#523,2.5);
#183=VECTOR('',#532,8.00000011920929);
#184=VECTOR('',#541,21.0000001564622);
#185=VECTOR('',#550,22.0000003278255);
#186=VECTOR('',#559,21.);
#187=VECTOR('',#568,9.);
#188=VECTOR('',#577,2.5);
#189=ELLIPSE('',#423,1.70000018551946,1.24150390541844);
#190=ELLIPSE('',#424,1.70000018551946,1.24150390541844);
#191=VERTEX_POINT('',#599);
#192=VERTEX_POINT('',#601);
#193=VERTEX_POINT('',#605);
#194=VERTEX_POINT('',#606);
#195=VERTEX_POINT('',#608);
#196=VERTEX_POINT('',#610);
#197=VERTEX_POINT('',#614);
#198=VERTEX_POINT('',#616);
#199=VERTEX_POINT('',#620);
#200=VERTEX_POINT('',#622);
#201=VERTEX_POINT('',#630);
#202=VERTEX_POINT('',#631);
#203=VERTEX_POINT('',#633);
#204=VERTEX_POINT('',#635);
#205=VERTEX_POINT('',#639);
#206=VERTEX_POINT('',#641);
#207=VERTEX_POINT('',#645);
#208=VERTEX_POINT('',#647);
#209=VERTEX_POINT('',#655);
#210=VERTEX_POINT('',#658);
#211=VERTEX_POINT('',#662);
#212=VERTEX_POINT('',#665);
#213=VERTEX_POINT('',#669);
#214=VERTEX_POINT('',#672);
#215=VERTEX_POINT('',#676);
#216=VERTEX_POINT('',#679);
#217=VERTEX_POINT('',#683);
#218=VERTEX_POINT('',#686);
#219=VERTEX_POINT('',#690);
#220=VERTEX_POINT('',#693);
#221=VERTEX_POINT('',#697);
#222=VERTEX_POINT('',#700);
#223=EDGE_CURVE('',#191,#191,#189,.T.);
#224=EDGE_CURVE('',#191,#192,#125,.T.);
#225=EDGE_CURVE('',#192,#192,#190,.T.);
#226=EDGE_CURVE('',#193,#194,#126,.T.);
#227=EDGE_CURVE('',#193,#195,#127,.T.);
#228=EDGE_CURVE('',#196,#195,#128,.T.);
#229=EDGE_CURVE('',#194,#196,#129,.T.);
#230=EDGE_CURVE('',#194,#197,#130,.T.);
#231=EDGE_CURVE('',#198,#196,#131,.T.);
#232=EDGE_CURVE('',#197,#198,#132,.T.);
#233=EDGE_CURVE('',#197,#199,#133,.T.);
#234=EDGE_CURVE('',#200,#198,#134,.T.);
#235=EDGE_CURVE('',#199,#200,#135,.T.);
#236=EDGE_CURVE('',#199,#193,#136,.T.);
#237=EDGE_CURVE('',#195,#200,#137,.T.);
#238=EDGE_CURVE('',#201,#202,#138,.T.);
#239=EDGE_CURVE('',#201,#203,#139,.T.);
#240=EDGE_CURVE('',#204,#203,#140,.T.);
#241=EDGE_CURVE('',#202,#204,#141,.T.);
#242=EDGE_CURVE('',#202,#205,#142,.T.);
#243=EDGE_CURVE('',#206,#204,#143,.T.);
#244=EDGE_CURVE('',#205,#206,#144,.T.);
#245=EDGE_CURVE('',#205,#207,#145,.T.);
#246=EDGE_CURVE('',#208,#206,#146,.T.);
#247=EDGE_CURVE('',#207,#208,#147,.T.);
#248=EDGE_CURVE('',#207,#201,#148,.T.);
#249=EDGE_CURVE('',#203,#208,#149,.T.);
#250=EDGE_CURVE('',#209,#209,#21,.T.);
#251=EDGE_CURVE('',#210,#210,#22,.T.);
#252=EDGE_CURVE('',#210,#209,#150,.T.);
#253=EDGE_CURVE('',#211,#211,#23,.T.);
#254=EDGE_CURVE('',#212,#212,#24,.T.);
#255=EDGE_CURVE('',#212,#211,#151,.T.);
#256=EDGE_CURVE('',#213,#213,#25,.T.);
#257=EDGE_CURVE('',#214,#214,#26,.T.);
#258=EDGE_CURVE('',#214,#213,#152,.T.);
#259=EDGE_CURVE('',#215,#215,#27,.T.);
#260=EDGE_CURVE('',#216,#216,#28,.T.);
#261=EDGE_CURVE('',#216,#215,#153,.T.);
#262=EDGE_CURVE('',#217,#217,#29,.T.);
#263=EDGE_CURVE('',#218,#218,#30,.T.);
#264=EDGE_CURVE('',#218,#217,#154,.T.);
#265=EDGE_CURVE('',#219,#219,#31,.T.);
#266=EDGE_CURVE('',#220,#220,#32,.T.);
#267=EDGE_CURVE('',#220,#219,#155,.T.);
#268=EDGE_CURVE('',#221,#221,#33,.T.);
#269=EDGE_CURVE('',#222,#222,#34,.T.);
#270=EDGE_CURVE('',#222,#221,#156,.T.);
#271=ORIENTED_EDGE('',*,*,#223,.F.);
#272=ORIENTED_EDGE('',*,*,#224,.T.);
#273=ORIENTED_EDGE('',*,*,#225,.F.);
#274=ORIENTED_EDGE('',*,*,#224,.F.);
#275=ORIENTED_EDGE('',*,*,#226,.F.);
#276=ORIENTED_EDGE('',*,*,#227,.T.);
#277=ORIENTED_EDGE('',*,*,#228,.F.);
#278=ORIENTED_EDGE('',*,*,#229,.F.);
#279=ORIENTED_EDGE('',*,*,#223,.T.);
#280=ORIENTED_EDGE('',*,*,#230,.F.);
#281=ORIENTED_EDGE('',*,*,#229,.T.);
#282=ORIENTED_EDGE('',*,*,#231,.F.);
#283=ORIENTED_EDGE('',*,*,#232,.F.);
#284=ORIENTED_EDGE('',*,*,#233,.F.);
#285=ORIENTED_EDGE('',*,*,#232,.T.);
#286=ORIENTED_EDGE('',*,*,#234,.F.);
#287=ORIENTED_EDGE('',*,*,#235,.F.);
#288=ORIENTED_EDGE('',*,*,#225,.T.);
#289=ORIENTED_EDGE('',*,*,#236,.F.);
#290=ORIENTED_EDGE('',*,*,#235,.T.);
#291=ORIENTED_EDGE('',*,*,#237,.F.);
#292=ORIENTED_EDGE('',*,*,#227,.F.);
#293=ORIENTED_EDGE('',*,*,#237,.T.);
#294=ORIENTED_EDGE('',*,*,#234,.T.);
#295=ORIENTED_EDGE('',*,*,#231,.T.);
#296=ORIENTED_EDGE('',*,*,#228,.T.);
#297=ORIENTED_EDGE('',*,*,#238,.F.);
#298=ORIENTED_EDGE('',*,*,#239,.T.);
#299=ORIENTED_EDGE('',*,*,#240,.F.);
#300=ORIENTED_EDGE('',*,*,#241,.F.);
#301=ORIENTED_EDGE('',*,*,#242,.F.);
#302=ORIENTED_EDGE('',*,*,#241,.T.);
#303=ORIENTED_EDGE('',*,*,#243,.F.);
#304=ORIENTED_EDGE('',*,*,#244,.F.);
#305=ORIENTED_EDGE('',*,*,#245,.F.);
#306=ORIENTED_EDGE('',*,*,#244,.T.);
#307=ORIENTED_EDGE('',*,*,#246,.F.);
#308=ORIENTED_EDGE('',*,*,#247,.F.);
#309=ORIENTED_EDGE('',*,*,#248,.F.);
#310=ORIENTED_EDGE('',*,*,#247,.T.);
#311=ORIENTED_EDGE('',*,*,#249,.F.);
#312=ORIENTED_EDGE('',*,*,#239,.F.);
#313=ORIENTED_EDGE('',*,*,#249,.T.);
#314=ORIENTED_EDGE('',*,*,#246,.T.);
#315=ORIENTED_EDGE('',*,*,#243,.T.);
#316=ORIENTED_EDGE('',*,*,#240,.T.);
#317=ORIENTED_EDGE('',*,*,#250,.F.);
#318=ORIENTED_EDGE('',*,*,#251,.F.);
#319=ORIENTED_EDGE('',*,*,#252,.T.);
#320=ORIENTED_EDGE('',*,*,#250,.T.);
#321=ORIENTED_EDGE('',*,*,#252,.F.);
#322=ORIENTED_EDGE('',*,*,#253,.F.);
#323=ORIENTED_EDGE('',*,*,#251,.T.);
#324=ORIENTED_EDGE('',*,*,#254,.F.);
#325=ORIENTED_EDGE('',*,*,#255,.T.);
#326=ORIENTED_EDGE('',*,*,#253,.T.);
#327=ORIENTED_EDGE('',*,*,#255,.F.);
#328=ORIENTED_EDGE('',*,*,#256,.F.);
#329=ORIENTED_EDGE('',*,*,#226,.T.);
#330=ORIENTED_EDGE('',*,*,#230,.T.);
#331=ORIENTED_EDGE('',*,*,#233,.T.);
#332=ORIENTED_EDGE('',*,*,#236,.T.);
#333=ORIENTED_EDGE('',*,*,#238,.T.);
#334=ORIENTED_EDGE('',*,*,#242,.T.);
#335=ORIENTED_EDGE('',*,*,#245,.T.);
#336=ORIENTED_EDGE('',*,*,#248,.T.);
#337=ORIENTED_EDGE('',*,*,#254,.T.);
#338=ORIENTED_EDGE('',*,*,#257,.F.);
#339=ORIENTED_EDGE('',*,*,#258,.T.);
#340=ORIENTED_EDGE('',*,*,#256,.T.);
#341=ORIENTED_EDGE('',*,*,#258,.F.);
#342=ORIENTED_EDGE('',*,*,#259,.F.);
#343=ORIENTED_EDGE('',*,*,#257,.T.);
#344=ORIENTED_EDGE('',*,*,#260,.F.);
#345=ORIENTED_EDGE('',*,*,#261,.T.);
#346=ORIENTED_EDGE('',*,*,#259,.T.);
#347=ORIENTED_EDGE('',*,*,#261,.F.);
#348=ORIENTED_EDGE('',*,*,#260,.T.);
#349=ORIENTED_EDGE('',*,*,#262,.F.);
#350=ORIENTED_EDGE('',*,*,#263,.F.);
#351=ORIENTED_EDGE('',*,*,#264,.T.);
#352=ORIENTED_EDGE('',*,*,#262,.T.);
#353=ORIENTED_EDGE('',*,*,#264,.F.);
#354=ORIENTED_EDGE('',*,*,#263,.T.);
#355=ORIENTED_EDGE('',*,*,#265,.F.);
#356=ORIENTED_EDGE('',*,*,#266,.F.);
#357=ORIENTED_EDGE('',*,*,#267,.T.);
#358=ORIENTED_EDGE('',*,*,#265,.T.);
#359=ORIENTED_EDGE('',*,*,#267,.F.);
#360=ORIENTED_EDGE('',*,*,#266,.T.);
#361=ORIENTED_EDGE('',*,*,#268,.F.);
#362=ORIENTED_EDGE('',*,*,#269,.F.);
#363=ORIENTED_EDGE('',*,*,#270,.T.);
#364=ORIENTED_EDGE('',*,*,#268,.T.);
#365=ORIENTED_EDGE('',*,*,#270,.F.);
#366=ORIENTED_EDGE('',*,*,#269,.T.);
#367=(
BOUNDED_SURFACE()
B_SPLINE_SURFACE(1,2,((#581,#582,#583,#584,#585,#586,#587,#588,#589),(#590,
#591,#592,#593,#594,#595,#596,#597,#598)),.UNSPECIFIED.,.F.,.T.,.F.)
B_SPLINE_SURFACE_WITH_KNOTS((2,2),(3,2,2,2,3),(0.,0.294117614962035),(-3.14159265358979,
-1.5707963267949,0.,1.5707963267949,3.14159265358979),.UNSPECIFIED.)
GEOMETRIC_REPRESENTATION_ITEM()
RATIONAL_B_SPLINE_SURFACE(((1.,0.707106781186548,1.,0.707106781186548,1.,
0.707106781186548,1.,0.707106781186548,1.),(1.,0.707106781186548,1.,0.707106781186548,
1.,0.707106781186548,1.,0.707106781186548,1.)))
REPRESENTATION_ITEM('')
SURFACE()
);
#368=STYLED_ITEM('',(#724),#383);
#369=STYLED_ITEM('',(#724),#384);
#370=STYLED_ITEM('',(#724),#385);
#371=STYLED_ITEM('',(#724),#386);
#372=STYLED_ITEM('',(#724),#387);
#373=STYLED_ITEM('',(#724),#388);
#374=STYLED_ITEM('',(#724),#389);
#375=STYLED_ITEM('',(#724),#391);
#376=STYLED_ITEM('',(#724),#393);
#377=STYLED_ITEM('',(#725),#394);
#378=STYLED_ITEM('',(#725),#395);
#379=STYLED_ITEM('',(#726),#401);
#380=STYLED_ITEM('',(#725),#407);
#381=STYLED_ITEM('',(#725),#408);
#382=STYLED_ITEM('',(#723),#13);
#383=ADVANCED_FACE('',(#63),#367,.T.);
#384=ADVANCED_FACE('',(#64,#35),#45,.T.);
#385=ADVANCED_FACE('',(#65),#46,.T.);
#386=ADVANCED_FACE('',(#66,#36),#47,.T.);
#387=ADVANCED_FACE('',(#67),#48,.T.);
#388=ADVANCED_FACE('',(#68),#49,.T.);
#389=ADVANCED_FACE('',(#69),#50,.T.);
#390=ADVANCED_FACE('',(#70),#51,.T.);
#391=ADVANCED_FACE('',(#71),#52,.T.);
#392=ADVANCED_FACE('',(#72),#53,.T.);
#393=ADVANCED_FACE('',(#73),#54,.T.);
#394=ADVANCED_FACE('',(#74),#55,.T.);
#395=ADVANCED_FACE('',(#75),#14,.T.);
#396=ADVANCED_FACE('',(#76,#37),#56,.T.);
#397=ADVANCED_FACE('',(#77),#15,.T.);
#398=ADVANCED_FACE('',(#78,#38,#39,#40),#57,.T.);
#399=ADVANCED_FACE('',(#79),#16,.T.);
#400=ADVANCED_FACE('',(#80,#41),#58,.T.);
#401=ADVANCED_FACE('',(#81),#17,.T.);
#402=ADVANCED_FACE('',(#82,#42),#59,.T.);
#403=ADVANCED_FACE('',(#83),#18,.T.);
#404=ADVANCED_FACE('',(#84,#43),#60,.T.);
#405=ADVANCED_FACE('',(#85),#19,.T.);
#406=ADVANCED_FACE('',(#86,#44),#61,.T.);
#407=ADVANCED_FACE('',(#87),#20,.T.);
#408=ADVANCED_FACE('',(#88),#62,.T.);
#409=CLOSED_SHELL('',(#383,#384,#385,#386,#387,#388,#389,#390,#391,#392,
#393,#394,#395,#396,#397,#398,#399,#400,#401,#402,#403,#404,#405,#406,#407,
#408));
#410=DERIVED_UNIT_ELEMENT(#412,1.);
#411=DERIVED_UNIT_ELEMENT(#709,-3.);
#412=(
MASS_UNIT()
NAMED_UNIT(*)
SI_UNIT(.KILO.,.GRAM.)
);
#413=DERIVED_UNIT((#410,#411));
#414=MEASURE_REPRESENTATION_ITEM('density measure',
POSITIVE_RATIO_MEASURE(7850.),#413);
#415=PROPERTY_DEFINITION_REPRESENTATION(#420,#417);
#416=PROPERTY_DEFINITION_REPRESENTATION(#421,#418);
#417=REPRESENTATION('material name',(#419),#706);
#418=REPRESENTATION('density',(#414),#706);
#419=DESCRIPTIVE_REPRESENTATION_ITEM('Steel','Steel');
#420=PROPERTY_DEFINITION('material property','material name',#716);
#421=PROPERTY_DEFINITION('material property','density of part',#716);
#422=AXIS2_PLACEMENT_3D('',#580,#464,#465);
#423=AXIS2_PLACEMENT_3D('',#600,#466,#467);
#424=AXIS2_PLACEMENT_3D('',#603,#469,#470);
#425=AXIS2_PLACEMENT_3D('',#604,#471,#472);
#426=AXIS2_PLACEMENT_3D('',#613,#477,#478);
#427=AXIS2_PLACEMENT_3D('',#619,#482,#483);
#428=AXIS2_PLACEMENT_3D('',#625,#487,#488);
#429=AXIS2_PLACEMENT_3D('',#628,#491,#492);
#430=AXIS2_PLACEMENT_3D('',#629,#493,#494);
#431=AXIS2_PLACEMENT_3D('',#638,#499,#500);
#432=AXIS2_PLACEMENT_3D('',#644,#504,#505);
#433=AXIS2_PLACEMENT_3D('',#650,#509,#510);
#434=AXIS2_PLACEMENT_3D('',#653,#513,#514);
#435=AXIS2_PLACEMENT_3D('',#654,#515,#516);
#436=AXIS2_PLACEMENT_3D('',#656,#517,#518);
#437=AXIS2_PLACEMENT_3D('',#657,#519,#520);
#438=AXIS2_PLACEMENT_3D('',#659,#521,#522);
#439=AXIS2_PLACEMENT_3D('',#661,#524,#525);
#440=AXIS2_PLACEMENT_3D('',#663,#526,#527);
#441=AXIS2_PLACEMENT_3D('',#664,#528,#529);
#442=AXIS2_PLACEMENT_3D('',#666,#530,#531);
#443=AXIS2_PLACEMENT_3D('',#668,#533,#534);
#444=AXIS2_PLACEMENT_3D('',#670,#535,#536);
#445=AXIS2_PLACEMENT_3D('',#671,#537,#538);
#446=AXIS2_PLACEMENT_3D('',#673,#539,#540);
#447=AXIS2_PLACEMENT_3D('',#675,#542,#543);
#448=AXIS2_PLACEMENT_3D('',#677,#544,#545);
#449=AXIS2_PLACEMENT_3D('',#678,#546,#547);
#450=AXIS2_PLACEMENT_3D('',#680,#548,#549);
#451=AXIS2_PLACEMENT_3D('',#682,#551,#552);
#452=AXIS2_PLACEMENT_3D('',#684,#553,#554);
#453=AXIS2_PLACEMENT_3D('',#685,#555,#556);
#454=AXIS2_PLACEMENT_3D('',#687,#557,#558);
#455=AXIS2_PLACEMENT_3D('',#689,#560,#561);
#456=AXIS2_PLACEMENT_3D('',#691,#562,#563);
#457=AXIS2_PLACEMENT_3D('',#692,#564,#565);
#458=AXIS2_PLACEMENT_3D('',#694,#566,#567);
#459=AXIS2_PLACEMENT_3D('',#696,#569,#570);
#460=AXIS2_PLACEMENT_3D('',#698,#571,#572);
#461=AXIS2_PLACEMENT_3D('',#699,#573,#574);
#462=AXIS2_PLACEMENT_3D('',#701,#575,#576);
#463=AXIS2_PLACEMENT_3D('',#703,#578,#579);
#464=DIRECTION('axis',(0.,0.,1.));
#465=DIRECTION('refdir',(1.,0.,0.));
#466=DIRECTION('center_axis',(0.,1.,0.));
#467=DIRECTION('ref_axis',(-1.,0.,0.));
#468=DIRECTION('',(0.,1.,0.));
#469=DIRECTION('center_axis',(0.,-1.,0.));
#470=DIRECTION('ref_axis',(-1.,0.,0.));
#471=DIRECTION('center_axis',(0.,-1.,0.));
#472=DIRECTION('ref_axis',(0.,0.,-1.));
#473=DIRECTION('',(0.,0.,1.));
#474=DIRECTION('',(1.,0.,0.));
#475=DIRECTION('',(0.,0.,-1.));
#476=DIRECTION('',(1.,0.,0.));
#477=DIRECTION('center_axis',(0.,0.,1.));
#478=DIRECTION('ref_axis',(0.,-1.,0.));
#479=DIRECTION('',(0.,1.,0.));
#480=DIRECTION('',(0.,-1.,0.));
#481=DIRECTION('',(1.,0.,0.));
#482=DIRECTION('center_axis',(0.,1.,0.));
#483=DIRECTION('ref_axis',(0.,0.,1.));
#484=DIRECTION('',(0.,0.,-1.));
#485=DIRECTION('',(0.,0.,1.));
#486=DIRECTION('',(1.,0.,0.));
#487=DIRECTION('center_axis',(0.,0.,-1.));
#488=DIRECTION('ref_axis',(0.,1.,0.));
#489=DIRECTION('',(0.,-1.,0.));
#490=DIRECTION('',(0.,1.,0.));
#491=DIRECTION('center_axis',(1.,0.,0.));
#492=DIRECTION('ref_axis',(0.,0.,-1.));
#493=DIRECTION('center_axis',(0.,0.,-1.));
#494=DIRECTION('ref_axis',(0.,1.,0.));
#495=DIRECTION('',(0.,-1.,0.));
#496=DIRECTION('',(1.,0.,0.));
#497=DIRECTION('',(0.,1.,0.));
#498=DIRECTION('',(1.,0.,0.));
#499=DIRECTION('center_axis',(0.,-1.,0.));
#500=DIRECTION('ref_axis',(0.,0.,-1.));
#501=DIRECTION('',(0.,0.,1.));
#502=DIRECTION('',(0.,0.,-1.));
#503=DIRECTION('',(1.,0.,0.));
#504=DIRECTION('center_axis',(0.,0.,1.));
#505=DIRECTION('ref_axis',(0.,-1.,0.));
#506=DIRECTION('',(0.,1.,0.));
#507=DIRECTION('',(0.,-1.,0.));
#508=DIRECTION('',(1.,0.,0.));
#509=DIRECTION('center_axis',(0.,1.,0.));
#510=DIRECTION('ref_axis',(0.,0.,1.));
#511=DIRECTION('',(0.,0.,-1.));
#512=DIRECTION('',(0.,0.,1.));
#513=DIRECTION('center_axis',(1.,0.,0.));
#514=DIRECTION('ref_axis',(0.,0.,-1.));
#515=DIRECTION('center_axis',(1.,0.,0.));
#516=DIRECTION('ref_axis',(0.,0.,-1.));
#517=DIRECTION('center_axis',(-1.,0.,0.));
#518=DIRECTION('ref_axis',(0.,0.,1.));
#519=DIRECTION('center_axis',(-1.,0.,0.));
#520=DIRECTION('ref_axis',(0.,0.,1.));
#521=DIRECTION('center_axis',(-1.,0.,0.));
#522=DIRECTION('ref_axis',(0.,0.,1.));
#523=DIRECTION('',(1.,0.,0.));
#524=DIRECTION('center_axis',(1.,0.,0.));
#525=DIRECTION('ref_axis',(0.,0.,-1.));
#526=DIRECTION('center_axis',(-1.,0.,0.));
#527=DIRECTION('ref_axis',(0.,0.,1.));
#528=DIRECTION('center_axis',(-1.,0.,0.));
#529=DIRECTION('ref_axis',(0.,0.,1.));
#530=DIRECTION('center_axis',(-1.,0.,0.));
#531=DIRECTION('ref_axis',(0.,0.,1.));
#532=DIRECTION('',(1.,0.,0.));
#533=DIRECTION('center_axis',(1.,0.,0.));
#534=DIRECTION('ref_axis',(0.,0.,-1.));
#535=DIRECTION('center_axis',(-1.,0.,0.));
#536=DIRECTION('ref_axis',(0.,0.,1.));
#537=DIRECTION('center_axis',(-1.,0.,0.));
#538=DIRECTION('ref_axis',(0.,0.,1.));
#539=DIRECTION('center_axis',(-1.,0.,0.));
#540=DIRECTION('ref_axis',(0.,0.,1.));
#541=DIRECTION('',(1.,0.,0.));
#542=DIRECTION('center_axis',(1.,0.,0.));
#543=DIRECTION('ref_axis',(0.,0.,-1.));
#544=DIRECTION('center_axis',(-1.,0.,0.));
#545=DIRECTION('ref_axis',(0.,0.,1.));
#546=DIRECTION('center_axis',(-1.,0.,0.));
#547=DIRECTION('ref_axis',(0.,0.,1.));
#548=DIRECTION('center_axis',(-1.,0.,0.));
#549=DIRECTION('ref_axis',(0.,0.,1.));
#550=DIRECTION('',(1.,0.,0.));
#551=DIRECTION('center_axis',(-1.,0.,0.));
#552=DIRECTION('ref_axis',(0.,0.,1.));
#553=DIRECTION('center_axis',(-1.,0.,0.));
#554=DIRECTION('ref_axis',(0.,0.,1.));
#555=DIRECTION('center_axis',(-1.,0.,0.));
#556=DIRECTION('ref_axis',(0.,0.,1.));
#557=DIRECTION('center_axis',(-1.,0.,0.));
#558=DIRECTION('ref_axis',(0.,0.,1.));
#559=DIRECTION('',(1.,0.,0.));
#560=DIRECTION('center_axis',(-1.,0.,0.));
#561=DIRECTION('ref_axis',(0.,0.,1.));
#562=DIRECTION('center_axis',(-1.,0.,0.));
#563=DIRECTION('ref_axis',(0.,0.,1.));
#564=DIRECTION('center_axis',(-1.,0.,0.));
#565=DIRECTION('ref_axis',(0.,0.,1.));
#566=DIRECTION('center_axis',(-1.,0.,0.));
#567=DIRECTION('ref_axis',(0.,0.,1.));
#568=DIRECTION('',(1.,0.,0.));
#569=DIRECTION('center_axis',(-1.,0.,0.));
#570=DIRECTION('ref_axis',(0.,0.,1.));
#571=DIRECTION('center_axis',(-1.,0.,0.));
#572=DIRECTION('ref_axis',(0.,0.,1.));
#573=DIRECTION('center_axis',(-1.,0.,0.));
#574=DIRECTION('ref_axis',(0.,0.,1.));
#575=DIRECTION('center_axis',(-1.,0.,0.));
#576=DIRECTION('ref_axis',(0.,0.,1.));
#577=DIRECTION('',(1.,0.,0.));
#578=DIRECTION('center_axis',(-1.,0.,0.));
#579=DIRECTION('ref_axis',(0.,0.,1.));
#580=CARTESIAN_POINT('',(0.,0.,0.));
#581=CARTESIAN_POINT('Ctrl Pts',(7.70000027492642,-17.5000002607703,0.));
#582=CARTESIAN_POINT('Ctrl Pts',(7.70000027492642,-17.5000002607703,-1.24150390541844));
#583=CARTESIAN_POINT('Ctrl Pts',(6.00000008940697,-17.5000002607703,-1.24150390541844));
#584=CARTESIAN_POINT('Ctrl Pts',(4.29999990388751,-17.5000002607703,-1.24150390541844));
#585=CARTESIAN_POINT('Ctrl Pts',(4.29999990388751,-17.5000002607703,0.));
#586=CARTESIAN_POINT('Ctrl Pts',(4.29999990388751,-17.5000002607703,1.24150390541844));
#587=CARTESIAN_POINT('Ctrl Pts',(6.00000008940697,-17.5000002607703,1.24150390541844));
#588=CARTESIAN_POINT('Ctrl Pts',(7.70000027492642,-17.5000002607703,1.24150390541844));
#589=CARTESIAN_POINT('Ctrl Pts',(7.70000027492642,-17.5000002607703,0.));
#590=CARTESIAN_POINT('Ctrl Pts',(7.70000027492642,-17.0000002607703,0.));
#591=CARTESIAN_POINT('Ctrl Pts',(7.70000027492642,-17.0000002607703,-1.24150390541844));
#592=CARTESIAN_POINT('Ctrl Pts',(6.00000008940697,-17.0000002607703,-1.24150390541844));
#593=CARTESIAN_POINT('Ctrl Pts',(4.29999990388751,-17.0000002607703,-1.24150390541844));
#594=CARTESIAN_POINT('Ctrl Pts',(4.29999990388751,-17.0000002607703,0.));
#595=CARTESIAN_POINT('Ctrl Pts',(4.29999990388751,-17.0000002607703,1.24150390541844));
#596=CARTESIAN_POINT('Ctrl Pts',(6.00000008940697,-17.0000002607703,1.24150390541844));
#597=CARTESIAN_POINT('Ctrl Pts',(7.70000027492642,-17.0000002607703,1.24150390541844));
#598=CARTESIAN_POINT('Ctrl Pts',(7.70000027492642,-17.0000002607703,0.));
#599=CARTESIAN_POINT('',(7.70000027492642,-17.5000002607703,1.52040378389963E-16));
#600=CARTESIAN_POINT('Origin',(6.00000008940697,-17.5000002607703,0.));
#601=CARTESIAN_POINT('',(7.70000027492642,-17.0000002607703,1.52040378389963E-16));
#602=CARTESIAN_POINT('',(7.70000027492642,-17.5000002607703,-1.52040378389963E-16));
#603=CARTESIAN_POINT('Origin',(6.00000008940697,-17.0000002607703,0.));
#604=CARTESIAN_POINT('Origin',(0.,-17.5000002607703,2.00000002980232));
#605=CARTESIAN_POINT('',(0.,-17.5000002607703,-2.00000002980232));
#606=CARTESIAN_POINT('',(0.,-17.5000002607703,2.00000002980232));
#607=CARTESIAN_POINT('',(-1.28587913910472E-15,-17.5000002607703,11.5000000149012));
#608=CARTESIAN_POINT('',(9.,-17.5000002607703,-2.00000002980232));
#609=CARTESIAN_POINT('',(0.,-17.5000002607703,-2.00000002980232));
#610=CARTESIAN_POINT('',(9.,-17.5000002607703,2.00000002980232));
#611=CARTESIAN_POINT('',(9.,-17.5000002607703,-2.00000002980232));
#612=CARTESIAN_POINT('',(0.,-17.5000002607703,2.00000002980232));
#613=CARTESIAN_POINT('Origin',(0.,-17.0000002607703,2.00000002980232));
#614=CARTESIAN_POINT('',(0.,-17.0000002607703,2.00000002980232));
#615=CARTESIAN_POINT('',(-1.28587913910472E-15,-8.50000013038516,2.00000002980232));
#616=CARTESIAN_POINT('',(9.,-17.0000002607703,2.00000002980232));
#617=CARTESIAN_POINT('',(9.,-17.5000002607703,2.00000002980232));
#618=CARTESIAN_POINT('',(0.,-17.0000002607703,2.00000002980232));
#619=CARTESIAN_POINT('Origin',(0.,-17.0000002607703,-2.00000002980232));
#620=CARTESIAN_POINT('',(0.,-17.0000002607703,-2.00000002980232));
#621=CARTESIAN_POINT('',(-1.28587913910472E-15,-17.0000002607703,9.49999998509884));
#622=CARTESIAN_POINT('',(9.,-17.0000002607703,-2.00000002980232));
#623=CARTESIAN_POINT('',(9.,-17.0000002607703,2.00000002980232));
#624=CARTESIAN_POINT('',(0.,-17.0000002607703,-2.00000002980232));
#625=CARTESIAN_POINT('Origin',(0.,-17.5000002607703,-2.00000002980232));
#626=CARTESIAN_POINT('',(-1.28587913910472E-15,-8.75000013038516,-2.00000002980232));
#627=CARTESIAN_POINT('',(9.,-17.0000002607703,-2.00000002980232));
#628=CARTESIAN_POINT('Origin',(9.,-17.2500002607703,0.));
#629=CARTESIAN_POINT('Origin',(0.,16.5,-1.99999997019768));
#630=CARTESIAN_POINT('',(0.,17.,-1.99999997019768));
#631=CARTESIAN_POINT('',(0.,16.5,-1.99999997019768));
#632=CARTESIAN_POINT('',(-1.28587913910472E-15,8.25,-1.99999997019768));
#633=CARTESIAN_POINT('',(9.,17.,-1.99999997019768));
#634=CARTESIAN_POINT('',(0.,17.,-1.99999997019768));
#635=CARTESIAN_POINT('',(9.,16.5,-1.99999997019768));
#636=CARTESIAN_POINT('',(9.,16.5,-1.99999997019768));
#637=CARTESIAN_POINT('',(0.,16.5,-1.99999997019768));
#638=CARTESIAN_POINT('Origin',(0.,16.5,2.00000002980232));
#639=CARTESIAN_POINT('',(0.,16.5,2.00000002980232));
#640=CARTESIAN_POINT('',(-1.28587913910472E-15,16.5,11.5000000149012));
#641=CARTESIAN_POINT('',(9.,16.5,2.00000002980232));
#642=CARTESIAN_POINT('',(9.,16.5,2.00000002980232));
#643=CARTESIAN_POINT('',(0.,16.5,2.00000002980232));
#644=CARTESIAN_POINT('Origin',(0.,17.,2.00000002980232));
#645=CARTESIAN_POINT('',(0.,17.,2.00000002980232));
#646=CARTESIAN_POINT('',(-1.28587913910472E-15,8.5,2.00000002980232));
#647=CARTESIAN_POINT('',(9.,17.,2.00000002980232));
#648=CARTESIAN_POINT('',(9.,17.,2.00000002980232));
#649=CARTESIAN_POINT('',(0.,17.,2.00000002980232));
#650=CARTESIAN_POINT('Origin',(0.,17.,-1.99999997019768));
#651=CARTESIAN_POINT('',(-1.28587913910472E-15,17.,9.50000001490116));
#652=CARTESIAN_POINT('',(9.,17.,-1.99999997019768));
#653=CARTESIAN_POINT('Origin',(9.,16.75,2.9802322276673E-8));
#654=CARTESIAN_POINT('Origin',(10.0000001490116,0.,2.5));
#655=CARTESIAN_POINT('',(10.0000001490116,-3.06161699786838E-16,-2.5));
#656=CARTESIAN_POINT('Origin',(10.0000001490116,0.,0.));
#657=CARTESIAN_POINT('Origin',(7.50000011175871,0.,0.));
#658=CARTESIAN_POINT('',(5.00000007450581,-3.06161699786838E-16,-2.5));
#659=CARTESIAN_POINT('Origin',(5.00000007450581,0.,0.));
#660=CARTESIAN_POINT('',(7.50000011175871,-3.06161699786838E-16,-2.5));
#661=CARTESIAN_POINT('Origin',(5.00000007450581,0.,8.00000011920929));
#662=CARTESIAN_POINT('',(5.00000007450581,-9.7971745391681E-16,-8.00000011920929));
#663=CARTESIAN_POINT('Origin',(5.00000007450581,0.,0.));
#664=CARTESIAN_POINT('Origin',(2.5000000372529,0.,0.));
#665=CARTESIAN_POINT('',(0.,-9.7971745391681E-16,-8.00000011920929));
#666=CARTESIAN_POINT('Origin',(0.,0.,0.));
#667=CARTESIAN_POINT('',(2.5000000372529,-9.7971745391681E-16,-8.00000011920929));
#668=CARTESIAN_POINT('Origin',(-1.28587913910472E-15,0.,21.));
#669=CARTESIAN_POINT('',(0.,-2.57175829737053E-15,-21.0000001564622));
#670=CARTESIAN_POINT('Origin',(0.,0.,0.));
#671=CARTESIAN_POINT('Origin',(-12.25,0.,0.));
#672=CARTESIAN_POINT('',(-24.5,-2.57175829737053E-15,-21.0000001564622));
#673=CARTESIAN_POINT('Origin',(-24.5,0.,0.));
#674=CARTESIAN_POINT('',(-12.25,-2.57175829737053E-15,-21.0000001564622));
#675=CARTESIAN_POINT('Origin',(-24.5,0.,22.0000003278255));
#676=CARTESIAN_POINT('',(-24.5,-2.69422299827123E-15,-22.0000003278255));
#677=CARTESIAN_POINT('Origin',(-24.5,0.,0.));
#678=CARTESIAN_POINT('Origin',(-42.5,0.,0.));
#679=CARTESIAN_POINT('',(-60.5,-2.69422299827123E-15,-22.0000003278255));
#680=CARTESIAN_POINT('Origin',(-60.5,0.,0.));
#681=CARTESIAN_POINT('',(-42.5,-2.69422299827123E-15,-22.0000003278255));
#682=CARTESIAN_POINT('Origin',(-60.5,0.,21.));
#683=CARTESIAN_POINT('',(-60.5,-2.57175827820944E-15,-21.));
#684=CARTESIAN_POINT('Origin',(-60.5,0.,0.));
#685=CARTESIAN_POINT('Origin',(-63.5,0.,0.));
#686=CARTESIAN_POINT('',(-66.5,-2.57175827820944E-15,-21.));
#687=CARTESIAN_POINT('Origin',(-66.5,0.,0.));
#688=CARTESIAN_POINT('',(-63.5,-2.57175827820944E-15,-21.));
#689=CARTESIAN_POINT('Origin',(-66.5,0.,9.));
#690=CARTESIAN_POINT('',(-66.5,-1.10218211923262E-15,-9.));
#691=CARTESIAN_POINT('Origin',(-66.5,0.,0.));
#692=CARTESIAN_POINT('Origin',(-69.,0.,0.));
#693=CARTESIAN_POINT('',(-71.5,-1.10218211923262E-15,-9.));
#694=CARTESIAN_POINT('Origin',(-71.5,0.,0.));
#695=CARTESIAN_POINT('',(-69.,-1.10218211923262E-15,-9.));
#696=CARTESIAN_POINT('Origin',(-71.5,0.,2.5));
#697=CARTESIAN_POINT('',(-71.5,-3.06161699786838E-16,-2.5));
#698=CARTESIAN_POINT('Origin',(-71.5,0.,0.));
#699=CARTESIAN_POINT('Origin',(-79.5,0.,0.));
#700=CARTESIAN_POINT('',(-87.5,-3.06161699786838E-16,-2.5));
#701=CARTESIAN_POINT('Origin',(-87.5,0.,0.));
#702=CARTESIAN_POINT('',(-79.5,-3.06161699786838E-16,-2.5));
#703=CARTESIAN_POINT('Origin',(-87.5,0.,0.));
#704=UNCERTAINTY_MEASURE_WITH_UNIT(LENGTH_MEASURE(0.01),#708,
'DISTANCE_ACCURACY_VALUE',
'Maximum model space distance between geometric entities at asserted c
onnectivities');
#705=UNCERTAINTY_MEASURE_WITH_UNIT(LENGTH_MEASURE(0.01),#708,
'DISTANCE_ACCURACY_VALUE',
'Maximum model space distance between geometric entities at asserted c
onnectivities');
#706=(
GEOMETRIC_REPRESENTATION_CONTEXT(3)
GLOBAL_UNCERTAINTY_ASSIGNED_CONTEXT((#704))
GLOBAL_UNIT_ASSIGNED_CONTEXT((#708,#710,#711))
REPRESENTATION_CONTEXT('','3D')
);
#707=(
GEOMETRIC_REPRESENTATION_CONTEXT(3)
GLOBAL_UNCERTAINTY_ASSIGNED_CONTEXT((#705))
GLOBAL_UNIT_ASSIGNED_CONTEXT((#708,#710,#711))
REPRESENTATION_CONTEXT('','3D')
);
#708=(
LENGTH_UNIT()
NAMED_UNIT(*)
SI_UNIT(.MILLI.,.METRE.)
);
#709=(
LENGTH_UNIT()
NAMED_UNIT(*)
SI_UNIT($,.METRE.)
);
#710=(
NAMED_UNIT(*)
PLANE_ANGLE_UNIT()
SI_UNIT($,.RADIAN.)
);
#711=(
NAMED_UNIT(*)
SI_UNIT($,.STERADIAN.)
SOLID_ANGLE_UNIT()
);
#712=SHAPE_DEFINITION_REPRESENTATION(#713,#714);
#713=PRODUCT_DEFINITION_SHAPE('',$,#716);
#714=SHAPE_REPRESENTATION('',(#422),#706);
#715=PRODUCT_DEFINITION_CONTEXT('part definition',#720,'design');
#716=PRODUCT_DEFINITION('2026-09-04-15-51-10-797','motor',#717,#715);
#717=PRODUCT_DEFINITION_FORMATION('',$,#722);
#718=PRODUCT_RELATED_PRODUCT_CATEGORY('motor','motor',(#722));
#719=APPLICATION_PROTOCOL_DEFINITION('international standard',
'automotive_design',2009,#720);
#720=APPLICATION_CONTEXT(
'Core Data for Automotive Mechanical Design Process');
#721=PRODUCT_CONTEXT('part definition',#720,'mechanical');
#722=PRODUCT('2026-09-04-15-51-10-797','motor',$,(#721));
#723=PRESENTATION_STYLE_ASSIGNMENT((#727));
#724=PRESENTATION_STYLE_ASSIGNMENT((#728));
#725=PRESENTATION_STYLE_ASSIGNMENT((#729));
#726=PRESENTATION_STYLE_ASSIGNMENT((#730));
#727=SURFACE_STYLE_USAGE(.BOTH.,#731);
#728=SURFACE_STYLE_USAGE(.BOTH.,#732);
#729=SURFACE_STYLE_USAGE(.BOTH.,#733);
#730=SURFACE_STYLE_USAGE(.BOTH.,#734);
#731=SURFACE_SIDE_STYLE('',(#735));
#732=SURFACE_SIDE_STYLE('',(#736));
#733=SURFACE_SIDE_STYLE('',(#737));
#734=SURFACE_SIDE_STYLE('',(#738));
#735=SURFACE_STYLE_FILL_AREA(#739);
#736=SURFACE_STYLE_FILL_AREA(#740);
#737=SURFACE_STYLE_FILL_AREA(#741);
#738=SURFACE_STYLE_FILL_AREA(#742);
#739=FILL_AREA_STYLE('Steel - Satin',(#743));
#740=FILL_AREA_STYLE('Copper - Polished',(#744));
#741=FILL_AREA_STYLE('Iron - Polished',(#745));
#742=FILL_AREA_STYLE('Silver - Polished',(#746));
#743=FILL_AREA_STYLE_COLOUR('Steel - Satin',#747);
#744=FILL_AREA_STYLE_COLOUR('Copper - Polished',#748);
#745=FILL_AREA_STYLE_COLOUR('Iron - Polished',#749);
#746=FILL_AREA_STYLE_COLOUR('Silver - Polished',#750);
#747=COLOUR_RGB('Steel - Satin',0.627450980392157,0.627450980392157,0.627450980392157);
#748=COLOUR_RGB('Copper - Polished',0.929411764705882,0.807843137254902,
0.764705882352941);
#749=COLOUR_RGB('Iron - Polished',0.749019607843137,0.741176470588235,0.733333333333333);
#750=COLOUR_RGB('Silver - Polished',0.984313725490196,0.980392156862745,
0.96078431372549);
ENDSEC;
END-ISO-10303-21;
