ISO-10303-21;
HEADER;
/* Generated by software containing ST-Developer
 * from STEP Tools, Inc. (www.steptools.com) 
 */

FILE_DESCRIPTION(
/* description */ (''),
/* implementation_level */ '2;1');

FILE_NAME(
/* name */ 'screw_mount.step',
/* time_stamp */ '2026-07-26T22:06:58-04:00',
/* author */ (''),
/* organization */ (''),
/* preprocessor_version */ 'ST-DEVELOPER v20.1',
/* originating_system */ 'Autodesk Translation Framework v15.8.0.0',
/* authorisation */ '');

FILE_SCHEMA (('AUTOMOTIVE_DESIGN { 1 0 10303 214 3 1 1 }'));
ENDSEC;

DATA;
#10=MECHANICAL_DESIGN_GEOMETRIC_PRESENTATION_REPRESENTATION('',(#13),#518);
#11=SHAPE_REPRESENTATION_RELATIONSHIP('SRR','None',#525,#12);
#12=ADVANCED_BREP_SHAPE_REPRESENTATION('',(#14),#517);
#13=STYLED_ITEM('',(#534),#14);
#14=MANIFOLD_SOLID_BREP('Body1',#298);
#15=FACE_BOUND('',#60,.T.);
#16=FACE_BOUND('',#61,.T.);
#17=FACE_BOUND('',#62,.T.);
#18=FACE_BOUND('',#63,.T.);
#19=FACE_BOUND('',#64,.T.);
#20=FACE_BOUND('',#66,.T.);
#21=FACE_BOUND('',#67,.T.);
#22=FACE_BOUND('',#68,.T.);
#23=FACE_BOUND('',#69,.T.);
#24=FACE_BOUND('',#70,.T.);
#25=PLANE('',#327);
#26=PLANE('',#331);
#27=PLANE('',#335);
#28=PLANE('',#339);
#29=PLANE('',#343);
#30=PLANE('',#344);
#31=FACE_OUTER_BOUND('',#46,.T.);
#32=FACE_OUTER_BOUND('',#47,.T.);
#33=FACE_OUTER_BOUND('',#48,.T.);
#34=FACE_OUTER_BOUND('',#49,.T.);
#35=FACE_OUTER_BOUND('',#50,.T.);
#36=FACE_OUTER_BOUND('',#51,.T.);
#37=FACE_OUTER_BOUND('',#52,.T.);
#38=FACE_OUTER_BOUND('',#53,.T.);
#39=FACE_OUTER_BOUND('',#54,.T.);
#40=FACE_OUTER_BOUND('',#55,.T.);
#41=FACE_OUTER_BOUND('',#56,.T.);
#42=FACE_OUTER_BOUND('',#57,.T.);
#43=FACE_OUTER_BOUND('',#58,.T.);
#44=FACE_OUTER_BOUND('',#59,.T.);
#45=FACE_OUTER_BOUND('',#65,.T.);
#46=EDGE_LOOP('',(#196,#197,#198,#199));
#47=EDGE_LOOP('',(#200,#201,#202,#203));
#48=EDGE_LOOP('',(#204,#205,#206,#207));
#49=EDGE_LOOP('',(#208,#209,#210,#211));
#50=EDGE_LOOP('',(#212,#213,#214,#215));
#51=EDGE_LOOP('',(#216,#217,#218,#219));
#52=EDGE_LOOP('',(#220,#221,#222,#223));
#53=EDGE_LOOP('',(#224,#225,#226,#227));
#54=EDGE_LOOP('',(#228,#229,#230,#231));
#55=EDGE_LOOP('',(#232,#233,#234,#235));
#56=EDGE_LOOP('',(#236,#237,#238,#239));
#57=EDGE_LOOP('',(#240,#241,#242,#243));
#58=EDGE_LOOP('',(#244,#245,#246,#247));
#59=EDGE_LOOP('',(#248,#249,#250,#251,#252,#253,#254,#255));
#60=EDGE_LOOP('',(#256));
#61=EDGE_LOOP('',(#257));
#62=EDGE_LOOP('',(#258));
#63=EDGE_LOOP('',(#259));
#64=EDGE_LOOP('',(#260));
#65=EDGE_LOOP('',(#261,#262,#263,#264,#265,#266,#267,#268));
#66=EDGE_LOOP('',(#269));
#67=EDGE_LOOP('',(#270));
#68=EDGE_LOOP('',(#271));
#69=EDGE_LOOP('',(#272));
#70=EDGE_LOOP('',(#273));
#71=LINE('',#439,#92);
#72=LINE('',#445,#93);
#73=LINE('',#451,#94);
#74=LINE('',#457,#95);
#75=LINE('',#463,#96);
#76=LINE('',#468,#97);
#77=LINE('',#470,#98);
#78=LINE('',#472,#99);
#79=LINE('',#473,#100);
#80=LINE('',#479,#101);
#81=LINE('',#482,#102);
#82=LINE('',#484,#103);
#83=LINE('',#485,#104);
#84=LINE('',#491,#105);
#85=LINE('',#494,#106);
#86=LINE('',#496,#107);
#87=LINE('',#497,#108);
#88=LINE('',#503,#109);
#89=LINE('',#506,#110);
#90=LINE('',#508,#111);
#91=LINE('',#509,#112);
#92=VECTOR('',#351,2.);
#93=VECTOR('',#358,2.);
#94=VECTOR('',#365,9.5);
#95=VECTOR('',#372,3.175);
#96=VECTOR('',#379,3.175);
#97=VECTOR('',#384,10.);
#98=VECTOR('',#385,10.);
#99=VECTOR('',#386,10.);
#100=VECTOR('',#387,10.);
#101=VECTOR('',#394,10.);
#102=VECTOR('',#397,10.);
#103=VECTOR('',#398,10.);
#104=VECTOR('',#399,10.);
#105=VECTOR('',#406,10.);
#106=VECTOR('',#409,10.);
#107=VECTOR('',#410,10.);
#108=VECTOR('',#411,10.);
#109=VECTOR('',#418,10.);
#110=VECTOR('',#421,10.);
#111=VECTOR('',#422,10.);
#112=VECTOR('',#423,10.);
#113=CIRCLE('',#313,2.);
#114=CIRCLE('',#314,2.);
#115=CIRCLE('',#316,2.);
#116=CIRCLE('',#317,2.);
#117=CIRCLE('',#319,9.5);
#118=CIRCLE('',#320,9.5);
#119=CIRCLE('',#322,3.175);
#120=CIRCLE('',#323,3.175);
#121=CIRCLE('',#325,3.175);
#122=CIRCLE('',#326,3.175);
#123=CIRCLE('',#329,12.);
#124=CIRCLE('',#330,12.);
#125=CIRCLE('',#333,12.);
#126=CIRCLE('',#334,12.);
#127=CIRCLE('',#337,12.);
#128=CIRCLE('',#338,12.);
#129=CIRCLE('',#341,12.);
#130=CIRCLE('',#342,12.);
#131=VERTEX_POINT('',#436);
#132=VERTEX_POINT('',#438);
#133=VERTEX_POINT('',#442);
#134=VERTEX_POINT('',#444);
#135=VERTEX_POINT('',#448);
#136=VERTEX_POINT('',#450);
#137=VERTEX_POINT('',#454);
#138=VERTEX_POINT('',#456);
#139=VERTEX_POINT('',#460);
#140=VERTEX_POINT('',#462);
#141=VERTEX_POINT('',#466);
#142=VERTEX_POINT('',#467);
#143=VERTEX_POINT('',#469);
#144=VERTEX_POINT('',#471);
#145=VERTEX_POINT('',#475);
#146=VERTEX_POINT('',#477);
#147=VERTEX_POINT('',#481);
#148=VERTEX_POINT('',#483);
#149=VERTEX_POINT('',#487);
#150=VERTEX_POINT('',#489);
#151=VERTEX_POINT('',#493);
#152=VERTEX_POINT('',#495);
#153=VERTEX_POINT('',#499);
#154=VERTEX_POINT('',#501);
#155=VERTEX_POINT('',#505);
#156=VERTEX_POINT('',#507);
#157=EDGE_CURVE('',#131,#131,#113,.T.);
#158=EDGE_CURVE('',#131,#132,#71,.T.);
#159=EDGE_CURVE('',#132,#132,#114,.T.);
#160=EDGE_CURVE('',#133,#133,#115,.T.);
#161=EDGE_CURVE('',#133,#134,#72,.T.);
#162=EDGE_CURVE('',#134,#134,#116,.T.);
#163=EDGE_CURVE('',#135,#135,#117,.T.);
#164=EDGE_CURVE('',#135,#136,#73,.T.);
#165=EDGE_CURVE('',#136,#136,#118,.T.);
#166=EDGE_CURVE('',#137,#137,#119,.T.);
#167=EDGE_CURVE('',#137,#138,#74,.T.);
#168=EDGE_CURVE('',#138,#138,#120,.T.);
#169=EDGE_CURVE('',#139,#139,#121,.T.);
#170=EDGE_CURVE('',#139,#140,#75,.T.);
#171=EDGE_CURVE('',#140,#140,#122,.T.);
#172=EDGE_CURVE('',#141,#142,#76,.T.);
#173=EDGE_CURVE('',#142,#143,#77,.T.);
#174=EDGE_CURVE('',#144,#143,#78,.T.);
#175=EDGE_CURVE('',#141,#144,#79,.T.);
#176=EDGE_CURVE('',#145,#141,#123,.T.);
#177=EDGE_CURVE('',#146,#144,#124,.T.);
#178=EDGE_CURVE('',#145,#146,#80,.T.);
#179=EDGE_CURVE('',#147,#145,#81,.T.);
#180=EDGE_CURVE('',#148,#146,#82,.T.);
#181=EDGE_CURVE('',#147,#148,#83,.T.);
#182=EDGE_CURVE('',#149,#147,#125,.T.);
#183=EDGE_CURVE('',#150,#148,#126,.T.);
#184=EDGE_CURVE('',#149,#150,#84,.T.);
#185=EDGE_CURVE('',#151,#149,#85,.T.);
#186=EDGE_CURVE('',#152,#150,#86,.T.);
#187=EDGE_CURVE('',#151,#152,#87,.T.);
#188=EDGE_CURVE('',#153,#151,#127,.T.);
#189=EDGE_CURVE('',#154,#152,#128,.T.);
#190=EDGE_CURVE('',#153,#154,#88,.T.);
#191=EDGE_CURVE('',#155,#153,#89,.T.);
#192=EDGE_CURVE('',#156,#154,#90,.T.);
#193=EDGE_CURVE('',#155,#156,#91,.T.);
#194=EDGE_CURVE('',#142,#155,#129,.T.);
#195=EDGE_CURVE('',#143,#156,#130,.T.);
#196=ORIENTED_EDGE('',*,*,#157,.F.);
#197=ORIENTED_EDGE('',*,*,#158,.T.);
#198=ORIENTED_EDGE('',*,*,#159,.T.);
#199=ORIENTED_EDGE('',*,*,#158,.F.);
#200=ORIENTED_EDGE('',*,*,#160,.F.);
#201=ORIENTED_EDGE('',*,*,#161,.T.);
#202=ORIENTED_EDGE('',*,*,#162,.T.);
#203=ORIENTED_EDGE('',*,*,#161,.F.);
#204=ORIENTED_EDGE('',*,*,#163,.F.);
#205=ORIENTED_EDGE('',*,*,#164,.T.);
#206=ORIENTED_EDGE('',*,*,#165,.T.);
#207=ORIENTED_EDGE('',*,*,#164,.F.);
#208=ORIENTED_EDGE('',*,*,#166,.F.);
#209=ORIENTED_EDGE('',*,*,#167,.T.);
#210=ORIENTED_EDGE('',*,*,#168,.T.);
#211=ORIENTED_EDGE('',*,*,#167,.F.);
#212=ORIENTED_EDGE('',*,*,#169,.F.);
#213=ORIENTED_EDGE('',*,*,#170,.T.);
#214=ORIENTED_EDGE('',*,*,#171,.T.);
#215=ORIENTED_EDGE('',*,*,#170,.F.);
#216=ORIENTED_EDGE('',*,*,#172,.T.);
#217=ORIENTED_EDGE('',*,*,#173,.T.);
#218=ORIENTED_EDGE('',*,*,#174,.F.);
#219=ORIENTED_EDGE('',*,*,#175,.F.);
#220=ORIENTED_EDGE('',*,*,#176,.T.);
#221=ORIENTED_EDGE('',*,*,#175,.T.);
#222=ORIENTED_EDGE('',*,*,#177,.F.);
#223=ORIENTED_EDGE('',*,*,#178,.F.);
#224=ORIENTED_EDGE('',*,*,#179,.T.);
#225=ORIENTED_EDGE('',*,*,#178,.T.);
#226=ORIENTED_EDGE('',*,*,#180,.F.);
#227=ORIENTED_EDGE('',*,*,#181,.F.);
#228=ORIENTED_EDGE('',*,*,#182,.T.);
#229=ORIENTED_EDGE('',*,*,#181,.T.);
#230=ORIENTED_EDGE('',*,*,#183,.F.);
#231=ORIENTED_EDGE('',*,*,#184,.F.);
#232=ORIENTED_EDGE('',*,*,#185,.T.);
#233=ORIENTED_EDGE('',*,*,#184,.T.);
#234=ORIENTED_EDGE('',*,*,#186,.F.);
#235=ORIENTED_EDGE('',*,*,#187,.F.);
#236=ORIENTED_EDGE('',*,*,#188,.T.);
#237=ORIENTED_EDGE('',*,*,#187,.T.);
#238=ORIENTED_EDGE('',*,*,#189,.F.);
#239=ORIENTED_EDGE('',*,*,#190,.F.);
#240=ORIENTED_EDGE('',*,*,#191,.T.);
#241=ORIENTED_EDGE('',*,*,#190,.T.);
#242=ORIENTED_EDGE('',*,*,#192,.F.);
#243=ORIENTED_EDGE('',*,*,#193,.F.);
#244=ORIENTED_EDGE('',*,*,#194,.T.);
#245=ORIENTED_EDGE('',*,*,#193,.T.);
#246=ORIENTED_EDGE('',*,*,#195,.F.);
#247=ORIENTED_EDGE('',*,*,#173,.F.);
#248=ORIENTED_EDGE('',*,*,#195,.T.);
#249=ORIENTED_EDGE('',*,*,#192,.T.);
#250=ORIENTED_EDGE('',*,*,#189,.T.);
#251=ORIENTED_EDGE('',*,*,#186,.T.);
#252=ORIENTED_EDGE('',*,*,#183,.T.);
#253=ORIENTED_EDGE('',*,*,#180,.T.);
#254=ORIENTED_EDGE('',*,*,#177,.T.);
#255=ORIENTED_EDGE('',*,*,#174,.T.);
#256=ORIENTED_EDGE('',*,*,#157,.T.);
#257=ORIENTED_EDGE('',*,*,#160,.T.);
#258=ORIENTED_EDGE('',*,*,#163,.T.);
#259=ORIENTED_EDGE('',*,*,#169,.T.);
#260=ORIENTED_EDGE('',*,*,#166,.T.);
#261=ORIENTED_EDGE('',*,*,#194,.F.);
#262=ORIENTED_EDGE('',*,*,#172,.F.);
#263=ORIENTED_EDGE('',*,*,#176,.F.);
#264=ORIENTED_EDGE('',*,*,#179,.F.);
#265=ORIENTED_EDGE('',*,*,#182,.F.);
#266=ORIENTED_EDGE('',*,*,#185,.F.);
#267=ORIENTED_EDGE('',*,*,#188,.F.);
#268=ORIENTED_EDGE('',*,*,#191,.F.);
#269=ORIENTED_EDGE('',*,*,#159,.F.);
#270=ORIENTED_EDGE('',*,*,#162,.F.);
#271=ORIENTED_EDGE('',*,*,#165,.F.);
#272=ORIENTED_EDGE('',*,*,#171,.F.);
#273=ORIENTED_EDGE('',*,*,#168,.F.);
#274=CYLINDRICAL_SURFACE('',#312,2.);
#275=CYLINDRICAL_SURFACE('',#315,2.);
#276=CYLINDRICAL_SURFACE('',#318,9.5);
#277=CYLINDRICAL_SURFACE('',#321,3.175);
#278=CYLINDRICAL_SURFACE('',#324,3.175);
#279=CYLINDRICAL_SURFACE('',#328,12.);
#280=CYLINDRICAL_SURFACE('',#332,12.);
#281=CYLINDRICAL_SURFACE('',#336,12.);
#282=CYLINDRICAL_SURFACE('',#340,12.);
#283=ADVANCED_FACE('',(#31),#274,.F.);
#284=ADVANCED_FACE('',(#32),#275,.F.);
#285=ADVANCED_FACE('',(#33),#276,.F.);
#286=ADVANCED_FACE('',(#34),#277,.F.);
#287=ADVANCED_FACE('',(#35),#278,.F.);
#288=ADVANCED_FACE('',(#36),#25,.T.);
#289=ADVANCED_FACE('',(#37),#279,.T.);
#290=ADVANCED_FACE('',(#38),#26,.T.);
#291=ADVANCED_FACE('',(#39),#280,.T.);
#292=ADVANCED_FACE('',(#40),#27,.T.);
#293=ADVANCED_FACE('',(#41),#281,.T.);
#294=ADVANCED_FACE('',(#42),#28,.T.);
#295=ADVANCED_FACE('',(#43),#282,.T.);
#296=ADVANCED_FACE('',(#44,#15,#16,#17,#18,#19),#29,.T.);
#297=ADVANCED_FACE('',(#45,#20,#21,#22,#23,#24),#30,.F.);
#298=CLOSED_SHELL('',(#283,#284,#285,#286,#287,#288,#289,#290,#291,#292,
#293,#294,#295,#296,#297));
#299=DERIVED_UNIT_ELEMENT(#301,1.);
#300=DERIVED_UNIT_ELEMENT(#520,-3.);
#301=(
MASS_UNIT()
NAMED_UNIT(*)
SI_UNIT(.KILO.,.GRAM.)
);
#302=DERIVED_UNIT((#299,#300));
#303=MEASURE_REPRESENTATION_ITEM('density measure',
POSITIVE_RATIO_MEASURE(7850.),#302);
#304=PROPERTY_DEFINITION_REPRESENTATION(#309,#306);
#305=PROPERTY_DEFINITION_REPRESENTATION(#310,#307);
#306=REPRESENTATION('material name',(#308),#517);
#307=REPRESENTATION('density',(#303),#517);
#308=DESCRIPTIVE_REPRESENTATION_ITEM('Steel','Steel');
#309=PROPERTY_DEFINITION('material property','material name',#527);
#310=PROPERTY_DEFINITION('material property','density of part',#527);
#311=AXIS2_PLACEMENT_3D('',#434,#345,#346);
#312=AXIS2_PLACEMENT_3D('',#435,#347,#348);
#313=AXIS2_PLACEMENT_3D('',#437,#349,#350);
#314=AXIS2_PLACEMENT_3D('',#440,#352,#353);
#315=AXIS2_PLACEMENT_3D('',#441,#354,#355);
#316=AXIS2_PLACEMENT_3D('',#443,#356,#357);
#317=AXIS2_PLACEMENT_3D('',#446,#359,#360);
#318=AXIS2_PLACEMENT_3D('',#447,#361,#362);
#319=AXIS2_PLACEMENT_3D('',#449,#363,#364);
#320=AXIS2_PLACEMENT_3D('',#452,#366,#367);
#321=AXIS2_PLACEMENT_3D('',#453,#368,#369);
#322=AXIS2_PLACEMENT_3D('',#455,#370,#371);
#323=AXIS2_PLACEMENT_3D('',#458,#373,#374);
#324=AXIS2_PLACEMENT_3D('',#459,#375,#376);
#325=AXIS2_PLACEMENT_3D('',#461,#377,#378);
#326=AXIS2_PLACEMENT_3D('',#464,#380,#381);
#327=AXIS2_PLACEMENT_3D('',#465,#382,#383);
#328=AXIS2_PLACEMENT_3D('',#474,#388,#389);
#329=AXIS2_PLACEMENT_3D('',#476,#390,#391);
#330=AXIS2_PLACEMENT_3D('',#478,#392,#393);
#331=AXIS2_PLACEMENT_3D('',#480,#395,#396);
#332=AXIS2_PLACEMENT_3D('',#486,#400,#401);
#333=AXIS2_PLACEMENT_3D('',#488,#402,#403);
#334=AXIS2_PLACEMENT_3D('',#490,#404,#405);
#335=AXIS2_PLACEMENT_3D('',#492,#407,#408);
#336=AXIS2_PLACEMENT_3D('',#498,#412,#413);
#337=AXIS2_PLACEMENT_3D('',#500,#414,#415);
#338=AXIS2_PLACEMENT_3D('',#502,#416,#417);
#339=AXIS2_PLACEMENT_3D('',#504,#419,#420);
#340=AXIS2_PLACEMENT_3D('',#510,#424,#425);
#341=AXIS2_PLACEMENT_3D('',#511,#426,#427);
#342=AXIS2_PLACEMENT_3D('',#512,#428,#429);
#343=AXIS2_PLACEMENT_3D('',#513,#430,#431);
#344=AXIS2_PLACEMENT_3D('',#514,#432,#433);
#345=DIRECTION('axis',(0.,0.,1.));
#346=DIRECTION('refdir',(1.,0.,0.));
#347=DIRECTION('center_axis',(0.,1.,0.));
#348=DIRECTION('ref_axis',(1.,0.,0.));
#349=DIRECTION('center_axis',(0.,-1.,0.));
#350=DIRECTION('ref_axis',(1.,0.,0.));
#351=DIRECTION('',(0.,-1.,0.));
#352=DIRECTION('center_axis',(0.,-1.,0.));
#353=DIRECTION('ref_axis',(1.,0.,0.));
#354=DIRECTION('center_axis',(0.,1.,0.));
#355=DIRECTION('ref_axis',(1.,0.,0.));
#356=DIRECTION('center_axis',(0.,-1.,0.));
#357=DIRECTION('ref_axis',(1.,0.,0.));
#358=DIRECTION('',(0.,-1.,0.));
#359=DIRECTION('center_axis',(0.,-1.,0.));
#360=DIRECTION('ref_axis',(1.,0.,0.));
#361=DIRECTION('center_axis',(0.,1.,0.));
#362=DIRECTION('ref_axis',(1.,0.,0.));
#363=DIRECTION('center_axis',(0.,-1.,0.));
#364=DIRECTION('ref_axis',(1.,0.,0.));
#365=DIRECTION('',(0.,-1.,0.));
#366=DIRECTION('center_axis',(0.,-1.,0.));
#367=DIRECTION('ref_axis',(1.,0.,0.));
#368=DIRECTION('center_axis',(0.,1.,0.));
#369=DIRECTION('ref_axis',(1.,0.,0.));
#370=DIRECTION('center_axis',(0.,-1.,0.));
#371=DIRECTION('ref_axis',(1.,0.,0.));
#372=DIRECTION('',(0.,-1.,0.));
#373=DIRECTION('center_axis',(0.,-1.,0.));
#374=DIRECTION('ref_axis',(1.,0.,0.));
#375=DIRECTION('center_axis',(0.,1.,0.));
#376=DIRECTION('ref_axis',(1.,0.,0.));
#377=DIRECTION('center_axis',(0.,-1.,0.));
#378=DIRECTION('ref_axis',(1.,0.,0.));
#379=DIRECTION('',(0.,-1.,0.));
#380=DIRECTION('center_axis',(0.,-1.,0.));
#381=DIRECTION('ref_axis',(1.,0.,0.));
#382=DIRECTION('center_axis',(1.,0.,0.));
#383=DIRECTION('ref_axis',(0.,0.,-1.));
#384=DIRECTION('',(0.,0.,-1.));
#385=DIRECTION('',(0.,1.,0.));
#386=DIRECTION('',(0.,0.,-1.));
#387=DIRECTION('',(0.,1.,0.));
#388=DIRECTION('center_axis',(0.,1.,0.));
#389=DIRECTION('ref_axis',(-1.85037170770859E-16,0.,1.));
#390=DIRECTION('center_axis',(0.,1.,0.));
#391=DIRECTION('ref_axis',(-1.85037170770859E-16,0.,1.));
#392=DIRECTION('center_axis',(0.,1.,0.));
#393=DIRECTION('ref_axis',(-1.85037170770859E-16,0.,1.));
#394=DIRECTION('',(0.,1.,0.));
#395=DIRECTION('center_axis',(0.,0.,1.));
#396=DIRECTION('ref_axis',(1.,0.,0.));
#397=DIRECTION('',(1.,0.,0.));
#398=DIRECTION('',(1.,0.,0.));
#399=DIRECTION('',(0.,1.,0.));
#400=DIRECTION('center_axis',(0.,1.,0.));
#401=DIRECTION('ref_axis',(-1.,0.,0.));
#402=DIRECTION('center_axis',(0.,1.,0.));
#403=DIRECTION('ref_axis',(-1.,0.,0.));
#404=DIRECTION('center_axis',(0.,1.,0.));
#405=DIRECTION('ref_axis',(-1.,0.,0.));
#406=DIRECTION('',(0.,1.,0.));
#407=DIRECTION('center_axis',(-1.,0.,0.));
#408=DIRECTION('ref_axis',(0.,0.,1.));
#409=DIRECTION('',(0.,0.,1.));
#410=DIRECTION('',(0.,0.,1.));
#411=DIRECTION('',(0.,1.,0.));
#412=DIRECTION('center_axis',(0.,1.,0.));
#413=DIRECTION('ref_axis',(0.,0.,-1.));
#414=DIRECTION('center_axis',(0.,1.,0.));
#415=DIRECTION('ref_axis',(0.,0.,-1.));
#416=DIRECTION('center_axis',(0.,1.,0.));
#417=DIRECTION('ref_axis',(0.,0.,-1.));
#418=DIRECTION('',(0.,1.,0.));
#419=DIRECTION('center_axis',(0.,0.,-1.));
#420=DIRECTION('ref_axis',(-1.,0.,0.));
#421=DIRECTION('',(-1.,0.,0.));
#422=DIRECTION('',(-1.,0.,0.));
#423=DIRECTION('',(0.,1.,0.));
#424=DIRECTION('center_axis',(0.,1.,0.));
#425=DIRECTION('ref_axis',(1.,0.,-7.40148683083437E-16));
#426=DIRECTION('center_axis',(0.,1.,0.));
#427=DIRECTION('ref_axis',(1.,0.,-7.40148683083437E-16));
#428=DIRECTION('center_axis',(0.,1.,0.));
#429=DIRECTION('ref_axis',(1.,0.,-7.40148683083437E-16));
#430=DIRECTION('center_axis',(0.,1.,0.));
#431=DIRECTION('ref_axis',(1.,0.,0.));
#432=DIRECTION('center_axis',(0.,1.,0.));
#433=DIRECTION('ref_axis',(1.,0.,0.));
#434=CARTESIAN_POINT('',(0.,0.,0.));
#435=CARTESIAN_POINT('Origin',(15.0000002235174,0.,0.));
#436=CARTESIAN_POINT('',(13.0000002235174,4.5,2.44929359829471E-16));
#437=CARTESIAN_POINT('Origin',(15.0000002235174,4.5,0.));
#438=CARTESIAN_POINT('',(13.0000002235174,0.,2.44929359829471E-16));
#439=CARTESIAN_POINT('',(13.0000002235174,0.,2.44929359829471E-16));
#440=CARTESIAN_POINT('Origin',(15.0000002235174,0.,0.));
#441=CARTESIAN_POINT('Origin',(-15.,0.,0.));
#442=CARTESIAN_POINT('',(-17.,4.5,2.44929359829471E-16));
#443=CARTESIAN_POINT('Origin',(-15.,4.5,0.));
#444=CARTESIAN_POINT('',(-17.,0.,2.44929359829471E-16));
#445=CARTESIAN_POINT('',(-17.,0.,2.44929359829471E-16));
#446=CARTESIAN_POINT('Origin',(-15.,0.,0.));
#447=CARTESIAN_POINT('Origin',(0.,0.,0.));
#448=CARTESIAN_POINT('',(-9.5,4.5,1.16341445918999E-15));
#449=CARTESIAN_POINT('Origin',(0.,4.5,0.));
#450=CARTESIAN_POINT('',(-9.5,0.,1.16341445918999E-15));
#451=CARTESIAN_POINT('',(-9.5,0.,1.16341445918999E-15));
#452=CARTESIAN_POINT('Origin',(0.,0.,0.));
#453=CARTESIAN_POINT('Origin',(0.,0.,30.));
#454=CARTESIAN_POINT('',(-3.175,4.5,30.));
#455=CARTESIAN_POINT('Origin',(0.,4.5,30.));
#456=CARTESIAN_POINT('',(-3.175,0.,30.));
#457=CARTESIAN_POINT('',(-3.175,0.,30.));
#458=CARTESIAN_POINT('Origin',(0.,0.,30.));
#459=CARTESIAN_POINT('Origin',(0.,0.,-30.0000004470348));
#460=CARTESIAN_POINT('',(-3.175,4.5,-30.0000004470348));
#461=CARTESIAN_POINT('Origin',(0.,4.5,-30.0000004470348));
#462=CARTESIAN_POINT('',(-3.175,0.,-30.0000004470348));
#463=CARTESIAN_POINT('',(-3.175,0.,-30.0000004470348));
#464=CARTESIAN_POINT('Origin',(0.,0.,-30.0000004470348));
#465=CARTESIAN_POINT('Origin',(25.,0.,28.));
#466=CARTESIAN_POINT('',(25.,0.,28.));
#467=CARTESIAN_POINT('',(25.,0.,-28.));
#468=CARTESIAN_POINT('',(25.,0.,28.));
#469=CARTESIAN_POINT('',(25.,4.5,-28.));
#470=CARTESIAN_POINT('',(25.,0.,-28.));
#471=CARTESIAN_POINT('',(25.,4.5,28.));
#472=CARTESIAN_POINT('',(25.,4.5,28.));
#473=CARTESIAN_POINT('',(25.,0.,28.));
#474=CARTESIAN_POINT('Origin',(13.,0.,28.));
#475=CARTESIAN_POINT('',(13.,0.,40.));
#476=CARTESIAN_POINT('Origin',(13.,0.,28.));
#477=CARTESIAN_POINT('',(13.,4.5,40.));
#478=CARTESIAN_POINT('Origin',(13.,4.5,28.));
#479=CARTESIAN_POINT('',(13.,0.,40.));
#480=CARTESIAN_POINT('Origin',(-13.,0.,40.));
#481=CARTESIAN_POINT('',(-13.,0.,40.));
#482=CARTESIAN_POINT('',(-13.,0.,40.));
#483=CARTESIAN_POINT('',(-13.,4.5,40.));
#484=CARTESIAN_POINT('',(-13.,4.5,40.));
#485=CARTESIAN_POINT('',(-13.,0.,40.));
#486=CARTESIAN_POINT('Origin',(-13.,0.,28.));
#487=CARTESIAN_POINT('',(-25.,0.,28.));
#488=CARTESIAN_POINT('Origin',(-13.,0.,28.));
#489=CARTESIAN_POINT('',(-25.,4.5,28.));
#490=CARTESIAN_POINT('Origin',(-13.,4.5,28.));
#491=CARTESIAN_POINT('',(-25.,0.,28.));
#492=CARTESIAN_POINT('Origin',(-25.,0.,-28.));
#493=CARTESIAN_POINT('',(-25.,0.,-28.));
#494=CARTESIAN_POINT('',(-25.,0.,-28.));
#495=CARTESIAN_POINT('',(-25.,4.5,-28.));
#496=CARTESIAN_POINT('',(-25.,4.5,-28.));
#497=CARTESIAN_POINT('',(-25.,0.,-28.));
#498=CARTESIAN_POINT('Origin',(-13.,0.,-28.));
#499=CARTESIAN_POINT('',(-13.,0.,-40.));
#500=CARTESIAN_POINT('Origin',(-13.,0.,-28.));
#501=CARTESIAN_POINT('',(-13.,4.5,-40.));
#502=CARTESIAN_POINT('Origin',(-13.,4.5,-28.));
#503=CARTESIAN_POINT('',(-13.,0.,-40.));
#504=CARTESIAN_POINT('Origin',(13.,0.,-40.));
#505=CARTESIAN_POINT('',(13.,0.,-40.));
#506=CARTESIAN_POINT('',(13.,0.,-40.));
#507=CARTESIAN_POINT('',(13.,4.5,-40.));
#508=CARTESIAN_POINT('',(13.,4.5,-40.));
#509=CARTESIAN_POINT('',(13.,0.,-40.));
#510=CARTESIAN_POINT('Origin',(13.,0.,-28.));
#511=CARTESIAN_POINT('Origin',(13.,0.,-28.));
#512=CARTESIAN_POINT('Origin',(13.,4.5,-28.));
#513=CARTESIAN_POINT('Origin',(0.,4.5,0.));
#514=CARTESIAN_POINT('Origin',(0.,0.,0.));
#515=UNCERTAINTY_MEASURE_WITH_UNIT(LENGTH_MEASURE(0.01),#519,
'DISTANCE_ACCURACY_VALUE',
'Maximum model space distance between geometric entities at asserted c
onnectivities');
#516=UNCERTAINTY_MEASURE_WITH_UNIT(LENGTH_MEASURE(0.01),#519,
'DISTANCE_ACCURACY_VALUE',
'Maximum model space distance between geometric entities at asserted c
onnectivities');
#517=(
GEOMETRIC_REPRESENTATION_CONTEXT(3)
GLOBAL_UNCERTAINTY_ASSIGNED_CONTEXT((#515))
GLOBAL_UNIT_ASSIGNED_CONTEXT((#519,#521,#522))
REPRESENTATION_CONTEXT('','3D')
);
#518=(
GEOMETRIC_REPRESENTATION_CONTEXT(3)
GLOBAL_UNCERTAINTY_ASSIGNED_CONTEXT((#516))
GLOBAL_UNIT_ASSIGNED_CONTEXT((#519,#521,#522))
REPRESENTATION_CONTEXT('','3D')
);
#519=(
LENGTH_UNIT()
NAMED_UNIT(*)
SI_UNIT(.MILLI.,.METRE.)
);
#520=(
LENGTH_UNIT()
NAMED_UNIT(*)
SI_UNIT($,.METRE.)
);
#521=(
NAMED_UNIT(*)
PLANE_ANGLE_UNIT()
SI_UNIT($,.RADIAN.)
);
#522=(
NAMED_UNIT(*)
SI_UNIT($,.STERADIAN.)
SOLID_ANGLE_UNIT()
);
#523=SHAPE_DEFINITION_REPRESENTATION(#524,#525);
#524=PRODUCT_DEFINITION_SHAPE('',$,#527);
#525=SHAPE_REPRESENTATION('',(#311),#517);
#526=PRODUCT_DEFINITION_CONTEXT('part definition',#531,'design');
#527=PRODUCT_DEFINITION('2026-07-12-20-51-53-928','screw mount',#528,#526);
#528=PRODUCT_DEFINITION_FORMATION('',$,#533);
#529=PRODUCT_RELATED_PRODUCT_CATEGORY('screw mount','screw mount',(#533));
#530=APPLICATION_PROTOCOL_DEFINITION('international standard',
'automotive_design',2009,#531);
#531=APPLICATION_CONTEXT(
'Core Data for Automotive Mechanical Design Process');
#532=PRODUCT_CONTEXT('part definition',#531,'mechanical');
#533=PRODUCT('2026-07-12-20-51-53-928','screw mount',$,(#532));
#534=PRESENTATION_STYLE_ASSIGNMENT((#535));
#535=SURFACE_STYLE_USAGE(.BOTH.,#536);
#536=SURFACE_SIDE_STYLE('',(#537));
#537=SURFACE_STYLE_FILL_AREA(#538);
#538=FILL_AREA_STYLE('Steel - Satin',(#539));
#539=FILL_AREA_STYLE_COLOUR('Steel - Satin',#540);
#540=COLOUR_RGB('Steel - Satin',0.627450980392157,0.627450980392157,0.627450980392157);
ENDSEC;
END-ISO-10303-21;
