ISO-10303-21;
HEADER;
/* Generated by software containing ST-Developer
 * from STEP Tools, Inc. (www.steptools.com) 
 */

FILE_DESCRIPTION(
/* description */ (''),
/* implementation_level */ '2;1');

FILE_NAME(
/* name */ 'stepper.step',
/* time_stamp */ '2026-09-04T15:51:49-04:00',
/* author */ (''),
/* organization */ (''),
/* preprocessor_version */ 'ST-DEVELOPER v20.1',
/* originating_system */ 'Autodesk Translation Framework v15.8.0.0',
/* authorisation */ '');

FILE_SCHEMA (('AUTOMOTIVE_DESIGN { 1 0 10303 214 3 1 1 }'));
ENDSEC;

DATA;
#10=MECHANICAL_DESIGN_GEOMETRIC_PRESENTATION_REPRESENTATION('',(#381,#382,
#383,#384,#385,#386,#387,#388,#389,#390,#391,#392),#708);
#11=SHAPE_REPRESENTATION_RELATIONSHIP('SRR','None',#715,#12);
#12=ADVANCED_BREP_SHAPE_REPRESENTATION('',(#13),#707);
#13=MANIFOLD_SOLID_BREP('Body1',#418);
#14=FACE_BOUND('',#75,.T.);
#15=FACE_BOUND('',#89,.T.);
#16=FACE_BOUND('',#90,.T.);
#17=FACE_BOUND('',#91,.T.);
#18=FACE_BOUND('',#92,.T.);
#19=FACE_BOUND('',#93,.T.);
#20=FACE_BOUND('',#95,.T.);
#21=PLANE('',#435);
#22=PLANE('',#436);
#23=PLANE('',#437);
#24=PLANE('',#443);
#25=PLANE('',#445);
#26=PLANE('',#447);
#27=PLANE('',#449);
#28=PLANE('',#454);
#29=PLANE('',#463);
#30=PLANE('',#464);
#31=PLANE('',#465);
#32=PLANE('',#466);
#33=PLANE('',#467);
#34=PLANE('',#468);
#35=PLANE('',#469);
#36=PLANE('',#470);
#37=PLANE('',#471);
#38=PLANE('',#472);
#39=FACE_OUTER_BOUND('',#64,.T.);
#40=FACE_OUTER_BOUND('',#65,.T.);
#41=FACE_OUTER_BOUND('',#66,.T.);
#42=FACE_OUTER_BOUND('',#67,.T.);
#43=FACE_OUTER_BOUND('',#68,.T.);
#44=FACE_OUTER_BOUND('',#69,.T.);
#45=FACE_OUTER_BOUND('',#70,.T.);
#46=FACE_OUTER_BOUND('',#71,.T.);
#47=FACE_OUTER_BOUND('',#72,.T.);
#48=FACE_OUTER_BOUND('',#73,.T.);
#49=FACE_OUTER_BOUND('',#74,.T.);
#50=FACE_OUTER_BOUND('',#76,.T.);
#51=FACE_OUTER_BOUND('',#77,.T.);
#52=FACE_OUTER_BOUND('',#78,.T.);
#53=FACE_OUTER_BOUND('',#79,.T.);
#54=FACE_OUTER_BOUND('',#80,.T.);
#55=FACE_OUTER_BOUND('',#81,.T.);
#56=FACE_OUTER_BOUND('',#82,.T.);
#57=FACE_OUTER_BOUND('',#83,.T.);
#58=FACE_OUTER_BOUND('',#84,.T.);
#59=FACE_OUTER_BOUND('',#85,.T.);
#60=FACE_OUTER_BOUND('',#86,.T.);
#61=FACE_OUTER_BOUND('',#87,.T.);
#62=FACE_OUTER_BOUND('',#88,.T.);
#63=FACE_OUTER_BOUND('',#94,.T.);
#64=EDGE_LOOP('',(#270,#271,#272,#273));
#65=EDGE_LOOP('',(#274,#275,#276,#277,#278,#279));
#66=EDGE_LOOP('',(#280,#281));
#67=EDGE_LOOP('',(#282,#283));
#68=EDGE_LOOP('',(#284,#285,#286,#287,#288,#289,#290,#291));
#69=EDGE_LOOP('',(#292));
#70=EDGE_LOOP('',(#293));
#71=EDGE_LOOP('',(#294));
#72=EDGE_LOOP('',(#295));
#73=EDGE_LOOP('',(#296,#297,#298,#299));
#74=EDGE_LOOP('',(#300));
#75=EDGE_LOOP('',(#301,#302,#303));
#76=EDGE_LOOP('',(#304,#305,#306,#307));
#77=EDGE_LOOP('',(#308,#309,#310,#311));
#78=EDGE_LOOP('',(#312,#313,#314,#315));
#79=EDGE_LOOP('',(#316,#317,#318,#319));
#80=EDGE_LOOP('',(#320,#321,#322,#323));
#81=EDGE_LOOP('',(#324,#325,#326,#327));
#82=EDGE_LOOP('',(#328,#329,#330,#331));
#83=EDGE_LOOP('',(#332,#333,#334,#335));
#84=EDGE_LOOP('',(#336,#337,#338,#339));
#85=EDGE_LOOP('',(#340,#341,#342,#343));
#86=EDGE_LOOP('',(#344,#345,#346,#347));
#87=EDGE_LOOP('',(#348,#349,#350,#351));
#88=EDGE_LOOP('',(#352,#353,#354,#355,#356,#357,#358,#359));
#89=EDGE_LOOP('',(#360));
#90=EDGE_LOOP('',(#361));
#91=EDGE_LOOP('',(#362));
#92=EDGE_LOOP('',(#363));
#93=EDGE_LOOP('',(#364));
#94=EDGE_LOOP('',(#365,#366,#367,#368,#369,#370,#371,#372));
#95=EDGE_LOOP('',(#373));
#96=LINE('',#599,#132);
#97=LINE('',#602,#133);
#98=LINE('',#606,#134);
#99=LINE('',#607,#135);
#100=LINE('',#608,#136);
#101=LINE('',#609,#137);
#102=LINE('',#617,#138);
#103=LINE('',#636,#139);
#104=LINE('',#641,#140);
#105=LINE('',#645,#141);
#106=LINE('',#649,#142);
#107=LINE('',#653,#143);
#108=LINE('',#658,#144);
#109=LINE('',#660,#145);
#110=LINE('',#662,#146);
#111=LINE('',#663,#147);
#112=LINE('',#666,#148);
#113=LINE('',#668,#149);
#114=LINE('',#669,#150);
#115=LINE('',#672,#151);
#116=LINE('',#674,#152);
#117=LINE('',#675,#153);
#118=LINE('',#678,#154);
#119=LINE('',#680,#155);
#120=LINE('',#681,#156);
#121=LINE('',#684,#157);
#122=LINE('',#686,#158);
#123=LINE('',#687,#159);
#124=LINE('',#690,#160);
#125=LINE('',#692,#161);
#126=LINE('',#693,#162);
#127=LINE('',#696,#163);
#128=LINE('',#698,#164);
#129=LINE('',#699,#165);
#130=LINE('',#701,#166);
#131=LINE('',#702,#167);
#132=VECTOR('',#479,10.);
#133=VECTOR('',#482,10.);
#134=VECTOR('',#485,10.);
#135=VECTOR('',#486,10.);
#136=VECTOR('',#487,10.);
#137=VECTOR('',#488,10.);
#138=VECTOR('',#499,2.5);
#139=VECTOR('',#524,11.);
#140=VECTOR('',#531,1.5);
#141=VECTOR('',#536,1.5);
#142=VECTOR('',#541,1.5);
#143=VECTOR('',#546,1.5);
#144=VECTOR('',#551,10.);
#145=VECTOR('',#552,10.);
#146=VECTOR('',#553,10.);
#147=VECTOR('',#554,10.);
#148=VECTOR('',#557,10.);
#149=VECTOR('',#558,10.);
#150=VECTOR('',#559,10.);
#151=VECTOR('',#562,10.);
#152=VECTOR('',#563,10.);
#153=VECTOR('',#564,10.);
#154=VECTOR('',#567,10.);
#155=VECTOR('',#568,10.);
#156=VECTOR('',#569,10.);
#157=VECTOR('',#572,10.);
#158=VECTOR('',#573,10.);
#159=VECTOR('',#574,10.);
#160=VECTOR('',#577,10.);
#161=VECTOR('',#578,10.);
#162=VECTOR('',#579,10.);
#163=VECTOR('',#582,10.);
#164=VECTOR('',#583,10.);
#165=VECTOR('',#584,10.);
#166=VECTOR('',#587,10.);
#167=VECTOR('',#588,10.);
#168=CIRCLE('',#433,2.5);
#169=CIRCLE('',#434,2.5);
#170=CIRCLE('',#438,2.5);
#171=CIRCLE('',#440,2.5);
#172=CIRCLE('',#441,2.5);
#173=CIRCLE('',#442,2.5);
#174=CIRCLE('',#444,1.5);
#175=CIRCLE('',#446,1.5);
#176=CIRCLE('',#448,1.5);
#177=CIRCLE('',#450,1.5);
#178=CIRCLE('',#452,11.);
#179=CIRCLE('',#453,11.);
#180=CIRCLE('',#456,1.5);
#181=CIRCLE('',#458,1.5);
#182=CIRCLE('',#460,1.5);
#183=CIRCLE('',#462,1.5);
#184=VERTEX_POINT('',#595);
#185=VERTEX_POINT('',#596);
#186=VERTEX_POINT('',#598);
#187=VERTEX_POINT('',#600);
#188=VERTEX_POINT('',#604);
#189=VERTEX_POINT('',#605);
#190=VERTEX_POINT('',#614);
#191=VERTEX_POINT('',#616);
#192=VERTEX_POINT('',#621);
#193=VERTEX_POINT('',#624);
#194=VERTEX_POINT('',#627);
#195=VERTEX_POINT('',#630);
#196=VERTEX_POINT('',#633);
#197=VERTEX_POINT('',#635);
#198=VERTEX_POINT('',#640);
#199=VERTEX_POINT('',#644);
#200=VERTEX_POINT('',#648);
#201=VERTEX_POINT('',#652);
#202=VERTEX_POINT('',#656);
#203=VERTEX_POINT('',#657);
#204=VERTEX_POINT('',#659);
#205=VERTEX_POINT('',#661);
#206=VERTEX_POINT('',#665);
#207=VERTEX_POINT('',#667);
#208=VERTEX_POINT('',#671);
#209=VERTEX_POINT('',#673);
#210=VERTEX_POINT('',#677);
#211=VERTEX_POINT('',#679);
#212=VERTEX_POINT('',#683);
#213=VERTEX_POINT('',#685);
#214=VERTEX_POINT('',#689);
#215=VERTEX_POINT('',#691);
#216=VERTEX_POINT('',#695);
#217=VERTEX_POINT('',#697);
#218=EDGE_CURVE('',#184,#185,#168,.T.);
#219=EDGE_CURVE('',#184,#186,#96,.T.);
#220=EDGE_CURVE('',#187,#186,#169,.T.);
#221=EDGE_CURVE('',#185,#187,#97,.T.);
#222=EDGE_CURVE('',#188,#189,#98,.T.);
#223=EDGE_CURVE('',#185,#189,#99,.T.);
#224=EDGE_CURVE('',#186,#187,#100,.T.);
#225=EDGE_CURVE('',#188,#184,#101,.T.);
#226=EDGE_CURVE('',#189,#188,#170,.T.);
#227=EDGE_CURVE('',#190,#184,#171,.T.);
#228=EDGE_CURVE('',#190,#191,#102,.T.);
#229=EDGE_CURVE('',#191,#191,#172,.T.);
#230=EDGE_CURVE('',#185,#190,#173,.T.);
#231=EDGE_CURVE('',#192,#192,#174,.T.);
#232=EDGE_CURVE('',#193,#193,#175,.T.);
#233=EDGE_CURVE('',#194,#194,#176,.T.);
#234=EDGE_CURVE('',#195,#195,#177,.T.);
#235=EDGE_CURVE('',#196,#196,#178,.T.);
#236=EDGE_CURVE('',#196,#197,#103,.T.);
#237=EDGE_CURVE('',#197,#197,#179,.T.);
#238=EDGE_CURVE('',#192,#198,#104,.T.);
#239=EDGE_CURVE('',#198,#198,#180,.T.);
#240=EDGE_CURVE('',#194,#199,#105,.T.);
#241=EDGE_CURVE('',#199,#199,#181,.T.);
#242=EDGE_CURVE('',#195,#200,#106,.T.);
#243=EDGE_CURVE('',#200,#200,#182,.T.);
#244=EDGE_CURVE('',#193,#201,#107,.T.);
#245=EDGE_CURVE('',#201,#201,#183,.T.);
#246=EDGE_CURVE('',#202,#203,#108,.T.);
#247=EDGE_CURVE('',#202,#204,#109,.T.);
#248=EDGE_CURVE('',#205,#204,#110,.T.);
#249=EDGE_CURVE('',#203,#205,#111,.T.);
#250=EDGE_CURVE('',#206,#203,#112,.T.);
#251=EDGE_CURVE('',#207,#205,#113,.T.);
#252=EDGE_CURVE('',#206,#207,#114,.T.);
#253=EDGE_CURVE('',#206,#208,#115,.T.);
#254=EDGE_CURVE('',#209,#207,#116,.T.);
#255=EDGE_CURVE('',#208,#209,#117,.T.);
#256=EDGE_CURVE('',#208,#210,#118,.T.);
#257=EDGE_CURVE('',#211,#209,#119,.T.);
#258=EDGE_CURVE('',#210,#211,#120,.T.);
#259=EDGE_CURVE('',#212,#210,#121,.T.);
#260=EDGE_CURVE('',#213,#211,#122,.T.);
#261=EDGE_CURVE('',#212,#213,#123,.T.);
#262=EDGE_CURVE('',#212,#214,#124,.T.);
#263=EDGE_CURVE('',#215,#213,#125,.T.);
#264=EDGE_CURVE('',#214,#215,#126,.T.);
#265=EDGE_CURVE('',#216,#214,#127,.T.);
#266=EDGE_CURVE('',#217,#215,#128,.T.);
#267=EDGE_CURVE('',#216,#217,#129,.T.);
#268=EDGE_CURVE('',#216,#202,#130,.T.);
#269=EDGE_CURVE('',#204,#217,#131,.T.);
#270=ORIENTED_EDGE('',*,*,#218,.F.);
#271=ORIENTED_EDGE('',*,*,#219,.T.);
#272=ORIENTED_EDGE('',*,*,#220,.F.);
#273=ORIENTED_EDGE('',*,*,#221,.F.);
#274=ORIENTED_EDGE('',*,*,#222,.T.);
#275=ORIENTED_EDGE('',*,*,#223,.F.);
#276=ORIENTED_EDGE('',*,*,#221,.T.);
#277=ORIENTED_EDGE('',*,*,#224,.F.);
#278=ORIENTED_EDGE('',*,*,#219,.F.);
#279=ORIENTED_EDGE('',*,*,#225,.F.);
#280=ORIENTED_EDGE('',*,*,#224,.T.);
#281=ORIENTED_EDGE('',*,*,#220,.T.);
#282=ORIENTED_EDGE('',*,*,#222,.F.);
#283=ORIENTED_EDGE('',*,*,#226,.F.);
#284=ORIENTED_EDGE('',*,*,#223,.T.);
#285=ORIENTED_EDGE('',*,*,#226,.T.);
#286=ORIENTED_EDGE('',*,*,#225,.T.);
#287=ORIENTED_EDGE('',*,*,#227,.F.);
#288=ORIENTED_EDGE('',*,*,#228,.T.);
#289=ORIENTED_EDGE('',*,*,#229,.F.);
#290=ORIENTED_EDGE('',*,*,#228,.F.);
#291=ORIENTED_EDGE('',*,*,#230,.F.);
#292=ORIENTED_EDGE('',*,*,#231,.F.);
#293=ORIENTED_EDGE('',*,*,#232,.F.);
#294=ORIENTED_EDGE('',*,*,#233,.F.);
#295=ORIENTED_EDGE('',*,*,#234,.F.);
#296=ORIENTED_EDGE('',*,*,#235,.F.);
#297=ORIENTED_EDGE('',*,*,#236,.T.);
#298=ORIENTED_EDGE('',*,*,#237,.F.);
#299=ORIENTED_EDGE('',*,*,#236,.F.);
#300=ORIENTED_EDGE('',*,*,#235,.T.);
#301=ORIENTED_EDGE('',*,*,#230,.T.);
#302=ORIENTED_EDGE('',*,*,#227,.T.);
#303=ORIENTED_EDGE('',*,*,#218,.T.);
#304=ORIENTED_EDGE('',*,*,#231,.T.);
#305=ORIENTED_EDGE('',*,*,#238,.T.);
#306=ORIENTED_EDGE('',*,*,#239,.F.);
#307=ORIENTED_EDGE('',*,*,#238,.F.);
#308=ORIENTED_EDGE('',*,*,#233,.T.);
#309=ORIENTED_EDGE('',*,*,#240,.T.);
#310=ORIENTED_EDGE('',*,*,#241,.F.);
#311=ORIENTED_EDGE('',*,*,#240,.F.);
#312=ORIENTED_EDGE('',*,*,#234,.T.);
#313=ORIENTED_EDGE('',*,*,#242,.T.);
#314=ORIENTED_EDGE('',*,*,#243,.F.);
#315=ORIENTED_EDGE('',*,*,#242,.F.);
#316=ORIENTED_EDGE('',*,*,#232,.T.);
#317=ORIENTED_EDGE('',*,*,#244,.T.);
#318=ORIENTED_EDGE('',*,*,#245,.F.);
#319=ORIENTED_EDGE('',*,*,#244,.F.);
#320=ORIENTED_EDGE('',*,*,#246,.F.);
#321=ORIENTED_EDGE('',*,*,#247,.T.);
#322=ORIENTED_EDGE('',*,*,#248,.F.);
#323=ORIENTED_EDGE('',*,*,#249,.F.);
#324=ORIENTED_EDGE('',*,*,#250,.T.);
#325=ORIENTED_EDGE('',*,*,#249,.T.);
#326=ORIENTED_EDGE('',*,*,#251,.F.);
#327=ORIENTED_EDGE('',*,*,#252,.F.);
#328=ORIENTED_EDGE('',*,*,#253,.F.);
#329=ORIENTED_EDGE('',*,*,#252,.T.);
#330=ORIENTED_EDGE('',*,*,#254,.F.);
#331=ORIENTED_EDGE('',*,*,#255,.F.);
#332=ORIENTED_EDGE('',*,*,#256,.F.);
#333=ORIENTED_EDGE('',*,*,#255,.T.);
#334=ORIENTED_EDGE('',*,*,#257,.F.);
#335=ORIENTED_EDGE('',*,*,#258,.F.);
#336=ORIENTED_EDGE('',*,*,#259,.T.);
#337=ORIENTED_EDGE('',*,*,#258,.T.);
#338=ORIENTED_EDGE('',*,*,#260,.F.);
#339=ORIENTED_EDGE('',*,*,#261,.F.);
#340=ORIENTED_EDGE('',*,*,#262,.F.);
#341=ORIENTED_EDGE('',*,*,#261,.T.);
#342=ORIENTED_EDGE('',*,*,#263,.F.);
#343=ORIENTED_EDGE('',*,*,#264,.F.);
#344=ORIENTED_EDGE('',*,*,#265,.T.);
#345=ORIENTED_EDGE('',*,*,#264,.T.);
#346=ORIENTED_EDGE('',*,*,#266,.F.);
#347=ORIENTED_EDGE('',*,*,#267,.F.);
#348=ORIENTED_EDGE('',*,*,#268,.F.);
#349=ORIENTED_EDGE('',*,*,#267,.T.);
#350=ORIENTED_EDGE('',*,*,#269,.F.);
#351=ORIENTED_EDGE('',*,*,#247,.F.);
#352=ORIENTED_EDGE('',*,*,#268,.T.);
#353=ORIENTED_EDGE('',*,*,#246,.T.);
#354=ORIENTED_EDGE('',*,*,#250,.F.);
#355=ORIENTED_EDGE('',*,*,#253,.T.);
#356=ORIENTED_EDGE('',*,*,#256,.T.);
#357=ORIENTED_EDGE('',*,*,#259,.F.);
#358=ORIENTED_EDGE('',*,*,#262,.T.);
#359=ORIENTED_EDGE('',*,*,#265,.F.);
#360=ORIENTED_EDGE('',*,*,#245,.T.);
#361=ORIENTED_EDGE('',*,*,#243,.T.);
#362=ORIENTED_EDGE('',*,*,#241,.T.);
#363=ORIENTED_EDGE('',*,*,#239,.T.);
#364=ORIENTED_EDGE('',*,*,#237,.T.);
#365=ORIENTED_EDGE('',*,*,#269,.T.);
#366=ORIENTED_EDGE('',*,*,#266,.T.);
#367=ORIENTED_EDGE('',*,*,#263,.T.);
#368=ORIENTED_EDGE('',*,*,#260,.T.);
#369=ORIENTED_EDGE('',*,*,#257,.T.);
#370=ORIENTED_EDGE('',*,*,#254,.T.);
#371=ORIENTED_EDGE('',*,*,#251,.T.);
#372=ORIENTED_EDGE('',*,*,#248,.T.);
#373=ORIENTED_EDGE('',*,*,#229,.T.);
#374=CYLINDRICAL_SURFACE('',#432,2.5);
#375=CYLINDRICAL_SURFACE('',#439,2.5);
#376=CYLINDRICAL_SURFACE('',#451,11.);
#377=CYLINDRICAL_SURFACE('',#455,1.5);
#378=CYLINDRICAL_SURFACE('',#457,1.5);
#379=CYLINDRICAL_SURFACE('',#459,1.5);
#380=CYLINDRICAL_SURFACE('',#461,1.5);
#381=STYLED_ITEM('',(#725),#393);
#382=STYLED_ITEM('',(#725),#394);
#383=STYLED_ITEM('',(#725),#395);
#384=STYLED_ITEM('',(#726),#408);
#385=STYLED_ITEM('',(#726),#409);
#386=STYLED_ITEM('',(#726),#410);
#387=STYLED_ITEM('',(#726),#411);
#388=STYLED_ITEM('',(#726),#412);
#389=STYLED_ITEM('',(#726),#413);
#390=STYLED_ITEM('',(#726),#414);
#391=STYLED_ITEM('',(#726),#415);
#392=STYLED_ITEM('',(#724),#13);
#393=ADVANCED_FACE('',(#39),#374,.T.);
#394=ADVANCED_FACE('',(#40),#21,.T.);
#395=ADVANCED_FACE('',(#41),#22,.T.);
#396=ADVANCED_FACE('',(#42),#23,.F.);
#397=ADVANCED_FACE('',(#43),#375,.F.);
#398=ADVANCED_FACE('',(#44),#24,.F.);
#399=ADVANCED_FACE('',(#45),#25,.F.);
#400=ADVANCED_FACE('',(#46),#26,.F.);
#401=ADVANCED_FACE('',(#47),#27,.F.);
#402=ADVANCED_FACE('',(#48),#376,.T.);
#403=ADVANCED_FACE('',(#49,#14),#28,.T.);
#404=ADVANCED_FACE('',(#50),#377,.F.);
#405=ADVANCED_FACE('',(#51),#378,.F.);
#406=ADVANCED_FACE('',(#52),#379,.F.);
#407=ADVANCED_FACE('',(#53),#380,.F.);
#408=ADVANCED_FACE('',(#54),#29,.T.);
#409=ADVANCED_FACE('',(#55),#30,.T.);
#410=ADVANCED_FACE('',(#56),#31,.T.);
#411=ADVANCED_FACE('',(#57),#32,.T.);
#412=ADVANCED_FACE('',(#58),#33,.T.);
#413=ADVANCED_FACE('',(#59),#34,.T.);
#414=ADVANCED_FACE('',(#60),#35,.T.);
#415=ADVANCED_FACE('',(#61),#36,.T.);
#416=ADVANCED_FACE('',(#62,#15,#16,#17,#18,#19),#37,.T.);
#417=ADVANCED_FACE('',(#63,#20),#38,.F.);
#418=CLOSED_SHELL('',(#393,#394,#395,#396,#397,#398,#399,#400,#401,#402,
#403,#404,#405,#406,#407,#408,#409,#410,#411,#412,#413,#414,#415,#416,#417));
#419=DERIVED_UNIT_ELEMENT(#421,1.);
#420=DERIVED_UNIT_ELEMENT(#710,-3.);
#421=(
MASS_UNIT()
NAMED_UNIT(*)
SI_UNIT(.KILO.,.GRAM.)
);
#422=DERIVED_UNIT((#419,#420));
#423=MEASURE_REPRESENTATION_ITEM('density measure',
POSITIVE_RATIO_MEASURE(7850.),#422);
#424=PROPERTY_DEFINITION_REPRESENTATION(#429,#426);
#425=PROPERTY_DEFINITION_REPRESENTATION(#430,#427);
#426=REPRESENTATION('material name',(#428),#707);
#427=REPRESENTATION('density',(#423),#707);
#428=DESCRIPTIVE_REPRESENTATION_ITEM('Steel','Steel');
#429=PROPERTY_DEFINITION('material property','material name',#717);
#430=PROPERTY_DEFINITION('material property','density of part',#717);
#431=AXIS2_PLACEMENT_3D('',#593,#473,#474);
#432=AXIS2_PLACEMENT_3D('',#594,#475,#476);
#433=AXIS2_PLACEMENT_3D('',#597,#477,#478);
#434=AXIS2_PLACEMENT_3D('',#601,#480,#481);
#435=AXIS2_PLACEMENT_3D('',#603,#483,#484);
#436=AXIS2_PLACEMENT_3D('',#610,#489,#490);
#437=AXIS2_PLACEMENT_3D('',#611,#491,#492);
#438=AXIS2_PLACEMENT_3D('',#612,#493,#494);
#439=AXIS2_PLACEMENT_3D('',#613,#495,#496);
#440=AXIS2_PLACEMENT_3D('',#615,#497,#498);
#441=AXIS2_PLACEMENT_3D('',#618,#500,#501);
#442=AXIS2_PLACEMENT_3D('',#619,#502,#503);
#443=AXIS2_PLACEMENT_3D('',#620,#504,#505);
#444=AXIS2_PLACEMENT_3D('',#622,#506,#507);
#445=AXIS2_PLACEMENT_3D('',#623,#508,#509);
#446=AXIS2_PLACEMENT_3D('',#625,#510,#511);
#447=AXIS2_PLACEMENT_3D('',#626,#512,#513);
#448=AXIS2_PLACEMENT_3D('',#628,#514,#515);
#449=AXIS2_PLACEMENT_3D('',#629,#516,#517);
#450=AXIS2_PLACEMENT_3D('',#631,#518,#519);
#451=AXIS2_PLACEMENT_3D('',#632,#520,#521);
#452=AXIS2_PLACEMENT_3D('',#634,#522,#523);
#453=AXIS2_PLACEMENT_3D('',#637,#525,#526);
#454=AXIS2_PLACEMENT_3D('',#638,#527,#528);
#455=AXIS2_PLACEMENT_3D('',#639,#529,#530);
#456=AXIS2_PLACEMENT_3D('',#642,#532,#533);
#457=AXIS2_PLACEMENT_3D('',#643,#534,#535);
#458=AXIS2_PLACEMENT_3D('',#646,#537,#538);
#459=AXIS2_PLACEMENT_3D('',#647,#539,#540);
#460=AXIS2_PLACEMENT_3D('',#650,#542,#543);
#461=AXIS2_PLACEMENT_3D('',#651,#544,#545);
#462=AXIS2_PLACEMENT_3D('',#654,#547,#548);
#463=AXIS2_PLACEMENT_3D('',#655,#549,#550);
#464=AXIS2_PLACEMENT_3D('',#664,#555,#556);
#465=AXIS2_PLACEMENT_3D('',#670,#560,#561);
#466=AXIS2_PLACEMENT_3D('',#676,#565,#566);
#467=AXIS2_PLACEMENT_3D('',#682,#570,#571);
#468=AXIS2_PLACEMENT_3D('',#688,#575,#576);
#469=AXIS2_PLACEMENT_3D('',#694,#580,#581);
#470=AXIS2_PLACEMENT_3D('',#700,#585,#586);
#471=AXIS2_PLACEMENT_3D('',#703,#589,#590);
#472=AXIS2_PLACEMENT_3D('',#704,#591,#592);
#473=DIRECTION('axis',(0.,0.,1.));
#474=DIRECTION('refdir',(1.,0.,0.));
#475=DIRECTION('center_axis',(0.,0.,1.));
#476=DIRECTION('ref_axis',(1.,0.,0.));
#477=DIRECTION('center_axis',(0.,0.,-1.));
#478=DIRECTION('ref_axis',(1.,0.,0.));
#479=DIRECTION('',(0.,0.,1.));
#480=DIRECTION('center_axis',(0.,0.,1.));
#481=DIRECTION('ref_axis',(1.,0.,0.));
#482=DIRECTION('',(0.,0.,1.));
#483=DIRECTION('center_axis',(-1.,0.,0.));
#484=DIRECTION('ref_axis',(0.,-1.,0.));
#485=DIRECTION('',(0.,-1.,0.));
#486=DIRECTION('',(0.,0.,-1.));
#487=DIRECTION('',(0.,-1.,0.));
#488=DIRECTION('',(0.,0.,1.));
#489=DIRECTION('center_axis',(0.,0.,1.));
#490=DIRECTION('ref_axis',(1.,0.,0.));
#491=DIRECTION('center_axis',(0.,0.,1.));
#492=DIRECTION('ref_axis',(1.,0.,0.));
#493=DIRECTION('center_axis',(0.,0.,1.));
#494=DIRECTION('ref_axis',(1.,0.,0.));
#495=DIRECTION('center_axis',(0.,0.,1.));
#496=DIRECTION('ref_axis',(1.,0.,0.));
#497=DIRECTION('center_axis',(0.,0.,-1.));
#498=DIRECTION('ref_axis',(1.,0.,0.));
#499=DIRECTION('',(0.,0.,-1.));
#500=DIRECTION('center_axis',(0.,0.,1.));
#501=DIRECTION('ref_axis',(1.,0.,0.));
#502=DIRECTION('center_axis',(0.,0.,-1.));
#503=DIRECTION('ref_axis',(1.,0.,0.));
#504=DIRECTION('center_axis',(0.,0.,-1.));
#505=DIRECTION('ref_axis',(1.,0.,0.));
#506=DIRECTION('center_axis',(0.,0.,-1.));
#507=DIRECTION('ref_axis',(1.,0.,0.));
#508=DIRECTION('center_axis',(0.,0.,-1.));
#509=DIRECTION('ref_axis',(1.,0.,0.));
#510=DIRECTION('center_axis',(0.,0.,-1.));
#511=DIRECTION('ref_axis',(1.,0.,0.));
#512=DIRECTION('center_axis',(0.,0.,-1.));
#513=DIRECTION('ref_axis',(1.,0.,0.));
#514=DIRECTION('center_axis',(0.,0.,-1.));
#515=DIRECTION('ref_axis',(1.,0.,0.));
#516=DIRECTION('center_axis',(0.,0.,-1.));
#517=DIRECTION('ref_axis',(1.,0.,0.));
#518=DIRECTION('center_axis',(0.,0.,-1.));
#519=DIRECTION('ref_axis',(1.,0.,0.));
#520=DIRECTION('center_axis',(0.,0.,1.));
#521=DIRECTION('ref_axis',(1.,0.,0.));
#522=DIRECTION('center_axis',(0.,0.,1.));
#523=DIRECTION('ref_axis',(1.,0.,0.));
#524=DIRECTION('',(0.,0.,-1.));
#525=DIRECTION('center_axis',(0.,0.,-1.));
#526=DIRECTION('ref_axis',(1.,0.,0.));
#527=DIRECTION('center_axis',(0.,0.,1.));
#528=DIRECTION('ref_axis',(1.,0.,0.));
#529=DIRECTION('center_axis',(0.,0.,-1.));
#530=DIRECTION('ref_axis',(1.,0.,0.));
#531=DIRECTION('',(0.,0.,1.));
#532=DIRECTION('center_axis',(0.,0.,-1.));
#533=DIRECTION('ref_axis',(1.,0.,0.));
#534=DIRECTION('center_axis',(0.,0.,-1.));
#535=DIRECTION('ref_axis',(1.,0.,0.));
#536=DIRECTION('',(0.,0.,1.));
#537=DIRECTION('center_axis',(0.,0.,-1.));
#538=DIRECTION('ref_axis',(1.,0.,0.));
#539=DIRECTION('center_axis',(0.,0.,-1.));
#540=DIRECTION('ref_axis',(1.,0.,0.));
#541=DIRECTION('',(0.,0.,1.));
#542=DIRECTION('center_axis',(0.,0.,-1.));
#543=DIRECTION('ref_axis',(1.,0.,0.));
#544=DIRECTION('center_axis',(0.,0.,-1.));
#545=DIRECTION('ref_axis',(1.,0.,0.));
#546=DIRECTION('',(0.,0.,1.));
#547=DIRECTION('center_axis',(0.,0.,-1.));
#548=DIRECTION('ref_axis',(1.,0.,0.));
#549=DIRECTION('center_axis',(-0.707106781186547,0.707106781186548,0.));
#550=DIRECTION('ref_axis',(0.707106781186548,0.707106781186547,0.));
#551=DIRECTION('',(-0.707106781186548,-0.707106781186547,0.));
#552=DIRECTION('',(0.,0.,-1.));
#553=DIRECTION('',(0.707106781186548,0.707106781186547,0.));
#554=DIRECTION('',(0.,0.,-1.));
#555=DIRECTION('center_axis',(-1.,0.,0.));
#556=DIRECTION('ref_axis',(0.,1.,0.));
#557=DIRECTION('',(0.,1.,0.));
#558=DIRECTION('',(0.,1.,0.));
#559=DIRECTION('',(0.,0.,-1.));
#560=DIRECTION('center_axis',(-0.707106781186547,-0.707106781186548,0.));
#561=DIRECTION('ref_axis',(-0.707106781186548,0.707106781186547,0.));
#562=DIRECTION('',(0.707106781186548,-0.707106781186547,0.));
#563=DIRECTION('',(-0.707106781186548,0.707106781186547,0.));
#564=DIRECTION('',(0.,0.,-1.));
#565=DIRECTION('center_axis',(0.,-1.,0.));
#566=DIRECTION('ref_axis',(-1.,0.,0.));
#567=DIRECTION('',(1.,0.,0.));
#568=DIRECTION('',(-1.,0.,0.));
#569=DIRECTION('',(0.,0.,-1.));
#570=DIRECTION('center_axis',(0.707106781186547,-0.707106781186548,0.));
#571=DIRECTION('ref_axis',(-0.707106781186548,-0.707106781186547,0.));
#572=DIRECTION('',(-0.707106781186548,-0.707106781186547,0.));
#573=DIRECTION('',(-0.707106781186548,-0.707106781186547,0.));
#574=DIRECTION('',(0.,0.,-1.));
#575=DIRECTION('center_axis',(1.,0.,0.));
#576=DIRECTION('ref_axis',(0.,-1.,0.));
#577=DIRECTION('',(0.,1.,0.));
#578=DIRECTION('',(0.,-1.,0.));
#579=DIRECTION('',(0.,0.,-1.));
#580=DIRECTION('center_axis',(0.707106781186547,0.707106781186548,0.));
#581=DIRECTION('ref_axis',(0.707106781186548,-0.707106781186547,0.));
#582=DIRECTION('',(0.707106781186548,-0.707106781186547,0.));
#583=DIRECTION('',(0.707106781186548,-0.707106781186547,0.));
#584=DIRECTION('',(0.,0.,-1.));
#585=DIRECTION('center_axis',(0.,1.,0.));
#586=DIRECTION('ref_axis',(1.,0.,0.));
#587=DIRECTION('',(-1.,0.,0.));
#588=DIRECTION('',(1.,0.,0.));
#589=DIRECTION('center_axis',(0.,0.,1.));
#590=DIRECTION('ref_axis',(1.,0.,0.));
#591=DIRECTION('center_axis',(0.,0.,1.));
#592=DIRECTION('ref_axis',(1.,0.,0.));
#593=CARTESIAN_POINT('',(0.,0.,0.));
#594=CARTESIAN_POINT('Origin',(0.,0.,0.));
#595=CARTESIAN_POINT('',(-1.9999999627471,1.49999996647239,2.));
#596=CARTESIAN_POINT('',(-1.9999999627471,-1.49999996647239,2.));
#597=CARTESIAN_POINT('Origin',(0.,0.,2.));
#598=CARTESIAN_POINT('',(-1.9999999627471,1.49999996647239,22.));
#599=CARTESIAN_POINT('',(-1.9999999627471,1.49999996647239,0.));
#600=CARTESIAN_POINT('',(-1.9999999627471,-1.49999996647239,22.));
#601=CARTESIAN_POINT('Origin',(0.,0.,22.));
#602=CARTESIAN_POINT('',(-1.9999999627471,-1.49999996647239,0.));
#603=CARTESIAN_POINT('Origin',(-1.9999999627471,1.49999996647239,0.));
#604=CARTESIAN_POINT('',(-1.9999999627471,1.49999996647239,0.));
#605=CARTESIAN_POINT('',(-1.9999999627471,-1.49999996647239,0.));
#606=CARTESIAN_POINT('',(-1.9999999627471,0.,0.));
#607=CARTESIAN_POINT('',(-1.9999999627471,-1.50000004967054,0.));
#608=CARTESIAN_POINT('',(-1.9999999627471,0.,22.));
#609=CARTESIAN_POINT('',(-1.9999999627471,1.50000004967054,0.));
#610=CARTESIAN_POINT('Origin',(0.249999987427145,0.,22.));
#611=CARTESIAN_POINT('Origin',(0.249999987427145,0.,0.));
#612=CARTESIAN_POINT('Origin',(0.,0.,0.));
#613=CARTESIAN_POINT('Origin',(0.,0.,0.));
#614=CARTESIAN_POINT('',(-2.5,-3.06161699786838E-16,2.));
#615=CARTESIAN_POINT('Origin',(0.,0.,2.));
#616=CARTESIAN_POINT('',(-2.5,-3.06161699786838E-16,-34.));
#617=CARTESIAN_POINT('',(-2.5,-3.06161699786838E-16,0.));
#618=CARTESIAN_POINT('Origin',(0.,0.,-34.));
#619=CARTESIAN_POINT('Origin',(0.,0.,2.));
#620=CARTESIAN_POINT('Origin',(-15.5,-15.5,-4.));
#621=CARTESIAN_POINT('',(-17.,-15.5,-4.));
#622=CARTESIAN_POINT('Origin',(-15.5,-15.5,-4.));
#623=CARTESIAN_POINT('Origin',(-15.5,15.5,-4.));
#624=CARTESIAN_POINT('',(-17.,15.5,-4.));
#625=CARTESIAN_POINT('Origin',(-15.5,15.5,-4.));
#626=CARTESIAN_POINT('Origin',(15.5,-15.5,-4.));
#627=CARTESIAN_POINT('',(14.,-15.5,-4.));
#628=CARTESIAN_POINT('Origin',(15.5,-15.5,-4.));
#629=CARTESIAN_POINT('Origin',(15.5,15.5,-4.));
#630=CARTESIAN_POINT('',(14.,15.5,-4.));
#631=CARTESIAN_POINT('Origin',(15.5,15.5,-4.));
#632=CARTESIAN_POINT('Origin',(0.,0.,0.));
#633=CARTESIAN_POINT('',(-11.,-1.34711147906209E-15,2.));
#634=CARTESIAN_POINT('Origin',(0.,0.,2.));
#635=CARTESIAN_POINT('',(-11.,-1.34711147906209E-15,0.));
#636=CARTESIAN_POINT('',(-11.,-1.34711147906209E-15,0.));
#637=CARTESIAN_POINT('Origin',(0.,0.,0.));
#638=CARTESIAN_POINT('Origin',(0.,0.,2.));
#639=CARTESIAN_POINT('Origin',(-15.5,-15.5,0.));
#640=CARTESIAN_POINT('',(-17.,-15.5,0.));
#641=CARTESIAN_POINT('',(-17.,-15.5,0.));
#642=CARTESIAN_POINT('Origin',(-15.5,-15.5,0.));
#643=CARTESIAN_POINT('Origin',(15.5,-15.5,0.));
#644=CARTESIAN_POINT('',(14.,-15.5,0.));
#645=CARTESIAN_POINT('',(14.,-15.5,0.));
#646=CARTESIAN_POINT('Origin',(15.5,-15.5,0.));
#647=CARTESIAN_POINT('Origin',(15.5,15.5,0.));
#648=CARTESIAN_POINT('',(14.,15.5,0.));
#649=CARTESIAN_POINT('',(14.,15.5,0.));
#650=CARTESIAN_POINT('Origin',(15.5,15.5,0.));
#651=CARTESIAN_POINT('Origin',(-15.5,15.5,0.));
#652=CARTESIAN_POINT('',(-17.,15.5,0.));
#653=CARTESIAN_POINT('',(-17.,15.5,0.));
#654=CARTESIAN_POINT('Origin',(-15.5,15.5,0.));
#655=CARTESIAN_POINT('Origin',(-21.15,16.5,0.));
#656=CARTESIAN_POINT('',(-16.5,21.15,0.));
#657=CARTESIAN_POINT('',(-21.15,16.5,0.));
#658=CARTESIAN_POINT('',(-16.5,21.15,0.));
#659=CARTESIAN_POINT('',(-16.5,21.15,-34.));
#660=CARTESIAN_POINT('',(-16.5,21.15,0.));
#661=CARTESIAN_POINT('',(-21.15,16.5,-34.));
#662=CARTESIAN_POINT('',(-16.5,21.15,-34.));
#663=CARTESIAN_POINT('',(-21.15,16.5,0.));
#664=CARTESIAN_POINT('Origin',(-21.15,-16.5,0.));
#665=CARTESIAN_POINT('',(-21.15,-16.5,0.));
#666=CARTESIAN_POINT('',(-21.15,-16.5,0.));
#667=CARTESIAN_POINT('',(-21.15,-16.5,-34.));
#668=CARTESIAN_POINT('',(-21.15,-16.5,-34.));
#669=CARTESIAN_POINT('',(-21.15,-16.5,0.));
#670=CARTESIAN_POINT('Origin',(-16.5,-21.15,0.));
#671=CARTESIAN_POINT('',(-16.5,-21.15,0.));
#672=CARTESIAN_POINT('',(-21.15,-16.5,0.));
#673=CARTESIAN_POINT('',(-16.5,-21.15,-34.));
#674=CARTESIAN_POINT('',(-21.15,-16.5,-34.));
#675=CARTESIAN_POINT('',(-16.5,-21.15,0.));
#676=CARTESIAN_POINT('Origin',(16.5,-21.15,0.));
#677=CARTESIAN_POINT('',(16.5,-21.15,0.));
#678=CARTESIAN_POINT('',(-16.5,-21.15,0.));
#679=CARTESIAN_POINT('',(16.5,-21.15,-34.));
#680=CARTESIAN_POINT('',(-16.5,-21.15,-34.));
#681=CARTESIAN_POINT('',(16.5,-21.15,0.));
#682=CARTESIAN_POINT('Origin',(21.15,-16.5,0.));
#683=CARTESIAN_POINT('',(21.15,-16.5,0.));
#684=CARTESIAN_POINT('',(21.15,-16.5,0.));
#685=CARTESIAN_POINT('',(21.15,-16.5,-34.));
#686=CARTESIAN_POINT('',(21.15,-16.5,-34.));
#687=CARTESIAN_POINT('',(21.15,-16.5,0.));
#688=CARTESIAN_POINT('Origin',(21.15,16.5,0.));
#689=CARTESIAN_POINT('',(21.15,16.5,0.));
#690=CARTESIAN_POINT('',(21.15,-16.5,0.));
#691=CARTESIAN_POINT('',(21.15,16.5,-34.));
#692=CARTESIAN_POINT('',(21.15,-16.5,-34.));
#693=CARTESIAN_POINT('',(21.15,16.5,0.));
#694=CARTESIAN_POINT('Origin',(16.5,21.15,0.));
#695=CARTESIAN_POINT('',(16.5,21.15,0.));
#696=CARTESIAN_POINT('',(16.5,21.15,0.));
#697=CARTESIAN_POINT('',(16.5,21.15,-34.));
#698=CARTESIAN_POINT('',(16.5,21.15,-34.));
#699=CARTESIAN_POINT('',(16.5,21.15,0.));
#700=CARTESIAN_POINT('Origin',(-16.5,21.15,0.));
#701=CARTESIAN_POINT('',(16.5,21.15,0.));
#702=CARTESIAN_POINT('',(16.5,21.15,-34.));
#703=CARTESIAN_POINT('Origin',(0.,0.,0.));
#704=CARTESIAN_POINT('Origin',(0.,0.,-34.));
#705=UNCERTAINTY_MEASURE_WITH_UNIT(LENGTH_MEASURE(0.01),#709,
'DISTANCE_ACCURACY_VALUE',
'Maximum model space distance between geometric entities at asserted c
onnectivities');
#706=UNCERTAINTY_MEASURE_WITH_UNIT(LENGTH_MEASURE(0.01),#709,
'DISTANCE_ACCURACY_VALUE',
'Maximum model space distance between geometric entities at asserted c
onnectivities');
#707=(
GEOMETRIC_REPRESENTATION_CONTEXT(3)
GLOBAL_UNCERTAINTY_ASSIGNED_CONTEXT((#705))
GLOBAL_UNIT_ASSIGNED_CONTEXT((#709,#711,#712))
REPRESENTATION_CONTEXT('','3D')
);
#708=(
GEOMETRIC_REPRESENTATION_CONTEXT(3)
GLOBAL_UNCERTAINTY_ASSIGNED_CONTEXT((#706))
GLOBAL_UNIT_ASSIGNED_CONTEXT((#709,#711,#712))
REPRESENTATION_CONTEXT('','3D')
);
#709=(
LENGTH_UNIT()
NAMED_UNIT(*)
SI_UNIT(.MILLI.,.METRE.)
);
#710=(
LENGTH_UNIT()
NAMED_UNIT(*)
SI_UNIT($,.METRE.)
);
#711=(
NAMED_UNIT(*)
PLANE_ANGLE_UNIT()
SI_UNIT($,.RADIAN.)
);
#712=(
NAMED_UNIT(*)
SI_UNIT($,.STERADIAN.)
SOLID_ANGLE_UNIT()
);
#713=SHAPE_DEFINITION_REPRESENTATION(#714,#715);
#714=PRODUCT_DEFINITION_SHAPE('',$,#717);
#715=SHAPE_REPRESENTATION('',(#431),#707);
#716=PRODUCT_DEFINITION_CONTEXT('part definition',#721,'design');
#717=PRODUCT_DEFINITION('2026-09-04-15-51-48-918','stepper',#718,#716);
#718=PRODUCT_DEFINITION_FORMATION('',$,#723);
#719=PRODUCT_RELATED_PRODUCT_CATEGORY('stepper','stepper',(#723));
#720=APPLICATION_PROTOCOL_DEFINITION('international standard',
'automotive_design',2009,#721);
#721=APPLICATION_CONTEXT(
'Core Data for Automotive Mechanical Design Process');
#722=PRODUCT_CONTEXT('part definition',#721,'mechanical');
#723=PRODUCT('2026-09-04-15-51-48-918','stepper',$,(#722));
#724=PRESENTATION_STYLE_ASSIGNMENT((#727));
#725=PRESENTATION_STYLE_ASSIGNMENT((#728));
#726=PRESENTATION_STYLE_ASSIGNMENT((#729));
#727=SURFACE_STYLE_USAGE(.BOTH.,#730);
#728=SURFACE_STYLE_USAGE(.BOTH.,#731);
#729=SURFACE_STYLE_USAGE(.BOTH.,#732);
#730=SURFACE_SIDE_STYLE('',(#733));
#731=SURFACE_SIDE_STYLE('',(#734));
#732=SURFACE_SIDE_STYLE('',(#735));
#733=SURFACE_STYLE_FILL_AREA(#736);
#734=SURFACE_STYLE_FILL_AREA(#737);
#735=SURFACE_STYLE_FILL_AREA(#738);
#736=FILL_AREA_STYLE('Steel - Satin',(#739));
#737=FILL_AREA_STYLE('Silver - Polished',(#740));
#738=FILL_AREA_STYLE('Plastic - Matte (Black)',(#741));
#739=FILL_AREA_STYLE_COLOUR('Steel - Satin',#742);
#740=FILL_AREA_STYLE_COLOUR('Silver - Polished',#743);
#741=FILL_AREA_STYLE_COLOUR('Plastic - Matte (Black)',#744);
#742=COLOUR_RGB('Steel - Satin',0.627450980392157,0.627450980392157,0.627450980392157);
#743=COLOUR_RGB('Silver - Polished',0.984313725490196,0.980392156862745,
0.96078431372549);
#744=COLOUR_RGB('Plastic - Matte (Black)',0.0980392156862745,0.0980392156862745,
0.0980392156862745);
ENDSEC;
END-ISO-10303-21;
