ISO-10303-21;
HEADER;
/* Generated by software containing ST-Developer
 * from STEP Tools, Inc. (www.steptools.com) 
 */

FILE_DESCRIPTION(
/* description */ (''),
/* implementation_level */ '2;1');

FILE_NAME(
/* name */ 'vertical_mount.step',
/* time_stamp */ '2026-07-26T22:02:56-04:00',
/* author */ (''),
/* organization */ (''),
/* preprocessor_version */ 'ST-DEVELOPER v20.1',
/* originating_system */ 'Autodesk Translation Framework v15.8.0.0',
/* authorisation */ '');

FILE_SCHEMA (('AUTOMOTIVE_DESIGN { 1 0 10303 214 3 1 1 }'));
ENDSEC;

DATA;
#10=MECHANICAL_DESIGN_GEOMETRIC_PRESENTATION_REPRESENTATION('',(#13),#1382);
#11=SHAPE_REPRESENTATION_RELATIONSHIP('SRR','None',#1389,#12);
#12=ADVANCED_BREP_SHAPE_REPRESENTATION('',(#14),#1381);
#13=STYLED_ITEM('',(#1398),#14);
#14=MANIFOLD_SOLID_BREP('Body1',#746);
#15=(
BOUNDED_SURFACE()
B_SPLINE_SURFACE(5,1,((#1313,#1314),(#1315,#1316),(#1317,#1318),(#1319,
#1320),(#1321,#1322),(#1323,#1324),(#1325,#1326),(#1327,#1328),(#1329,#1330),
(#1331,#1332),(#1333,#1334),(#1335,#1336),(#1337,#1338),(#1339,#1340),(#1341,
#1342)),.UNSPECIFIED.,.F.,.F.,.F.)
B_SPLINE_SURFACE_WITH_KNOTS((6,1,1,1,1,1,1,1,1,1,6),(2,2),(-1.,-0.9,-0.8,
-0.7,-0.6,-0.5,-0.4,-0.3,-0.2,-0.1,0.),(0.,0.7),.UNSPECIFIED.)
GEOMETRIC_REPRESENTATION_ITEM()
RATIONAL_B_SPLINE_SURFACE(((1.,1.),(1.,1.),(1.,1.),(1.,1.),(1.,1.),(1.,
1.),(1.,1.),(1.,1.),(1.,1.),(1.,1.),(1.,1.),(1.,1.),(1.,1.),(1.,1.),(1.,
1.)))
REPRESENTATION_ITEM('')
SURFACE()
);
#16=(
BOUNDED_SURFACE()
B_SPLINE_SURFACE(5,1,((#1346,#1347),(#1348,#1349),(#1350,#1351),(#1352,
#1353),(#1354,#1355),(#1356,#1357),(#1358,#1359),(#1360,#1361),(#1362,#1363),
(#1364,#1365),(#1366,#1367),(#1368,#1369),(#1370,#1371),(#1372,#1373),(#1374,
#1375)),.UNSPECIFIED.,.F.,.F.,.F.)
B_SPLINE_SURFACE_WITH_KNOTS((6,1,1,1,1,1,1,1,1,1,6),(2,2),(-1.,-0.9,-0.8,
-0.7,-0.6,-0.5,-0.4,-0.3,-0.2,-0.1,0.),(0.,0.7),.UNSPECIFIED.)
GEOMETRIC_REPRESENTATION_ITEM()
RATIONAL_B_SPLINE_SURFACE(((1.,1.),(1.,1.),(1.,1.),(1.,1.),(1.,1.),(1.,
1.),(1.,1.),(1.,1.),(1.,1.),(1.,1.),(1.,1.),(1.,1.),(1.,1.),(1.,1.),(1.,
1.)))
REPRESENTATION_ITEM('')
SURFACE()
);
#17=B_SPLINE_SURFACE_WITH_KNOTS('',3,3,((#1275,#1276,#1277,#1278),(#1279,
#1280,#1281,#1282),(#1283,#1284,#1285,#1286),(#1287,#1288,#1289,#1290)),
 .UNSPECIFIED.,.F.,.F.,.F.,(4,4),(4,4),(0.,1.),(-3.88578058618805E-16,0.7),
 .UNSPECIFIED.);
#18=(
BOUNDED_CURVE()
B_SPLINE_CURVE(5,(#1144,#1145,#1146,#1147,#1148,#1149,#1150,#1151,#1152,
#1153,#1154),.UNSPECIFIED.,.F.,.F.)
B_SPLINE_CURVE_WITH_KNOTS((6,1,1,1,1,1,6),(-0.591249515294833,-0.5,-0.4,
-0.3,-0.2,-0.1,0.),.UNSPECIFIED.)
CURVE()
GEOMETRIC_REPRESENTATION_ITEM()
RATIONAL_B_SPLINE_CURVE((1.,1.,1.,1.,1.,1.,1.,1.,1.,1.,1.))
REPRESENTATION_ITEM('')
);
#19=(
BOUNDED_CURVE()
B_SPLINE_CURVE(5,(#1158,#1159,#1160,#1161,#1162,#1163,#1164,#1165,#1166,
#1167,#1168,#1169,#1170,#1171,#1172),.UNSPECIFIED.,.F.,.F.)
B_SPLINE_CURVE_WITH_KNOTS((6,1,1,1,1,1,1,1,1,1,6),(-1.,-0.9,-0.8,-0.7,-0.6,
-0.5,-0.4,-0.3,-0.2,-0.1,0.),.UNSPECIFIED.)
CURVE()
GEOMETRIC_REPRESENTATION_ITEM()
RATIONAL_B_SPLINE_CURVE((1.,1.,1.,1.,1.,1.,1.,1.,1.,1.,1.,1.,1.,1.,1.))
REPRESENTATION_ITEM('')
);
#20=(
BOUNDED_CURVE()
B_SPLINE_CURVE(5,(#1234,#1235,#1236,#1237,#1238,#1239,#1240,#1241,#1242,
#1243,#1244,#1245,#1246,#1247,#1248),.UNSPECIFIED.,.F.,.F.)
B_SPLINE_CURVE_WITH_KNOTS((6,1,1,1,1,1,1,1,1,1,6),(0.,0.1,0.2,0.3,0.4,0.5,
0.6,0.7,0.8,0.9,1.),.UNSPECIFIED.)
CURVE()
GEOMETRIC_REPRESENTATION_ITEM()
RATIONAL_B_SPLINE_CURVE((1.,1.,1.,1.,1.,1.,1.,1.,1.,1.,1.,1.,1.,1.,1.))
REPRESENTATION_ITEM('')
);
#21=(
BOUNDED_CURVE()
B_SPLINE_CURVE(5,(#1252,#1253,#1254,#1255,#1256,#1257,#1258,#1259,#1260,
#1261,#1262),.UNSPECIFIED.,.F.,.F.)
B_SPLINE_CURVE_WITH_KNOTS((6,1,1,1,1,1,6),(0.,0.1,0.2,0.3,0.4,0.5,0.591249515294833),
 .UNSPECIFIED.)
CURVE()
GEOMETRIC_REPRESENTATION_ITEM()
RATIONAL_B_SPLINE_CURVE((1.,1.,1.,1.,1.,1.,1.,1.,1.,1.,1.))
REPRESENTATION_ITEM('')
);
#22=B_SPLINE_CURVE_WITH_KNOTS('',3,(#1139,#1140,#1141,#1142),
 .UNSPECIFIED.,.F.,.F.,(4,4),(0.,0.183345332890596),.UNSPECIFIED.);
#23=B_SPLINE_CURVE_WITH_KNOTS('',3,(#1264,#1265,#1266,#1267),
 .UNSPECIFIED.,.F.,.F.,(4,4),(0.,0.183345332890595),.UNSPECIFIED.);
#24=B_SPLINE_CURVE_WITH_KNOTS('',3,(#1291,#1292,#1293,#1294),
 .UNSPECIFIED.,.F.,.F.,(4,4),(-3.88578058618805E-16,0.7),.UNSPECIFIED.);
#25=B_SPLINE_CURVE_WITH_KNOTS('',3,(#1295,#1296,#1297,#1298),
 .UNSPECIFIED.,.F.,.F.,(4,4),(-0.7,3.88578058618805E-16),.UNSPECIFIED.);
#26=FACE_BOUND('',#99,.T.);
#27=FACE_BOUND('',#100,.T.);
#28=FACE_BOUND('',#101,.T.);
#29=FACE_BOUND('',#102,.T.);
#30=FACE_BOUND('',#103,.T.);
#31=FACE_BOUND('',#104,.T.);
#32=FACE_BOUND('',#109,.T.);
#33=FACE_BOUND('',#110,.T.);
#34=FACE_BOUND('',#111,.T.);
#35=FACE_BOUND('',#115,.T.);
#36=FACE_BOUND('',#116,.T.);
#37=FACE_BOUND('',#117,.T.);
#38=FACE_BOUND('',#120,.T.);
#39=FACE_BOUND('',#121,.T.);
#40=FACE_BOUND('',#132,.T.);
#41=FACE_BOUND('',#133,.T.);
#42=PLANE('',#763);
#43=PLANE('',#764);
#44=PLANE('',#776);
#45=PLANE('',#779);
#46=PLANE('',#785);
#47=PLANE('',#788);
#48=PLANE('',#795);
#49=PLANE('',#809);
#50=PLANE('',#813);
#51=PLANE('',#818);
#52=PLANE('',#819);
#53=PLANE('',#820);
#54=PLANE('',#822);
#55=PLANE('',#824);
#56=PLANE('',#826);
#57=PLANE('',#827);
#58=PLANE('',#828);
#59=FACE_OUTER_BOUND('',#96,.T.);
#60=FACE_OUTER_BOUND('',#97,.T.);
#61=FACE_OUTER_BOUND('',#98,.T.);
#62=FACE_OUTER_BOUND('',#105,.T.);
#63=FACE_OUTER_BOUND('',#106,.T.);
#64=FACE_OUTER_BOUND('',#107,.T.);
#65=FACE_OUTER_BOUND('',#108,.T.);
#66=FACE_OUTER_BOUND('',#112,.T.);
#67=FACE_OUTER_BOUND('',#113,.T.);
#68=FACE_OUTER_BOUND('',#114,.T.);
#69=FACE_OUTER_BOUND('',#118,.T.);
#70=FACE_OUTER_BOUND('',#119,.T.);
#71=FACE_OUTER_BOUND('',#122,.T.);
#72=FACE_OUTER_BOUND('',#123,.T.);
#73=FACE_OUTER_BOUND('',#124,.T.);
#74=FACE_OUTER_BOUND('',#125,.T.);
#75=FACE_OUTER_BOUND('',#126,.T.);
#76=FACE_OUTER_BOUND('',#127,.T.);
#77=FACE_OUTER_BOUND('',#128,.T.);
#78=FACE_OUTER_BOUND('',#129,.T.);
#79=FACE_OUTER_BOUND('',#130,.T.);
#80=FACE_OUTER_BOUND('',#131,.T.);
#81=FACE_OUTER_BOUND('',#134,.T.);
#82=FACE_OUTER_BOUND('',#135,.T.);
#83=FACE_OUTER_BOUND('',#136,.T.);
#84=FACE_OUTER_BOUND('',#137,.T.);
#85=FACE_OUTER_BOUND('',#138,.T.);
#86=FACE_OUTER_BOUND('',#139,.T.);
#87=FACE_OUTER_BOUND('',#140,.T.);
#88=FACE_OUTER_BOUND('',#141,.T.);
#89=FACE_OUTER_BOUND('',#142,.T.);
#90=FACE_OUTER_BOUND('',#143,.T.);
#91=FACE_OUTER_BOUND('',#144,.T.);
#92=FACE_OUTER_BOUND('',#145,.T.);
#93=FACE_OUTER_BOUND('',#146,.T.);
#94=FACE_OUTER_BOUND('',#147,.T.);
#95=FACE_OUTER_BOUND('',#148,.T.);
#96=EDGE_LOOP('',(#482,#483,#484,#485));
#97=EDGE_LOOP('',(#486,#487,#488,#489));
#98=EDGE_LOOP('',(#490,#491,#492,#493,#494,#495,#496,#497));
#99=EDGE_LOOP('',(#498));
#100=EDGE_LOOP('',(#499));
#101=EDGE_LOOP('',(#500));
#102=EDGE_LOOP('',(#501));
#103=EDGE_LOOP('',(#502));
#104=EDGE_LOOP('',(#503));
#105=EDGE_LOOP('',(#504,#505,#506,#507));
#106=EDGE_LOOP('',(#508,#509,#510,#511));
#107=EDGE_LOOP('',(#512,#513,#514,#515));
#108=EDGE_LOOP('',(#516,#517,#518,#519,#520,#521));
#109=EDGE_LOOP('',(#522));
#110=EDGE_LOOP('',(#523));
#111=EDGE_LOOP('',(#524));
#112=EDGE_LOOP('',(#525,#526,#527,#528));
#113=EDGE_LOOP('',(#529,#530,#531,#532,#533,#534,#535,#536,#537,#538));
#114=EDGE_LOOP('',(#539,#540,#541,#542,#543,#544));
#115=EDGE_LOOP('',(#545));
#116=EDGE_LOOP('',(#546));
#117=EDGE_LOOP('',(#547));
#118=EDGE_LOOP('',(#548,#549,#550,#551,#552,#553));
#119=EDGE_LOOP('',(#554,#555,#556,#557,#558,#559,#560,#561,#562,#563,#564,
#565,#566,#567,#568));
#120=EDGE_LOOP('',(#569));
#121=EDGE_LOOP('',(#570));
#122=EDGE_LOOP('',(#571,#572,#573,#574));
#123=EDGE_LOOP('',(#575,#576,#577,#578));
#124=EDGE_LOOP('',(#579,#580,#581,#582));
#125=EDGE_LOOP('',(#583,#584,#585,#586));
#126=EDGE_LOOP('',(#587,#588,#589,#590));
#127=EDGE_LOOP('',(#591,#592,#593,#594));
#128=EDGE_LOOP('',(#595,#596,#597,#598));
#129=EDGE_LOOP('',(#599,#600,#601,#602));
#130=EDGE_LOOP('',(#603,#604,#605,#606,#607,#608));
#131=EDGE_LOOP('',(#609,#610,#611,#612,#613,#614,#615,#616,#617,#618,#619,
#620,#621,#622,#623));
#132=EDGE_LOOP('',(#624));
#133=EDGE_LOOP('',(#625));
#134=EDGE_LOOP('',(#626,#627,#628,#629));
#135=EDGE_LOOP('',(#630,#631,#632,#633,#634,#635,#636,#637));
#136=EDGE_LOOP('',(#638,#639,#640,#641));
#137=EDGE_LOOP('',(#642,#643,#644,#645));
#138=EDGE_LOOP('',(#646,#647,#648,#649));
#139=EDGE_LOOP('',(#650,#651,#652,#653));
#140=EDGE_LOOP('',(#654,#655,#656,#657));
#141=EDGE_LOOP('',(#658,#659,#660,#661));
#142=EDGE_LOOP('',(#662,#663,#664,#665));
#143=EDGE_LOOP('',(#666,#667,#668,#669));
#144=EDGE_LOOP('',(#670,#671,#672,#673));
#145=EDGE_LOOP('',(#674,#675,#676,#677));
#146=EDGE_LOOP('',(#678,#679,#680,#681));
#147=EDGE_LOOP('',(#682,#683,#684,#685,#686,#687));
#148=EDGE_LOOP('',(#688,#689,#690,#691));
#149=LINE('',#1039,#210);
#150=LINE('',#1042,#211);
#151=LINE('',#1045,#212);
#152=LINE('',#1047,#213);
#153=LINE('',#1048,#214);
#154=LINE('',#1051,#215);
#155=LINE('',#1055,#216);
#156=LINE('',#1059,#217);
#157=LINE('',#1077,#218);
#158=LINE('',#1078,#219);
#159=LINE('',#1081,#220);
#160=LINE('',#1082,#221);
#161=LINE('',#1085,#222);
#162=LINE('',#1089,#223);
#163=LINE('',#1091,#224);
#164=LINE('',#1092,#225);
#165=LINE('',#1102,#226);
#166=LINE('',#1107,#227);
#167=LINE('',#1109,#228);
#168=LINE('',#1111,#229);
#169=LINE('',#1114,#230);
#170=LINE('',#1117,#231);
#171=LINE('',#1118,#232);
#172=LINE('',#1127,#233);
#173=LINE('',#1131,#234);
#174=LINE('',#1135,#235);
#175=LINE('',#1137,#236);
#176=LINE('',#1156,#237);
#177=LINE('',#1174,#238);
#178=LINE('',#1178,#239);
#179=LINE('',#1182,#240);
#180=LINE('',#1185,#241);
#181=LINE('',#1191,#242);
#182=LINE('',#1193,#243);
#183=LINE('',#1195,#244);
#184=LINE('',#1197,#245);
#185=LINE('',#1199,#246);
#186=LINE('',#1201,#247);
#187=LINE('',#1205,#248);
#188=LINE('',#1208,#249);
#189=LINE('',#1209,#250);
#190=LINE('',#1214,#251);
#191=LINE('',#1217,#252);
#192=LINE('',#1220,#253);
#193=LINE('',#1224,#254);
#194=LINE('',#1228,#255);
#195=LINE('',#1232,#256);
#196=LINE('',#1250,#257);
#197=LINE('',#1268,#258);
#198=LINE('',#1272,#259);
#199=LINE('',#1273,#260);
#200=LINE('',#1301,#261);
#201=LINE('',#1303,#262);
#202=LINE('',#1304,#263);
#203=LINE('',#1306,#264);
#204=LINE('',#1308,#265);
#205=LINE('',#1310,#266);
#206=LINE('',#1312,#267);
#207=LINE('',#1343,#268);
#208=LINE('',#1345,#269);
#209=LINE('',#1377,#270);
#210=VECTOR('',#836,10.);
#211=VECTOR('',#839,10.);
#212=VECTOR('',#842,10.);
#213=VECTOR('',#843,10.);
#214=VECTOR('',#844,10.);
#215=VECTOR('',#847,10.);
#216=VECTOR('',#850,10.);
#217=VECTOR('',#853,10.);
#218=VECTOR('',#872,10.);
#219=VECTOR('',#873,10.);
#220=VECTOR('',#876,10.);
#221=VECTOR('',#877,10.);
#222=VECTOR('',#880,10.);
#223=VECTOR('',#885,10.);
#224=VECTOR('',#886,10.);
#225=VECTOR('',#887,10.);
#226=VECTOR('',#898,10.);
#227=VECTOR('',#903,10.);
#228=VECTOR('',#904,10.);
#229=VECTOR('',#905,10.);
#230=VECTOR('',#908,10.);
#231=VECTOR('',#911,10.);
#232=VECTOR('',#912,10.);
#233=VECTOR('',#921,10.);
#234=VECTOR('',#924,10.);
#235=VECTOR('',#929,10.);
#236=VECTOR('',#930,10.);
#237=VECTOR('',#931,10.);
#238=VECTOR('',#932,10.);
#239=VECTOR('',#935,10.);
#240=VECTOR('',#938,10.);
#241=VECTOR('',#941,10.);
#242=VECTOR('',#948,2.5);
#243=VECTOR('',#951,2.5);
#244=VECTOR('',#954,2.5);
#245=VECTOR('',#957,2.5);
#246=VECTOR('',#960,2.5);
#247=VECTOR('',#963,2.5);
#248=VECTOR('',#968,2.5);
#249=VECTOR('',#971,10.);
#250=VECTOR('',#972,10.);
#251=VECTOR('',#977,10.);
#252=VECTOR('',#980,10.);
#253=VECTOR('',#983,10.);
#254=VECTOR('',#986,10.);
#255=VECTOR('',#989,10.);
#256=VECTOR('',#992,10.);
#257=VECTOR('',#993,10.);
#258=VECTOR('',#994,10.);
#259=VECTOR('',#999,10.);
#260=VECTOR('',#1000,10.);
#261=VECTOR('',#1007,11.);
#262=VECTOR('',#1010,10.);
#263=VECTOR('',#1011,10.);
#264=VECTOR('',#1014,10.);
#265=VECTOR('',#1017,10.);
#266=VECTOR('',#1020,10.);
#267=VECTOR('',#1023,10.);
#268=VECTOR('',#1024,10.);
#269=VECTOR('',#1027,10.);
#270=VECTOR('',#1030,10.);
#271=CIRCLE('',#761,10.);
#272=CIRCLE('',#762,10.);
#273=CIRCLE('',#765,10.);
#274=CIRCLE('',#766,10.);
#275=CIRCLE('',#767,10.);
#276=CIRCLE('',#768,2.5);
#277=CIRCLE('',#769,2.5);
#278=CIRCLE('',#770,2.5);
#279=CIRCLE('',#771,2.5);
#280=CIRCLE('',#772,2.5);
#281=CIRCLE('',#773,2.5);
#282=CIRCLE('',#775,10.);
#283=CIRCLE('',#778,10.);
#284=CIRCLE('',#780,2.5);
#285=CIRCLE('',#781,2.5);
#286=CIRCLE('',#782,2.5);
#287=CIRCLE('',#784,10.);
#288=CIRCLE('',#786,15.);
#289=CIRCLE('',#787,15.);
#290=CIRCLE('',#789,2.5);
#291=CIRCLE('',#790,2.5);
#292=CIRCLE('',#791,2.5);
#293=CIRCLE('',#793,15.);
#294=CIRCLE('',#794,15.);
#295=CIRCLE('',#796,9.99999999999999);
#296=CIRCLE('',#797,10.);
#297=CIRCLE('',#798,8.80000000000001);
#298=CIRCLE('',#799,11.);
#299=CIRCLE('',#800,2.5);
#300=CIRCLE('',#808,2.5);
#301=CIRCLE('',#811,15.);
#302=CIRCLE('',#812,15.);
#303=CIRCLE('',#814,8.80000000000001);
#304=CIRCLE('',#815,10.);
#305=CIRCLE('',#816,9.99999999999999);
#306=CIRCLE('',#817,11.);
#307=VERTEX_POINT('',#1035);
#308=VERTEX_POINT('',#1036);
#309=VERTEX_POINT('',#1038);
#310=VERTEX_POINT('',#1040);
#311=VERTEX_POINT('',#1044);
#312=VERTEX_POINT('',#1046);
#313=VERTEX_POINT('',#1050);
#314=VERTEX_POINT('',#1052);
#315=VERTEX_POINT('',#1054);
#316=VERTEX_POINT('',#1056);
#317=VERTEX_POINT('',#1058);
#318=VERTEX_POINT('',#1061);
#319=VERTEX_POINT('',#1063);
#320=VERTEX_POINT('',#1065);
#321=VERTEX_POINT('',#1067);
#322=VERTEX_POINT('',#1069);
#323=VERTEX_POINT('',#1071);
#324=VERTEX_POINT('',#1074);
#325=VERTEX_POINT('',#1075);
#326=VERTEX_POINT('',#1080);
#327=VERTEX_POINT('',#1084);
#328=VERTEX_POINT('',#1088);
#329=VERTEX_POINT('',#1090);
#330=VERTEX_POINT('',#1093);
#331=VERTEX_POINT('',#1095);
#332=VERTEX_POINT('',#1097);
#333=VERTEX_POINT('',#1100);
#334=VERTEX_POINT('',#1104);
#335=VERTEX_POINT('',#1106);
#336=VERTEX_POINT('',#1108);
#337=VERTEX_POINT('',#1110);
#338=VERTEX_POINT('',#1112);
#339=VERTEX_POINT('',#1116);
#340=VERTEX_POINT('',#1119);
#341=VERTEX_POINT('',#1121);
#342=VERTEX_POINT('',#1123);
#343=VERTEX_POINT('',#1126);
#344=VERTEX_POINT('',#1128);
#345=VERTEX_POINT('',#1130);
#346=VERTEX_POINT('',#1134);
#347=VERTEX_POINT('',#1136);
#348=VERTEX_POINT('',#1138);
#349=VERTEX_POINT('',#1143);
#350=VERTEX_POINT('',#1155);
#351=VERTEX_POINT('',#1157);
#352=VERTEX_POINT('',#1173);
#353=VERTEX_POINT('',#1175);
#354=VERTEX_POINT('',#1177);
#355=VERTEX_POINT('',#1179);
#356=VERTEX_POINT('',#1181);
#357=VERTEX_POINT('',#1183);
#358=VERTEX_POINT('',#1186);
#359=VERTEX_POINT('',#1188);
#360=VERTEX_POINT('',#1203);
#361=VERTEX_POINT('',#1207);
#362=VERTEX_POINT('',#1211);
#363=VERTEX_POINT('',#1213);
#364=VERTEX_POINT('',#1215);
#365=VERTEX_POINT('',#1219);
#366=VERTEX_POINT('',#1221);
#367=VERTEX_POINT('',#1223);
#368=VERTEX_POINT('',#1225);
#369=VERTEX_POINT('',#1227);
#370=VERTEX_POINT('',#1229);
#371=VERTEX_POINT('',#1231);
#372=VERTEX_POINT('',#1233);
#373=VERTEX_POINT('',#1249);
#374=VERTEX_POINT('',#1251);
#375=VERTEX_POINT('',#1263);
#376=VERTEX_POINT('',#1269);
#377=EDGE_CURVE('',#307,#308,#271,.T.);
#378=EDGE_CURVE('',#308,#309,#149,.T.);
#379=EDGE_CURVE('',#309,#310,#272,.T.);
#380=EDGE_CURVE('',#310,#307,#150,.T.);
#381=EDGE_CURVE('',#311,#308,#151,.T.);
#382=EDGE_CURVE('',#312,#311,#152,.T.);
#383=EDGE_CURVE('',#312,#309,#153,.T.);
#384=EDGE_CURVE('',#307,#313,#154,.T.);
#385=EDGE_CURVE('',#314,#313,#273,.T.);
#386=EDGE_CURVE('',#315,#314,#155,.T.);
#387=EDGE_CURVE('',#316,#315,#274,.T.);
#388=EDGE_CURVE('',#316,#317,#156,.T.);
#389=EDGE_CURVE('',#311,#317,#275,.T.);
#390=EDGE_CURVE('',#318,#318,#276,.T.);
#391=EDGE_CURVE('',#319,#319,#277,.T.);
#392=EDGE_CURVE('',#320,#320,#278,.T.);
#393=EDGE_CURVE('',#321,#321,#279,.T.);
#394=EDGE_CURVE('',#322,#322,#280,.T.);
#395=EDGE_CURVE('',#323,#323,#281,.T.);
#396=EDGE_CURVE('',#324,#325,#282,.T.);
#397=EDGE_CURVE('',#325,#314,#157,.T.);
#398=EDGE_CURVE('',#313,#324,#158,.T.);
#399=EDGE_CURVE('',#326,#325,#159,.T.);
#400=EDGE_CURVE('',#315,#326,#160,.T.);
#401=EDGE_CURVE('',#317,#327,#161,.T.);
#402=EDGE_CURVE('',#327,#312,#283,.T.);
#403=EDGE_CURVE('',#328,#327,#162,.T.);
#404=EDGE_CURVE('',#329,#328,#163,.T.);
#405=EDGE_CURVE('',#329,#310,#164,.T.);
#406=EDGE_CURVE('',#330,#330,#284,.T.);
#407=EDGE_CURVE('',#331,#331,#285,.T.);
#408=EDGE_CURVE('',#332,#332,#286,.T.);
#409=EDGE_CURVE('',#326,#333,#287,.T.);
#410=EDGE_CURVE('',#333,#316,#165,.T.);
#411=EDGE_CURVE('',#334,#329,#288,.T.);
#412=EDGE_CURVE('',#335,#334,#166,.T.);
#413=EDGE_CURVE('',#336,#335,#167,.T.);
#414=EDGE_CURVE('',#337,#336,#168,.T.);
#415=EDGE_CURVE('',#338,#337,#289,.T.);
#416=EDGE_CURVE('',#324,#338,#169,.T.);
#417=EDGE_CURVE('',#339,#338,#170,.T.);
#418=EDGE_CURVE('',#333,#339,#171,.T.);
#419=EDGE_CURVE('',#340,#340,#290,.T.);
#420=EDGE_CURVE('',#341,#341,#291,.T.);
#421=EDGE_CURVE('',#342,#342,#292,.T.);
#422=EDGE_CURVE('',#343,#337,#172,.T.);
#423=EDGE_CURVE('',#344,#343,#293,.F.);
#424=EDGE_CURVE('',#344,#345,#173,.T.);
#425=EDGE_CURVE('',#339,#345,#294,.F.);
#426=EDGE_CURVE('',#346,#336,#174,.T.);
#427=EDGE_CURVE('',#346,#347,#175,.T.);
#428=EDGE_CURVE('',#348,#347,#22,.T.);
#429=EDGE_CURVE('',#348,#349,#18,.T.);
#430=EDGE_CURVE('',#349,#350,#176,.T.);
#431=EDGE_CURVE('',#350,#351,#19,.T.);
#432=EDGE_CURVE('',#351,#352,#177,.T.);
#433=EDGE_CURVE('',#352,#353,#295,.T.);
#434=EDGE_CURVE('',#353,#354,#178,.T.);
#435=EDGE_CURVE('',#354,#355,#296,.T.);
#436=EDGE_CURVE('',#355,#356,#179,.T.);
#437=EDGE_CURVE('',#356,#357,#297,.T.);
#438=EDGE_CURVE('',#357,#343,#180,.T.);
#439=EDGE_CURVE('',#358,#358,#298,.T.);
#440=EDGE_CURVE('',#359,#359,#299,.T.);
#441=EDGE_CURVE('',#323,#332,#181,.T.);
#442=EDGE_CURVE('',#322,#342,#182,.T.);
#443=EDGE_CURVE('',#321,#331,#183,.T.);
#444=EDGE_CURVE('',#320,#341,#184,.T.);
#445=EDGE_CURVE('',#319,#340,#185,.T.);
#446=EDGE_CURVE('',#318,#330,#186,.T.);
#447=EDGE_CURVE('',#360,#360,#300,.T.);
#448=EDGE_CURVE('',#360,#359,#187,.T.);
#449=EDGE_CURVE('',#361,#335,#188,.T.);
#450=EDGE_CURVE('',#361,#346,#189,.T.);
#451=EDGE_CURVE('',#328,#362,#301,.T.);
#452=EDGE_CURVE('',#363,#362,#190,.F.);
#453=EDGE_CURVE('',#363,#364,#302,.T.);
#454=EDGE_CURVE('',#364,#334,#191,.T.);
#455=EDGE_CURVE('',#364,#365,#192,.T.);
#456=EDGE_CURVE('',#366,#365,#303,.T.);
#457=EDGE_CURVE('',#366,#367,#193,.T.);
#458=EDGE_CURVE('',#367,#368,#304,.T.);
#459=EDGE_CURVE('',#368,#369,#194,.T.);
#460=EDGE_CURVE('',#369,#370,#305,.T.);
#461=EDGE_CURVE('',#370,#371,#195,.T.);
#462=EDGE_CURVE('',#371,#372,#20,.T.);
#463=EDGE_CURVE('',#372,#373,#196,.T.);
#464=EDGE_CURVE('',#373,#374,#21,.T.);
#465=EDGE_CURVE('',#375,#374,#23,.T.);
#466=EDGE_CURVE('',#375,#361,#197,.T.);
#467=EDGE_CURVE('',#376,#376,#306,.T.);
#468=EDGE_CURVE('',#363,#344,#198,.T.);
#469=EDGE_CURVE('',#362,#345,#199,.T.);
#470=EDGE_CURVE('',#347,#375,#24,.T.);
#471=EDGE_CURVE('',#374,#348,#25,.T.);
#472=EDGE_CURVE('',#358,#376,#200,.T.);
#473=EDGE_CURVE('',#366,#356,#201,.T.);
#474=EDGE_CURVE('',#367,#355,#202,.T.);
#475=EDGE_CURVE('',#368,#354,#203,.T.);
#476=EDGE_CURVE('',#369,#353,#204,.T.);
#477=EDGE_CURVE('',#370,#352,#205,.T.);
#478=EDGE_CURVE('',#371,#351,#206,.T.);
#479=EDGE_CURVE('',#372,#350,#207,.T.);
#480=EDGE_CURVE('',#373,#349,#208,.T.);
#481=EDGE_CURVE('',#365,#357,#209,.T.);
#482=ORIENTED_EDGE('',*,*,#377,.T.);
#483=ORIENTED_EDGE('',*,*,#378,.T.);
#484=ORIENTED_EDGE('',*,*,#379,.T.);
#485=ORIENTED_EDGE('',*,*,#380,.T.);
#486=ORIENTED_EDGE('',*,*,#378,.F.);
#487=ORIENTED_EDGE('',*,*,#381,.F.);
#488=ORIENTED_EDGE('',*,*,#382,.F.);
#489=ORIENTED_EDGE('',*,*,#383,.T.);
#490=ORIENTED_EDGE('',*,*,#377,.F.);
#491=ORIENTED_EDGE('',*,*,#384,.T.);
#492=ORIENTED_EDGE('',*,*,#385,.F.);
#493=ORIENTED_EDGE('',*,*,#386,.F.);
#494=ORIENTED_EDGE('',*,*,#387,.F.);
#495=ORIENTED_EDGE('',*,*,#388,.T.);
#496=ORIENTED_EDGE('',*,*,#389,.F.);
#497=ORIENTED_EDGE('',*,*,#381,.T.);
#498=ORIENTED_EDGE('',*,*,#390,.T.);
#499=ORIENTED_EDGE('',*,*,#391,.T.);
#500=ORIENTED_EDGE('',*,*,#392,.T.);
#501=ORIENTED_EDGE('',*,*,#393,.T.);
#502=ORIENTED_EDGE('',*,*,#394,.T.);
#503=ORIENTED_EDGE('',*,*,#395,.T.);
#504=ORIENTED_EDGE('',*,*,#396,.T.);
#505=ORIENTED_EDGE('',*,*,#397,.T.);
#506=ORIENTED_EDGE('',*,*,#385,.T.);
#507=ORIENTED_EDGE('',*,*,#398,.T.);
#508=ORIENTED_EDGE('',*,*,#397,.F.);
#509=ORIENTED_EDGE('',*,*,#399,.F.);
#510=ORIENTED_EDGE('',*,*,#400,.F.);
#511=ORIENTED_EDGE('',*,*,#386,.T.);
#512=ORIENTED_EDGE('',*,*,#389,.T.);
#513=ORIENTED_EDGE('',*,*,#401,.T.);
#514=ORIENTED_EDGE('',*,*,#402,.T.);
#515=ORIENTED_EDGE('',*,*,#382,.T.);
#516=ORIENTED_EDGE('',*,*,#379,.F.);
#517=ORIENTED_EDGE('',*,*,#383,.F.);
#518=ORIENTED_EDGE('',*,*,#402,.F.);
#519=ORIENTED_EDGE('',*,*,#403,.F.);
#520=ORIENTED_EDGE('',*,*,#404,.F.);
#521=ORIENTED_EDGE('',*,*,#405,.T.);
#522=ORIENTED_EDGE('',*,*,#406,.T.);
#523=ORIENTED_EDGE('',*,*,#407,.T.);
#524=ORIENTED_EDGE('',*,*,#408,.T.);
#525=ORIENTED_EDGE('',*,*,#387,.T.);
#526=ORIENTED_EDGE('',*,*,#400,.T.);
#527=ORIENTED_EDGE('',*,*,#409,.T.);
#528=ORIENTED_EDGE('',*,*,#410,.T.);
#529=ORIENTED_EDGE('',*,*,#380,.F.);
#530=ORIENTED_EDGE('',*,*,#405,.F.);
#531=ORIENTED_EDGE('',*,*,#411,.F.);
#532=ORIENTED_EDGE('',*,*,#412,.F.);
#533=ORIENTED_EDGE('',*,*,#413,.F.);
#534=ORIENTED_EDGE('',*,*,#414,.F.);
#535=ORIENTED_EDGE('',*,*,#415,.F.);
#536=ORIENTED_EDGE('',*,*,#416,.F.);
#537=ORIENTED_EDGE('',*,*,#398,.F.);
#538=ORIENTED_EDGE('',*,*,#384,.F.);
#539=ORIENTED_EDGE('',*,*,#396,.F.);
#540=ORIENTED_EDGE('',*,*,#416,.T.);
#541=ORIENTED_EDGE('',*,*,#417,.F.);
#542=ORIENTED_EDGE('',*,*,#418,.F.);
#543=ORIENTED_EDGE('',*,*,#409,.F.);
#544=ORIENTED_EDGE('',*,*,#399,.T.);
#545=ORIENTED_EDGE('',*,*,#419,.T.);
#546=ORIENTED_EDGE('',*,*,#420,.T.);
#547=ORIENTED_EDGE('',*,*,#421,.T.);
#548=ORIENTED_EDGE('',*,*,#415,.T.);
#549=ORIENTED_EDGE('',*,*,#422,.F.);
#550=ORIENTED_EDGE('',*,*,#423,.F.);
#551=ORIENTED_EDGE('',*,*,#424,.T.);
#552=ORIENTED_EDGE('',*,*,#425,.F.);
#553=ORIENTED_EDGE('',*,*,#417,.T.);
#554=ORIENTED_EDGE('',*,*,#414,.T.);
#555=ORIENTED_EDGE('',*,*,#426,.F.);
#556=ORIENTED_EDGE('',*,*,#427,.T.);
#557=ORIENTED_EDGE('',*,*,#428,.F.);
#558=ORIENTED_EDGE('',*,*,#429,.T.);
#559=ORIENTED_EDGE('',*,*,#430,.T.);
#560=ORIENTED_EDGE('',*,*,#431,.T.);
#561=ORIENTED_EDGE('',*,*,#432,.T.);
#562=ORIENTED_EDGE('',*,*,#433,.T.);
#563=ORIENTED_EDGE('',*,*,#434,.T.);
#564=ORIENTED_EDGE('',*,*,#435,.T.);
#565=ORIENTED_EDGE('',*,*,#436,.T.);
#566=ORIENTED_EDGE('',*,*,#437,.T.);
#567=ORIENTED_EDGE('',*,*,#438,.T.);
#568=ORIENTED_EDGE('',*,*,#422,.T.);
#569=ORIENTED_EDGE('',*,*,#439,.T.);
#570=ORIENTED_EDGE('',*,*,#440,.T.);
#571=ORIENTED_EDGE('',*,*,#395,.F.);
#572=ORIENTED_EDGE('',*,*,#441,.T.);
#573=ORIENTED_EDGE('',*,*,#408,.F.);
#574=ORIENTED_EDGE('',*,*,#441,.F.);
#575=ORIENTED_EDGE('',*,*,#394,.F.);
#576=ORIENTED_EDGE('',*,*,#442,.T.);
#577=ORIENTED_EDGE('',*,*,#421,.F.);
#578=ORIENTED_EDGE('',*,*,#442,.F.);
#579=ORIENTED_EDGE('',*,*,#393,.F.);
#580=ORIENTED_EDGE('',*,*,#443,.T.);
#581=ORIENTED_EDGE('',*,*,#407,.F.);
#582=ORIENTED_EDGE('',*,*,#443,.F.);
#583=ORIENTED_EDGE('',*,*,#392,.F.);
#584=ORIENTED_EDGE('',*,*,#444,.T.);
#585=ORIENTED_EDGE('',*,*,#420,.F.);
#586=ORIENTED_EDGE('',*,*,#444,.F.);
#587=ORIENTED_EDGE('',*,*,#391,.F.);
#588=ORIENTED_EDGE('',*,*,#445,.T.);
#589=ORIENTED_EDGE('',*,*,#419,.F.);
#590=ORIENTED_EDGE('',*,*,#445,.F.);
#591=ORIENTED_EDGE('',*,*,#390,.F.);
#592=ORIENTED_EDGE('',*,*,#446,.T.);
#593=ORIENTED_EDGE('',*,*,#406,.F.);
#594=ORIENTED_EDGE('',*,*,#446,.F.);
#595=ORIENTED_EDGE('',*,*,#447,.F.);
#596=ORIENTED_EDGE('',*,*,#448,.T.);
#597=ORIENTED_EDGE('',*,*,#440,.F.);
#598=ORIENTED_EDGE('',*,*,#448,.F.);
#599=ORIENTED_EDGE('',*,*,#413,.T.);
#600=ORIENTED_EDGE('',*,*,#449,.F.);
#601=ORIENTED_EDGE('',*,*,#450,.T.);
#602=ORIENTED_EDGE('',*,*,#426,.T.);
#603=ORIENTED_EDGE('',*,*,#411,.T.);
#604=ORIENTED_EDGE('',*,*,#404,.T.);
#605=ORIENTED_EDGE('',*,*,#451,.T.);
#606=ORIENTED_EDGE('',*,*,#452,.F.);
#607=ORIENTED_EDGE('',*,*,#453,.T.);
#608=ORIENTED_EDGE('',*,*,#454,.T.);
#609=ORIENTED_EDGE('',*,*,#412,.T.);
#610=ORIENTED_EDGE('',*,*,#454,.F.);
#611=ORIENTED_EDGE('',*,*,#455,.T.);
#612=ORIENTED_EDGE('',*,*,#456,.F.);
#613=ORIENTED_EDGE('',*,*,#457,.T.);
#614=ORIENTED_EDGE('',*,*,#458,.T.);
#615=ORIENTED_EDGE('',*,*,#459,.T.);
#616=ORIENTED_EDGE('',*,*,#460,.T.);
#617=ORIENTED_EDGE('',*,*,#461,.T.);
#618=ORIENTED_EDGE('',*,*,#462,.T.);
#619=ORIENTED_EDGE('',*,*,#463,.T.);
#620=ORIENTED_EDGE('',*,*,#464,.T.);
#621=ORIENTED_EDGE('',*,*,#465,.F.);
#622=ORIENTED_EDGE('',*,*,#466,.T.);
#623=ORIENTED_EDGE('',*,*,#449,.T.);
#624=ORIENTED_EDGE('',*,*,#447,.T.);
#625=ORIENTED_EDGE('',*,*,#467,.F.);
#626=ORIENTED_EDGE('',*,*,#468,.F.);
#627=ORIENTED_EDGE('',*,*,#452,.T.);
#628=ORIENTED_EDGE('',*,*,#469,.T.);
#629=ORIENTED_EDGE('',*,*,#424,.F.);
#630=ORIENTED_EDGE('',*,*,#401,.F.);
#631=ORIENTED_EDGE('',*,*,#388,.F.);
#632=ORIENTED_EDGE('',*,*,#410,.F.);
#633=ORIENTED_EDGE('',*,*,#418,.T.);
#634=ORIENTED_EDGE('',*,*,#425,.T.);
#635=ORIENTED_EDGE('',*,*,#469,.F.);
#636=ORIENTED_EDGE('',*,*,#451,.F.);
#637=ORIENTED_EDGE('',*,*,#403,.T.);
#638=ORIENTED_EDGE('',*,*,#428,.T.);
#639=ORIENTED_EDGE('',*,*,#470,.T.);
#640=ORIENTED_EDGE('',*,*,#465,.T.);
#641=ORIENTED_EDGE('',*,*,#471,.T.);
#642=ORIENTED_EDGE('',*,*,#470,.F.);
#643=ORIENTED_EDGE('',*,*,#427,.F.);
#644=ORIENTED_EDGE('',*,*,#450,.F.);
#645=ORIENTED_EDGE('',*,*,#466,.F.);
#646=ORIENTED_EDGE('',*,*,#439,.F.);
#647=ORIENTED_EDGE('',*,*,#472,.T.);
#648=ORIENTED_EDGE('',*,*,#467,.T.);
#649=ORIENTED_EDGE('',*,*,#472,.F.);
#650=ORIENTED_EDGE('',*,*,#457,.F.);
#651=ORIENTED_EDGE('',*,*,#473,.T.);
#652=ORIENTED_EDGE('',*,*,#436,.F.);
#653=ORIENTED_EDGE('',*,*,#474,.F.);
#654=ORIENTED_EDGE('',*,*,#458,.F.);
#655=ORIENTED_EDGE('',*,*,#474,.T.);
#656=ORIENTED_EDGE('',*,*,#435,.F.);
#657=ORIENTED_EDGE('',*,*,#475,.F.);
#658=ORIENTED_EDGE('',*,*,#459,.F.);
#659=ORIENTED_EDGE('',*,*,#475,.T.);
#660=ORIENTED_EDGE('',*,*,#434,.F.);
#661=ORIENTED_EDGE('',*,*,#476,.F.);
#662=ORIENTED_EDGE('',*,*,#460,.F.);
#663=ORIENTED_EDGE('',*,*,#476,.T.);
#664=ORIENTED_EDGE('',*,*,#433,.F.);
#665=ORIENTED_EDGE('',*,*,#477,.F.);
#666=ORIENTED_EDGE('',*,*,#461,.F.);
#667=ORIENTED_EDGE('',*,*,#477,.T.);
#668=ORIENTED_EDGE('',*,*,#432,.F.);
#669=ORIENTED_EDGE('',*,*,#478,.F.);
#670=ORIENTED_EDGE('',*,*,#462,.F.);
#671=ORIENTED_EDGE('',*,*,#478,.T.);
#672=ORIENTED_EDGE('',*,*,#431,.F.);
#673=ORIENTED_EDGE('',*,*,#479,.F.);
#674=ORIENTED_EDGE('',*,*,#463,.F.);
#675=ORIENTED_EDGE('',*,*,#479,.T.);
#676=ORIENTED_EDGE('',*,*,#430,.F.);
#677=ORIENTED_EDGE('',*,*,#480,.F.);
#678=ORIENTED_EDGE('',*,*,#471,.F.);
#679=ORIENTED_EDGE('',*,*,#464,.F.);
#680=ORIENTED_EDGE('',*,*,#480,.T.);
#681=ORIENTED_EDGE('',*,*,#429,.F.);
#682=ORIENTED_EDGE('',*,*,#468,.T.);
#683=ORIENTED_EDGE('',*,*,#423,.T.);
#684=ORIENTED_EDGE('',*,*,#438,.F.);
#685=ORIENTED_EDGE('',*,*,#481,.F.);
#686=ORIENTED_EDGE('',*,*,#455,.F.);
#687=ORIENTED_EDGE('',*,*,#453,.F.);
#688=ORIENTED_EDGE('',*,*,#456,.T.);
#689=ORIENTED_EDGE('',*,*,#481,.T.);
#690=ORIENTED_EDGE('',*,*,#437,.F.);
#691=ORIENTED_EDGE('',*,*,#473,.F.);
#692=CYLINDRICAL_SURFACE('',#760,10.);
#693=CYLINDRICAL_SURFACE('',#774,10.);
#694=CYLINDRICAL_SURFACE('',#777,10.);
#695=CYLINDRICAL_SURFACE('',#783,10.);
#696=CYLINDRICAL_SURFACE('',#792,15.);
#697=CYLINDRICAL_SURFACE('',#801,2.5);
#698=CYLINDRICAL_SURFACE('',#802,2.5);
#699=CYLINDRICAL_SURFACE('',#803,2.5);
#700=CYLINDRICAL_SURFACE('',#804,2.5);
#701=CYLINDRICAL_SURFACE('',#805,2.5);
#702=CYLINDRICAL_SURFACE('',#806,2.5);
#703=CYLINDRICAL_SURFACE('',#807,2.5);
#704=CYLINDRICAL_SURFACE('',#810,15.);
#705=CYLINDRICAL_SURFACE('',#821,11.);
#706=CYLINDRICAL_SURFACE('',#823,10.);
#707=CYLINDRICAL_SURFACE('',#825,9.99999999999999);
#708=CYLINDRICAL_SURFACE('',#829,8.80000000000001);
#709=ADVANCED_FACE('',(#59),#692,.T.);
#710=ADVANCED_FACE('',(#60),#42,.T.);
#711=ADVANCED_FACE('',(#61,#26,#27,#28,#29,#30,#31),#43,.T.);
#712=ADVANCED_FACE('',(#62),#693,.T.);
#713=ADVANCED_FACE('',(#63),#44,.T.);
#714=ADVANCED_FACE('',(#64),#694,.T.);
#715=ADVANCED_FACE('',(#65,#32,#33,#34),#45,.F.);
#716=ADVANCED_FACE('',(#66),#695,.T.);
#717=ADVANCED_FACE('',(#67),#46,.T.);
#718=ADVANCED_FACE('',(#68,#35,#36,#37),#47,.F.);
#719=ADVANCED_FACE('',(#69),#696,.F.);
#720=ADVANCED_FACE('',(#70,#38,#39),#48,.T.);
#721=ADVANCED_FACE('',(#71),#697,.F.);
#722=ADVANCED_FACE('',(#72),#698,.F.);
#723=ADVANCED_FACE('',(#73),#699,.F.);
#724=ADVANCED_FACE('',(#74),#700,.F.);
#725=ADVANCED_FACE('',(#75),#701,.F.);
#726=ADVANCED_FACE('',(#76),#702,.F.);
#727=ADVANCED_FACE('',(#77),#703,.F.);
#728=ADVANCED_FACE('',(#78),#49,.T.);
#729=ADVANCED_FACE('',(#79),#704,.F.);
#730=ADVANCED_FACE('',(#80,#40,#41),#50,.F.);
#731=ADVANCED_FACE('',(#81),#51,.T.);
#732=ADVANCED_FACE('',(#82),#52,.T.);
#733=ADVANCED_FACE('',(#83),#17,.T.);
#734=ADVANCED_FACE('',(#84),#53,.T.);
#735=ADVANCED_FACE('',(#85),#705,.F.);
#736=ADVANCED_FACE('',(#86),#54,.T.);
#737=ADVANCED_FACE('',(#87),#706,.F.);
#738=ADVANCED_FACE('',(#88),#55,.T.);
#739=ADVANCED_FACE('',(#89),#707,.F.);
#740=ADVANCED_FACE('',(#90),#56,.T.);
#741=ADVANCED_FACE('',(#91),#15,.T.);
#742=ADVANCED_FACE('',(#92),#57,.T.);
#743=ADVANCED_FACE('',(#93),#16,.T.);
#744=ADVANCED_FACE('',(#94),#58,.T.);
#745=ADVANCED_FACE('',(#95),#708,.T.);
#746=CLOSED_SHELL('',(#709,#710,#711,#712,#713,#714,#715,#716,#717,#718,
#719,#720,#721,#722,#723,#724,#725,#726,#727,#728,#729,#730,#731,#732,#733,
#734,#735,#736,#737,#738,#739,#740,#741,#742,#743,#744,#745));
#747=DERIVED_UNIT_ELEMENT(#749,1.);
#748=DERIVED_UNIT_ELEMENT(#1384,-3.);
#749=(
MASS_UNIT()
NAMED_UNIT(*)
SI_UNIT(.KILO.,.GRAM.)
);
#750=DERIVED_UNIT((#747,#748));
#751=MEASURE_REPRESENTATION_ITEM('density measure',
POSITIVE_RATIO_MEASURE(7850.),#750);
#752=PROPERTY_DEFINITION_REPRESENTATION(#757,#754);
#753=PROPERTY_DEFINITION_REPRESENTATION(#758,#755);
#754=REPRESENTATION('material name',(#756),#1381);
#755=REPRESENTATION('density',(#751),#1381);
#756=DESCRIPTIVE_REPRESENTATION_ITEM('Steel','Steel');
#757=PROPERTY_DEFINITION('material property','material name',#1391);
#758=PROPERTY_DEFINITION('material property','density of part',#1391);
#759=AXIS2_PLACEMENT_3D('',#1033,#830,#831);
#760=AXIS2_PLACEMENT_3D('',#1034,#832,#833);
#761=AXIS2_PLACEMENT_3D('',#1037,#834,#835);
#762=AXIS2_PLACEMENT_3D('',#1041,#837,#838);
#763=AXIS2_PLACEMENT_3D('',#1043,#840,#841);
#764=AXIS2_PLACEMENT_3D('',#1049,#845,#846);
#765=AXIS2_PLACEMENT_3D('',#1053,#848,#849);
#766=AXIS2_PLACEMENT_3D('',#1057,#851,#852);
#767=AXIS2_PLACEMENT_3D('',#1060,#854,#855);
#768=AXIS2_PLACEMENT_3D('',#1062,#856,#857);
#769=AXIS2_PLACEMENT_3D('',#1064,#858,#859);
#770=AXIS2_PLACEMENT_3D('',#1066,#860,#861);
#771=AXIS2_PLACEMENT_3D('',#1068,#862,#863);
#772=AXIS2_PLACEMENT_3D('',#1070,#864,#865);
#773=AXIS2_PLACEMENT_3D('',#1072,#866,#867);
#774=AXIS2_PLACEMENT_3D('',#1073,#868,#869);
#775=AXIS2_PLACEMENT_3D('',#1076,#870,#871);
#776=AXIS2_PLACEMENT_3D('',#1079,#874,#875);
#777=AXIS2_PLACEMENT_3D('',#1083,#878,#879);
#778=AXIS2_PLACEMENT_3D('',#1086,#881,#882);
#779=AXIS2_PLACEMENT_3D('',#1087,#883,#884);
#780=AXIS2_PLACEMENT_3D('',#1094,#888,#889);
#781=AXIS2_PLACEMENT_3D('',#1096,#890,#891);
#782=AXIS2_PLACEMENT_3D('',#1098,#892,#893);
#783=AXIS2_PLACEMENT_3D('',#1099,#894,#895);
#784=AXIS2_PLACEMENT_3D('',#1101,#896,#897);
#785=AXIS2_PLACEMENT_3D('',#1103,#899,#900);
#786=AXIS2_PLACEMENT_3D('',#1105,#901,#902);
#787=AXIS2_PLACEMENT_3D('',#1113,#906,#907);
#788=AXIS2_PLACEMENT_3D('',#1115,#909,#910);
#789=AXIS2_PLACEMENT_3D('',#1120,#913,#914);
#790=AXIS2_PLACEMENT_3D('',#1122,#915,#916);
#791=AXIS2_PLACEMENT_3D('',#1124,#917,#918);
#792=AXIS2_PLACEMENT_3D('',#1125,#919,#920);
#793=AXIS2_PLACEMENT_3D('',#1129,#922,#923);
#794=AXIS2_PLACEMENT_3D('',#1132,#925,#926);
#795=AXIS2_PLACEMENT_3D('',#1133,#927,#928);
#796=AXIS2_PLACEMENT_3D('',#1176,#933,#934);
#797=AXIS2_PLACEMENT_3D('',#1180,#936,#937);
#798=AXIS2_PLACEMENT_3D('',#1184,#939,#940);
#799=AXIS2_PLACEMENT_3D('',#1187,#942,#943);
#800=AXIS2_PLACEMENT_3D('',#1189,#944,#945);
#801=AXIS2_PLACEMENT_3D('',#1190,#946,#947);
#802=AXIS2_PLACEMENT_3D('',#1192,#949,#950);
#803=AXIS2_PLACEMENT_3D('',#1194,#952,#953);
#804=AXIS2_PLACEMENT_3D('',#1196,#955,#956);
#805=AXIS2_PLACEMENT_3D('',#1198,#958,#959);
#806=AXIS2_PLACEMENT_3D('',#1200,#961,#962);
#807=AXIS2_PLACEMENT_3D('',#1202,#964,#965);
#808=AXIS2_PLACEMENT_3D('',#1204,#966,#967);
#809=AXIS2_PLACEMENT_3D('',#1206,#969,#970);
#810=AXIS2_PLACEMENT_3D('',#1210,#973,#974);
#811=AXIS2_PLACEMENT_3D('',#1212,#975,#976);
#812=AXIS2_PLACEMENT_3D('',#1216,#978,#979);
#813=AXIS2_PLACEMENT_3D('',#1218,#981,#982);
#814=AXIS2_PLACEMENT_3D('',#1222,#984,#985);
#815=AXIS2_PLACEMENT_3D('',#1226,#987,#988);
#816=AXIS2_PLACEMENT_3D('',#1230,#990,#991);
#817=AXIS2_PLACEMENT_3D('',#1270,#995,#996);
#818=AXIS2_PLACEMENT_3D('',#1271,#997,#998);
#819=AXIS2_PLACEMENT_3D('',#1274,#1001,#1002);
#820=AXIS2_PLACEMENT_3D('',#1299,#1003,#1004);
#821=AXIS2_PLACEMENT_3D('',#1300,#1005,#1006);
#822=AXIS2_PLACEMENT_3D('',#1302,#1008,#1009);
#823=AXIS2_PLACEMENT_3D('',#1305,#1012,#1013);
#824=AXIS2_PLACEMENT_3D('',#1307,#1015,#1016);
#825=AXIS2_PLACEMENT_3D('',#1309,#1018,#1019);
#826=AXIS2_PLACEMENT_3D('',#1311,#1021,#1022);
#827=AXIS2_PLACEMENT_3D('',#1344,#1025,#1026);
#828=AXIS2_PLACEMENT_3D('',#1376,#1028,#1029);
#829=AXIS2_PLACEMENT_3D('',#1378,#1031,#1032);
#830=DIRECTION('axis',(0.,0.,1.));
#831=DIRECTION('refdir',(1.,0.,0.));
#832=DIRECTION('center_axis',(0.,0.,-1.));
#833=DIRECTION('ref_axis',(-0.707106781186547,-0.707106781186547,0.));
#834=DIRECTION('center_axis',(0.,0.,1.));
#835=DIRECTION('ref_axis',(-0.707106781186547,-0.707106781186547,0.));
#836=DIRECTION('',(0.,0.,1.));
#837=DIRECTION('center_axis',(0.,0.,-1.));
#838=DIRECTION('ref_axis',(-0.707106781186547,-0.707106781186547,0.));
#839=DIRECTION('',(0.,0.,-1.));
#840=DIRECTION('center_axis',(0.,-1.,0.));
#841=DIRECTION('ref_axis',(-1.,0.,0.));
#842=DIRECTION('',(-1.,0.,0.));
#843=DIRECTION('',(0.,0.,-1.));
#844=DIRECTION('',(-1.,0.,0.));
#845=DIRECTION('center_axis',(0.,0.,-1.));
#846=DIRECTION('ref_axis',(-1.,0.,0.));
#847=DIRECTION('',(0.,1.,0.));
#848=DIRECTION('center_axis',(0.,0.,1.));
#849=DIRECTION('ref_axis',(-0.707106781186547,0.707106781186547,0.));
#850=DIRECTION('',(-1.,0.,0.));
#851=DIRECTION('center_axis',(0.,0.,1.));
#852=DIRECTION('ref_axis',(0.707106781186547,0.707106781186547,0.));
#853=DIRECTION('',(0.,-1.,0.));
#854=DIRECTION('center_axis',(0.,0.,1.));
#855=DIRECTION('ref_axis',(0.707106781186547,-0.707106781186547,0.));
#856=DIRECTION('center_axis',(0.,0.,1.));
#857=DIRECTION('ref_axis',(1.,0.,0.));
#858=DIRECTION('center_axis',(0.,0.,1.));
#859=DIRECTION('ref_axis',(1.,0.,0.));
#860=DIRECTION('center_axis',(0.,0.,1.));
#861=DIRECTION('ref_axis',(1.,0.,0.));
#862=DIRECTION('center_axis',(0.,0.,1.));
#863=DIRECTION('ref_axis',(1.,0.,0.));
#864=DIRECTION('center_axis',(0.,0.,1.));
#865=DIRECTION('ref_axis',(1.,0.,0.));
#866=DIRECTION('center_axis',(0.,0.,1.));
#867=DIRECTION('ref_axis',(1.,0.,0.));
#868=DIRECTION('center_axis',(0.,0.,1.));
#869=DIRECTION('ref_axis',(-0.707106781186547,0.707106781186547,0.));
#870=DIRECTION('center_axis',(0.,0.,-1.));
#871=DIRECTION('ref_axis',(-0.707106781186547,0.707106781186547,0.));
#872=DIRECTION('',(0.,0.,-1.));
#873=DIRECTION('',(0.,0.,1.));
#874=DIRECTION('center_axis',(2.53725353304123E-16,1.,0.));
#875=DIRECTION('ref_axis',(1.,-2.53725353304123E-16,0.));
#876=DIRECTION('',(-1.,0.,0.));
#877=DIRECTION('',(0.,0.,1.));
#878=DIRECTION('center_axis',(0.,0.,-1.));
#879=DIRECTION('ref_axis',(0.707106781186547,-0.707106781186547,0.));
#880=DIRECTION('',(0.,0.,1.));
#881=DIRECTION('center_axis',(0.,0.,-1.));
#882=DIRECTION('ref_axis',(0.707106781186547,-0.707106781186547,0.));
#883=DIRECTION('center_axis',(0.,0.,-1.));
#884=DIRECTION('ref_axis',(1.,0.,0.));
#885=DIRECTION('',(0.,-1.,0.));
#886=DIRECTION('',(1.,0.,0.));
#887=DIRECTION('',(0.,-1.,0.));
#888=DIRECTION('center_axis',(0.,0.,-1.));
#889=DIRECTION('ref_axis',(1.,0.,0.));
#890=DIRECTION('center_axis',(0.,0.,-1.));
#891=DIRECTION('ref_axis',(1.,0.,0.));
#892=DIRECTION('center_axis',(0.,0.,-1.));
#893=DIRECTION('ref_axis',(1.,0.,0.));
#894=DIRECTION('center_axis',(0.,0.,-1.));
#895=DIRECTION('ref_axis',(0.707106781186547,0.707106781186547,0.));
#896=DIRECTION('center_axis',(0.,0.,-1.));
#897=DIRECTION('ref_axis',(0.707106781186547,0.707106781186547,0.));
#898=DIRECTION('',(0.,0.,-1.));
#899=DIRECTION('center_axis',(-1.,0.,0.));
#900=DIRECTION('ref_axis',(0.,0.,1.));
#901=DIRECTION('center_axis',(-1.,0.,0.));
#902=DIRECTION('ref_axis',(0.,0.707106781186547,-0.707106781186547));
#903=DIRECTION('',(0.,0.,-1.));
#904=DIRECTION('',(0.,-1.,0.));
#905=DIRECTION('',(0.,0.,1.));
#906=DIRECTION('center_axis',(-1.,0.,0.));
#907=DIRECTION('ref_axis',(0.,-0.707106781186547,-0.707106781186547));
#908=DIRECTION('',(0.,-1.,0.));
#909=DIRECTION('center_axis',(0.,0.,-1.));
#910=DIRECTION('ref_axis',(1.,0.,0.));
#911=DIRECTION('',(-1.,0.,0.));
#912=DIRECTION('',(0.,-1.,0.));
#913=DIRECTION('center_axis',(0.,0.,-1.));
#914=DIRECTION('ref_axis',(1.,0.,0.));
#915=DIRECTION('center_axis',(0.,0.,-1.));
#916=DIRECTION('ref_axis',(1.,0.,0.));
#917=DIRECTION('center_axis',(0.,0.,-1.));
#918=DIRECTION('ref_axis',(1.,0.,0.));
#919=DIRECTION('center_axis',(-1.,0.,0.));
#920=DIRECTION('ref_axis',(0.,-0.707106781186547,-0.707106781186547));
#921=DIRECTION('',(-1.,0.,0.));
#922=DIRECTION('center_axis',(1.,0.,-6.90822185622856E-16));
#923=DIRECTION('ref_axis',(0.,-0.707106781186547,-0.707106781186547));
#924=DIRECTION('',(1.,0.,0.));
#925=DIRECTION('center_axis',(1.,0.,0.));
#926=DIRECTION('ref_axis',(0.,-0.707106781186547,-0.707106781186547));
#927=DIRECTION('center_axis',(0.,1.,0.));
#928=DIRECTION('ref_axis',(1.,0.,0.));
#929=DIRECTION('',(-1.,0.,0.));
#930=DIRECTION('',(0.799846952209419,0.,0.60020400951785));
#931=DIRECTION('',(1.,0.,0.));
#932=DIRECTION('',(-1.,0.,2.89546873000511E-16));
#933=DIRECTION('center_axis',(0.,-1.,0.));
#934=DIRECTION('ref_axis',(-1.,0.,0.));
#935=DIRECTION('',(-1.61322395958466E-16,0.,-1.));
#936=DIRECTION('center_axis',(0.,-1.,0.));
#937=DIRECTION('ref_axis',(8.88178419700125E-16,0.,-1.));
#938=DIRECTION('',(1.,0.,0.));
#939=DIRECTION('center_axis',(0.,1.,0.));
#940=DIRECTION('ref_axis',(0.,0.,1.));
#941=DIRECTION('',(-6.90822185622856E-16,0.,-1.));
#942=DIRECTION('center_axis',(0.,-1.,0.));
#943=DIRECTION('ref_axis',(1.,0.,0.));
#944=DIRECTION('center_axis',(0.,-1.,0.));
#945=DIRECTION('ref_axis',(1.,0.,0.));
#946=DIRECTION('center_axis',(0.,0.,1.));
#947=DIRECTION('ref_axis',(1.,0.,0.));
#948=DIRECTION('',(0.,0.,1.));
#949=DIRECTION('center_axis',(0.,0.,1.));
#950=DIRECTION('ref_axis',(1.,0.,0.));
#951=DIRECTION('',(0.,0.,1.));
#952=DIRECTION('center_axis',(0.,0.,1.));
#953=DIRECTION('ref_axis',(1.,0.,0.));
#954=DIRECTION('',(0.,0.,1.));
#955=DIRECTION('center_axis',(0.,0.,1.));
#956=DIRECTION('ref_axis',(1.,0.,0.));
#957=DIRECTION('',(0.,0.,1.));
#958=DIRECTION('center_axis',(0.,0.,1.));
#959=DIRECTION('ref_axis',(1.,0.,0.));
#960=DIRECTION('',(0.,0.,1.));
#961=DIRECTION('center_axis',(0.,0.,1.));
#962=DIRECTION('ref_axis',(1.,0.,0.));
#963=DIRECTION('',(0.,0.,1.));
#964=DIRECTION('center_axis',(0.,1.,0.));
#965=DIRECTION('ref_axis',(1.,0.,0.));
#966=DIRECTION('center_axis',(0.,1.,0.));
#967=DIRECTION('ref_axis',(1.,0.,0.));
#968=DIRECTION('',(0.,1.,0.));
#969=DIRECTION('center_axis',(0.,0.,1.));
#970=DIRECTION('ref_axis',(0.,1.,0.));
#971=DIRECTION('',(-1.,0.,0.));
#972=DIRECTION('',(0.,1.,0.));
#973=DIRECTION('center_axis',(-1.,0.,0.));
#974=DIRECTION('ref_axis',(0.,0.707106781186547,-0.707106781186547));
#975=DIRECTION('center_axis',(1.,0.,0.));
#976=DIRECTION('ref_axis',(0.,0.707106781186547,-0.707106781186547));
#977=DIRECTION('',(-1.,0.,0.));
#978=DIRECTION('center_axis',(1.,0.,-6.90822185622856E-16));
#979=DIRECTION('ref_axis',(0.,0.707106781186547,-0.707106781186547));
#980=DIRECTION('',(-1.,0.,0.));
#981=DIRECTION('center_axis',(0.,1.,0.));
#982=DIRECTION('ref_axis',(1.,0.,0.));
#983=DIRECTION('',(6.90822185622856E-16,0.,1.));
#984=DIRECTION('center_axis',(0.,1.,0.));
#985=DIRECTION('ref_axis',(0.,0.,1.));
#986=DIRECTION('',(-1.,0.,0.));
#987=DIRECTION('center_axis',(0.,1.,0.));
#988=DIRECTION('ref_axis',(8.88178419700125E-16,0.,-1.));
#989=DIRECTION('',(1.61322395958466E-16,0.,1.));
#990=DIRECTION('center_axis',(0.,1.,0.));
#991=DIRECTION('ref_axis',(-1.,0.,0.));
#992=DIRECTION('',(1.,0.,-2.89546873000511E-16));
#993=DIRECTION('',(-1.,0.,0.));
#994=DIRECTION('',(-0.799846952209419,0.,-0.60020400951785));
#995=DIRECTION('center_axis',(0.,-1.,0.));
#996=DIRECTION('ref_axis',(1.,0.,0.));
#997=DIRECTION('center_axis',(0.,0.,1.));
#998=DIRECTION('ref_axis',(1.,0.,0.));
#999=DIRECTION('',(0.,1.,0.));
#1000=DIRECTION('',(0.,1.,0.));
#1001=DIRECTION('center_axis',(1.,0.,0.));
#1002=DIRECTION('ref_axis',(0.,0.,-1.));
#1003=DIRECTION('center_axis',(-0.600204009517851,0.,0.799846952209419));
#1004=DIRECTION('ref_axis',(0.799846952209419,0.,0.600204009517851));
#1005=DIRECTION('center_axis',(0.,1.,0.));
#1006=DIRECTION('ref_axis',(1.,0.,0.));
#1007=DIRECTION('',(0.,-1.,0.));
#1008=DIRECTION('center_axis',(0.,0.,1.));
#1009=DIRECTION('ref_axis',(1.,0.,0.));
#1010=DIRECTION('',(0.,1.,0.));
#1011=DIRECTION('',(0.,1.,0.));
#1012=DIRECTION('center_axis',(0.,1.,0.));
#1013=DIRECTION('ref_axis',(8.88178419700125E-16,0.,-1.));
#1014=DIRECTION('',(0.,1.,0.));
#1015=DIRECTION('center_axis',(1.,0.,-1.61322395958466E-16));
#1016=DIRECTION('ref_axis',(-1.61322395958466E-16,0.,-1.));
#1017=DIRECTION('',(0.,1.,0.));
#1018=DIRECTION('center_axis',(0.,1.,0.));
#1019=DIRECTION('ref_axis',(-1.,0.,0.));
#1020=DIRECTION('',(0.,1.,0.));
#1021=DIRECTION('center_axis',(-2.89546873000511E-16,0.,-1.));
#1022=DIRECTION('ref_axis',(-1.,0.,2.89546873000511E-16));
#1023=DIRECTION('',(0.,1.,0.));
#1024=DIRECTION('',(0.,1.,0.));
#1025=DIRECTION('center_axis',(0.,0.,1.));
#1026=DIRECTION('ref_axis',(1.,0.,0.));
#1027=DIRECTION('',(0.,1.,0.));
#1028=DIRECTION('center_axis',(1.,0.,-6.90822185622856E-16));
#1029=DIRECTION('ref_axis',(-6.90822185622856E-16,0.,-1.));
#1030=DIRECTION('',(0.,1.,0.));
#1031=DIRECTION('center_axis',(0.,1.,0.));
#1032=DIRECTION('ref_axis',(0.,0.,1.));
#1033=CARTESIAN_POINT('',(0.,0.,0.));
#1034=CARTESIAN_POINT('Origin',(-120.000021155375,-30.,-150.));
#1035=CARTESIAN_POINT('',(-130.000021155375,-30.,-165.));
#1036=CARTESIAN_POINT('',(-120.000021155375,-40.,-165.));
#1037=CARTESIAN_POINT('Origin',(-120.000021155375,-30.,-165.));
#1038=CARTESIAN_POINT('',(-120.000021155375,-40.,-155.));
#1039=CARTESIAN_POINT('',(-120.000021155375,-40.,-150.));
#1040=CARTESIAN_POINT('',(-130.000021155375,-30.,-155.));
#1041=CARTESIAN_POINT('Origin',(-120.000021155375,-30.,-155.));
#1042=CARTESIAN_POINT('',(-130.000021155375,-30.,-150.));
#1043=CARTESIAN_POINT('Origin',(50.,-40.,-155.));
#1044=CARTESIAN_POINT('',(40.,-40.,-165.));
#1045=CARTESIAN_POINT('',(50.,-40.,-165.));
#1046=CARTESIAN_POINT('',(40.,-40.,-155.));
#1047=CARTESIAN_POINT('',(40.,-40.,-150.));
#1048=CARTESIAN_POINT('',(50.,-40.,-155.));
#1049=CARTESIAN_POINT('Origin',(-20.0110105776876,3.50000000000002,-165.));
#1050=CARTESIAN_POINT('',(-130.000021155375,37.,-165.));
#1051=CARTESIAN_POINT('',(-130.000021155375,1.75000000000001,-165.));
#1052=CARTESIAN_POINT('',(-120.000021155375,47.,-165.));
#1053=CARTESIAN_POINT('Origin',(-120.000021155375,37.,-165.));
#1054=CARTESIAN_POINT('',(40.,47.,-165.));
#1055=CARTESIAN_POINT('',(-90.0220211553752,47.,-165.));
#1056=CARTESIAN_POINT('',(50.,37.,-165.));
#1057=CARTESIAN_POINT('Origin',(40.,37.,-165.));
#1058=CARTESIAN_POINT('',(50.,-30.,-165.));
#1059=CARTESIAN_POINT('',(50.,7.,-165.));
#1060=CARTESIAN_POINT('Origin',(40.,-30.,-165.));
#1061=CARTESIAN_POINT('',(2.5,-25.,-165.));
#1062=CARTESIAN_POINT('Origin',(5.,-25.,-165.));
#1063=CARTESIAN_POINT('',(-42.5,32.,-165.));
#1064=CARTESIAN_POINT('Origin',(-40.,32.,-165.));
#1065=CARTESIAN_POINT('',(-87.5,32.,-165.));
#1066=CARTESIAN_POINT('Origin',(-85.,32.,-165.));
#1067=CARTESIAN_POINT('',(-42.5,-25.,-165.));
#1068=CARTESIAN_POINT('Origin',(-40.,-25.,-165.));
#1069=CARTESIAN_POINT('',(2.5,32.,-165.));
#1070=CARTESIAN_POINT('Origin',(5.,32.,-165.));
#1071=CARTESIAN_POINT('',(-87.5,-25.,-165.));
#1072=CARTESIAN_POINT('Origin',(-85.,-25.,-165.));
#1073=CARTESIAN_POINT('Origin',(-120.000021155375,37.,-150.));
#1074=CARTESIAN_POINT('',(-130.000021155375,37.,-155.));
#1075=CARTESIAN_POINT('',(-120.000021155375,47.,-155.));
#1076=CARTESIAN_POINT('Origin',(-120.000021155375,37.,-155.));
#1077=CARTESIAN_POINT('',(-120.000021155375,47.,-150.));
#1078=CARTESIAN_POINT('',(-130.000021155375,37.,-150.));
#1079=CARTESIAN_POINT('Origin',(-90.0220211553752,47.,-155.));
#1080=CARTESIAN_POINT('',(40.,47.,-155.));
#1081=CARTESIAN_POINT('',(-90.0220211553752,47.,-155.));
#1082=CARTESIAN_POINT('',(40.,47.,-150.));
#1083=CARTESIAN_POINT('Origin',(40.,-30.,-150.));
#1084=CARTESIAN_POINT('',(50.,-30.,-155.));
#1085=CARTESIAN_POINT('',(50.,-30.,-150.));
#1086=CARTESIAN_POINT('Origin',(40.,-30.,-155.));
#1087=CARTESIAN_POINT('Origin',(-20.0110105776876,3.50000000000002,-155.));
#1088=CARTESIAN_POINT('',(50.,-15.,-155.));
#1089=CARTESIAN_POINT('',(50.,7.,-155.));
#1090=CARTESIAN_POINT('',(-130.000021155375,-15.,-155.));
#1091=CARTESIAN_POINT('',(-15.0110105776876,-15.,-155.));
#1092=CARTESIAN_POINT('',(-130.000021155375,1.75000000000001,-155.));
#1093=CARTESIAN_POINT('',(2.5,-25.,-155.));
#1094=CARTESIAN_POINT('Origin',(5.,-25.,-155.));
#1095=CARTESIAN_POINT('',(-42.5,-25.,-155.));
#1096=CARTESIAN_POINT('Origin',(-40.,-25.,-155.));
#1097=CARTESIAN_POINT('',(-87.5,-25.,-155.));
#1098=CARTESIAN_POINT('Origin',(-85.,-25.,-155.));
#1099=CARTESIAN_POINT('Origin',(40.,37.,-150.));
#1100=CARTESIAN_POINT('',(50.,37.,-155.));
#1101=CARTESIAN_POINT('Origin',(40.,37.,-155.));
#1102=CARTESIAN_POINT('',(50.,37.,-150.));
#1103=CARTESIAN_POINT('Origin',(-130.000021155375,0.,-145.));
#1104=CARTESIAN_POINT('',(-130.000021155375,0.,-140.));
#1105=CARTESIAN_POINT('Origin',(-130.000021155375,-15.,-140.));
#1106=CARTESIAN_POINT('',(-130.000021155375,0.,-30.));
#1107=CARTESIAN_POINT('',(-130.000021155375,0.,-96.25));
#1108=CARTESIAN_POINT('',(-130.000021155375,7.,-30.));
#1109=CARTESIAN_POINT('',(-130.000021155375,0.,-30.));
#1110=CARTESIAN_POINT('',(-130.000021155375,7.,-140.));
#1111=CARTESIAN_POINT('',(-130.000021155375,7.,-96.25));
#1112=CARTESIAN_POINT('',(-130.000021155375,22.,-155.));
#1113=CARTESIAN_POINT('Origin',(-130.000021155375,22.,-140.));
#1114=CARTESIAN_POINT('',(-130.000021155375,1.75000000000001,-155.));
#1115=CARTESIAN_POINT('Origin',(-20.0110105776876,3.50000000000002,-155.));
#1116=CARTESIAN_POINT('',(50.,22.,-155.));
#1117=CARTESIAN_POINT('',(-15.0110105776876,22.,-155.));
#1118=CARTESIAN_POINT('',(50.,7.,-155.));
#1119=CARTESIAN_POINT('',(-42.5,32.,-155.));
#1120=CARTESIAN_POINT('Origin',(-40.,32.,-155.));
#1121=CARTESIAN_POINT('',(-87.5,32.,-155.));
#1122=CARTESIAN_POINT('Origin',(-85.,32.,-155.));
#1123=CARTESIAN_POINT('',(2.5,32.,-155.));
#1124=CARTESIAN_POINT('Origin',(5.,32.,-155.));
#1125=CARTESIAN_POINT('Origin',(-15.0110105776876,22.,-140.));
#1126=CARTESIAN_POINT('',(49.9302780650246,7.,-140.));
#1127=CARTESIAN_POINT('',(-90.0220211553752,7.,-140.));
#1128=CARTESIAN_POINT('',(49.9302780650246,7.85786437626905,-145.));
#1129=CARTESIAN_POINT('Origin',(49.9302780650246,22.,-140.));
#1130=CARTESIAN_POINT('',(50.,7.85786437626905,-145.));
#1131=CARTESIAN_POINT('',(-15.0110105776876,7.85786437626905,-145.));
#1132=CARTESIAN_POINT('Origin',(50.,22.,-140.));
#1133=CARTESIAN_POINT('Origin',(-10.0110105776876,7.,-47.5));
#1134=CARTESIAN_POINT('',(-90.0220211553752,7.,-30.));
#1135=CARTESIAN_POINT('',(-90.0220211553752,7.,-30.));
#1136=CARTESIAN_POINT('',(-39.2925382505112,7.,8.06733145154831));
#1137=CARTESIAN_POINT('',(-38.5434865912196,7.,8.62941874587492));
#1138=CARTESIAN_POINT('',(-38.0588919283805,7.,9.40807025864641));
#1139=CARTESIAN_POINT('Ctrl Pts',(-38.0588919283805,7.,9.40807025864641));
#1140=CARTESIAN_POINT('Ctrl Pts',(-38.3836135537323,7.,8.89082751304232));
#1141=CARTESIAN_POINT('Ctrl Pts',(-38.8040522666068,7.,8.43389063555567));
#1142=CARTESIAN_POINT('Ctrl Pts',(-39.2925382505112,7.,8.0673314515483));
#1143=CARTESIAN_POINT('',(5.,7.,50.));
#1144=CARTESIAN_POINT('Ctrl Pts',(-38.0588919283759,7.,9.40807025865375));
#1145=CARTESIAN_POINT('Ctrl Pts',(-37.0786164296923,7.,10.9695319871054));
#1146=CARTESIAN_POINT('Ctrl Pts',(-34.9661850096315,7.,14.1910022803461));
#1147=CARTESIAN_POINT('Ctrl Pts',(-31.5611093437997,7.,18.9305280865125));
#1148=CARTESIAN_POINT('Ctrl Pts',(-26.5914609797019,7.,24.9475867765209));
#1149=CARTESIAN_POINT('Ctrl Pts',(-19.7061189219955,7.,31.9316093600609));
#1150=CARTESIAN_POINT('Ctrl Pts',(-12.0753087848227,7.,38.489146321977));
#1151=CARTESIAN_POINT('Ctrl Pts',(-5.51235188611004,7.,43.3297985437173));
#1152=CARTESIAN_POINT('Ctrl Pts',(-0.348584494207468,7.,46.7466352853975));
#1153=CARTESIAN_POINT('Ctrl Pts',(3.19953659314825,7.,48.9311141072706));
#1154=CARTESIAN_POINT('Ctrl Pts',(5.,7.,50.));
#1155=CARTESIAN_POINT('',(70.,7.,50.));
#1156=CARTESIAN_POINT('',(70.,7.,50.));
#1157=CARTESIAN_POINT('',(0.674771600747324,7.,-48.2870550063756));
#1158=CARTESIAN_POINT('Ctrl Pts',(70.,7.,50.));
#1159=CARTESIAN_POINT('Ctrl Pts',(69.8631243309077,7.,46.7019204484863));
#1160=CARTESIAN_POINT('Ctrl Pts',(69.4832650662134,7.,40.2188922682544));
#1161=CARTESIAN_POINT('Ctrl Pts',(68.5951724968488,7.,30.8337213282462));
#1162=CARTESIAN_POINT('Ctrl Pts',(66.7637944983983,7.,19.0102546747506));
#1163=CARTESIAN_POINT('Ctrl Pts',(63.3199487779646,7.,5.46196596430741));
#1164=CARTESIAN_POINT('Ctrl Pts',(58.608752091369,7.,-6.73508925184633));
#1165=CARTESIAN_POINT('Ctrl Pts',(52.5107581651934,7.,-17.4535588749394));
#1166=CARTESIAN_POINT('Ctrl Pts',(44.9346257013927,7.,-26.5960559737785));
#1167=CARTESIAN_POINT('Ctrl Pts',(35.897725101352,7.,-34.1811006495679));
#1168=CARTESIAN_POINT('Ctrl Pts',(25.4934868285568,7.,-40.3083072751337));
#1169=CARTESIAN_POINT('Ctrl Pts',(16.1574144375032,7.,-44.130364138817));
#1170=CARTESIAN_POINT('Ctrl Pts',(8.62067616101859,7.,-46.4268335185911));
#1171=CARTESIAN_POINT('Ctrl Pts',(3.36237403909354,7.,-47.7085279209489));
#1172=CARTESIAN_POINT('Ctrl Pts',(0.674771600747324,7.,-48.2870550063756));
#1173=CARTESIAN_POINT('',(-30.,7.,-48.2870550063756));
#1174=CARTESIAN_POINT('',(-30.,7.,-48.2870550063756));
#1175=CARTESIAN_POINT('',(-40.,7.,-58.2870550063756));
#1176=CARTESIAN_POINT('Origin',(-30.,7.,-58.2870550063756));
#1177=CARTESIAN_POINT('',(-40.,7.,-113.343168847432));
#1178=CARTESIAN_POINT('',(-40.,7.,-113.343168847432));
#1179=CARTESIAN_POINT('',(-30.,7.,-123.343168847432));
#1180=CARTESIAN_POINT('Origin',(-30.,7.,-113.343168847432));
#1181=CARTESIAN_POINT('',(41.1302780650246,7.,-123.343168847432));
#1182=CARTESIAN_POINT('',(41.1302780650246,7.,-123.343168847432));
#1183=CARTESIAN_POINT('',(49.9302780650246,7.,-132.143168847432));
#1184=CARTESIAN_POINT('Origin',(41.1302780650246,7.,-132.143168847432));
#1185=CARTESIAN_POINT('',(49.9302780650246,7.,-145.));
#1186=CARTESIAN_POINT('',(-11.,7.,1.34711147906209E-15));
#1187=CARTESIAN_POINT('Origin',(0.,7.,0.));
#1188=CARTESIAN_POINT('',(-102.400586291355,7.,-111.117531414461));
#1189=CARTESIAN_POINT('Origin',(-99.9005862913546,7.,-111.117531414461));
#1190=CARTESIAN_POINT('Origin',(-85.,-25.,-165.));
#1191=CARTESIAN_POINT('',(-87.5,-25.,-165.));
#1192=CARTESIAN_POINT('Origin',(5.,32.,-165.));
#1193=CARTESIAN_POINT('',(2.5,32.,-165.));
#1194=CARTESIAN_POINT('Origin',(-40.,-25.,-165.));
#1195=CARTESIAN_POINT('',(-42.5,-25.,-165.));
#1196=CARTESIAN_POINT('Origin',(-85.,32.,-165.));
#1197=CARTESIAN_POINT('',(-87.5,32.,-165.));
#1198=CARTESIAN_POINT('Origin',(-40.,32.,-165.));
#1199=CARTESIAN_POINT('',(-42.5,32.,-165.));
#1200=CARTESIAN_POINT('Origin',(5.,-25.,-165.));
#1201=CARTESIAN_POINT('',(2.5,-25.,-165.));
#1202=CARTESIAN_POINT('Origin',(-99.9005862913546,0.,-111.117531414461));
#1203=CARTESIAN_POINT('',(-102.400586291355,0.,-111.117531414461));
#1204=CARTESIAN_POINT('Origin',(-99.9005862913546,0.,-111.117531414461));
#1205=CARTESIAN_POINT('',(-102.400586291355,0.,-111.117531414461));
#1206=CARTESIAN_POINT('Origin',(-90.0220211553752,0.,-30.));
#1207=CARTESIAN_POINT('',(-90.0220211553752,0.,-30.));
#1208=CARTESIAN_POINT('',(-90.0220211553752,0.,-30.));
#1209=CARTESIAN_POINT('',(-90.0220211553752,0.,-30.));
#1210=CARTESIAN_POINT('Origin',(-15.0110105776876,-15.,-140.));
#1211=CARTESIAN_POINT('',(50.,-0.857864376269046,-145.));
#1212=CARTESIAN_POINT('Origin',(50.,-15.,-140.));
#1213=CARTESIAN_POINT('',(49.9302780650246,-0.857864376269046,-145.));
#1214=CARTESIAN_POINT('',(-15.0110105776876,-0.857864376269046,-145.));
#1215=CARTESIAN_POINT('',(49.9302780650246,0.,-140.));
#1216=CARTESIAN_POINT('Origin',(49.9302780650246,-15.,-140.));
#1217=CARTESIAN_POINT('',(-15.0110105776876,0.,-140.));
#1218=CARTESIAN_POINT('Origin',(-10.0110105776876,0.,-47.5));
#1219=CARTESIAN_POINT('',(49.9302780650246,0.,-132.143168847432));
#1220=CARTESIAN_POINT('',(49.9302780650246,0.,-145.));
#1221=CARTESIAN_POINT('',(41.1302780650246,0.,-123.343168847432));
#1222=CARTESIAN_POINT('Origin',(41.1302780650246,0.,-132.143168847432));
#1223=CARTESIAN_POINT('',(-30.,0.,-123.343168847432));
#1224=CARTESIAN_POINT('',(41.1302780650246,0.,-123.343168847432));
#1225=CARTESIAN_POINT('',(-40.,0.,-113.343168847432));
#1226=CARTESIAN_POINT('Origin',(-30.,0.,-113.343168847432));
#1227=CARTESIAN_POINT('',(-40.,0.,-58.2870550063756));
#1228=CARTESIAN_POINT('',(-40.,0.,-113.343168847432));
#1229=CARTESIAN_POINT('',(-30.,0.,-48.2870550063756));
#1230=CARTESIAN_POINT('Origin',(-30.,0.,-58.2870550063756));
#1231=CARTESIAN_POINT('',(0.674771600747324,0.,-48.2870550063756));
#1232=CARTESIAN_POINT('',(-30.,0.,-48.2870550063756));
#1233=CARTESIAN_POINT('',(70.,0.,50.));
#1234=CARTESIAN_POINT('Ctrl Pts',(0.674771600747324,0.,-48.2870550063756));
#1235=CARTESIAN_POINT('Ctrl Pts',(3.36237403909354,0.,-47.7085279209489));
#1236=CARTESIAN_POINT('Ctrl Pts',(8.62067616101859,0.,-46.4268335185911));
#1237=CARTESIAN_POINT('Ctrl Pts',(16.1574144375032,0.,-44.130364138817));
#1238=CARTESIAN_POINT('Ctrl Pts',(25.4934868285568,0.,-40.3083072751337));
#1239=CARTESIAN_POINT('Ctrl Pts',(35.897725101352,0.,-34.1811006495679));
#1240=CARTESIAN_POINT('Ctrl Pts',(44.9346257013927,0.,-26.5960559737785));
#1241=CARTESIAN_POINT('Ctrl Pts',(52.5107581651934,0.,-17.4535588749394));
#1242=CARTESIAN_POINT('Ctrl Pts',(58.608752091369,0.,-6.73508925184633));
#1243=CARTESIAN_POINT('Ctrl Pts',(63.3199487779646,0.,5.46196596430741));
#1244=CARTESIAN_POINT('Ctrl Pts',(66.7637944983983,0.,19.0102546747506));
#1245=CARTESIAN_POINT('Ctrl Pts',(68.5951724968488,0.,30.8337213282462));
#1246=CARTESIAN_POINT('Ctrl Pts',(69.4832650662134,0.,40.2188922682544));
#1247=CARTESIAN_POINT('Ctrl Pts',(69.8631243309077,0.,46.7019204484863));
#1248=CARTESIAN_POINT('Ctrl Pts',(70.,0.,50.));
#1249=CARTESIAN_POINT('',(5.,0.,50.));
#1250=CARTESIAN_POINT('',(70.,0.,50.));
#1251=CARTESIAN_POINT('',(-38.0588919283805,1.38777878078145E-15,9.40807025864641));
#1252=CARTESIAN_POINT('Ctrl Pts',(5.,0.,50.));
#1253=CARTESIAN_POINT('Ctrl Pts',(3.19953659314825,0.,48.9311141072706));
#1254=CARTESIAN_POINT('Ctrl Pts',(-0.348584494207468,0.,46.7466352853975));
#1255=CARTESIAN_POINT('Ctrl Pts',(-5.51235188611004,0.,43.3297985437173));
#1256=CARTESIAN_POINT('Ctrl Pts',(-12.0753087848227,0.,38.489146321977));
#1257=CARTESIAN_POINT('Ctrl Pts',(-19.7061189219955,0.,31.9316093600609));
#1258=CARTESIAN_POINT('Ctrl Pts',(-26.5914609797019,0.,24.9475867765209));
#1259=CARTESIAN_POINT('Ctrl Pts',(-31.5611093437997,0.,18.9305280865125));
#1260=CARTESIAN_POINT('Ctrl Pts',(-34.9661850096315,0.,14.1910022803461));
#1261=CARTESIAN_POINT('Ctrl Pts',(-37.0786164296923,0.,10.9695319871054));
#1262=CARTESIAN_POINT('Ctrl Pts',(-38.0588919283759,0.,9.40807025865375));
#1263=CARTESIAN_POINT('',(-39.2925382505112,1.2490009027033E-15,8.06733145154831));
#1264=CARTESIAN_POINT('Ctrl Pts',(-39.2925382505112,-1.11022302462516E-15,
8.0673314515483));
#1265=CARTESIAN_POINT('Ctrl Pts',(-38.8040522666068,-1.11022302462515E-15,
8.43389063555567));
#1266=CARTESIAN_POINT('Ctrl Pts',(-38.3836135537323,-1.11022302462516E-15,
8.89082751304232));
#1267=CARTESIAN_POINT('Ctrl Pts',(-38.0588919283805,-1.11022302462516E-15,
9.40807025864641));
#1268=CARTESIAN_POINT('',(-38.5434865912196,0.,8.62941874587492));
#1269=CARTESIAN_POINT('',(-11.,0.,1.34711147906209E-15));
#1270=CARTESIAN_POINT('Origin',(0.,0.,0.));
#1271=CARTESIAN_POINT('Origin',(-90.0220211553752,0.,-145.));
#1272=CARTESIAN_POINT('',(49.9302780650246,0.,-145.));
#1273=CARTESIAN_POINT('',(50.,0.,-145.));
#1274=CARTESIAN_POINT('Origin',(50.,0.,-145.));
#1275=CARTESIAN_POINT('Ctrl Pts',(-38.0588919283805,7.,9.40807025864641));
#1276=CARTESIAN_POINT('Ctrl Pts',(-38.0588919283805,4.66666666666667,9.40807025864641));
#1277=CARTESIAN_POINT('Ctrl Pts',(-38.0588919283805,2.33333333333333,9.40807025864641));
#1278=CARTESIAN_POINT('Ctrl Pts',(-38.0588919283805,-2.77555756156289E-15,
9.40807025864641));
#1279=CARTESIAN_POINT('Ctrl Pts',(-38.3836135537323,7.,8.89082751304232));
#1280=CARTESIAN_POINT('Ctrl Pts',(-38.3836135537323,4.66666666666667,8.89082751304232));
#1281=CARTESIAN_POINT('Ctrl Pts',(-38.3836135537323,2.33333333333333,8.89082751304232));
#1282=CARTESIAN_POINT('Ctrl Pts',(-38.3836135537323,-2.77555756156289E-15,
8.89082751304232));
#1283=CARTESIAN_POINT('Ctrl Pts',(-38.8040522666068,7.,8.43389063555567));
#1284=CARTESIAN_POINT('Ctrl Pts',(-38.8040522666068,4.66666666666667,8.43389063555567));
#1285=CARTESIAN_POINT('Ctrl Pts',(-38.8040522666068,2.33333333333333,8.43389063555567));
#1286=CARTESIAN_POINT('Ctrl Pts',(-38.8040522666068,-2.77555756156289E-15,
8.43389063555567));
#1287=CARTESIAN_POINT('Ctrl Pts',(-39.2925382505112,7.,8.0673314515483));
#1288=CARTESIAN_POINT('Ctrl Pts',(-39.2925382505112,4.66666666666667,8.0673314515483));
#1289=CARTESIAN_POINT('Ctrl Pts',(-39.2925382505112,2.33333333333333,8.0673314515483));
#1290=CARTESIAN_POINT('Ctrl Pts',(-39.2925382505112,-2.77555756156289E-15,
8.0673314515483));
#1291=CARTESIAN_POINT('Ctrl Pts',(-39.2925382505112,7.,8.0673314515483));
#1292=CARTESIAN_POINT('Ctrl Pts',(-39.2925382505112,4.66666666666667,8.0673314515483));
#1293=CARTESIAN_POINT('Ctrl Pts',(-39.2925382505112,2.33333333333333,8.0673314515483));
#1294=CARTESIAN_POINT('Ctrl Pts',(-39.2925382505112,-2.77555756156289E-15,
8.0673314515483));
#1295=CARTESIAN_POINT('Ctrl Pts',(-38.0588919283805,-2.77555756156289E-15,
9.40807025864641));
#1296=CARTESIAN_POINT('Ctrl Pts',(-38.0588919283805,2.33333333333333,9.40807025864641));
#1297=CARTESIAN_POINT('Ctrl Pts',(-38.0588919283805,4.66666666666667,9.40807025864641));
#1298=CARTESIAN_POINT('Ctrl Pts',(-38.0588919283805,7.,9.40807025864641));
#1299=CARTESIAN_POINT('Origin',(-90.0220211553752,0.,-30.));
#1300=CARTESIAN_POINT('Origin',(0.,0.,0.));
#1301=CARTESIAN_POINT('',(-11.,0.,1.34711147906209E-15));
#1302=CARTESIAN_POINT('Origin',(-30.,0.,-123.343168847432));
#1303=CARTESIAN_POINT('',(41.1302780650246,0.,-123.343168847432));
#1304=CARTESIAN_POINT('',(-30.,0.,-123.343168847432));
#1305=CARTESIAN_POINT('Origin',(-30.,0.,-113.343168847432));
#1306=CARTESIAN_POINT('',(-40.,0.,-113.343168847432));
#1307=CARTESIAN_POINT('Origin',(-40.,0.,-58.2870550063756));
#1308=CARTESIAN_POINT('',(-40.,0.,-58.2870550063756));
#1309=CARTESIAN_POINT('Origin',(-30.,0.,-58.2870550063756));
#1310=CARTESIAN_POINT('',(-30.,0.,-48.2870550063756));
#1311=CARTESIAN_POINT('Origin',(0.674771600747324,0.,-48.2870550063756));
#1312=CARTESIAN_POINT('',(0.674771600747324,0.,-48.2870550063756));
#1313=CARTESIAN_POINT('Ctrl Pts',(70.,0.,50.));
#1314=CARTESIAN_POINT('Ctrl Pts',(70.,7.,50.));
#1315=CARTESIAN_POINT('Ctrl Pts',(69.8631243309077,0.,46.7019204484863));
#1316=CARTESIAN_POINT('Ctrl Pts',(69.8631243309077,7.,46.7019204484863));
#1317=CARTESIAN_POINT('Ctrl Pts',(69.4832650662134,0.,40.2188922682544));
#1318=CARTESIAN_POINT('Ctrl Pts',(69.4832650662134,7.,40.2188922682544));
#1319=CARTESIAN_POINT('Ctrl Pts',(68.5951724968488,0.,30.8337213282462));
#1320=CARTESIAN_POINT('Ctrl Pts',(68.5951724968488,7.,30.8337213282462));
#1321=CARTESIAN_POINT('Ctrl Pts',(66.7637944983983,0.,19.0102546747506));
#1322=CARTESIAN_POINT('Ctrl Pts',(66.7637944983983,7.,19.0102546747506));
#1323=CARTESIAN_POINT('Ctrl Pts',(63.3199487779646,0.,5.46196596430741));
#1324=CARTESIAN_POINT('Ctrl Pts',(63.3199487779646,7.,5.46196596430741));
#1325=CARTESIAN_POINT('Ctrl Pts',(58.608752091369,0.,-6.73508925184633));
#1326=CARTESIAN_POINT('Ctrl Pts',(58.608752091369,7.,-6.73508925184633));
#1327=CARTESIAN_POINT('Ctrl Pts',(52.5107581651934,0.,-17.4535588749394));
#1328=CARTESIAN_POINT('Ctrl Pts',(52.5107581651934,7.,-17.4535588749394));
#1329=CARTESIAN_POINT('Ctrl Pts',(44.9346257013927,0.,-26.5960559737785));
#1330=CARTESIAN_POINT('Ctrl Pts',(44.9346257013927,7.,-26.5960559737785));
#1331=CARTESIAN_POINT('Ctrl Pts',(35.897725101352,0.,-34.1811006495679));
#1332=CARTESIAN_POINT('Ctrl Pts',(35.897725101352,7.,-34.1811006495679));
#1333=CARTESIAN_POINT('Ctrl Pts',(25.4934868285568,0.,-40.3083072751337));
#1334=CARTESIAN_POINT('Ctrl Pts',(25.4934868285568,7.,-40.3083072751337));
#1335=CARTESIAN_POINT('Ctrl Pts',(16.1574144375032,0.,-44.130364138817));
#1336=CARTESIAN_POINT('Ctrl Pts',(16.1574144375032,7.,-44.130364138817));
#1337=CARTESIAN_POINT('Ctrl Pts',(8.62067616101859,0.,-46.4268335185911));
#1338=CARTESIAN_POINT('Ctrl Pts',(8.62067616101859,7.,-46.4268335185911));
#1339=CARTESIAN_POINT('Ctrl Pts',(3.36237403909354,0.,-47.7085279209489));
#1340=CARTESIAN_POINT('Ctrl Pts',(3.36237403909354,7.,-47.7085279209489));
#1341=CARTESIAN_POINT('Ctrl Pts',(0.674771600747324,0.,-48.2870550063756));
#1342=CARTESIAN_POINT('Ctrl Pts',(0.674771600747324,7.,-48.2870550063756));
#1343=CARTESIAN_POINT('',(70.,0.,50.));
#1344=CARTESIAN_POINT('Origin',(5.,0.,50.));
#1345=CARTESIAN_POINT('',(5.,0.,50.));
#1346=CARTESIAN_POINT('Ctrl Pts',(-55.,0.,-30.));
#1347=CARTESIAN_POINT('Ctrl Pts',(-55.,7.,-30.));
#1348=CARTESIAN_POINT('Ctrl Pts',(-54.3945111506869,0.,-27.8741507051975));
#1349=CARTESIAN_POINT('Ctrl Pts',(-54.3945111506869,7.,-27.8741507051975));
#1350=CARTESIAN_POINT('Ctrl Pts',(-53.1319752923238,0.,-23.6680556705588));
#1351=CARTESIAN_POINT('Ctrl Pts',(-53.1319752923238,7.,-23.6680556705588));
#1352=CARTESIAN_POINT('Ctrl Pts',(-51.0835034478069,0.,-17.4957181029839));
#1353=CARTESIAN_POINT('Ctrl Pts',(-51.0835034478069,7.,-17.4957181029839));
#1354=CARTESIAN_POINT('Ctrl Pts',(-48.0377268378838,0.,-9.54409517456688));
#1355=CARTESIAN_POINT('Ctrl Pts',(-48.0377268378838,7.,-9.54409517456688));
#1356=CARTESIAN_POINT('Ctrl Pts',(-43.6704866583345,0.,-0.0999076278943049));
#1357=CARTESIAN_POINT('Ctrl Pts',(-43.6704866583345,7.,-0.0999076278943049));
#1358=CARTESIAN_POINT('Ctrl Pts',(-38.691977854909,0.,8.80360852106642));
#1359=CARTESIAN_POINT('Ctrl Pts',(-38.691977854909,7.,8.80360852106642));
#1360=CARTESIAN_POINT('Ctrl Pts',(-33.0504098132455,0.,17.120644109593));
#1361=CARTESIAN_POINT('Ctrl Pts',(-33.0504098132455,7.,17.120644109593));
#1362=CARTESIAN_POINT('Ctrl Pts',(-26.7141075747415,0.,24.823182413982));
#1363=CARTESIAN_POINT('Ctrl Pts',(-26.7141075747415,7.,24.823182413982));
#1364=CARTESIAN_POINT('Ctrl Pts',(-19.7061189219955,0.,31.9316093600609));
#1365=CARTESIAN_POINT('Ctrl Pts',(-19.7061189219955,7.,31.9316093600609));
#1366=CARTESIAN_POINT('Ctrl Pts',(-12.0753087848227,0.,38.489146321977));
#1367=CARTESIAN_POINT('Ctrl Pts',(-12.0753087848227,7.,38.489146321977));
#1368=CARTESIAN_POINT('Ctrl Pts',(-5.51235188611004,0.,43.3297985437173));
#1369=CARTESIAN_POINT('Ctrl Pts',(-5.51235188611004,7.,43.3297985437173));
#1370=CARTESIAN_POINT('Ctrl Pts',(-0.348584494207468,0.,46.7466352853975));
#1371=CARTESIAN_POINT('Ctrl Pts',(-0.348584494207468,7.,46.7466352853975));
#1372=CARTESIAN_POINT('Ctrl Pts',(3.19953659314825,0.,48.9311141072706));
#1373=CARTESIAN_POINT('Ctrl Pts',(3.19953659314825,7.,48.9311141072706));
#1374=CARTESIAN_POINT('Ctrl Pts',(5.,0.,50.));
#1375=CARTESIAN_POINT('Ctrl Pts',(5.,7.,50.));
#1376=CARTESIAN_POINT('Origin',(49.9302780650246,0.,-132.143168847432));
#1377=CARTESIAN_POINT('',(49.9302780650246,0.,-132.143168847432));
#1378=CARTESIAN_POINT('Origin',(41.1302780650246,0.,-132.143168847432));
#1379=UNCERTAINTY_MEASURE_WITH_UNIT(LENGTH_MEASURE(0.01),#1383,
'DISTANCE_ACCURACY_VALUE',
'Maximum model space distance between geometric entities at asserted c
onnectivities');
#1380=UNCERTAINTY_MEASURE_WITH_UNIT(LENGTH_MEASURE(0.01),#1383,
'DISTANCE_ACCURACY_VALUE',
'Maximum model space distance between geometric entities at asserted c
onnectivities');
#1381=(
GEOMETRIC_REPRESENTATION_CONTEXT(3)
GLOBAL_UNCERTAINTY_ASSIGNED_CONTEXT((#1379))
GLOBAL_UNIT_ASSIGNED_CONTEXT((#1383,#1385,#1386))
REPRESENTATION_CONTEXT('','3D')
);
#1382=(
GEOMETRIC_REPRESENTATION_CONTEXT(3)
GLOBAL_UNCERTAINTY_ASSIGNED_CONTEXT((#1380))
GLOBAL_UNIT_ASSIGNED_CONTEXT((#1383,#1385,#1386))
REPRESENTATION_CONTEXT('','3D')
);
#1383=(
LENGTH_UNIT()
NAMED_UNIT(*)
SI_UNIT(.MILLI.,.METRE.)
);
#1384=(
LENGTH_UNIT()
NAMED_UNIT(*)
SI_UNIT($,.METRE.)
);
#1385=(
NAMED_UNIT(*)
PLANE_ANGLE_UNIT()
SI_UNIT($,.RADIAN.)
);
#1386=(
NAMED_UNIT(*)
SI_UNIT($,.STERADIAN.)
SOLID_ANGLE_UNIT()
);
#1387=SHAPE_DEFINITION_REPRESENTATION(#1388,#1389);
#1388=PRODUCT_DEFINITION_SHAPE('',$,#1391);
#1389=SHAPE_REPRESENTATION('',(#759),#1381);
#1390=PRODUCT_DEFINITION_CONTEXT('part definition',#1395,'design');
#1391=PRODUCT_DEFINITION('2026-07-17-18-28-58-251','vert mount',#1392,#1390);
#1392=PRODUCT_DEFINITION_FORMATION('',$,#1397);
#1393=PRODUCT_RELATED_PRODUCT_CATEGORY('vert mount','vert mount',(#1397));
#1394=APPLICATION_PROTOCOL_DEFINITION('international standard',
'automotive_design',2009,#1395);
#1395=APPLICATION_CONTEXT(
'Core Data for Automotive Mechanical Design Process');
#1396=PRODUCT_CONTEXT('part definition',#1395,'mechanical');
#1397=PRODUCT('2026-07-17-18-28-58-251','vert mount',$,(#1396));
#1398=PRESENTATION_STYLE_ASSIGNMENT((#1399));
#1399=SURFACE_STYLE_USAGE(.BOTH.,#1400);
#1400=SURFACE_SIDE_STYLE('',(#1401));
#1401=SURFACE_STYLE_FILL_AREA(#1402);
#1402=FILL_AREA_STYLE('Steel - Satin',(#1403));
#1403=FILL_AREA_STYLE_COLOUR('Steel - Satin',#1404);
#1404=COLOUR_RGB('Steel - Satin',0.627450980392157,0.627450980392157,0.627450980392157);
ENDSEC;
END-ISO-10303-21;
