ISO-10303-21;
HEADER;
/* Generated by software containing ST-Developer
 * from STEP Tools, Inc. (www.steptools.com) 
 */

FILE_DESCRIPTION(
/* description */ (''),
/* implementation_level */ '2;1');

FILE_NAME(
/* name */ 'vert mount.step',
/* time_stamp */ '2026-09-04T15:49:03-04:00',
/* author */ (''),
/* organization */ (''),
/* preprocessor_version */ 'ST-DEVELOPER v20.1',
/* originating_system */ 'Autodesk Translation Framework v15.8.0.0',
/* authorisation */ '');

FILE_SCHEMA (('AUTOMOTIVE_DESIGN { 1 0 10303 214 3 1 1 }'));
ENDSEC;

DATA;
#10=MECHANICAL_DESIGN_GEOMETRIC_PRESENTATION_REPRESENTATION('',(#13),#1680);
#11=SHAPE_REPRESENTATION_RELATIONSHIP('SRR','None',#1687,#12);
#12=ADVANCED_BREP_SHAPE_REPRESENTATION('',(#14),#1679);
#13=STYLED_ITEM('',(#1696),#14);
#14=MANIFOLD_SOLID_BREP('Body1',#928);
#15=(
BOUNDED_SURFACE()
B_SPLINE_SURFACE(5,1,((#1611,#1612),(#1613,#1614),(#1615,#1616),(#1617,
#1618),(#1619,#1620),(#1621,#1622),(#1623,#1624),(#1625,#1626),(#1627,#1628),
(#1629,#1630),(#1631,#1632),(#1633,#1634),(#1635,#1636),(#1637,#1638),(#1639,
#1640)),.UNSPECIFIED.,.F.,.F.,.F.)
B_SPLINE_SURFACE_WITH_KNOTS((6,1,1,1,1,1,1,1,1,1,6),(2,2),(-1.,-0.9,-0.8,
-0.7,-0.6,-0.5,-0.4,-0.3,-0.2,-0.1,0.),(0.,0.7),.UNSPECIFIED.)
GEOMETRIC_REPRESENTATION_ITEM()
RATIONAL_B_SPLINE_SURFACE(((1.,1.),(1.,1.),(1.,1.),(1.,1.),(1.,1.),(1.,
1.),(1.,1.),(1.,1.),(1.,1.),(1.,1.),(1.,1.),(1.,1.),(1.,1.),(1.,1.),(1.,
1.)))
REPRESENTATION_ITEM('')
SURFACE()
);
#16=(
BOUNDED_SURFACE()
B_SPLINE_SURFACE(5,1,((#1644,#1645),(#1646,#1647),(#1648,#1649),(#1650,
#1651),(#1652,#1653),(#1654,#1655),(#1656,#1657),(#1658,#1659),(#1660,#1661),
(#1662,#1663),(#1664,#1665),(#1666,#1667),(#1668,#1669),(#1670,#1671),(#1672,
#1673)),.UNSPECIFIED.,.F.,.F.,.F.)
B_SPLINE_SURFACE_WITH_KNOTS((6,1,1,1,1,1,1,1,1,1,6),(2,2),(-1.,-0.9,-0.8,
-0.7,-0.6,-0.5,-0.4,-0.3,-0.2,-0.1,0.),(0.,0.7),.UNSPECIFIED.)
GEOMETRIC_REPRESENTATION_ITEM()
RATIONAL_B_SPLINE_SURFACE(((1.,1.),(1.,1.),(1.,1.),(1.,1.),(1.,1.),(1.,
1.),(1.,1.),(1.,1.),(1.,1.),(1.,1.),(1.,1.),(1.,1.),(1.,1.),(1.,1.),(1.,
1.)))
REPRESENTATION_ITEM('')
SURFACE()
);
#17=B_SPLINE_SURFACE_WITH_KNOTS('',3,3,((#1573,#1574,#1575,#1576),(#1577,
#1578,#1579,#1580),(#1581,#1582,#1583,#1584),(#1585,#1586,#1587,#1588)),
 .UNSPECIFIED.,.F.,.F.,.F.,(4,4),(4,4),(0.,1.),(-3.88578058618805E-16,0.7),
 .UNSPECIFIED.);
#18=CYLINDRICAL_SURFACE('',#957,1.35);
#19=CYLINDRICAL_SURFACE('',#959,1.35);
#20=CYLINDRICAL_SURFACE('',#961,1.35);
#21=CYLINDRICAL_SURFACE('',#963,1.35);
#22=CYLINDRICAL_SURFACE('',#965,10.);
#23=CYLINDRICAL_SURFACE('',#979,10.);
#24=CYLINDRICAL_SURFACE('',#982,10.);
#25=CYLINDRICAL_SURFACE('',#988,10.);
#26=CYLINDRICAL_SURFACE('',#997,15.);
#27=CYLINDRICAL_SURFACE('',#1006,2.5);
#28=CYLINDRICAL_SURFACE('',#1007,2.5);
#29=CYLINDRICAL_SURFACE('',#1008,2.5);
#30=CYLINDRICAL_SURFACE('',#1009,2.5);
#31=CYLINDRICAL_SURFACE('',#1010,2.5);
#32=CYLINDRICAL_SURFACE('',#1011,2.5);
#33=CYLINDRICAL_SURFACE('',#1012,11.1);
#34=CYLINDRICAL_SURFACE('',#1014,15.);
#35=CYLINDRICAL_SURFACE('',#1020,11.1);
#36=CYLINDRICAL_SURFACE('',#1022,10.);
#37=CYLINDRICAL_SURFACE('',#1024,9.99999999999999);
#38=CYLINDRICAL_SURFACE('',#1028,8.80000000000001);
#39=FACE_BOUND('',#164,.T.);
#40=FACE_BOUND('',#165,.T.);
#41=FACE_BOUND('',#170,.T.);
#42=FACE_BOUND('',#171,.T.);
#43=FACE_BOUND('',#172,.T.);
#44=FACE_BOUND('',#173,.T.);
#45=FACE_BOUND('',#174,.T.);
#46=FACE_BOUND('',#182,.T.);
#47=FACE_BOUND('',#183,.T.);
#48=FACE_BOUND('',#184,.T.);
#49=FACE_BOUND('',#185,.T.);
#50=FACE_BOUND('',#186,.T.);
#51=FACE_BOUND('',#187,.T.);
#52=FACE_BOUND('',#192,.T.);
#53=FACE_BOUND('',#193,.T.);
#54=FACE_BOUND('',#194,.T.);
#55=FACE_BOUND('',#198,.T.);
#56=FACE_BOUND('',#199,.T.);
#57=FACE_BOUND('',#200,.T.);
#58=FACE_BOUND('',#203,.T.);
#59=FACE_BOUND('',#204,.T.);
#60=FACE_BOUND('',#205,.T.);
#61=FACE_BOUND('',#206,.T.);
#62=FACE_BOUND('',#207,.T.);
#63=FACE_BOUND('',#208,.T.);
#64=B_SPLINE_CURVE_WITH_KNOTS('',3,(#1343,#1344,#1345,#1346),
 .UNSPECIFIED.,.F.,.F.,(4,4),(0.,0.183345332890595),.UNSPECIFIED.);
#65=B_SPLINE_CURVE_WITH_KNOTS('',3,(#1496,#1497,#1498,#1499),
 .UNSPECIFIED.,.F.,.F.,(4,4),(0.,0.183345332890596),.UNSPECIFIED.);
#66=B_SPLINE_CURVE_WITH_KNOTS('',3,(#1589,#1590,#1591,#1592),
 .UNSPECIFIED.,.F.,.F.,(4,4),(-3.88578058618805E-16,0.7),.UNSPECIFIED.);
#67=B_SPLINE_CURVE_WITH_KNOTS('',3,(#1593,#1594,#1595,#1596),
 .UNSPECIFIED.,.F.,.F.,(4,4),(-0.7,3.88578058618805E-16),.UNSPECIFIED.);
#68=(
BOUNDED_CURVE()
B_SPLINE_CURVE(5,(#1313,#1314,#1315,#1316,#1317,#1318,#1319,#1320,#1321,
#1322,#1323,#1324,#1325,#1326,#1327),.UNSPECIFIED.,.F.,.F.)
B_SPLINE_CURVE_WITH_KNOTS((6,1,1,1,1,1,1,1,1,1,6),(0.,0.1,0.2,0.3,0.4,0.5,
0.6,0.7,0.8,0.9,1.),.UNSPECIFIED.)
CURVE()
GEOMETRIC_REPRESENTATION_ITEM()
RATIONAL_B_SPLINE_CURVE((1.,1.,1.,1.,1.,1.,1.,1.,1.,1.,1.,1.,1.,1.,1.))
REPRESENTATION_ITEM('')
);
#69=(
BOUNDED_CURVE()
B_SPLINE_CURVE(5,(#1331,#1332,#1333,#1334,#1335,#1336,#1337,#1338,#1339,
#1340,#1341),.UNSPECIFIED.,.F.,.F.)
B_SPLINE_CURVE_WITH_KNOTS((6,1,1,1,1,1,6),(0.,0.1,0.2,0.3,0.4,0.5,0.591249515294833),
 .UNSPECIFIED.)
CURVE()
GEOMETRIC_REPRESENTATION_ITEM()
RATIONAL_B_SPLINE_CURVE((1.,1.,1.,1.,1.,1.,1.,1.,1.,1.,1.))
REPRESENTATION_ITEM('')
);
#70=(
BOUNDED_CURVE()
B_SPLINE_CURVE(5,(#1501,#1502,#1503,#1504,#1505,#1506,#1507,#1508,#1509,
#1510,#1511),.UNSPECIFIED.,.F.,.F.)
B_SPLINE_CURVE_WITH_KNOTS((6,1,1,1,1,1,6),(-0.591249515294833,-0.5,-0.4,
-0.3,-0.2,-0.1,0.),.UNSPECIFIED.)
CURVE()
GEOMETRIC_REPRESENTATION_ITEM()
RATIONAL_B_SPLINE_CURVE((1.,1.,1.,1.,1.,1.,1.,1.,1.,1.,1.))
REPRESENTATION_ITEM('')
);
#71=(
BOUNDED_CURVE()
B_SPLINE_CURVE(5,(#1515,#1516,#1517,#1518,#1519,#1520,#1521,#1522,#1523,
#1524,#1525,#1526,#1527,#1528,#1529),.UNSPECIFIED.,.F.,.F.)
B_SPLINE_CURVE_WITH_KNOTS((6,1,1,1,1,1,1,1,1,1,6),(-1.,-0.9,-0.8,-0.7,-0.6,
-0.5,-0.4,-0.3,-0.2,-0.1,0.),.UNSPECIFIED.)
CURVE()
GEOMETRIC_REPRESENTATION_ITEM()
RATIONAL_B_SPLINE_CURVE((1.,1.,1.,1.,1.,1.,1.,1.,1.,1.,1.,1.,1.,1.,1.))
REPRESENTATION_ITEM('')
);
#72=CIRCLE('',#944,8.80000000000001);
#73=CIRCLE('',#945,10.);
#74=CIRCLE('',#946,9.99999999999999);
#75=CIRCLE('',#947,11.1);
#76=CIRCLE('',#952,1.35);
#77=CIRCLE('',#953,1.35);
#78=CIRCLE('',#954,1.35);
#79=CIRCLE('',#955,11.1);
#80=CIRCLE('',#956,1.35);
#81=CIRCLE('',#958,1.35);
#82=CIRCLE('',#960,1.35);
#83=CIRCLE('',#962,1.35);
#84=CIRCLE('',#964,1.35);
#85=CIRCLE('',#966,10.);
#86=CIRCLE('',#967,10.);
#87=CIRCLE('',#970,10.);
#88=CIRCLE('',#971,10.);
#89=CIRCLE('',#972,10.);
#90=CIRCLE('',#973,2.5);
#91=CIRCLE('',#974,2.5);
#92=CIRCLE('',#975,2.5);
#93=CIRCLE('',#976,2.5);
#94=CIRCLE('',#977,2.5);
#95=CIRCLE('',#978,2.5);
#96=CIRCLE('',#980,10.);
#97=CIRCLE('',#983,10.);
#98=CIRCLE('',#985,2.5);
#99=CIRCLE('',#986,2.5);
#100=CIRCLE('',#987,2.5);
#101=CIRCLE('',#989,10.);
#102=CIRCLE('',#991,15.);
#103=CIRCLE('',#992,15.);
#104=CIRCLE('',#994,2.5);
#105=CIRCLE('',#995,2.5);
#106=CIRCLE('',#996,2.5);
#107=CIRCLE('',#998,15.);
#108=CIRCLE('',#999,15.);
#109=CIRCLE('',#1001,9.99999999999999);
#110=CIRCLE('',#1002,10.);
#111=CIRCLE('',#1003,8.80000000000001);
#112=CIRCLE('',#1004,11.1);
#113=CIRCLE('',#1005,11.1);
#114=CIRCLE('',#1015,15.);
#115=CIRCLE('',#1016,15.);
#116=FACE_OUTER_BOUND('',#162,.T.);
#117=FACE_OUTER_BOUND('',#163,.T.);
#118=FACE_OUTER_BOUND('',#166,.T.);
#119=FACE_OUTER_BOUND('',#167,.T.);
#120=FACE_OUTER_BOUND('',#168,.T.);
#121=FACE_OUTER_BOUND('',#169,.T.);
#122=FACE_OUTER_BOUND('',#175,.T.);
#123=FACE_OUTER_BOUND('',#176,.T.);
#124=FACE_OUTER_BOUND('',#177,.T.);
#125=FACE_OUTER_BOUND('',#178,.T.);
#126=FACE_OUTER_BOUND('',#179,.T.);
#127=FACE_OUTER_BOUND('',#180,.T.);
#128=FACE_OUTER_BOUND('',#181,.T.);
#129=FACE_OUTER_BOUND('',#188,.T.);
#130=FACE_OUTER_BOUND('',#189,.T.);
#131=FACE_OUTER_BOUND('',#190,.T.);
#132=FACE_OUTER_BOUND('',#191,.T.);
#133=FACE_OUTER_BOUND('',#195,.T.);
#134=FACE_OUTER_BOUND('',#196,.T.);
#135=FACE_OUTER_BOUND('',#197,.T.);
#136=FACE_OUTER_BOUND('',#201,.T.);
#137=FACE_OUTER_BOUND('',#202,.T.);
#138=FACE_OUTER_BOUND('',#209,.T.);
#139=FACE_OUTER_BOUND('',#210,.T.);
#140=FACE_OUTER_BOUND('',#211,.T.);
#141=FACE_OUTER_BOUND('',#212,.T.);
#142=FACE_OUTER_BOUND('',#213,.T.);
#143=FACE_OUTER_BOUND('',#214,.T.);
#144=FACE_OUTER_BOUND('',#215,.T.);
#145=FACE_OUTER_BOUND('',#216,.T.);
#146=FACE_OUTER_BOUND('',#217,.T.);
#147=FACE_OUTER_BOUND('',#218,.T.);
#148=FACE_OUTER_BOUND('',#219,.T.);
#149=FACE_OUTER_BOUND('',#220,.T.);
#150=FACE_OUTER_BOUND('',#221,.T.);
#151=FACE_OUTER_BOUND('',#222,.T.);
#152=FACE_OUTER_BOUND('',#223,.T.);
#153=FACE_OUTER_BOUND('',#224,.T.);
#154=FACE_OUTER_BOUND('',#225,.T.);
#155=FACE_OUTER_BOUND('',#226,.T.);
#156=FACE_OUTER_BOUND('',#227,.T.);
#157=FACE_OUTER_BOUND('',#228,.T.);
#158=FACE_OUTER_BOUND('',#229,.T.);
#159=FACE_OUTER_BOUND('',#230,.T.);
#160=FACE_OUTER_BOUND('',#231,.T.);
#161=FACE_OUTER_BOUND('',#232,.T.);
#162=EDGE_LOOP('',(#602,#603,#604,#605));
#163=EDGE_LOOP('',(#606,#607,#608,#609,#610,#611,#612,#613,#614,#615,#616,
#617,#618,#619,#620));
#164=EDGE_LOOP('',(#621,#622,#623,#624));
#165=EDGE_LOOP('',(#625));
#166=EDGE_LOOP('',(#626,#627,#628,#629));
#167=EDGE_LOOP('',(#630,#631,#632,#633));
#168=EDGE_LOOP('',(#634,#635,#636,#637));
#169=EDGE_LOOP('',(#638,#639,#640,#641));
#170=EDGE_LOOP('',(#642));
#171=EDGE_LOOP('',(#643));
#172=EDGE_LOOP('',(#644));
#173=EDGE_LOOP('',(#645));
#174=EDGE_LOOP('',(#646));
#175=EDGE_LOOP('',(#647,#648,#649,#650));
#176=EDGE_LOOP('',(#651,#652,#653,#654));
#177=EDGE_LOOP('',(#655,#656,#657,#658));
#178=EDGE_LOOP('',(#659,#660,#661,#662));
#179=EDGE_LOOP('',(#663,#664,#665,#666));
#180=EDGE_LOOP('',(#667,#668,#669,#670));
#181=EDGE_LOOP('',(#671,#672,#673,#674,#675,#676,#677,#678));
#182=EDGE_LOOP('',(#679));
#183=EDGE_LOOP('',(#680));
#184=EDGE_LOOP('',(#681));
#185=EDGE_LOOP('',(#682));
#186=EDGE_LOOP('',(#683));
#187=EDGE_LOOP('',(#684));
#188=EDGE_LOOP('',(#685,#686,#687,#688));
#189=EDGE_LOOP('',(#689,#690,#691,#692));
#190=EDGE_LOOP('',(#693,#694,#695,#696));
#191=EDGE_LOOP('',(#697,#698,#699,#700,#701,#702));
#192=EDGE_LOOP('',(#703));
#193=EDGE_LOOP('',(#704));
#194=EDGE_LOOP('',(#705));
#195=EDGE_LOOP('',(#706,#707,#708,#709));
#196=EDGE_LOOP('',(#710,#711,#712,#713,#714,#715,#716,#717,#718,#719));
#197=EDGE_LOOP('',(#720,#721,#722,#723,#724,#725));
#198=EDGE_LOOP('',(#726));
#199=EDGE_LOOP('',(#727));
#200=EDGE_LOOP('',(#728));
#201=EDGE_LOOP('',(#729,#730,#731,#732,#733,#734));
#202=EDGE_LOOP('',(#735,#736,#737,#738,#739,#740,#741,#742,#743,#744,#745,
#746,#747,#748,#749));
#203=EDGE_LOOP('',(#750));
#204=EDGE_LOOP('',(#751));
#205=EDGE_LOOP('',(#752));
#206=EDGE_LOOP('',(#753));
#207=EDGE_LOOP('',(#754));
#208=EDGE_LOOP('',(#755));
#209=EDGE_LOOP('',(#756,#757,#758,#759));
#210=EDGE_LOOP('',(#760,#761,#762,#763));
#211=EDGE_LOOP('',(#764,#765,#766,#767));
#212=EDGE_LOOP('',(#768,#769,#770,#771));
#213=EDGE_LOOP('',(#772,#773,#774,#775));
#214=EDGE_LOOP('',(#776,#777,#778,#779));
#215=EDGE_LOOP('',(#780,#781,#782,#783));
#216=EDGE_LOOP('',(#784,#785,#786,#787));
#217=EDGE_LOOP('',(#788,#789,#790,#791,#792,#793));
#218=EDGE_LOOP('',(#794,#795,#796,#797));
#219=EDGE_LOOP('',(#798,#799,#800,#801,#802,#803,#804,#805));
#220=EDGE_LOOP('',(#806,#807,#808,#809));
#221=EDGE_LOOP('',(#810,#811,#812,#813));
#222=EDGE_LOOP('',(#814,#815,#816,#817));
#223=EDGE_LOOP('',(#818,#819,#820,#821));
#224=EDGE_LOOP('',(#822,#823,#824,#825));
#225=EDGE_LOOP('',(#826,#827,#828,#829));
#226=EDGE_LOOP('',(#830,#831,#832,#833));
#227=EDGE_LOOP('',(#834,#835,#836,#837));
#228=EDGE_LOOP('',(#838,#839,#840,#841));
#229=EDGE_LOOP('',(#842,#843,#844,#845));
#230=EDGE_LOOP('',(#846,#847,#848,#849));
#231=EDGE_LOOP('',(#850,#851,#852,#853,#854,#855));
#232=EDGE_LOOP('',(#856,#857,#858,#859));
#233=LINE('',#1286,#310);
#234=LINE('',#1288,#311);
#235=LINE('',#1290,#312);
#236=LINE('',#1291,#313);
#237=LINE('',#1295,#314);
#238=LINE('',#1297,#315);
#239=LINE('',#1299,#316);
#240=LINE('',#1303,#317);
#241=LINE('',#1307,#318);
#242=LINE('',#1311,#319);
#243=LINE('',#1329,#320);
#244=LINE('',#1348,#321);
#245=LINE('',#1349,#322);
#246=LINE('',#1351,#323);
#247=LINE('',#1353,#324);
#248=LINE('',#1354,#325);
#249=LINE('',#1359,#326);
#250=LINE('',#1360,#327);
#251=LINE('',#1363,#328);
#252=LINE('',#1364,#329);
#253=LINE('',#1366,#330);
#254=LINE('',#1380,#331);
#255=LINE('',#1384,#332);
#256=LINE('',#1388,#333);
#257=LINE('',#1392,#334);
#258=LINE('',#1399,#335);
#259=LINE('',#1402,#336);
#260=LINE('',#1405,#337);
#261=LINE('',#1407,#338);
#262=LINE('',#1408,#339);
#263=LINE('',#1411,#340);
#264=LINE('',#1415,#341);
#265=LINE('',#1419,#342);
#266=LINE('',#1437,#343);
#267=LINE('',#1438,#344);
#268=LINE('',#1441,#345);
#269=LINE('',#1442,#346);
#270=LINE('',#1445,#347);
#271=LINE('',#1449,#348);
#272=LINE('',#1451,#349);
#273=LINE('',#1452,#350);
#274=LINE('',#1462,#351);
#275=LINE('',#1466,#352);
#276=LINE('',#1468,#353);
#277=LINE('',#1471,#354);
#278=LINE('',#1474,#355);
#279=LINE('',#1475,#356);
#280=LINE('',#1484,#357);
#281=LINE('',#1488,#358);
#282=LINE('',#1492,#359);
#283=LINE('',#1494,#360);
#284=LINE('',#1513,#361);
#285=LINE('',#1531,#362);
#286=LINE('',#1535,#363);
#287=LINE('',#1539,#364);
#288=LINE('',#1542,#365);
#289=LINE('',#1548,#366);
#290=LINE('',#1550,#367);
#291=LINE('',#1552,#368);
#292=LINE('',#1554,#369);
#293=LINE('',#1556,#370);
#294=LINE('',#1558,#371);
#295=LINE('',#1560,#372);
#296=LINE('',#1562,#373);
#297=LINE('',#1567,#374);
#298=LINE('',#1570,#375);
#299=LINE('',#1571,#376);
#300=LINE('',#1599,#377);
#301=LINE('',#1601,#378);
#302=LINE('',#1602,#379);
#303=LINE('',#1604,#380);
#304=LINE('',#1606,#381);
#305=LINE('',#1608,#382);
#306=LINE('',#1610,#383);
#307=LINE('',#1641,#384);
#308=LINE('',#1643,#385);
#309=LINE('',#1675,#386);
#310=VECTOR('',#1033,10.);
#311=VECTOR('',#1034,10.);
#312=VECTOR('',#1035,10.);
#313=VECTOR('',#1036,10.);
#314=VECTOR('',#1039,10.);
#315=VECTOR('',#1040,10.);
#316=VECTOR('',#1041,10.);
#317=VECTOR('',#1044,10.);
#318=VECTOR('',#1047,10.);
#319=VECTOR('',#1050,10.);
#320=VECTOR('',#1051,10.);
#321=VECTOR('',#1052,10.);
#322=VECTOR('',#1053,10.);
#323=VECTOR('',#1054,10.);
#324=VECTOR('',#1055,10.);
#325=VECTOR('',#1056,10.);
#326=VECTOR('',#1061,10.);
#327=VECTOR('',#1062,10.);
#328=VECTOR('',#1065,10.);
#329=VECTOR('',#1066,10.);
#330=VECTOR('',#1069,10.);
#331=VECTOR('',#1084,1.35);
#332=VECTOR('',#1089,1.35);
#333=VECTOR('',#1094,1.35);
#334=VECTOR('',#1099,1.35);
#335=VECTOR('',#1106,10.);
#336=VECTOR('',#1109,10.);
#337=VECTOR('',#1112,10.);
#338=VECTOR('',#1113,10.);
#339=VECTOR('',#1114,10.);
#340=VECTOR('',#1117,10.);
#341=VECTOR('',#1120,10.);
#342=VECTOR('',#1123,10.);
#343=VECTOR('',#1142,10.);
#344=VECTOR('',#1143,10.);
#345=VECTOR('',#1146,10.);
#346=VECTOR('',#1147,10.);
#347=VECTOR('',#1150,10.);
#348=VECTOR('',#1155,10.);
#349=VECTOR('',#1156,10.);
#350=VECTOR('',#1157,10.);
#351=VECTOR('',#1168,10.);
#352=VECTOR('',#1173,10.);
#353=VECTOR('',#1174,10.);
#354=VECTOR('',#1177,10.);
#355=VECTOR('',#1180,10.);
#356=VECTOR('',#1181,10.);
#357=VECTOR('',#1190,10.);
#358=VECTOR('',#1193,10.);
#359=VECTOR('',#1198,10.);
#360=VECTOR('',#1199,10.);
#361=VECTOR('',#1200,10.);
#362=VECTOR('',#1201,10.);
#363=VECTOR('',#1204,10.);
#364=VECTOR('',#1207,10.);
#365=VECTOR('',#1210,10.);
#366=VECTOR('',#1217,2.5);
#367=VECTOR('',#1220,2.5);
#368=VECTOR('',#1223,2.5);
#369=VECTOR('',#1226,2.5);
#370=VECTOR('',#1229,2.5);
#371=VECTOR('',#1232,2.5);
#372=VECTOR('',#1235,11.1);
#373=VECTOR('',#1238,10.);
#374=VECTOR('',#1243,10.);
#375=VECTOR('',#1248,10.);
#376=VECTOR('',#1249,10.);
#377=VECTOR('',#1256,11.1);
#378=VECTOR('',#1259,10.);
#379=VECTOR('',#1260,10.);
#380=VECTOR('',#1263,10.);
#381=VECTOR('',#1266,10.);
#382=VECTOR('',#1269,10.);
#383=VECTOR('',#1272,10.);
#384=VECTOR('',#1273,10.);
#385=VECTOR('',#1276,10.);
#386=VECTOR('',#1279,10.);
#387=VERTEX_POINT('',#1284);
#388=VERTEX_POINT('',#1285);
#389=VERTEX_POINT('',#1287);
#390=VERTEX_POINT('',#1289);
#391=VERTEX_POINT('',#1293);
#392=VERTEX_POINT('',#1294);
#393=VERTEX_POINT('',#1296);
#394=VERTEX_POINT('',#1298);
#395=VERTEX_POINT('',#1300);
#396=VERTEX_POINT('',#1302);
#397=VERTEX_POINT('',#1304);
#398=VERTEX_POINT('',#1306);
#399=VERTEX_POINT('',#1308);
#400=VERTEX_POINT('',#1310);
#401=VERTEX_POINT('',#1312);
#402=VERTEX_POINT('',#1328);
#403=VERTEX_POINT('',#1330);
#404=VERTEX_POINT('',#1342);
#405=VERTEX_POINT('',#1347);
#406=VERTEX_POINT('',#1350);
#407=VERTEX_POINT('',#1352);
#408=VERTEX_POINT('',#1355);
#409=VERTEX_POINT('',#1358);
#410=VERTEX_POINT('',#1362);
#411=VERTEX_POINT('',#1368);
#412=VERTEX_POINT('',#1370);
#413=VERTEX_POINT('',#1372);
#414=VERTEX_POINT('',#1374);
#415=VERTEX_POINT('',#1376);
#416=VERTEX_POINT('',#1379);
#417=VERTEX_POINT('',#1383);
#418=VERTEX_POINT('',#1387);
#419=VERTEX_POINT('',#1391);
#420=VERTEX_POINT('',#1395);
#421=VERTEX_POINT('',#1396);
#422=VERTEX_POINT('',#1398);
#423=VERTEX_POINT('',#1400);
#424=VERTEX_POINT('',#1404);
#425=VERTEX_POINT('',#1406);
#426=VERTEX_POINT('',#1410);
#427=VERTEX_POINT('',#1412);
#428=VERTEX_POINT('',#1414);
#429=VERTEX_POINT('',#1416);
#430=VERTEX_POINT('',#1418);
#431=VERTEX_POINT('',#1421);
#432=VERTEX_POINT('',#1423);
#433=VERTEX_POINT('',#1425);
#434=VERTEX_POINT('',#1427);
#435=VERTEX_POINT('',#1429);
#436=VERTEX_POINT('',#1431);
#437=VERTEX_POINT('',#1434);
#438=VERTEX_POINT('',#1435);
#439=VERTEX_POINT('',#1440);
#440=VERTEX_POINT('',#1444);
#441=VERTEX_POINT('',#1448);
#442=VERTEX_POINT('',#1450);
#443=VERTEX_POINT('',#1453);
#444=VERTEX_POINT('',#1455);
#445=VERTEX_POINT('',#1457);
#446=VERTEX_POINT('',#1460);
#447=VERTEX_POINT('',#1465);
#448=VERTEX_POINT('',#1467);
#449=VERTEX_POINT('',#1469);
#450=VERTEX_POINT('',#1473);
#451=VERTEX_POINT('',#1476);
#452=VERTEX_POINT('',#1478);
#453=VERTEX_POINT('',#1480);
#454=VERTEX_POINT('',#1483);
#455=VERTEX_POINT('',#1485);
#456=VERTEX_POINT('',#1487);
#457=VERTEX_POINT('',#1491);
#458=VERTEX_POINT('',#1493);
#459=VERTEX_POINT('',#1495);
#460=VERTEX_POINT('',#1500);
#461=VERTEX_POINT('',#1512);
#462=VERTEX_POINT('',#1514);
#463=VERTEX_POINT('',#1530);
#464=VERTEX_POINT('',#1532);
#465=VERTEX_POINT('',#1534);
#466=VERTEX_POINT('',#1536);
#467=VERTEX_POINT('',#1538);
#468=VERTEX_POINT('',#1540);
#469=VERTEX_POINT('',#1543);
#470=VERTEX_POINT('',#1545);
#471=VERTEX_POINT('',#1564);
#472=VERTEX_POINT('',#1566);
#473=EDGE_CURVE('',#387,#388,#233,.T.);
#474=EDGE_CURVE('',#387,#389,#234,.T.);
#475=EDGE_CURVE('',#389,#390,#235,.T.);
#476=EDGE_CURVE('',#388,#390,#236,.T.);
#477=EDGE_CURVE('',#391,#392,#237,.T.);
#478=EDGE_CURVE('',#393,#392,#238,.T.);
#479=EDGE_CURVE('',#393,#394,#239,.T.);
#480=EDGE_CURVE('',#395,#394,#72,.T.);
#481=EDGE_CURVE('',#395,#396,#240,.T.);
#482=EDGE_CURVE('',#396,#397,#73,.T.);
#483=EDGE_CURVE('',#397,#398,#241,.T.);
#484=EDGE_CURVE('',#398,#399,#74,.T.);
#485=EDGE_CURVE('',#399,#400,#242,.T.);
#486=EDGE_CURVE('',#400,#401,#68,.T.);
#487=EDGE_CURVE('',#401,#402,#243,.T.);
#488=EDGE_CURVE('',#402,#403,#69,.T.);
#489=EDGE_CURVE('',#404,#403,#64,.T.);
#490=EDGE_CURVE('',#404,#405,#244,.T.);
#491=EDGE_CURVE('',#405,#391,#245,.T.);
#492=EDGE_CURVE('',#406,#387,#246,.T.);
#493=EDGE_CURVE('',#388,#407,#247,.T.);
#494=EDGE_CURVE('',#407,#406,#248,.T.);
#495=EDGE_CURVE('',#408,#408,#75,.T.);
#496=EDGE_CURVE('',#406,#409,#249,.T.);
#497=EDGE_CURVE('',#409,#389,#250,.T.);
#498=EDGE_CURVE('',#407,#410,#251,.T.);
#499=EDGE_CURVE('',#410,#409,#252,.T.);
#500=EDGE_CURVE('',#390,#410,#253,.T.);
#501=EDGE_CURVE('',#411,#411,#76,.T.);
#502=EDGE_CURVE('',#412,#412,#77,.T.);
#503=EDGE_CURVE('',#413,#413,#78,.T.);
#504=EDGE_CURVE('',#414,#414,#79,.T.);
#505=EDGE_CURVE('',#415,#415,#80,.T.);
#506=EDGE_CURVE('',#413,#416,#254,.T.);
#507=EDGE_CURVE('',#416,#416,#81,.T.);
#508=EDGE_CURVE('',#415,#417,#255,.T.);
#509=EDGE_CURVE('',#417,#417,#82,.T.);
#510=EDGE_CURVE('',#412,#418,#256,.T.);
#511=EDGE_CURVE('',#418,#418,#83,.T.);
#512=EDGE_CURVE('',#411,#419,#257,.T.);
#513=EDGE_CURVE('',#419,#419,#84,.T.);
#514=EDGE_CURVE('',#420,#421,#85,.T.);
#515=EDGE_CURVE('',#421,#422,#258,.T.);
#516=EDGE_CURVE('',#422,#423,#86,.T.);
#517=EDGE_CURVE('',#423,#420,#259,.T.);
#518=EDGE_CURVE('',#424,#421,#260,.T.);
#519=EDGE_CURVE('',#425,#424,#261,.T.);
#520=EDGE_CURVE('',#425,#422,#262,.T.);
#521=EDGE_CURVE('',#420,#426,#263,.T.);
#522=EDGE_CURVE('',#427,#426,#87,.T.);
#523=EDGE_CURVE('',#428,#427,#264,.T.);
#524=EDGE_CURVE('',#429,#428,#88,.T.);
#525=EDGE_CURVE('',#429,#430,#265,.T.);
#526=EDGE_CURVE('',#424,#430,#89,.T.);
#527=EDGE_CURVE('',#431,#431,#90,.T.);
#528=EDGE_CURVE('',#432,#432,#91,.T.);
#529=EDGE_CURVE('',#433,#433,#92,.T.);
#530=EDGE_CURVE('',#434,#434,#93,.T.);
#531=EDGE_CURVE('',#435,#435,#94,.T.);
#532=EDGE_CURVE('',#436,#436,#95,.T.);
#533=EDGE_CURVE('',#437,#438,#96,.T.);
#534=EDGE_CURVE('',#438,#427,#266,.T.);
#535=EDGE_CURVE('',#426,#437,#267,.T.);
#536=EDGE_CURVE('',#439,#438,#268,.T.);
#537=EDGE_CURVE('',#428,#439,#269,.T.);
#538=EDGE_CURVE('',#430,#440,#270,.T.);
#539=EDGE_CURVE('',#440,#425,#97,.T.);
#540=EDGE_CURVE('',#441,#440,#271,.T.);
#541=EDGE_CURVE('',#442,#441,#272,.T.);
#542=EDGE_CURVE('',#442,#423,#273,.T.);
#543=EDGE_CURVE('',#443,#443,#98,.T.);
#544=EDGE_CURVE('',#444,#444,#99,.T.);
#545=EDGE_CURVE('',#445,#445,#100,.T.);
#546=EDGE_CURVE('',#439,#446,#101,.T.);
#547=EDGE_CURVE('',#446,#429,#274,.T.);
#548=EDGE_CURVE('',#392,#442,#102,.T.);
#549=EDGE_CURVE('',#447,#391,#275,.T.);
#550=EDGE_CURVE('',#448,#447,#276,.T.);
#551=EDGE_CURVE('',#449,#448,#103,.T.);
#552=EDGE_CURVE('',#437,#449,#277,.T.);
#553=EDGE_CURVE('',#450,#449,#278,.T.);
#554=EDGE_CURVE('',#446,#450,#279,.T.);
#555=EDGE_CURVE('',#451,#451,#104,.T.);
#556=EDGE_CURVE('',#452,#452,#105,.T.);
#557=EDGE_CURVE('',#453,#453,#106,.T.);
#558=EDGE_CURVE('',#454,#448,#280,.T.);
#559=EDGE_CURVE('',#455,#454,#107,.F.);
#560=EDGE_CURVE('',#455,#456,#281,.T.);
#561=EDGE_CURVE('',#450,#456,#108,.F.);
#562=EDGE_CURVE('',#457,#447,#282,.T.);
#563=EDGE_CURVE('',#457,#458,#283,.T.);
#564=EDGE_CURVE('',#459,#458,#65,.T.);
#565=EDGE_CURVE('',#459,#460,#70,.T.);
#566=EDGE_CURVE('',#460,#461,#284,.T.);
#567=EDGE_CURVE('',#461,#462,#71,.T.);
#568=EDGE_CURVE('',#462,#463,#285,.T.);
#569=EDGE_CURVE('',#463,#464,#109,.T.);
#570=EDGE_CURVE('',#464,#465,#286,.T.);
#571=EDGE_CURVE('',#465,#466,#110,.T.);
#572=EDGE_CURVE('',#466,#467,#287,.T.);
#573=EDGE_CURVE('',#467,#468,#111,.T.);
#574=EDGE_CURVE('',#468,#454,#288,.T.);
#575=EDGE_CURVE('',#469,#469,#112,.T.);
#576=EDGE_CURVE('',#470,#470,#113,.T.);
#577=EDGE_CURVE('',#436,#445,#289,.T.);
#578=EDGE_CURVE('',#435,#453,#290,.T.);
#579=EDGE_CURVE('',#434,#444,#291,.T.);
#580=EDGE_CURVE('',#433,#452,#292,.T.);
#581=EDGE_CURVE('',#432,#451,#293,.T.);
#582=EDGE_CURVE('',#431,#443,#294,.T.);
#583=EDGE_CURVE('',#414,#469,#295,.T.);
#584=EDGE_CURVE('',#405,#457,#296,.T.);
#585=EDGE_CURVE('',#441,#471,#114,.T.);
#586=EDGE_CURVE('',#472,#471,#297,.F.);
#587=EDGE_CURVE('',#472,#393,#115,.T.);
#588=EDGE_CURVE('',#472,#455,#298,.T.);
#589=EDGE_CURVE('',#471,#456,#299,.T.);
#590=EDGE_CURVE('',#458,#404,#66,.T.);
#591=EDGE_CURVE('',#403,#459,#67,.T.);
#592=EDGE_CURVE('',#470,#408,#300,.T.);
#593=EDGE_CURVE('',#395,#467,#301,.T.);
#594=EDGE_CURVE('',#396,#466,#302,.T.);
#595=EDGE_CURVE('',#397,#465,#303,.T.);
#596=EDGE_CURVE('',#398,#464,#304,.T.);
#597=EDGE_CURVE('',#399,#463,#305,.T.);
#598=EDGE_CURVE('',#400,#462,#306,.T.);
#599=EDGE_CURVE('',#401,#461,#307,.T.);
#600=EDGE_CURVE('',#402,#460,#308,.T.);
#601=EDGE_CURVE('',#394,#468,#309,.T.);
#602=ORIENTED_EDGE('',*,*,#473,.F.);
#603=ORIENTED_EDGE('',*,*,#474,.T.);
#604=ORIENTED_EDGE('',*,*,#475,.T.);
#605=ORIENTED_EDGE('',*,*,#476,.F.);
#606=ORIENTED_EDGE('',*,*,#477,.T.);
#607=ORIENTED_EDGE('',*,*,#478,.F.);
#608=ORIENTED_EDGE('',*,*,#479,.T.);
#609=ORIENTED_EDGE('',*,*,#480,.F.);
#610=ORIENTED_EDGE('',*,*,#481,.T.);
#611=ORIENTED_EDGE('',*,*,#482,.T.);
#612=ORIENTED_EDGE('',*,*,#483,.T.);
#613=ORIENTED_EDGE('',*,*,#484,.T.);
#614=ORIENTED_EDGE('',*,*,#485,.T.);
#615=ORIENTED_EDGE('',*,*,#486,.T.);
#616=ORIENTED_EDGE('',*,*,#487,.T.);
#617=ORIENTED_EDGE('',*,*,#488,.T.);
#618=ORIENTED_EDGE('',*,*,#489,.F.);
#619=ORIENTED_EDGE('',*,*,#490,.T.);
#620=ORIENTED_EDGE('',*,*,#491,.T.);
#621=ORIENTED_EDGE('',*,*,#492,.T.);
#622=ORIENTED_EDGE('',*,*,#473,.T.);
#623=ORIENTED_EDGE('',*,*,#493,.T.);
#624=ORIENTED_EDGE('',*,*,#494,.T.);
#625=ORIENTED_EDGE('',*,*,#495,.F.);
#626=ORIENTED_EDGE('',*,*,#492,.F.);
#627=ORIENTED_EDGE('',*,*,#496,.T.);
#628=ORIENTED_EDGE('',*,*,#497,.T.);
#629=ORIENTED_EDGE('',*,*,#474,.F.);
#630=ORIENTED_EDGE('',*,*,#494,.F.);
#631=ORIENTED_EDGE('',*,*,#498,.T.);
#632=ORIENTED_EDGE('',*,*,#499,.T.);
#633=ORIENTED_EDGE('',*,*,#496,.F.);
#634=ORIENTED_EDGE('',*,*,#493,.F.);
#635=ORIENTED_EDGE('',*,*,#476,.T.);
#636=ORIENTED_EDGE('',*,*,#500,.T.);
#637=ORIENTED_EDGE('',*,*,#498,.F.);
#638=ORIENTED_EDGE('',*,*,#497,.F.);
#639=ORIENTED_EDGE('',*,*,#499,.F.);
#640=ORIENTED_EDGE('',*,*,#500,.F.);
#641=ORIENTED_EDGE('',*,*,#475,.F.);
#642=ORIENTED_EDGE('',*,*,#501,.F.);
#643=ORIENTED_EDGE('',*,*,#502,.F.);
#644=ORIENTED_EDGE('',*,*,#503,.F.);
#645=ORIENTED_EDGE('',*,*,#504,.F.);
#646=ORIENTED_EDGE('',*,*,#505,.F.);
#647=ORIENTED_EDGE('',*,*,#503,.T.);
#648=ORIENTED_EDGE('',*,*,#506,.T.);
#649=ORIENTED_EDGE('',*,*,#507,.F.);
#650=ORIENTED_EDGE('',*,*,#506,.F.);
#651=ORIENTED_EDGE('',*,*,#505,.T.);
#652=ORIENTED_EDGE('',*,*,#508,.T.);
#653=ORIENTED_EDGE('',*,*,#509,.F.);
#654=ORIENTED_EDGE('',*,*,#508,.F.);
#655=ORIENTED_EDGE('',*,*,#502,.T.);
#656=ORIENTED_EDGE('',*,*,#510,.T.);
#657=ORIENTED_EDGE('',*,*,#511,.F.);
#658=ORIENTED_EDGE('',*,*,#510,.F.);
#659=ORIENTED_EDGE('',*,*,#501,.T.);
#660=ORIENTED_EDGE('',*,*,#512,.T.);
#661=ORIENTED_EDGE('',*,*,#513,.F.);
#662=ORIENTED_EDGE('',*,*,#512,.F.);
#663=ORIENTED_EDGE('',*,*,#514,.T.);
#664=ORIENTED_EDGE('',*,*,#515,.T.);
#665=ORIENTED_EDGE('',*,*,#516,.T.);
#666=ORIENTED_EDGE('',*,*,#517,.T.);
#667=ORIENTED_EDGE('',*,*,#515,.F.);
#668=ORIENTED_EDGE('',*,*,#518,.F.);
#669=ORIENTED_EDGE('',*,*,#519,.F.);
#670=ORIENTED_EDGE('',*,*,#520,.T.);
#671=ORIENTED_EDGE('',*,*,#514,.F.);
#672=ORIENTED_EDGE('',*,*,#521,.T.);
#673=ORIENTED_EDGE('',*,*,#522,.F.);
#674=ORIENTED_EDGE('',*,*,#523,.F.);
#675=ORIENTED_EDGE('',*,*,#524,.F.);
#676=ORIENTED_EDGE('',*,*,#525,.T.);
#677=ORIENTED_EDGE('',*,*,#526,.F.);
#678=ORIENTED_EDGE('',*,*,#518,.T.);
#679=ORIENTED_EDGE('',*,*,#527,.T.);
#680=ORIENTED_EDGE('',*,*,#528,.T.);
#681=ORIENTED_EDGE('',*,*,#529,.T.);
#682=ORIENTED_EDGE('',*,*,#530,.T.);
#683=ORIENTED_EDGE('',*,*,#531,.T.);
#684=ORIENTED_EDGE('',*,*,#532,.T.);
#685=ORIENTED_EDGE('',*,*,#533,.T.);
#686=ORIENTED_EDGE('',*,*,#534,.T.);
#687=ORIENTED_EDGE('',*,*,#522,.T.);
#688=ORIENTED_EDGE('',*,*,#535,.T.);
#689=ORIENTED_EDGE('',*,*,#534,.F.);
#690=ORIENTED_EDGE('',*,*,#536,.F.);
#691=ORIENTED_EDGE('',*,*,#537,.F.);
#692=ORIENTED_EDGE('',*,*,#523,.T.);
#693=ORIENTED_EDGE('',*,*,#526,.T.);
#694=ORIENTED_EDGE('',*,*,#538,.T.);
#695=ORIENTED_EDGE('',*,*,#539,.T.);
#696=ORIENTED_EDGE('',*,*,#519,.T.);
#697=ORIENTED_EDGE('',*,*,#516,.F.);
#698=ORIENTED_EDGE('',*,*,#520,.F.);
#699=ORIENTED_EDGE('',*,*,#539,.F.);
#700=ORIENTED_EDGE('',*,*,#540,.F.);
#701=ORIENTED_EDGE('',*,*,#541,.F.);
#702=ORIENTED_EDGE('',*,*,#542,.T.);
#703=ORIENTED_EDGE('',*,*,#543,.T.);
#704=ORIENTED_EDGE('',*,*,#544,.T.);
#705=ORIENTED_EDGE('',*,*,#545,.T.);
#706=ORIENTED_EDGE('',*,*,#524,.T.);
#707=ORIENTED_EDGE('',*,*,#537,.T.);
#708=ORIENTED_EDGE('',*,*,#546,.T.);
#709=ORIENTED_EDGE('',*,*,#547,.T.);
#710=ORIENTED_EDGE('',*,*,#517,.F.);
#711=ORIENTED_EDGE('',*,*,#542,.F.);
#712=ORIENTED_EDGE('',*,*,#548,.F.);
#713=ORIENTED_EDGE('',*,*,#477,.F.);
#714=ORIENTED_EDGE('',*,*,#549,.F.);
#715=ORIENTED_EDGE('',*,*,#550,.F.);
#716=ORIENTED_EDGE('',*,*,#551,.F.);
#717=ORIENTED_EDGE('',*,*,#552,.F.);
#718=ORIENTED_EDGE('',*,*,#535,.F.);
#719=ORIENTED_EDGE('',*,*,#521,.F.);
#720=ORIENTED_EDGE('',*,*,#533,.F.);
#721=ORIENTED_EDGE('',*,*,#552,.T.);
#722=ORIENTED_EDGE('',*,*,#553,.F.);
#723=ORIENTED_EDGE('',*,*,#554,.F.);
#724=ORIENTED_EDGE('',*,*,#546,.F.);
#725=ORIENTED_EDGE('',*,*,#536,.T.);
#726=ORIENTED_EDGE('',*,*,#555,.T.);
#727=ORIENTED_EDGE('',*,*,#556,.T.);
#728=ORIENTED_EDGE('',*,*,#557,.T.);
#729=ORIENTED_EDGE('',*,*,#551,.T.);
#730=ORIENTED_EDGE('',*,*,#558,.F.);
#731=ORIENTED_EDGE('',*,*,#559,.F.);
#732=ORIENTED_EDGE('',*,*,#560,.T.);
#733=ORIENTED_EDGE('',*,*,#561,.F.);
#734=ORIENTED_EDGE('',*,*,#553,.T.);
#735=ORIENTED_EDGE('',*,*,#550,.T.);
#736=ORIENTED_EDGE('',*,*,#562,.F.);
#737=ORIENTED_EDGE('',*,*,#563,.T.);
#738=ORIENTED_EDGE('',*,*,#564,.F.);
#739=ORIENTED_EDGE('',*,*,#565,.T.);
#740=ORIENTED_EDGE('',*,*,#566,.T.);
#741=ORIENTED_EDGE('',*,*,#567,.T.);
#742=ORIENTED_EDGE('',*,*,#568,.T.);
#743=ORIENTED_EDGE('',*,*,#569,.T.);
#744=ORIENTED_EDGE('',*,*,#570,.T.);
#745=ORIENTED_EDGE('',*,*,#571,.T.);
#746=ORIENTED_EDGE('',*,*,#572,.T.);
#747=ORIENTED_EDGE('',*,*,#573,.T.);
#748=ORIENTED_EDGE('',*,*,#574,.T.);
#749=ORIENTED_EDGE('',*,*,#558,.T.);
#750=ORIENTED_EDGE('',*,*,#575,.T.);
#751=ORIENTED_EDGE('',*,*,#576,.T.);
#752=ORIENTED_EDGE('',*,*,#513,.T.);
#753=ORIENTED_EDGE('',*,*,#511,.T.);
#754=ORIENTED_EDGE('',*,*,#509,.T.);
#755=ORIENTED_EDGE('',*,*,#507,.T.);
#756=ORIENTED_EDGE('',*,*,#532,.F.);
#757=ORIENTED_EDGE('',*,*,#577,.T.);
#758=ORIENTED_EDGE('',*,*,#545,.F.);
#759=ORIENTED_EDGE('',*,*,#577,.F.);
#760=ORIENTED_EDGE('',*,*,#531,.F.);
#761=ORIENTED_EDGE('',*,*,#578,.T.);
#762=ORIENTED_EDGE('',*,*,#557,.F.);
#763=ORIENTED_EDGE('',*,*,#578,.F.);
#764=ORIENTED_EDGE('',*,*,#530,.F.);
#765=ORIENTED_EDGE('',*,*,#579,.T.);
#766=ORIENTED_EDGE('',*,*,#544,.F.);
#767=ORIENTED_EDGE('',*,*,#579,.F.);
#768=ORIENTED_EDGE('',*,*,#529,.F.);
#769=ORIENTED_EDGE('',*,*,#580,.T.);
#770=ORIENTED_EDGE('',*,*,#556,.F.);
#771=ORIENTED_EDGE('',*,*,#580,.F.);
#772=ORIENTED_EDGE('',*,*,#528,.F.);
#773=ORIENTED_EDGE('',*,*,#581,.T.);
#774=ORIENTED_EDGE('',*,*,#555,.F.);
#775=ORIENTED_EDGE('',*,*,#581,.F.);
#776=ORIENTED_EDGE('',*,*,#527,.F.);
#777=ORIENTED_EDGE('',*,*,#582,.T.);
#778=ORIENTED_EDGE('',*,*,#543,.F.);
#779=ORIENTED_EDGE('',*,*,#582,.F.);
#780=ORIENTED_EDGE('',*,*,#504,.T.);
#781=ORIENTED_EDGE('',*,*,#583,.T.);
#782=ORIENTED_EDGE('',*,*,#575,.F.);
#783=ORIENTED_EDGE('',*,*,#583,.F.);
#784=ORIENTED_EDGE('',*,*,#549,.T.);
#785=ORIENTED_EDGE('',*,*,#491,.F.);
#786=ORIENTED_EDGE('',*,*,#584,.T.);
#787=ORIENTED_EDGE('',*,*,#562,.T.);
#788=ORIENTED_EDGE('',*,*,#548,.T.);
#789=ORIENTED_EDGE('',*,*,#541,.T.);
#790=ORIENTED_EDGE('',*,*,#585,.T.);
#791=ORIENTED_EDGE('',*,*,#586,.F.);
#792=ORIENTED_EDGE('',*,*,#587,.T.);
#793=ORIENTED_EDGE('',*,*,#478,.T.);
#794=ORIENTED_EDGE('',*,*,#588,.F.);
#795=ORIENTED_EDGE('',*,*,#586,.T.);
#796=ORIENTED_EDGE('',*,*,#589,.T.);
#797=ORIENTED_EDGE('',*,*,#560,.F.);
#798=ORIENTED_EDGE('',*,*,#538,.F.);
#799=ORIENTED_EDGE('',*,*,#525,.F.);
#800=ORIENTED_EDGE('',*,*,#547,.F.);
#801=ORIENTED_EDGE('',*,*,#554,.T.);
#802=ORIENTED_EDGE('',*,*,#561,.T.);
#803=ORIENTED_EDGE('',*,*,#589,.F.);
#804=ORIENTED_EDGE('',*,*,#585,.F.);
#805=ORIENTED_EDGE('',*,*,#540,.T.);
#806=ORIENTED_EDGE('',*,*,#564,.T.);
#807=ORIENTED_EDGE('',*,*,#590,.T.);
#808=ORIENTED_EDGE('',*,*,#489,.T.);
#809=ORIENTED_EDGE('',*,*,#591,.T.);
#810=ORIENTED_EDGE('',*,*,#590,.F.);
#811=ORIENTED_EDGE('',*,*,#563,.F.);
#812=ORIENTED_EDGE('',*,*,#584,.F.);
#813=ORIENTED_EDGE('',*,*,#490,.F.);
#814=ORIENTED_EDGE('',*,*,#576,.F.);
#815=ORIENTED_EDGE('',*,*,#592,.T.);
#816=ORIENTED_EDGE('',*,*,#495,.T.);
#817=ORIENTED_EDGE('',*,*,#592,.F.);
#818=ORIENTED_EDGE('',*,*,#481,.F.);
#819=ORIENTED_EDGE('',*,*,#593,.T.);
#820=ORIENTED_EDGE('',*,*,#572,.F.);
#821=ORIENTED_EDGE('',*,*,#594,.F.);
#822=ORIENTED_EDGE('',*,*,#482,.F.);
#823=ORIENTED_EDGE('',*,*,#594,.T.);
#824=ORIENTED_EDGE('',*,*,#571,.F.);
#825=ORIENTED_EDGE('',*,*,#595,.F.);
#826=ORIENTED_EDGE('',*,*,#483,.F.);
#827=ORIENTED_EDGE('',*,*,#595,.T.);
#828=ORIENTED_EDGE('',*,*,#570,.F.);
#829=ORIENTED_EDGE('',*,*,#596,.F.);
#830=ORIENTED_EDGE('',*,*,#484,.F.);
#831=ORIENTED_EDGE('',*,*,#596,.T.);
#832=ORIENTED_EDGE('',*,*,#569,.F.);
#833=ORIENTED_EDGE('',*,*,#597,.F.);
#834=ORIENTED_EDGE('',*,*,#485,.F.);
#835=ORIENTED_EDGE('',*,*,#597,.T.);
#836=ORIENTED_EDGE('',*,*,#568,.F.);
#837=ORIENTED_EDGE('',*,*,#598,.F.);
#838=ORIENTED_EDGE('',*,*,#486,.F.);
#839=ORIENTED_EDGE('',*,*,#598,.T.);
#840=ORIENTED_EDGE('',*,*,#567,.F.);
#841=ORIENTED_EDGE('',*,*,#599,.F.);
#842=ORIENTED_EDGE('',*,*,#487,.F.);
#843=ORIENTED_EDGE('',*,*,#599,.T.);
#844=ORIENTED_EDGE('',*,*,#566,.F.);
#845=ORIENTED_EDGE('',*,*,#600,.F.);
#846=ORIENTED_EDGE('',*,*,#591,.F.);
#847=ORIENTED_EDGE('',*,*,#488,.F.);
#848=ORIENTED_EDGE('',*,*,#600,.T.);
#849=ORIENTED_EDGE('',*,*,#565,.F.);
#850=ORIENTED_EDGE('',*,*,#588,.T.);
#851=ORIENTED_EDGE('',*,*,#559,.T.);
#852=ORIENTED_EDGE('',*,*,#574,.F.);
#853=ORIENTED_EDGE('',*,*,#601,.F.);
#854=ORIENTED_EDGE('',*,*,#479,.F.);
#855=ORIENTED_EDGE('',*,*,#587,.F.);
#856=ORIENTED_EDGE('',*,*,#480,.T.);
#857=ORIENTED_EDGE('',*,*,#601,.T.);
#858=ORIENTED_EDGE('',*,*,#573,.F.);
#859=ORIENTED_EDGE('',*,*,#593,.F.);
#860=PLANE('',#942);
#861=PLANE('',#943);
#862=PLANE('',#948);
#863=PLANE('',#949);
#864=PLANE('',#950);
#865=PLANE('',#951);
#866=PLANE('',#968);
#867=PLANE('',#969);
#868=PLANE('',#981);
#869=PLANE('',#984);
#870=PLANE('',#990);
#871=PLANE('',#993);
#872=PLANE('',#1000);
#873=PLANE('',#1013);
#874=PLANE('',#1017);
#875=PLANE('',#1018);
#876=PLANE('',#1019);
#877=PLANE('',#1021);
#878=PLANE('',#1023);
#879=PLANE('',#1025);
#880=PLANE('',#1026);
#881=PLANE('',#1027);
#882=ADVANCED_FACE('',(#116),#860,.F.);
#883=ADVANCED_FACE('',(#117,#39,#40),#861,.F.);
#884=ADVANCED_FACE('',(#118),#862,.F.);
#885=ADVANCED_FACE('',(#119),#863,.F.);
#886=ADVANCED_FACE('',(#120),#864,.F.);
#887=ADVANCED_FACE('',(#121,#41,#42,#43,#44,#45),#865,.T.);
#888=ADVANCED_FACE('',(#122),#18,.F.);
#889=ADVANCED_FACE('',(#123),#19,.F.);
#890=ADVANCED_FACE('',(#124),#20,.F.);
#891=ADVANCED_FACE('',(#125),#21,.F.);
#892=ADVANCED_FACE('',(#126),#22,.T.);
#893=ADVANCED_FACE('',(#127),#866,.T.);
#894=ADVANCED_FACE('',(#128,#46,#47,#48,#49,#50,#51),#867,.T.);
#895=ADVANCED_FACE('',(#129),#23,.T.);
#896=ADVANCED_FACE('',(#130),#868,.T.);
#897=ADVANCED_FACE('',(#131),#24,.T.);
#898=ADVANCED_FACE('',(#132,#52,#53,#54),#869,.F.);
#899=ADVANCED_FACE('',(#133),#25,.T.);
#900=ADVANCED_FACE('',(#134),#870,.T.);
#901=ADVANCED_FACE('',(#135,#55,#56,#57),#871,.F.);
#902=ADVANCED_FACE('',(#136),#26,.F.);
#903=ADVANCED_FACE('',(#137,#58,#59,#60,#61,#62,#63),#872,.T.);
#904=ADVANCED_FACE('',(#138),#27,.F.);
#905=ADVANCED_FACE('',(#139),#28,.F.);
#906=ADVANCED_FACE('',(#140),#29,.F.);
#907=ADVANCED_FACE('',(#141),#30,.F.);
#908=ADVANCED_FACE('',(#142),#31,.F.);
#909=ADVANCED_FACE('',(#143),#32,.F.);
#910=ADVANCED_FACE('',(#144),#33,.F.);
#911=ADVANCED_FACE('',(#145),#873,.T.);
#912=ADVANCED_FACE('',(#146),#34,.F.);
#913=ADVANCED_FACE('',(#147),#874,.T.);
#914=ADVANCED_FACE('',(#148),#875,.T.);
#915=ADVANCED_FACE('',(#149),#17,.T.);
#916=ADVANCED_FACE('',(#150),#876,.T.);
#917=ADVANCED_FACE('',(#151),#35,.F.);
#918=ADVANCED_FACE('',(#152),#877,.T.);
#919=ADVANCED_FACE('',(#153),#36,.F.);
#920=ADVANCED_FACE('',(#154),#878,.T.);
#921=ADVANCED_FACE('',(#155),#37,.F.);
#922=ADVANCED_FACE('',(#156),#879,.T.);
#923=ADVANCED_FACE('',(#157),#15,.T.);
#924=ADVANCED_FACE('',(#158),#880,.T.);
#925=ADVANCED_FACE('',(#159),#16,.T.);
#926=ADVANCED_FACE('',(#160),#881,.T.);
#927=ADVANCED_FACE('',(#161),#38,.T.);
#928=CLOSED_SHELL('',(#882,#883,#884,#885,#886,#887,#888,#889,#890,#891,
#892,#893,#894,#895,#896,#897,#898,#899,#900,#901,#902,#903,#904,#905,#906,
#907,#908,#909,#910,#911,#912,#913,#914,#915,#916,#917,#918,#919,#920,#921,
#922,#923,#924,#925,#926,#927));
#929=DERIVED_UNIT_ELEMENT(#931,1.);
#930=DERIVED_UNIT_ELEMENT(#1682,-3.);
#931=(
MASS_UNIT()
NAMED_UNIT(*)
SI_UNIT(.KILO.,.GRAM.)
);
#932=DERIVED_UNIT((#929,#930));
#933=MEASURE_REPRESENTATION_ITEM('density measure',
POSITIVE_RATIO_MEASURE(7850.),#932);
#934=PROPERTY_DEFINITION_REPRESENTATION(#939,#936);
#935=PROPERTY_DEFINITION_REPRESENTATION(#940,#937);
#936=REPRESENTATION('material name',(#938),#1679);
#937=REPRESENTATION('density',(#933),#1679);
#938=DESCRIPTIVE_REPRESENTATION_ITEM('Steel','Steel');
#939=PROPERTY_DEFINITION('material property','material name',#1689);
#940=PROPERTY_DEFINITION('material property','density of part',#1689);
#941=AXIS2_PLACEMENT_3D('',#1282,#1029,#1030);
#942=AXIS2_PLACEMENT_3D('',#1283,#1031,#1032);
#943=AXIS2_PLACEMENT_3D('',#1292,#1037,#1038);
#944=AXIS2_PLACEMENT_3D('',#1301,#1042,#1043);
#945=AXIS2_PLACEMENT_3D('',#1305,#1045,#1046);
#946=AXIS2_PLACEMENT_3D('',#1309,#1048,#1049);
#947=AXIS2_PLACEMENT_3D('',#1356,#1057,#1058);
#948=AXIS2_PLACEMENT_3D('',#1357,#1059,#1060);
#949=AXIS2_PLACEMENT_3D('',#1361,#1063,#1064);
#950=AXIS2_PLACEMENT_3D('',#1365,#1067,#1068);
#951=AXIS2_PLACEMENT_3D('',#1367,#1070,#1071);
#952=AXIS2_PLACEMENT_3D('',#1369,#1072,#1073);
#953=AXIS2_PLACEMENT_3D('',#1371,#1074,#1075);
#954=AXIS2_PLACEMENT_3D('',#1373,#1076,#1077);
#955=AXIS2_PLACEMENT_3D('',#1375,#1078,#1079);
#956=AXIS2_PLACEMENT_3D('',#1377,#1080,#1081);
#957=AXIS2_PLACEMENT_3D('',#1378,#1082,#1083);
#958=AXIS2_PLACEMENT_3D('',#1381,#1085,#1086);
#959=AXIS2_PLACEMENT_3D('',#1382,#1087,#1088);
#960=AXIS2_PLACEMENT_3D('',#1385,#1090,#1091);
#961=AXIS2_PLACEMENT_3D('',#1386,#1092,#1093);
#962=AXIS2_PLACEMENT_3D('',#1389,#1095,#1096);
#963=AXIS2_PLACEMENT_3D('',#1390,#1097,#1098);
#964=AXIS2_PLACEMENT_3D('',#1393,#1100,#1101);
#965=AXIS2_PLACEMENT_3D('',#1394,#1102,#1103);
#966=AXIS2_PLACEMENT_3D('',#1397,#1104,#1105);
#967=AXIS2_PLACEMENT_3D('',#1401,#1107,#1108);
#968=AXIS2_PLACEMENT_3D('',#1403,#1110,#1111);
#969=AXIS2_PLACEMENT_3D('',#1409,#1115,#1116);
#970=AXIS2_PLACEMENT_3D('',#1413,#1118,#1119);
#971=AXIS2_PLACEMENT_3D('',#1417,#1121,#1122);
#972=AXIS2_PLACEMENT_3D('',#1420,#1124,#1125);
#973=AXIS2_PLACEMENT_3D('',#1422,#1126,#1127);
#974=AXIS2_PLACEMENT_3D('',#1424,#1128,#1129);
#975=AXIS2_PLACEMENT_3D('',#1426,#1130,#1131);
#976=AXIS2_PLACEMENT_3D('',#1428,#1132,#1133);
#977=AXIS2_PLACEMENT_3D('',#1430,#1134,#1135);
#978=AXIS2_PLACEMENT_3D('',#1432,#1136,#1137);
#979=AXIS2_PLACEMENT_3D('',#1433,#1138,#1139);
#980=AXIS2_PLACEMENT_3D('',#1436,#1140,#1141);
#981=AXIS2_PLACEMENT_3D('',#1439,#1144,#1145);
#982=AXIS2_PLACEMENT_3D('',#1443,#1148,#1149);
#983=AXIS2_PLACEMENT_3D('',#1446,#1151,#1152);
#984=AXIS2_PLACEMENT_3D('',#1447,#1153,#1154);
#985=AXIS2_PLACEMENT_3D('',#1454,#1158,#1159);
#986=AXIS2_PLACEMENT_3D('',#1456,#1160,#1161);
#987=AXIS2_PLACEMENT_3D('',#1458,#1162,#1163);
#988=AXIS2_PLACEMENT_3D('',#1459,#1164,#1165);
#989=AXIS2_PLACEMENT_3D('',#1461,#1166,#1167);
#990=AXIS2_PLACEMENT_3D('',#1463,#1169,#1170);
#991=AXIS2_PLACEMENT_3D('',#1464,#1171,#1172);
#992=AXIS2_PLACEMENT_3D('',#1470,#1175,#1176);
#993=AXIS2_PLACEMENT_3D('',#1472,#1178,#1179);
#994=AXIS2_PLACEMENT_3D('',#1477,#1182,#1183);
#995=AXIS2_PLACEMENT_3D('',#1479,#1184,#1185);
#996=AXIS2_PLACEMENT_3D('',#1481,#1186,#1187);
#997=AXIS2_PLACEMENT_3D('',#1482,#1188,#1189);
#998=AXIS2_PLACEMENT_3D('',#1486,#1191,#1192);
#999=AXIS2_PLACEMENT_3D('',#1489,#1194,#1195);
#1000=AXIS2_PLACEMENT_3D('',#1490,#1196,#1197);
#1001=AXIS2_PLACEMENT_3D('',#1533,#1202,#1203);
#1002=AXIS2_PLACEMENT_3D('',#1537,#1205,#1206);
#1003=AXIS2_PLACEMENT_3D('',#1541,#1208,#1209);
#1004=AXIS2_PLACEMENT_3D('',#1544,#1211,#1212);
#1005=AXIS2_PLACEMENT_3D('',#1546,#1213,#1214);
#1006=AXIS2_PLACEMENT_3D('',#1547,#1215,#1216);
#1007=AXIS2_PLACEMENT_3D('',#1549,#1218,#1219);
#1008=AXIS2_PLACEMENT_3D('',#1551,#1221,#1222);
#1009=AXIS2_PLACEMENT_3D('',#1553,#1224,#1225);
#1010=AXIS2_PLACEMENT_3D('',#1555,#1227,#1228);
#1011=AXIS2_PLACEMENT_3D('',#1557,#1230,#1231);
#1012=AXIS2_PLACEMENT_3D('',#1559,#1233,#1234);
#1013=AXIS2_PLACEMENT_3D('',#1561,#1236,#1237);
#1014=AXIS2_PLACEMENT_3D('',#1563,#1239,#1240);
#1015=AXIS2_PLACEMENT_3D('',#1565,#1241,#1242);
#1016=AXIS2_PLACEMENT_3D('',#1568,#1244,#1245);
#1017=AXIS2_PLACEMENT_3D('',#1569,#1246,#1247);
#1018=AXIS2_PLACEMENT_3D('',#1572,#1250,#1251);
#1019=AXIS2_PLACEMENT_3D('',#1597,#1252,#1253);
#1020=AXIS2_PLACEMENT_3D('',#1598,#1254,#1255);
#1021=AXIS2_PLACEMENT_3D('',#1600,#1257,#1258);
#1022=AXIS2_PLACEMENT_3D('',#1603,#1261,#1262);
#1023=AXIS2_PLACEMENT_3D('',#1605,#1264,#1265);
#1024=AXIS2_PLACEMENT_3D('',#1607,#1267,#1268);
#1025=AXIS2_PLACEMENT_3D('',#1609,#1270,#1271);
#1026=AXIS2_PLACEMENT_3D('',#1642,#1274,#1275);
#1027=AXIS2_PLACEMENT_3D('',#1674,#1277,#1278);
#1028=AXIS2_PLACEMENT_3D('',#1676,#1280,#1281);
#1029=DIRECTION('axis',(0.,0.,1.));
#1030=DIRECTION('refdir',(1.,0.,0.));
#1031=DIRECTION('center_axis',(-1.,0.,0.));
#1032=DIRECTION('ref_axis',(0.,0.,1.));
#1033=DIRECTION('',(0.,0.,1.));
#1034=DIRECTION('',(0.,1.,0.));
#1035=DIRECTION('',(0.,0.,1.));
#1036=DIRECTION('',(0.,1.,0.));
#1037=DIRECTION('center_axis',(0.,1.,0.));
#1038=DIRECTION('ref_axis',(1.,0.,0.));
#1039=DIRECTION('',(0.,0.,-1.));
#1040=DIRECTION('',(-1.,0.,0.));
#1041=DIRECTION('',(6.90822185622856E-16,0.,1.));
#1042=DIRECTION('center_axis',(0.,1.,0.));
#1043=DIRECTION('ref_axis',(0.,0.,1.));
#1044=DIRECTION('',(-1.,0.,0.));
#1045=DIRECTION('center_axis',(0.,1.,0.));
#1046=DIRECTION('ref_axis',(8.88178419700125E-16,0.,-1.));
#1047=DIRECTION('',(1.61322395958466E-16,0.,1.));
#1048=DIRECTION('center_axis',(0.,1.,0.));
#1049=DIRECTION('ref_axis',(-1.,0.,0.));
#1050=DIRECTION('',(1.,0.,-2.89546873000511E-16));
#1051=DIRECTION('',(-1.,0.,0.));
#1052=DIRECTION('',(-0.799846952209419,0.,-0.60020400951785));
#1053=DIRECTION('',(-1.,0.,0.));
#1054=DIRECTION('',(-1.,0.,0.));
#1055=DIRECTION('',(1.,0.,0.));
#1056=DIRECTION('',(0.,0.,-1.));
#1057=DIRECTION('center_axis',(0.,-1.,0.));
#1058=DIRECTION('ref_axis',(1.,0.,0.));
#1059=DIRECTION('center_axis',(0.,0.,-1.));
#1060=DIRECTION('ref_axis',(-1.,0.,0.));
#1061=DIRECTION('',(0.,1.,0.));
#1062=DIRECTION('',(-1.,0.,0.));
#1063=DIRECTION('center_axis',(1.,0.,0.));
#1064=DIRECTION('ref_axis',(0.,0.,-1.));
#1065=DIRECTION('',(0.,1.,0.));
#1066=DIRECTION('',(0.,0.,-1.));
#1067=DIRECTION('center_axis',(0.,0.,1.));
#1068=DIRECTION('ref_axis',(1.,0.,0.));
#1069=DIRECTION('',(1.,0.,0.));
#1070=DIRECTION('center_axis',(0.,-1.,0.));
#1071=DIRECTION('ref_axis',(1.,0.,0.));
#1072=DIRECTION('center_axis',(0.,-1.,0.));
#1073=DIRECTION('ref_axis',(1.,0.,0.));
#1074=DIRECTION('center_axis',(0.,-1.,0.));
#1075=DIRECTION('ref_axis',(1.,0.,0.));
#1076=DIRECTION('center_axis',(0.,-1.,0.));
#1077=DIRECTION('ref_axis',(1.,0.,0.));
#1078=DIRECTION('center_axis',(0.,-1.,0.));
#1079=DIRECTION('ref_axis',(1.,0.,0.));
#1080=DIRECTION('center_axis',(0.,-1.,0.));
#1081=DIRECTION('ref_axis',(1.,0.,0.));
#1082=DIRECTION('center_axis',(0.,1.,0.));
#1083=DIRECTION('ref_axis',(1.,0.,0.));
#1084=DIRECTION('',(0.,1.,0.));
#1085=DIRECTION('center_axis',(0.,-1.,0.));
#1086=DIRECTION('ref_axis',(1.,0.,0.));
#1087=DIRECTION('center_axis',(0.,1.,0.));
#1088=DIRECTION('ref_axis',(1.,0.,0.));
#1089=DIRECTION('',(0.,1.,0.));
#1090=DIRECTION('center_axis',(0.,-1.,0.));
#1091=DIRECTION('ref_axis',(1.,0.,0.));
#1092=DIRECTION('center_axis',(0.,1.,0.));
#1093=DIRECTION('ref_axis',(1.,0.,0.));
#1094=DIRECTION('',(0.,1.,0.));
#1095=DIRECTION('center_axis',(0.,-1.,0.));
#1096=DIRECTION('ref_axis',(1.,0.,0.));
#1097=DIRECTION('center_axis',(0.,1.,0.));
#1098=DIRECTION('ref_axis',(1.,0.,0.));
#1099=DIRECTION('',(0.,1.,0.));
#1100=DIRECTION('center_axis',(0.,-1.,0.));
#1101=DIRECTION('ref_axis',(1.,0.,0.));
#1102=DIRECTION('center_axis',(0.,0.,-1.));
#1103=DIRECTION('ref_axis',(-0.707106781186547,-0.707106781186547,0.));
#1104=DIRECTION('center_axis',(0.,0.,1.));
#1105=DIRECTION('ref_axis',(-0.707106781186547,-0.707106781186547,0.));
#1106=DIRECTION('',(0.,0.,1.));
#1107=DIRECTION('center_axis',(0.,0.,-1.));
#1108=DIRECTION('ref_axis',(-0.707106781186547,-0.707106781186547,0.));
#1109=DIRECTION('',(0.,0.,-1.));
#1110=DIRECTION('center_axis',(0.,-1.,0.));
#1111=DIRECTION('ref_axis',(-1.,0.,0.));
#1112=DIRECTION('',(-1.,0.,0.));
#1113=DIRECTION('',(0.,0.,-1.));
#1114=DIRECTION('',(-1.,0.,0.));
#1115=DIRECTION('center_axis',(0.,0.,-1.));
#1116=DIRECTION('ref_axis',(-1.,0.,0.));
#1117=DIRECTION('',(0.,1.,0.));
#1118=DIRECTION('center_axis',(0.,0.,1.));
#1119=DIRECTION('ref_axis',(-0.707106781186547,0.707106781186547,0.));
#1120=DIRECTION('',(-1.,0.,0.));
#1121=DIRECTION('center_axis',(0.,0.,1.));
#1122=DIRECTION('ref_axis',(0.707106781186547,0.707106781186547,0.));
#1123=DIRECTION('',(0.,-1.,0.));
#1124=DIRECTION('center_axis',(0.,0.,1.));
#1125=DIRECTION('ref_axis',(0.707106781186547,-0.707106781186547,0.));
#1126=DIRECTION('center_axis',(0.,0.,1.));
#1127=DIRECTION('ref_axis',(1.,0.,0.));
#1128=DIRECTION('center_axis',(0.,0.,1.));
#1129=DIRECTION('ref_axis',(1.,0.,0.));
#1130=DIRECTION('center_axis',(0.,0.,1.));
#1131=DIRECTION('ref_axis',(1.,0.,0.));
#1132=DIRECTION('center_axis',(0.,0.,1.));
#1133=DIRECTION('ref_axis',(1.,0.,0.));
#1134=DIRECTION('center_axis',(0.,0.,1.));
#1135=DIRECTION('ref_axis',(1.,0.,0.));
#1136=DIRECTION('center_axis',(0.,0.,1.));
#1137=DIRECTION('ref_axis',(1.,0.,0.));
#1138=DIRECTION('center_axis',(0.,0.,1.));
#1139=DIRECTION('ref_axis',(-0.707106781186547,0.707106781186547,0.));
#1140=DIRECTION('center_axis',(0.,0.,-1.));
#1141=DIRECTION('ref_axis',(-0.707106781186547,0.707106781186547,0.));
#1142=DIRECTION('',(0.,0.,-1.));
#1143=DIRECTION('',(0.,0.,1.));
#1144=DIRECTION('center_axis',(2.53725353304123E-16,1.,0.));
#1145=DIRECTION('ref_axis',(1.,-2.53725353304123E-16,0.));
#1146=DIRECTION('',(-1.,0.,0.));
#1147=DIRECTION('',(0.,0.,1.));
#1148=DIRECTION('center_axis',(0.,0.,-1.));
#1149=DIRECTION('ref_axis',(0.707106781186547,-0.707106781186547,0.));
#1150=DIRECTION('',(0.,0.,1.));
#1151=DIRECTION('center_axis',(0.,0.,-1.));
#1152=DIRECTION('ref_axis',(0.707106781186547,-0.707106781186547,0.));
#1153=DIRECTION('center_axis',(0.,0.,-1.));
#1154=DIRECTION('ref_axis',(1.,0.,0.));
#1155=DIRECTION('',(0.,-1.,0.));
#1156=DIRECTION('',(1.,0.,0.));
#1157=DIRECTION('',(0.,-1.,0.));
#1158=DIRECTION('center_axis',(0.,0.,-1.));
#1159=DIRECTION('ref_axis',(1.,0.,0.));
#1160=DIRECTION('center_axis',(0.,0.,-1.));
#1161=DIRECTION('ref_axis',(1.,0.,0.));
#1162=DIRECTION('center_axis',(0.,0.,-1.));
#1163=DIRECTION('ref_axis',(1.,0.,0.));
#1164=DIRECTION('center_axis',(0.,0.,-1.));
#1165=DIRECTION('ref_axis',(0.707106781186547,0.707106781186547,0.));
#1166=DIRECTION('center_axis',(0.,0.,-1.));
#1167=DIRECTION('ref_axis',(0.707106781186547,0.707106781186547,0.));
#1168=DIRECTION('',(0.,0.,-1.));
#1169=DIRECTION('center_axis',(-1.,0.,0.));
#1170=DIRECTION('ref_axis',(0.,0.,1.));
#1171=DIRECTION('center_axis',(-1.,0.,0.));
#1172=DIRECTION('ref_axis',(0.,0.707106781186547,-0.707106781186547));
#1173=DIRECTION('',(0.,-1.,0.));
#1174=DIRECTION('',(0.,0.,1.));
#1175=DIRECTION('center_axis',(-1.,0.,0.));
#1176=DIRECTION('ref_axis',(0.,-0.707106781186547,-0.707106781186547));
#1177=DIRECTION('',(0.,-1.,0.));
#1178=DIRECTION('center_axis',(0.,0.,-1.));
#1179=DIRECTION('ref_axis',(1.,0.,0.));
#1180=DIRECTION('',(-1.,0.,0.));
#1181=DIRECTION('',(0.,-1.,0.));
#1182=DIRECTION('center_axis',(0.,0.,-1.));
#1183=DIRECTION('ref_axis',(1.,0.,0.));
#1184=DIRECTION('center_axis',(0.,0.,-1.));
#1185=DIRECTION('ref_axis',(1.,0.,0.));
#1186=DIRECTION('center_axis',(0.,0.,-1.));
#1187=DIRECTION('ref_axis',(1.,0.,0.));
#1188=DIRECTION('center_axis',(-1.,0.,0.));
#1189=DIRECTION('ref_axis',(0.,-0.707106781186547,-0.707106781186547));
#1190=DIRECTION('',(-1.,0.,0.));
#1191=DIRECTION('center_axis',(1.,0.,-6.90822185622856E-16));
#1192=DIRECTION('ref_axis',(0.,-0.707106781186547,-0.707106781186547));
#1193=DIRECTION('',(1.,0.,0.));
#1194=DIRECTION('center_axis',(1.,0.,0.));
#1195=DIRECTION('ref_axis',(0.,-0.707106781186547,-0.707106781186547));
#1196=DIRECTION('center_axis',(0.,1.,0.));
#1197=DIRECTION('ref_axis',(1.,0.,0.));
#1198=DIRECTION('',(-1.,0.,0.));
#1199=DIRECTION('',(0.799846952209419,0.,0.60020400951785));
#1200=DIRECTION('',(1.,0.,0.));
#1201=DIRECTION('',(-1.,0.,2.89546873000511E-16));
#1202=DIRECTION('center_axis',(0.,-1.,0.));
#1203=DIRECTION('ref_axis',(-1.,0.,0.));
#1204=DIRECTION('',(-1.61322395958466E-16,0.,-1.));
#1205=DIRECTION('center_axis',(0.,-1.,0.));
#1206=DIRECTION('ref_axis',(8.88178419700125E-16,0.,-1.));
#1207=DIRECTION('',(1.,0.,0.));
#1208=DIRECTION('center_axis',(0.,1.,0.));
#1209=DIRECTION('ref_axis',(0.,0.,1.));
#1210=DIRECTION('',(-6.90822185622856E-16,0.,-1.));
#1211=DIRECTION('center_axis',(0.,-1.,0.));
#1212=DIRECTION('ref_axis',(1.,0.,0.));
#1213=DIRECTION('center_axis',(0.,-1.,0.));
#1214=DIRECTION('ref_axis',(1.,0.,0.));
#1215=DIRECTION('center_axis',(0.,0.,1.));
#1216=DIRECTION('ref_axis',(1.,0.,0.));
#1217=DIRECTION('',(0.,0.,1.));
#1218=DIRECTION('center_axis',(0.,0.,1.));
#1219=DIRECTION('ref_axis',(1.,0.,0.));
#1220=DIRECTION('',(0.,0.,1.));
#1221=DIRECTION('center_axis',(0.,0.,1.));
#1222=DIRECTION('ref_axis',(1.,0.,0.));
#1223=DIRECTION('',(0.,0.,1.));
#1224=DIRECTION('center_axis',(0.,0.,1.));
#1225=DIRECTION('ref_axis',(1.,0.,0.));
#1226=DIRECTION('',(0.,0.,1.));
#1227=DIRECTION('center_axis',(0.,0.,1.));
#1228=DIRECTION('ref_axis',(1.,0.,0.));
#1229=DIRECTION('',(0.,0.,1.));
#1230=DIRECTION('center_axis',(0.,0.,1.));
#1231=DIRECTION('ref_axis',(1.,0.,0.));
#1232=DIRECTION('',(0.,0.,1.));
#1233=DIRECTION('center_axis',(0.,1.,0.));
#1234=DIRECTION('ref_axis',(1.,0.,0.));
#1235=DIRECTION('',(0.,1.,0.));
#1236=DIRECTION('center_axis',(0.,0.,1.));
#1237=DIRECTION('ref_axis',(0.,1.,0.));
#1238=DIRECTION('',(0.,1.,0.));
#1239=DIRECTION('center_axis',(-1.,0.,0.));
#1240=DIRECTION('ref_axis',(0.,0.707106781186547,-0.707106781186547));
#1241=DIRECTION('center_axis',(1.,0.,0.));
#1242=DIRECTION('ref_axis',(0.,0.707106781186547,-0.707106781186547));
#1243=DIRECTION('',(-1.,0.,0.));
#1244=DIRECTION('center_axis',(1.,0.,-6.90822185622856E-16));
#1245=DIRECTION('ref_axis',(0.,0.707106781186547,-0.707106781186547));
#1246=DIRECTION('center_axis',(0.,0.,1.));
#1247=DIRECTION('ref_axis',(1.,0.,0.));
#1248=DIRECTION('',(0.,1.,0.));
#1249=DIRECTION('',(0.,1.,0.));
#1250=DIRECTION('center_axis',(1.,0.,0.));
#1251=DIRECTION('ref_axis',(0.,0.,-1.));
#1252=DIRECTION('center_axis',(-0.600204009517851,0.,0.799846952209419));
#1253=DIRECTION('ref_axis',(0.799846952209419,0.,0.600204009517851));
#1254=DIRECTION('center_axis',(0.,1.,0.));
#1255=DIRECTION('ref_axis',(1.,0.,0.));
#1256=DIRECTION('',(0.,-1.,0.));
#1257=DIRECTION('center_axis',(0.,0.,1.));
#1258=DIRECTION('ref_axis',(1.,0.,0.));
#1259=DIRECTION('',(0.,1.,0.));
#1260=DIRECTION('',(0.,1.,0.));
#1261=DIRECTION('center_axis',(0.,1.,0.));
#1262=DIRECTION('ref_axis',(8.88178419700125E-16,0.,-1.));
#1263=DIRECTION('',(0.,1.,0.));
#1264=DIRECTION('center_axis',(1.,0.,-1.61322395958466E-16));
#1265=DIRECTION('ref_axis',(-1.61322395958466E-16,0.,-1.));
#1266=DIRECTION('',(0.,1.,0.));
#1267=DIRECTION('center_axis',(0.,1.,0.));
#1268=DIRECTION('ref_axis',(-1.,0.,0.));
#1269=DIRECTION('',(0.,1.,0.));
#1270=DIRECTION('center_axis',(-2.89546873000511E-16,0.,-1.));
#1271=DIRECTION('ref_axis',(-1.,0.,2.89546873000511E-16));
#1272=DIRECTION('',(0.,1.,0.));
#1273=DIRECTION('',(0.,1.,0.));
#1274=DIRECTION('center_axis',(0.,0.,1.));
#1275=DIRECTION('ref_axis',(1.,0.,0.));
#1276=DIRECTION('',(0.,1.,0.));
#1277=DIRECTION('center_axis',(1.,0.,-6.90822185622856E-16));
#1278=DIRECTION('ref_axis',(-6.90822185622856E-16,0.,-1.));
#1279=DIRECTION('',(0.,1.,0.));
#1280=DIRECTION('center_axis',(0.,1.,0.));
#1281=DIRECTION('ref_axis',(0.,0.,1.));
#1282=CARTESIAN_POINT('',(0.,0.,0.));
#1283=CARTESIAN_POINT('Origin',(-121.536354468209,0.,-132.796614056531));
#1284=CARTESIAN_POINT('',(-121.536354468209,0.,-132.796614056531));
#1285=CARTESIAN_POINT('',(-121.536354468209,0.,-90.2966140565313));
#1286=CARTESIAN_POINT('',(-121.536354468209,0.,-90.1483070282656));
#1287=CARTESIAN_POINT('',(-121.536354468209,5.,-132.796614056531));
#1288=CARTESIAN_POINT('',(-121.536354468209,0.,-132.796614056531));
#1289=CARTESIAN_POINT('',(-121.536354468209,5.,-90.2966140565313));
#1290=CARTESIAN_POINT('',(-121.536354468209,5.,-132.796614056531));
#1291=CARTESIAN_POINT('',(-121.536354468209,0.,-90.2966140565313));
#1292=CARTESIAN_POINT('Origin',(-10.0110105776876,0.,-47.5));
#1293=CARTESIAN_POINT('',(-130.000021155375,0.,-30.));
#1294=CARTESIAN_POINT('',(-130.000021155375,0.,-140.));
#1295=CARTESIAN_POINT('',(-130.000021155375,0.,-96.25));
#1296=CARTESIAN_POINT('',(49.9302780650246,0.,-140.));
#1297=CARTESIAN_POINT('',(-15.0110105776876,0.,-140.));
#1298=CARTESIAN_POINT('',(49.9302780650246,0.,-132.143168847432));
#1299=CARTESIAN_POINT('',(49.9302780650246,0.,-145.));
#1300=CARTESIAN_POINT('',(41.1302780650246,0.,-123.343168847432));
#1301=CARTESIAN_POINT('Origin',(41.1302780650246,0.,-132.143168847432));
#1302=CARTESIAN_POINT('',(-30.,0.,-123.343168847432));
#1303=CARTESIAN_POINT('',(41.1302780650246,0.,-123.343168847432));
#1304=CARTESIAN_POINT('',(-40.,0.,-113.343168847432));
#1305=CARTESIAN_POINT('Origin',(-30.,0.,-113.343168847432));
#1306=CARTESIAN_POINT('',(-40.,0.,-58.2870550063756));
#1307=CARTESIAN_POINT('',(-40.,0.,-113.343168847432));
#1308=CARTESIAN_POINT('',(-30.,0.,-48.2870550063756));
#1309=CARTESIAN_POINT('Origin',(-30.,0.,-58.2870550063756));
#1310=CARTESIAN_POINT('',(0.674771600747324,0.,-48.2870550063756));
#1311=CARTESIAN_POINT('',(-30.,0.,-48.2870550063756));
#1312=CARTESIAN_POINT('',(70.,0.,50.));
#1313=CARTESIAN_POINT('Ctrl Pts',(0.674771600747324,0.,-48.2870550063756));
#1314=CARTESIAN_POINT('Ctrl Pts',(3.36237403909354,0.,-47.7085279209489));
#1315=CARTESIAN_POINT('Ctrl Pts',(8.62067616101859,0.,-46.4268335185911));
#1316=CARTESIAN_POINT('Ctrl Pts',(16.1574144375032,0.,-44.130364138817));
#1317=CARTESIAN_POINT('Ctrl Pts',(25.4934868285568,0.,-40.3083072751337));
#1318=CARTESIAN_POINT('Ctrl Pts',(35.897725101352,0.,-34.1811006495679));
#1319=CARTESIAN_POINT('Ctrl Pts',(44.9346257013927,0.,-26.5960559737785));
#1320=CARTESIAN_POINT('Ctrl Pts',(52.5107581651934,0.,-17.4535588749394));
#1321=CARTESIAN_POINT('Ctrl Pts',(58.608752091369,0.,-6.73508925184633));
#1322=CARTESIAN_POINT('Ctrl Pts',(63.3199487779646,0.,5.46196596430741));
#1323=CARTESIAN_POINT('Ctrl Pts',(66.7637944983983,0.,19.0102546747506));
#1324=CARTESIAN_POINT('Ctrl Pts',(68.5951724968488,0.,30.8337213282462));
#1325=CARTESIAN_POINT('Ctrl Pts',(69.4832650662134,0.,40.2188922682544));
#1326=CARTESIAN_POINT('Ctrl Pts',(69.8631243309077,0.,46.7019204484863));
#1327=CARTESIAN_POINT('Ctrl Pts',(70.,0.,50.));
#1328=CARTESIAN_POINT('',(5.,0.,50.));
#1329=CARTESIAN_POINT('',(70.,0.,50.));
#1330=CARTESIAN_POINT('',(-38.0588919283805,1.38777878078145E-15,9.40807025864641));
#1331=CARTESIAN_POINT('Ctrl Pts',(5.,0.,50.));
#1332=CARTESIAN_POINT('Ctrl Pts',(3.19953659314825,0.,48.9311141072706));
#1333=CARTESIAN_POINT('Ctrl Pts',(-0.348584494207468,0.,46.7466352853975));
#1334=CARTESIAN_POINT('Ctrl Pts',(-5.51235188611004,0.,43.3297985437173));
#1335=CARTESIAN_POINT('Ctrl Pts',(-12.0753087848227,0.,38.489146321977));
#1336=CARTESIAN_POINT('Ctrl Pts',(-19.7061189219955,0.,31.9316093600609));
#1337=CARTESIAN_POINT('Ctrl Pts',(-26.5914609797019,0.,24.9475867765209));
#1338=CARTESIAN_POINT('Ctrl Pts',(-31.5611093437997,0.,18.9305280865125));
#1339=CARTESIAN_POINT('Ctrl Pts',(-34.9661850096315,0.,14.1910022803461));
#1340=CARTESIAN_POINT('Ctrl Pts',(-37.0786164296923,0.,10.9695319871054));
#1341=CARTESIAN_POINT('Ctrl Pts',(-38.0588919283759,0.,9.40807025865375));
#1342=CARTESIAN_POINT('',(-39.2925382505112,1.2490009027033E-15,8.06733145154831));
#1343=CARTESIAN_POINT('Ctrl Pts',(-39.2925382505112,-1.11022302462516E-15,
8.0673314515483));
#1344=CARTESIAN_POINT('Ctrl Pts',(-38.8040522666068,-1.11022302462515E-15,
8.43389063555567));
#1345=CARTESIAN_POINT('Ctrl Pts',(-38.3836135537323,-1.11022302462516E-15,
8.89082751304232));
#1346=CARTESIAN_POINT('Ctrl Pts',(-38.0588919283805,-1.11022302462516E-15,
9.40807025864641));
#1347=CARTESIAN_POINT('',(-90.0220211553752,0.,-30.));
#1348=CARTESIAN_POINT('',(-38.5434865912196,0.,8.62941874587492));
#1349=CARTESIAN_POINT('',(-90.0220211553752,0.,-30.));
#1350=CARTESIAN_POINT('',(-79.036354468209,0.,-132.796614056531));
#1351=CARTESIAN_POINT('',(-65.0165158665314,0.,-132.796614056531));
#1352=CARTESIAN_POINT('',(-79.036354468209,0.,-90.2966140565313));
#1353=CARTESIAN_POINT('',(-65.0165158665314,0.,-90.2966140565313));
#1354=CARTESIAN_POINT('',(-79.036354468209,0.,-68.8983070282656));
#1355=CARTESIAN_POINT('',(-11.1,0.,1.35935794705356E-15));
#1356=CARTESIAN_POINT('Origin',(0.,0.,0.));
#1357=CARTESIAN_POINT('Origin',(-79.036354468209,0.,-132.796614056531));
#1358=CARTESIAN_POINT('',(-79.036354468209,5.,-132.796614056531));
#1359=CARTESIAN_POINT('',(-79.036354468209,0.,-132.796614056531));
#1360=CARTESIAN_POINT('',(-79.036354468209,5.,-132.796614056531));
#1361=CARTESIAN_POINT('Origin',(-79.036354468209,0.,-90.2966140565313));
#1362=CARTESIAN_POINT('',(-79.036354468209,5.,-90.2966140565313));
#1363=CARTESIAN_POINT('',(-79.036354468209,0.,-90.2966140565313));
#1364=CARTESIAN_POINT('',(-79.036354468209,5.,-90.2966140565313));
#1365=CARTESIAN_POINT('Origin',(-120.022021155375,0.,-90.2966140565313));
#1366=CARTESIAN_POINT('',(-121.536354468209,5.,-90.2966140565313));
#1367=CARTESIAN_POINT('Origin',(-100.286354468209,5.,-111.546614056531));
#1368=CARTESIAN_POINT('',(-117.136354468209,5.,-127.046614056531));
#1369=CARTESIAN_POINT('Origin',(-115.786354468209,5.,-127.046614056531));
#1370=CARTESIAN_POINT('',(-117.136354468209,5.,-96.0466140565313));
#1371=CARTESIAN_POINT('Origin',(-115.786354468209,5.,-96.0466140565313));
#1372=CARTESIAN_POINT('',(-86.136354468209,5.,-97.0466140565313));
#1373=CARTESIAN_POINT('Origin',(-84.786354468209,5.,-97.0466140565313));
#1374=CARTESIAN_POINT('',(-111.386354468209,5.,-111.546614056531));
#1375=CARTESIAN_POINT('Origin',(-100.286354468209,5.,-111.546614056531));
#1376=CARTESIAN_POINT('',(-86.136354468209,5.,-127.046614056531));
#1377=CARTESIAN_POINT('Origin',(-84.786354468209,5.,-127.046614056531));
#1378=CARTESIAN_POINT('Origin',(-84.786354468209,0.,-97.0466140565313));
#1379=CARTESIAN_POINT('',(-86.136354468209,7.,-97.0466140565313));
#1380=CARTESIAN_POINT('',(-86.136354468209,0.,-97.0466140565313));
#1381=CARTESIAN_POINT('Origin',(-84.786354468209,7.,-97.0466140565313));
#1382=CARTESIAN_POINT('Origin',(-84.786354468209,0.,-127.046614056531));
#1383=CARTESIAN_POINT('',(-86.136354468209,7.,-127.046614056531));
#1384=CARTESIAN_POINT('',(-86.136354468209,0.,-127.046614056531));
#1385=CARTESIAN_POINT('Origin',(-84.786354468209,7.,-127.046614056531));
#1386=CARTESIAN_POINT('Origin',(-115.786354468209,0.,-96.0466140565313));
#1387=CARTESIAN_POINT('',(-117.136354468209,7.,-96.0466140565313));
#1388=CARTESIAN_POINT('',(-117.136354468209,0.,-96.0466140565313));
#1389=CARTESIAN_POINT('Origin',(-115.786354468209,7.,-96.0466140565313));
#1390=CARTESIAN_POINT('Origin',(-115.786354468209,0.,-127.046614056531));
#1391=CARTESIAN_POINT('',(-117.136354468209,7.,-127.046614056531));
#1392=CARTESIAN_POINT('',(-117.136354468209,0.,-127.046614056531));
#1393=CARTESIAN_POINT('Origin',(-115.786354468209,7.,-127.046614056531));
#1394=CARTESIAN_POINT('Origin',(-120.000021155375,-30.,-150.));
#1395=CARTESIAN_POINT('',(-130.000021155375,-30.,-165.));
#1396=CARTESIAN_POINT('',(-120.000021155375,-40.,-165.));
#1397=CARTESIAN_POINT('Origin',(-120.000021155375,-30.,-165.));
#1398=CARTESIAN_POINT('',(-120.000021155375,-40.,-155.));
#1399=CARTESIAN_POINT('',(-120.000021155375,-40.,-150.));
#1400=CARTESIAN_POINT('',(-130.000021155375,-30.,-155.));
#1401=CARTESIAN_POINT('Origin',(-120.000021155375,-30.,-155.));
#1402=CARTESIAN_POINT('',(-130.000021155375,-30.,-150.));
#1403=CARTESIAN_POINT('Origin',(50.,-40.,-155.));
#1404=CARTESIAN_POINT('',(40.,-40.,-165.));
#1405=CARTESIAN_POINT('',(50.,-40.,-165.));
#1406=CARTESIAN_POINT('',(40.,-40.,-155.));
#1407=CARTESIAN_POINT('',(40.,-40.,-150.));
#1408=CARTESIAN_POINT('',(50.,-40.,-155.));
#1409=CARTESIAN_POINT('Origin',(-20.0110105776876,3.50000000000002,-165.));
#1410=CARTESIAN_POINT('',(-130.000021155375,37.,-165.));
#1411=CARTESIAN_POINT('',(-130.000021155375,1.75000000000001,-165.));
#1412=CARTESIAN_POINT('',(-120.000021155375,47.,-165.));
#1413=CARTESIAN_POINT('Origin',(-120.000021155375,37.,-165.));
#1414=CARTESIAN_POINT('',(40.,47.,-165.));
#1415=CARTESIAN_POINT('',(-90.0220211553752,47.,-165.));
#1416=CARTESIAN_POINT('',(50.,37.,-165.));
#1417=CARTESIAN_POINT('Origin',(40.,37.,-165.));
#1418=CARTESIAN_POINT('',(50.,-30.,-165.));
#1419=CARTESIAN_POINT('',(50.,7.,-165.));
#1420=CARTESIAN_POINT('Origin',(40.,-30.,-165.));
#1421=CARTESIAN_POINT('',(2.5,-25.,-165.));
#1422=CARTESIAN_POINT('Origin',(5.,-25.,-165.));
#1423=CARTESIAN_POINT('',(-42.5,32.,-165.));
#1424=CARTESIAN_POINT('Origin',(-40.,32.,-165.));
#1425=CARTESIAN_POINT('',(-87.5,32.,-165.));
#1426=CARTESIAN_POINT('Origin',(-85.,32.,-165.));
#1427=CARTESIAN_POINT('',(-42.5,-25.,-165.));
#1428=CARTESIAN_POINT('Origin',(-40.,-25.,-165.));
#1429=CARTESIAN_POINT('',(2.5,32.,-165.));
#1430=CARTESIAN_POINT('Origin',(5.,32.,-165.));
#1431=CARTESIAN_POINT('',(-87.5,-25.,-165.));
#1432=CARTESIAN_POINT('Origin',(-85.,-25.,-165.));
#1433=CARTESIAN_POINT('Origin',(-120.000021155375,37.,-150.));
#1434=CARTESIAN_POINT('',(-130.000021155375,37.,-155.));
#1435=CARTESIAN_POINT('',(-120.000021155375,47.,-155.));
#1436=CARTESIAN_POINT('Origin',(-120.000021155375,37.,-155.));
#1437=CARTESIAN_POINT('',(-120.000021155375,47.,-150.));
#1438=CARTESIAN_POINT('',(-130.000021155375,37.,-150.));
#1439=CARTESIAN_POINT('Origin',(-90.0220211553752,47.,-155.));
#1440=CARTESIAN_POINT('',(40.,47.,-155.));
#1441=CARTESIAN_POINT('',(-90.0220211553752,47.,-155.));
#1442=CARTESIAN_POINT('',(40.,47.,-150.));
#1443=CARTESIAN_POINT('Origin',(40.,-30.,-150.));
#1444=CARTESIAN_POINT('',(50.,-30.,-155.));
#1445=CARTESIAN_POINT('',(50.,-30.,-150.));
#1446=CARTESIAN_POINT('Origin',(40.,-30.,-155.));
#1447=CARTESIAN_POINT('Origin',(-20.0110105776876,3.50000000000002,-155.));
#1448=CARTESIAN_POINT('',(50.,-15.,-155.));
#1449=CARTESIAN_POINT('',(50.,7.,-155.));
#1450=CARTESIAN_POINT('',(-130.000021155375,-15.,-155.));
#1451=CARTESIAN_POINT('',(-15.0110105776876,-15.,-155.));
#1452=CARTESIAN_POINT('',(-130.000021155375,1.75000000000001,-155.));
#1453=CARTESIAN_POINT('',(2.5,-25.,-155.));
#1454=CARTESIAN_POINT('Origin',(5.,-25.,-155.));
#1455=CARTESIAN_POINT('',(-42.5,-25.,-155.));
#1456=CARTESIAN_POINT('Origin',(-40.,-25.,-155.));
#1457=CARTESIAN_POINT('',(-87.5,-25.,-155.));
#1458=CARTESIAN_POINT('Origin',(-85.,-25.,-155.));
#1459=CARTESIAN_POINT('Origin',(40.,37.,-150.));
#1460=CARTESIAN_POINT('',(50.,37.,-155.));
#1461=CARTESIAN_POINT('Origin',(40.,37.,-155.));
#1462=CARTESIAN_POINT('',(50.,37.,-150.));
#1463=CARTESIAN_POINT('Origin',(-130.000021155375,0.,-145.));
#1464=CARTESIAN_POINT('Origin',(-130.000021155375,-15.,-140.));
#1465=CARTESIAN_POINT('',(-130.000021155375,7.,-30.));
#1466=CARTESIAN_POINT('',(-130.000021155375,0.,-30.));
#1467=CARTESIAN_POINT('',(-130.000021155375,7.,-140.));
#1468=CARTESIAN_POINT('',(-130.000021155375,7.,-96.25));
#1469=CARTESIAN_POINT('',(-130.000021155375,22.,-155.));
#1470=CARTESIAN_POINT('Origin',(-130.000021155375,22.,-140.));
#1471=CARTESIAN_POINT('',(-130.000021155375,1.75000000000001,-155.));
#1472=CARTESIAN_POINT('Origin',(-20.0110105776876,3.50000000000002,-155.));
#1473=CARTESIAN_POINT('',(50.,22.,-155.));
#1474=CARTESIAN_POINT('',(-15.0110105776876,22.,-155.));
#1475=CARTESIAN_POINT('',(50.,7.,-155.));
#1476=CARTESIAN_POINT('',(-42.5,32.,-155.));
#1477=CARTESIAN_POINT('Origin',(-40.,32.,-155.));
#1478=CARTESIAN_POINT('',(-87.5,32.,-155.));
#1479=CARTESIAN_POINT('Origin',(-85.,32.,-155.));
#1480=CARTESIAN_POINT('',(2.5,32.,-155.));
#1481=CARTESIAN_POINT('Origin',(5.,32.,-155.));
#1482=CARTESIAN_POINT('Origin',(-15.0110105776876,22.,-140.));
#1483=CARTESIAN_POINT('',(49.9302780650246,7.,-140.));
#1484=CARTESIAN_POINT('',(-90.0220211553752,7.,-140.));
#1485=CARTESIAN_POINT('',(49.9302780650246,7.85786437626905,-145.));
#1486=CARTESIAN_POINT('Origin',(49.9302780650246,22.,-140.));
#1487=CARTESIAN_POINT('',(50.,7.85786437626905,-145.));
#1488=CARTESIAN_POINT('',(-15.0110105776876,7.85786437626905,-145.));
#1489=CARTESIAN_POINT('Origin',(50.,22.,-140.));
#1490=CARTESIAN_POINT('Origin',(-10.0110105776876,7.,-47.5));
#1491=CARTESIAN_POINT('',(-90.0220211553752,7.,-30.));
#1492=CARTESIAN_POINT('',(-90.0220211553752,7.,-30.));
#1493=CARTESIAN_POINT('',(-39.2925382505112,7.,8.06733145154831));
#1494=CARTESIAN_POINT('',(-38.5434865912196,7.,8.62941874587492));
#1495=CARTESIAN_POINT('',(-38.0588919283805,7.,9.40807025864641));
#1496=CARTESIAN_POINT('Ctrl Pts',(-38.0588919283805,7.,9.40807025864641));
#1497=CARTESIAN_POINT('Ctrl Pts',(-38.3836135537323,7.,8.89082751304232));
#1498=CARTESIAN_POINT('Ctrl Pts',(-38.8040522666068,7.,8.43389063555567));
#1499=CARTESIAN_POINT('Ctrl Pts',(-39.2925382505112,7.,8.0673314515483));
#1500=CARTESIAN_POINT('',(5.,7.,50.));
#1501=CARTESIAN_POINT('Ctrl Pts',(-38.0588919283759,7.,9.40807025865375));
#1502=CARTESIAN_POINT('Ctrl Pts',(-37.0786164296923,7.,10.9695319871054));
#1503=CARTESIAN_POINT('Ctrl Pts',(-34.9661850096315,7.,14.1910022803461));
#1504=CARTESIAN_POINT('Ctrl Pts',(-31.5611093437997,7.,18.9305280865125));
#1505=CARTESIAN_POINT('Ctrl Pts',(-26.5914609797019,7.,24.9475867765209));
#1506=CARTESIAN_POINT('Ctrl Pts',(-19.7061189219955,7.,31.9316093600609));
#1507=CARTESIAN_POINT('Ctrl Pts',(-12.0753087848227,7.,38.489146321977));
#1508=CARTESIAN_POINT('Ctrl Pts',(-5.51235188611004,7.,43.3297985437173));
#1509=CARTESIAN_POINT('Ctrl Pts',(-0.348584494207468,7.,46.7466352853975));
#1510=CARTESIAN_POINT('Ctrl Pts',(3.19953659314825,7.,48.9311141072706));
#1511=CARTESIAN_POINT('Ctrl Pts',(5.,7.,50.));
#1512=CARTESIAN_POINT('',(70.,7.,50.));
#1513=CARTESIAN_POINT('',(70.,7.,50.));
#1514=CARTESIAN_POINT('',(0.674771600747324,7.,-48.2870550063756));
#1515=CARTESIAN_POINT('Ctrl Pts',(70.,7.,50.));
#1516=CARTESIAN_POINT('Ctrl Pts',(69.8631243309077,7.,46.7019204484863));
#1517=CARTESIAN_POINT('Ctrl Pts',(69.4832650662134,7.,40.2188922682544));
#1518=CARTESIAN_POINT('Ctrl Pts',(68.5951724968488,7.,30.8337213282462));
#1519=CARTESIAN_POINT('Ctrl Pts',(66.7637944983983,7.,19.0102546747506));
#1520=CARTESIAN_POINT('Ctrl Pts',(63.3199487779646,7.,5.46196596430741));
#1521=CARTESIAN_POINT('Ctrl Pts',(58.608752091369,7.,-6.73508925184633));
#1522=CARTESIAN_POINT('Ctrl Pts',(52.5107581651934,7.,-17.4535588749394));
#1523=CARTESIAN_POINT('Ctrl Pts',(44.9346257013927,7.,-26.5960559737785));
#1524=CARTESIAN_POINT('Ctrl Pts',(35.897725101352,7.,-34.1811006495679));
#1525=CARTESIAN_POINT('Ctrl Pts',(25.4934868285568,7.,-40.3083072751337));
#1526=CARTESIAN_POINT('Ctrl Pts',(16.1574144375032,7.,-44.130364138817));
#1527=CARTESIAN_POINT('Ctrl Pts',(8.62067616101859,7.,-46.4268335185911));
#1528=CARTESIAN_POINT('Ctrl Pts',(3.36237403909354,7.,-47.7085279209489));
#1529=CARTESIAN_POINT('Ctrl Pts',(0.674771600747324,7.,-48.2870550063756));
#1530=CARTESIAN_POINT('',(-30.,7.,-48.2870550063756));
#1531=CARTESIAN_POINT('',(-30.,7.,-48.2870550063756));
#1532=CARTESIAN_POINT('',(-40.,7.,-58.2870550063756));
#1533=CARTESIAN_POINT('Origin',(-30.,7.,-58.2870550063756));
#1534=CARTESIAN_POINT('',(-40.,7.,-113.343168847432));
#1535=CARTESIAN_POINT('',(-40.,7.,-113.343168847432));
#1536=CARTESIAN_POINT('',(-30.,7.,-123.343168847432));
#1537=CARTESIAN_POINT('Origin',(-30.,7.,-113.343168847432));
#1538=CARTESIAN_POINT('',(41.1302780650246,7.,-123.343168847432));
#1539=CARTESIAN_POINT('',(41.1302780650246,7.,-123.343168847432));
#1540=CARTESIAN_POINT('',(49.9302780650246,7.,-132.143168847432));
#1541=CARTESIAN_POINT('Origin',(41.1302780650246,7.,-132.143168847432));
#1542=CARTESIAN_POINT('',(49.9302780650246,7.,-145.));
#1543=CARTESIAN_POINT('',(-111.386354468209,7.,-111.546614056531));
#1544=CARTESIAN_POINT('Origin',(-100.286354468209,7.,-111.546614056531));
#1545=CARTESIAN_POINT('',(-11.1,7.,1.35935794705356E-15));
#1546=CARTESIAN_POINT('Origin',(0.,7.,0.));
#1547=CARTESIAN_POINT('Origin',(-85.,-25.,-165.));
#1548=CARTESIAN_POINT('',(-87.5,-25.,-165.));
#1549=CARTESIAN_POINT('Origin',(5.,32.,-165.));
#1550=CARTESIAN_POINT('',(2.5,32.,-165.));
#1551=CARTESIAN_POINT('Origin',(-40.,-25.,-165.));
#1552=CARTESIAN_POINT('',(-42.5,-25.,-165.));
#1553=CARTESIAN_POINT('Origin',(-85.,32.,-165.));
#1554=CARTESIAN_POINT('',(-87.5,32.,-165.));
#1555=CARTESIAN_POINT('Origin',(-40.,32.,-165.));
#1556=CARTESIAN_POINT('',(-42.5,32.,-165.));
#1557=CARTESIAN_POINT('Origin',(5.,-25.,-165.));
#1558=CARTESIAN_POINT('',(2.5,-25.,-165.));
#1559=CARTESIAN_POINT('Origin',(-100.286354468209,0.,-111.546614056531));
#1560=CARTESIAN_POINT('',(-111.386354468209,0.,-111.546614056531));
#1561=CARTESIAN_POINT('Origin',(-90.0220211553752,0.,-30.));
#1562=CARTESIAN_POINT('',(-90.0220211553752,0.,-30.));
#1563=CARTESIAN_POINT('Origin',(-15.0110105776876,-15.,-140.));
#1564=CARTESIAN_POINT('',(50.,-0.857864376269046,-145.));
#1565=CARTESIAN_POINT('Origin',(50.,-15.,-140.));
#1566=CARTESIAN_POINT('',(49.9302780650246,-0.857864376269046,-145.));
#1567=CARTESIAN_POINT('',(-15.0110105776876,-0.857864376269046,-145.));
#1568=CARTESIAN_POINT('Origin',(49.9302780650246,-15.,-140.));
#1569=CARTESIAN_POINT('Origin',(-90.0220211553752,0.,-145.));
#1570=CARTESIAN_POINT('',(49.9302780650246,0.,-145.));
#1571=CARTESIAN_POINT('',(50.,0.,-145.));
#1572=CARTESIAN_POINT('Origin',(50.,0.,-145.));
#1573=CARTESIAN_POINT('Ctrl Pts',(-38.0588919283805,7.,9.40807025864641));
#1574=CARTESIAN_POINT('Ctrl Pts',(-38.0588919283805,4.66666666666667,9.40807025864641));
#1575=CARTESIAN_POINT('Ctrl Pts',(-38.0588919283805,2.33333333333333,9.40807025864641));
#1576=CARTESIAN_POINT('Ctrl Pts',(-38.0588919283805,-2.77555756156289E-15,
9.40807025864641));
#1577=CARTESIAN_POINT('Ctrl Pts',(-38.3836135537323,7.,8.89082751304232));
#1578=CARTESIAN_POINT('Ctrl Pts',(-38.3836135537323,4.66666666666667,8.89082751304232));
#1579=CARTESIAN_POINT('Ctrl Pts',(-38.3836135537323,2.33333333333333,8.89082751304232));
#1580=CARTESIAN_POINT('Ctrl Pts',(-38.3836135537323,-2.77555756156289E-15,
8.89082751304232));
#1581=CARTESIAN_POINT('Ctrl Pts',(-38.8040522666068,7.,8.43389063555567));
#1582=CARTESIAN_POINT('Ctrl Pts',(-38.8040522666068,4.66666666666667,8.43389063555567));
#1583=CARTESIAN_POINT('Ctrl Pts',(-38.8040522666068,2.33333333333333,8.43389063555567));
#1584=CARTESIAN_POINT('Ctrl Pts',(-38.8040522666068,-2.77555756156289E-15,
8.43389063555567));
#1585=CARTESIAN_POINT('Ctrl Pts',(-39.2925382505112,7.,8.0673314515483));
#1586=CARTESIAN_POINT('Ctrl Pts',(-39.2925382505112,4.66666666666667,8.0673314515483));
#1587=CARTESIAN_POINT('Ctrl Pts',(-39.2925382505112,2.33333333333333,8.0673314515483));
#1588=CARTESIAN_POINT('Ctrl Pts',(-39.2925382505112,-2.77555756156289E-15,
8.0673314515483));
#1589=CARTESIAN_POINT('Ctrl Pts',(-39.2925382505112,7.,8.0673314515483));
#1590=CARTESIAN_POINT('Ctrl Pts',(-39.2925382505112,4.66666666666667,8.0673314515483));
#1591=CARTESIAN_POINT('Ctrl Pts',(-39.2925382505112,2.33333333333333,8.0673314515483));
#1592=CARTESIAN_POINT('Ctrl Pts',(-39.2925382505112,-2.77555756156289E-15,
8.0673314515483));
#1593=CARTESIAN_POINT('Ctrl Pts',(-38.0588919283805,-2.77555756156289E-15,
9.40807025864641));
#1594=CARTESIAN_POINT('Ctrl Pts',(-38.0588919283805,2.33333333333333,9.40807025864641));
#1595=CARTESIAN_POINT('Ctrl Pts',(-38.0588919283805,4.66666666666667,9.40807025864641));
#1596=CARTESIAN_POINT('Ctrl Pts',(-38.0588919283805,7.,9.40807025864641));
#1597=CARTESIAN_POINT('Origin',(-90.0220211553752,0.,-30.));
#1598=CARTESIAN_POINT('Origin',(0.,0.,0.));
#1599=CARTESIAN_POINT('',(-11.1,0.,1.35935794705356E-15));
#1600=CARTESIAN_POINT('Origin',(-30.,0.,-123.343168847432));
#1601=CARTESIAN_POINT('',(41.1302780650246,0.,-123.343168847432));
#1602=CARTESIAN_POINT('',(-30.,0.,-123.343168847432));
#1603=CARTESIAN_POINT('Origin',(-30.,0.,-113.343168847432));
#1604=CARTESIAN_POINT('',(-40.,0.,-113.343168847432));
#1605=CARTESIAN_POINT('Origin',(-40.,0.,-58.2870550063756));
#1606=CARTESIAN_POINT('',(-40.,0.,-58.2870550063756));
#1607=CARTESIAN_POINT('Origin',(-30.,0.,-58.2870550063756));
#1608=CARTESIAN_POINT('',(-30.,0.,-48.2870550063756));
#1609=CARTESIAN_POINT('Origin',(0.674771600747324,0.,-48.2870550063756));
#1610=CARTESIAN_POINT('',(0.674771600747324,0.,-48.2870550063756));
#1611=CARTESIAN_POINT('Ctrl Pts',(70.,0.,50.));
#1612=CARTESIAN_POINT('Ctrl Pts',(70.,7.,50.));
#1613=CARTESIAN_POINT('Ctrl Pts',(69.8631243309077,0.,46.7019204484863));
#1614=CARTESIAN_POINT('Ctrl Pts',(69.8631243309077,7.,46.7019204484863));
#1615=CARTESIAN_POINT('Ctrl Pts',(69.4832650662134,0.,40.2188922682544));
#1616=CARTESIAN_POINT('Ctrl Pts',(69.4832650662134,7.,40.2188922682544));
#1617=CARTESIAN_POINT('Ctrl Pts',(68.5951724968488,0.,30.8337213282462));
#1618=CARTESIAN_POINT('Ctrl Pts',(68.5951724968488,7.,30.8337213282462));
#1619=CARTESIAN_POINT('Ctrl Pts',(66.7637944983983,0.,19.0102546747506));
#1620=CARTESIAN_POINT('Ctrl Pts',(66.7637944983983,7.,19.0102546747506));
#1621=CARTESIAN_POINT('Ctrl Pts',(63.3199487779646,0.,5.46196596430741));
#1622=CARTESIAN_POINT('Ctrl Pts',(63.3199487779646,7.,5.46196596430741));
#1623=CARTESIAN_POINT('Ctrl Pts',(58.608752091369,0.,-6.73508925184633));
#1624=CARTESIAN_POINT('Ctrl Pts',(58.608752091369,7.,-6.73508925184633));
#1625=CARTESIAN_POINT('Ctrl Pts',(52.5107581651934,0.,-17.4535588749394));
#1626=CARTESIAN_POINT('Ctrl Pts',(52.5107581651934,7.,-17.4535588749394));
#1627=CARTESIAN_POINT('Ctrl Pts',(44.9346257013927,0.,-26.5960559737785));
#1628=CARTESIAN_POINT('Ctrl Pts',(44.9346257013927,7.,-26.5960559737785));
#1629=CARTESIAN_POINT('Ctrl Pts',(35.897725101352,0.,-34.1811006495679));
#1630=CARTESIAN_POINT('Ctrl Pts',(35.897725101352,7.,-34.1811006495679));
#1631=CARTESIAN_POINT('Ctrl Pts',(25.4934868285568,0.,-40.3083072751337));
#1632=CARTESIAN_POINT('Ctrl Pts',(25.4934868285568,7.,-40.3083072751337));
#1633=CARTESIAN_POINT('Ctrl Pts',(16.1574144375032,0.,-44.130364138817));
#1634=CARTESIAN_POINT('Ctrl Pts',(16.1574144375032,7.,-44.130364138817));
#1635=CARTESIAN_POINT('Ctrl Pts',(8.62067616101859,0.,-46.4268335185911));
#1636=CARTESIAN_POINT('Ctrl Pts',(8.62067616101859,7.,-46.4268335185911));
#1637=CARTESIAN_POINT('Ctrl Pts',(3.36237403909354,0.,-47.7085279209489));
#1638=CARTESIAN_POINT('Ctrl Pts',(3.36237403909354,7.,-47.7085279209489));
#1639=CARTESIAN_POINT('Ctrl Pts',(0.674771600747324,0.,-48.2870550063756));
#1640=CARTESIAN_POINT('Ctrl Pts',(0.674771600747324,7.,-48.2870550063756));
#1641=CARTESIAN_POINT('',(70.,0.,50.));
#1642=CARTESIAN_POINT('Origin',(5.,0.,50.));
#1643=CARTESIAN_POINT('',(5.,0.,50.));
#1644=CARTESIAN_POINT('Ctrl Pts',(-55.,0.,-30.));
#1645=CARTESIAN_POINT('Ctrl Pts',(-55.,7.,-30.));
#1646=CARTESIAN_POINT('Ctrl Pts',(-54.3945111506869,0.,-27.8741507051975));
#1647=CARTESIAN_POINT('Ctrl Pts',(-54.3945111506869,7.,-27.8741507051975));
#1648=CARTESIAN_POINT('Ctrl Pts',(-53.1319752923238,0.,-23.6680556705588));
#1649=CARTESIAN_POINT('Ctrl Pts',(-53.1319752923238,7.,-23.6680556705588));
#1650=CARTESIAN_POINT('Ctrl Pts',(-51.0835034478069,0.,-17.4957181029839));
#1651=CARTESIAN_POINT('Ctrl Pts',(-51.0835034478069,7.,-17.4957181029839));
#1652=CARTESIAN_POINT('Ctrl Pts',(-48.0377268378838,0.,-9.54409517456688));
#1653=CARTESIAN_POINT('Ctrl Pts',(-48.0377268378838,7.,-9.54409517456688));
#1654=CARTESIAN_POINT('Ctrl Pts',(-43.6704866583345,0.,-0.0999076278943049));
#1655=CARTESIAN_POINT('Ctrl Pts',(-43.6704866583345,7.,-0.0999076278943049));
#1656=CARTESIAN_POINT('Ctrl Pts',(-38.691977854909,0.,8.80360852106642));
#1657=CARTESIAN_POINT('Ctrl Pts',(-38.691977854909,7.,8.80360852106642));
#1658=CARTESIAN_POINT('Ctrl Pts',(-33.0504098132455,0.,17.120644109593));
#1659=CARTESIAN_POINT('Ctrl Pts',(-33.0504098132455,7.,17.120644109593));
#1660=CARTESIAN_POINT('Ctrl Pts',(-26.7141075747415,0.,24.823182413982));
#1661=CARTESIAN_POINT('Ctrl Pts',(-26.7141075747415,7.,24.823182413982));
#1662=CARTESIAN_POINT('Ctrl Pts',(-19.7061189219955,0.,31.9316093600609));
#1663=CARTESIAN_POINT('Ctrl Pts',(-19.7061189219955,7.,31.9316093600609));
#1664=CARTESIAN_POINT('Ctrl Pts',(-12.0753087848227,0.,38.489146321977));
#1665=CARTESIAN_POINT('Ctrl Pts',(-12.0753087848227,7.,38.489146321977));
#1666=CARTESIAN_POINT('Ctrl Pts',(-5.51235188611004,0.,43.3297985437173));
#1667=CARTESIAN_POINT('Ctrl Pts',(-5.51235188611004,7.,43.3297985437173));
#1668=CARTESIAN_POINT('Ctrl Pts',(-0.348584494207468,0.,46.7466352853975));
#1669=CARTESIAN_POINT('Ctrl Pts',(-0.348584494207468,7.,46.7466352853975));
#1670=CARTESIAN_POINT('Ctrl Pts',(3.19953659314825,0.,48.9311141072706));
#1671=CARTESIAN_POINT('Ctrl Pts',(3.19953659314825,7.,48.9311141072706));
#1672=CARTESIAN_POINT('Ctrl Pts',(5.,0.,50.));
#1673=CARTESIAN_POINT('Ctrl Pts',(5.,7.,50.));
#1674=CARTESIAN_POINT('Origin',(49.9302780650246,0.,-132.143168847432));
#1675=CARTESIAN_POINT('',(49.9302780650246,0.,-132.143168847432));
#1676=CARTESIAN_POINT('Origin',(41.1302780650246,0.,-132.143168847432));
#1677=UNCERTAINTY_MEASURE_WITH_UNIT(LENGTH_MEASURE(0.01),#1681,
'DISTANCE_ACCURACY_VALUE',
'Maximum model space distance between geometric entities at asserted c
onnectivities');
#1678=UNCERTAINTY_MEASURE_WITH_UNIT(LENGTH_MEASURE(0.01),#1681,
'DISTANCE_ACCURACY_VALUE',
'Maximum model space distance between geometric entities at asserted c
onnectivities');
#1679=(
GEOMETRIC_REPRESENTATION_CONTEXT(3)
GLOBAL_UNCERTAINTY_ASSIGNED_CONTEXT((#1677))
GLOBAL_UNIT_ASSIGNED_CONTEXT((#1681,#1683,#1684))
REPRESENTATION_CONTEXT('','3D')
);
#1680=(
GEOMETRIC_REPRESENTATION_CONTEXT(3)
GLOBAL_UNCERTAINTY_ASSIGNED_CONTEXT((#1678))
GLOBAL_UNIT_ASSIGNED_CONTEXT((#1681,#1683,#1684))
REPRESENTATION_CONTEXT('','3D')
);
#1681=(
LENGTH_UNIT()
NAMED_UNIT(*)
SI_UNIT(.MILLI.,.METRE.)
);
#1682=(
LENGTH_UNIT()
NAMED_UNIT(*)
SI_UNIT($,.METRE.)
);
#1683=(
NAMED_UNIT(*)
PLANE_ANGLE_UNIT()
SI_UNIT($,.RADIAN.)
);
#1684=(
NAMED_UNIT(*)
SI_UNIT($,.STERADIAN.)
SOLID_ANGLE_UNIT()
);
#1685=SHAPE_DEFINITION_REPRESENTATION(#1686,#1687);
#1686=PRODUCT_DEFINITION_SHAPE('',$,#1689);
#1687=SHAPE_REPRESENTATION('',(#941),#1679);
#1688=PRODUCT_DEFINITION_CONTEXT('part definition',#1693,'design');
#1689=PRODUCT_DEFINITION('2026-09-04-15-49-02-773','vert mount',#1690,#1688);
#1690=PRODUCT_DEFINITION_FORMATION('',$,#1695);
#1691=PRODUCT_RELATED_PRODUCT_CATEGORY('vert mount','vert mount',(#1695));
#1692=APPLICATION_PROTOCOL_DEFINITION('international standard',
'automotive_design',2009,#1693);
#1693=APPLICATION_CONTEXT(
'Core Data for Automotive Mechanical Design Process');
#1694=PRODUCT_CONTEXT('part definition',#1693,'mechanical');
#1695=PRODUCT('2026-09-04-15-49-02-773','vert mount',$,(#1694));
#1696=PRESENTATION_STYLE_ASSIGNMENT((#1697));
#1697=SURFACE_STYLE_USAGE(.BOTH.,#1698);
#1698=SURFACE_SIDE_STYLE('',(#1699));
#1699=SURFACE_STYLE_FILL_AREA(#1700);
#1700=FILL_AREA_STYLE('Steel - Satin',(#1701));
#1701=FILL_AREA_STYLE_COLOUR('Steel - Satin',#1702);
#1702=COLOUR_RGB('Steel - Satin',0.627450980392157,0.627450980392157,0.627450980392157);
ENDSEC;
END-ISO-10303-21;
