ISO-10303-21;
HEADER;
/* Generated by software containing ST-Developer
 * from STEP Tools, Inc. (www.steptools.com) 
 */

FILE_DESCRIPTION(
/* description */ (''),
/* implementation_level */ '2;1');

FILE_NAME(
/* name */ 'wheel_hub.step',
/* time_stamp */ '2026-07-26T22:01:16-04:00',
/* author */ (''),
/* organization */ (''),
/* preprocessor_version */ 'ST-DEVELOPER v20.1',
/* originating_system */ 'Autodesk Translation Framework v15.8.0.0',
/* authorisation */ '');

FILE_SCHEMA (('AUTOMOTIVE_DESIGN { 1 0 10303 214 3 1 1 }'));
ENDSEC;

DATA;
#10=MECHANICAL_DESIGN_GEOMETRIC_PRESENTATION_REPRESENTATION('',(#13),#248);
#11=SHAPE_REPRESENTATION_RELATIONSHIP('SRR','None',#255,#12);
#12=ADVANCED_BREP_SHAPE_REPRESENTATION('',(#14),#247);
#13=STYLED_ITEM('',(#264),#14);
#14=MANIFOLD_SOLID_BREP('Body1',#98);
#15=PLANE('',#119);
#16=PLANE('',#120);
#17=FACE_BOUND('',#32,.T.);
#18=FACE_BOUND('',#34,.T.);
#19=FACE_BOUND('',#36,.T.);
#20=FACE_BOUND('',#38,.T.);
#21=CIRCLE('',#114,2.6);
#22=CIRCLE('',#115,2.6);
#23=CIRCLE('',#117,11.);
#24=CIRCLE('',#118,11.);
#25=FACE_OUTER_BOUND('',#30,.T.);
#26=FACE_OUTER_BOUND('',#31,.T.);
#27=FACE_OUTER_BOUND('',#33,.T.);
#28=FACE_OUTER_BOUND('',#35,.T.);
#29=FACE_OUTER_BOUND('',#37,.T.);
#30=EDGE_LOOP('',(#68,#69,#70,#71,#72,#73));
#31=EDGE_LOOP('',(#74,#75,#76,#77));
#32=EDGE_LOOP('',(#78,#79));
#33=EDGE_LOOP('',(#80,#81,#82,#83));
#34=EDGE_LOOP('',(#84,#85));
#35=EDGE_LOOP('',(#86));
#36=EDGE_LOOP('',(#87));
#37=EDGE_LOOP('',(#88));
#38=EDGE_LOOP('',(#89));
#39=LINE('',#193,#42);
#40=LINE('',#235,#43);
#41=LINE('',#241,#44);
#42=VECTOR('',#125,2.);
#43=VECTOR('',#130,2.6);
#44=VECTOR('',#137,11.);
#45=B_SPLINE_CURVE_WITH_KNOTS('',3,(#148,#149,#150,#151,#152,#153,#154,
#155,#156,#157,#158,#159,#160,#161,#162,#163,#164,#165,#166,#167,#168,#169,
#170,#171,#172,#173,#174,#175,#176,#177,#178,#179),.UNSPECIFIED.,.F.,.F.,
(4,2,2,2,2,2,2,2,2,2,2,2,2,2,2,4),(0.,0.0405423439247414,0.0810846878494829,
0.162169375698966,0.241273437134787,0.320377498570608,0.39948156000643,
0.478585621442251,0.559670309291734,0.600212653216475,0.640754997141217,
0.681297341065958,0.7218396849907,0.802924372840182,0.882028434276004,0.961132495711825),
 .UNSPECIFIED.);
#46=B_SPLINE_CURVE_WITH_KNOTS('',3,(#180,#181,#182,#183,#184,#185,#186,
#187,#188,#189,#190,#191),.UNSPECIFIED.,.F.,.F.,(4,2,2,2,2,4),(0.961132495711825,
1.04023655714765,1.11934061858347,1.20042530643295,1.24096765035769,1.28150999428243),
 .UNSPECIFIED.);
#47=B_SPLINE_CURVE_WITH_KNOTS('',3,(#195,#196,#197,#198,#199,#200,#201,
#202,#203,#204),.UNSPECIFIED.,.F.,.F.,(4,2,2,2,4),(0.,0.0755196350052351,
0.15103927001047,0.22655603385719,0.30207279770391),.UNSPECIFIED.);
#48=B_SPLINE_CURVE_WITH_KNOTS('',3,(#205,#206,#207,#208,#209,#210,#211,
#212,#213,#214,#215,#216,#217,#218,#219,#220,#221,#222,#223,#224,#225,#226,
#227,#228,#229,#230),.UNSPECIFIED.,.F.,.F.,(4,2,2,2,2,2,2,2,2,2,2,2,4),
(0.30207279770391,0.37758956155063,0.45310632539735,0.528625960402586,0.604145595407821,
0.679665230413056,0.755184865418291,0.830701629265011,0.906218393111731,
0.981735156958451,1.05725192080517,1.13277155581041,1.20829119081564),
 .UNSPECIFIED.);
#49=VERTEX_POINT('',#146);
#50=VERTEX_POINT('',#147);
#51=VERTEX_POINT('',#192);
#52=VERTEX_POINT('',#194);
#53=VERTEX_POINT('',#232);
#54=VERTEX_POINT('',#234);
#55=VERTEX_POINT('',#238);
#56=VERTEX_POINT('',#240);
#57=EDGE_CURVE('',#49,#50,#45,.T.);
#58=EDGE_CURVE('',#50,#49,#46,.T.);
#59=EDGE_CURVE('',#50,#51,#39,.T.);
#60=EDGE_CURVE('',#52,#51,#47,.T.);
#61=EDGE_CURVE('',#51,#52,#48,.T.);
#62=EDGE_CURVE('',#53,#53,#21,.T.);
#63=EDGE_CURVE('',#53,#54,#40,.T.);
#64=EDGE_CURVE('',#54,#54,#22,.T.);
#65=EDGE_CURVE('',#55,#55,#23,.T.);
#66=EDGE_CURVE('',#55,#56,#41,.T.);
#67=EDGE_CURVE('',#56,#56,#24,.T.);
#68=ORIENTED_EDGE('',*,*,#57,.F.);
#69=ORIENTED_EDGE('',*,*,#58,.F.);
#70=ORIENTED_EDGE('',*,*,#59,.T.);
#71=ORIENTED_EDGE('',*,*,#60,.F.);
#72=ORIENTED_EDGE('',*,*,#61,.F.);
#73=ORIENTED_EDGE('',*,*,#59,.F.);
#74=ORIENTED_EDGE('',*,*,#62,.F.);
#75=ORIENTED_EDGE('',*,*,#63,.T.);
#76=ORIENTED_EDGE('',*,*,#64,.T.);
#77=ORIENTED_EDGE('',*,*,#63,.F.);
#78=ORIENTED_EDGE('',*,*,#57,.T.);
#79=ORIENTED_EDGE('',*,*,#58,.T.);
#80=ORIENTED_EDGE('',*,*,#65,.F.);
#81=ORIENTED_EDGE('',*,*,#66,.T.);
#82=ORIENTED_EDGE('',*,*,#67,.T.);
#83=ORIENTED_EDGE('',*,*,#66,.F.);
#84=ORIENTED_EDGE('',*,*,#60,.T.);
#85=ORIENTED_EDGE('',*,*,#61,.T.);
#86=ORIENTED_EDGE('',*,*,#65,.T.);
#87=ORIENTED_EDGE('',*,*,#62,.T.);
#88=ORIENTED_EDGE('',*,*,#67,.F.);
#89=ORIENTED_EDGE('',*,*,#64,.F.);
#90=CYLINDRICAL_SURFACE('',#112,2.);
#91=CYLINDRICAL_SURFACE('',#113,2.6);
#92=CYLINDRICAL_SURFACE('',#116,11.);
#93=ADVANCED_FACE('',(#25),#90,.F.);
#94=ADVANCED_FACE('',(#26,#17),#91,.F.);
#95=ADVANCED_FACE('',(#27,#18),#92,.T.);
#96=ADVANCED_FACE('',(#28,#19),#15,.T.);
#97=ADVANCED_FACE('',(#29,#20),#16,.F.);
#98=CLOSED_SHELL('',(#93,#94,#95,#96,#97));
#99=DERIVED_UNIT_ELEMENT(#101,1.);
#100=DERIVED_UNIT_ELEMENT(#250,-3.);
#101=(
MASS_UNIT()
NAMED_UNIT(*)
SI_UNIT(.KILO.,.GRAM.)
);
#102=DERIVED_UNIT((#99,#100));
#103=MEASURE_REPRESENTATION_ITEM('density measure',
POSITIVE_RATIO_MEASURE(7850.),#102);
#104=PROPERTY_DEFINITION_REPRESENTATION(#109,#106);
#105=PROPERTY_DEFINITION_REPRESENTATION(#110,#107);
#106=REPRESENTATION('material name',(#108),#247);
#107=REPRESENTATION('density',(#103),#247);
#108=DESCRIPTIVE_REPRESENTATION_ITEM('Steel','Steel');
#109=PROPERTY_DEFINITION('material property','material name',#257);
#110=PROPERTY_DEFINITION('material property','density of part',#257);
#111=AXIS2_PLACEMENT_3D('',#144,#121,#122);
#112=AXIS2_PLACEMENT_3D('',#145,#123,#124);
#113=AXIS2_PLACEMENT_3D('',#231,#126,#127);
#114=AXIS2_PLACEMENT_3D('',#233,#128,#129);
#115=AXIS2_PLACEMENT_3D('',#236,#131,#132);
#116=AXIS2_PLACEMENT_3D('',#237,#133,#134);
#117=AXIS2_PLACEMENT_3D('',#239,#135,#136);
#118=AXIS2_PLACEMENT_3D('',#242,#138,#139);
#119=AXIS2_PLACEMENT_3D('',#243,#140,#141);
#120=AXIS2_PLACEMENT_3D('',#244,#142,#143);
#121=DIRECTION('axis',(0.,0.,1.));
#122=DIRECTION('refdir',(1.,0.,0.));
#123=DIRECTION('center_axis',(0.,-1.,0.));
#124=DIRECTION('ref_axis',(0.,0.,1.));
#125=DIRECTION('',(0.,-1.,0.));
#126=DIRECTION('center_axis',(0.,0.,1.));
#127=DIRECTION('ref_axis',(1.,0.,0.));
#128=DIRECTION('center_axis',(0.,0.,-1.));
#129=DIRECTION('ref_axis',(1.,0.,0.));
#130=DIRECTION('',(0.,0.,-1.));
#131=DIRECTION('center_axis',(0.,0.,-1.));
#132=DIRECTION('ref_axis',(1.,0.,0.));
#133=DIRECTION('center_axis',(0.,0.,1.));
#134=DIRECTION('ref_axis',(1.,0.,0.));
#135=DIRECTION('center_axis',(0.,0.,1.));
#136=DIRECTION('ref_axis',(1.,0.,0.));
#137=DIRECTION('',(0.,0.,-1.));
#138=DIRECTION('center_axis',(0.,0.,1.));
#139=DIRECTION('ref_axis',(1.,0.,0.));
#140=DIRECTION('center_axis',(0.,0.,1.));
#141=DIRECTION('ref_axis',(1.,0.,0.));
#142=DIRECTION('center_axis',(0.,0.,1.));
#143=DIRECTION('ref_axis',(1.,0.,0.));
#144=CARTESIAN_POINT('',(0.,0.,0.));
#145=CARTESIAN_POINT('Origin',(0.,-15.,3.5));
#146=CARTESIAN_POINT('',(2.,-1.66132477258361,3.5));
#147=CARTESIAN_POINT('',(1.57159149434271E-16,-2.6,1.5));
#148=CARTESIAN_POINT('Ctrl Pts',(2.,-1.66132477258361,3.5));
#149=CARTESIAN_POINT('Ctrl Pts',(2.,-1.66132477258361,3.6351411464158));
#150=CARTESIAN_POINT('Ctrl Pts',(1.98617535538745,-1.67834579086081,3.7702275057231));
#151=CARTESIAN_POINT('Ctrl Pts',(1.93237857568841,-1.73997799282985,4.03285109158175));
#152=CARTESIAN_POINT('Ctrl Pts',(1.89239042556335,-1.78442060638387,4.16042456885532));
#153=CARTESIAN_POINT('Ctrl Pts',(1.73819346492989,-1.93903993193751,4.52366674071464));
#154=CARTESIAN_POINT('Ctrl Pts',(1.58795156775823,-2.06912480091397,4.74047555698796));
#155=CARTESIAN_POINT('Ctrl Pts',(1.24471939255851,-2.29160917492134,5.08370773218768));
#156=CARTESIAN_POINT('Ctrl Pts',(1.02753277969405,-2.40213374767407,5.23641031131054));
#157=CARTESIAN_POINT('Ctrl Pts',(0.537278904449071,-2.55683432977606,5.44480747539669));
#158=CARTESIAN_POINT('Ctrl Pts',(0.263680204786071,-2.6,5.5));
#159=CARTESIAN_POINT('Ctrl Pts',(-0.263680204786071,-2.6,5.5));
#160=CARTESIAN_POINT('Ctrl Pts',(-0.537278904449072,-2.55683432977606,5.44480747539669));
#161=CARTESIAN_POINT('Ctrl Pts',(-1.02753277969405,-2.40213374767407,5.23641031131054));
#162=CARTESIAN_POINT('Ctrl Pts',(-1.24471939255851,-2.29160917492134,5.08370773218768));
#163=CARTESIAN_POINT('Ctrl Pts',(-1.58795156775823,-2.06912480091397,4.74047555698796));
#164=CARTESIAN_POINT('Ctrl Pts',(-1.73819346492989,-1.93903993193751,4.52366674071464));
#165=CARTESIAN_POINT('Ctrl Pts',(-1.89239042556335,-1.78442060638387,4.16042456885532));
#166=CARTESIAN_POINT('Ctrl Pts',(-1.93237857568841,-1.73997799282985,4.03285109158175));
#167=CARTESIAN_POINT('Ctrl Pts',(-1.98617535538745,-1.67834579086081,3.7702275057231));
#168=CARTESIAN_POINT('Ctrl Pts',(-2.,-1.66132477258361,3.63514114641581));
#169=CARTESIAN_POINT('Ctrl Pts',(-2.,-1.66132477258361,3.3648588535842));
#170=CARTESIAN_POINT('Ctrl Pts',(-1.98617535538745,-1.67834579086081,3.2297724942769));
#171=CARTESIAN_POINT('Ctrl Pts',(-1.93237857568841,-1.73997799282985,2.96714890841825));
#172=CARTESIAN_POINT('Ctrl Pts',(-1.89239042556335,-1.78442060638387,2.83957543114468));
#173=CARTESIAN_POINT('Ctrl Pts',(-1.73819346492989,-1.93903993193751,2.47633325928536));
#174=CARTESIAN_POINT('Ctrl Pts',(-1.58795156775823,-2.06912480091397,2.25952444301204));
#175=CARTESIAN_POINT('Ctrl Pts',(-1.24471939255851,-2.29160917492134,1.91629226781232));
#176=CARTESIAN_POINT('Ctrl Pts',(-1.02753277969405,-2.40213374767407,1.76358968868946));
#177=CARTESIAN_POINT('Ctrl Pts',(-0.537278904449071,-2.55683432977606,1.55519252460331));
#178=CARTESIAN_POINT('Ctrl Pts',(-0.263680204786071,-2.6,1.5));
#179=CARTESIAN_POINT('Ctrl Pts',(3.46944695195361E-16,-2.6,1.5));
#180=CARTESIAN_POINT('Ctrl Pts',(1.38777878078145E-16,-2.6,1.5));
#181=CARTESIAN_POINT('Ctrl Pts',(0.263680204786071,-2.6,1.5));
#182=CARTESIAN_POINT('Ctrl Pts',(0.537278904449072,-2.55683432977606,1.55519252460331));
#183=CARTESIAN_POINT('Ctrl Pts',(1.02753277969405,-2.40213374767407,1.76358968868946));
#184=CARTESIAN_POINT('Ctrl Pts',(1.24471939255851,-2.29160917492134,1.91629226781232));
#185=CARTESIAN_POINT('Ctrl Pts',(1.58795156775823,-2.06912480091397,2.25952444301204));
#186=CARTESIAN_POINT('Ctrl Pts',(1.73819346492989,-1.93903993193751,2.47633325928536));
#187=CARTESIAN_POINT('Ctrl Pts',(1.89239042556335,-1.78442060638387,2.83957543114468));
#188=CARTESIAN_POINT('Ctrl Pts',(1.93237857568841,-1.73997799282985,2.96714890841825));
#189=CARTESIAN_POINT('Ctrl Pts',(1.98617535538745,-1.67834579086081,3.2297724942769));
#190=CARTESIAN_POINT('Ctrl Pts',(2.,-1.66132477258361,3.3648588535842));
#191=CARTESIAN_POINT('Ctrl Pts',(2.,-1.66132477258361,3.5));
#192=CARTESIAN_POINT('',(2.44929359829471E-16,-11.,1.5));
#193=CARTESIAN_POINT('',(2.44929359829471E-16,-15.,1.5));
#194=CARTESIAN_POINT('',(2.,-10.816653826392,3.5));
#195=CARTESIAN_POINT('Ctrl Pts',(2.,-10.816653826392,3.5));
#196=CARTESIAN_POINT('Ctrl Pts',(2.,-10.816653826392,3.24826788331588));
#197=CARTESIAN_POINT('Ctrl Pts',(1.94957638446461,-10.8263515220207,2.98014929028858));
#198=CARTESIAN_POINT('Ctrl Pts',(1.74529743824049,-10.8611542689708,2.48756240972061));
#199=CARTESIAN_POINT('Ctrl Pts',(1.59147182463776,-10.8857322215096,2.26304469989157));
#200=CARTESIAN_POINT('Ctrl Pts',(1.23696203923752,-10.9316911340961,1.90853491449133));
#201=CARTESIAN_POINT('Ctrl Pts',(1.01244144996753,-10.9560905861522,1.75470401737724));
#202=CARTESIAN_POINT('Ctrl Pts',(0.519844626397984,-10.9904831642121,1.55042123776653));
#203=CARTESIAN_POINT('Ctrl Pts',(0.251722546155734,-11.,1.5));
#204=CARTESIAN_POINT('Ctrl Pts',(2.08166817117217E-16,-11.,1.5));
#205=CARTESIAN_POINT('Ctrl Pts',(2.77555756156289E-16,-11.,1.5));
#206=CARTESIAN_POINT('Ctrl Pts',(-0.251722546155733,-11.,1.5));
#207=CARTESIAN_POINT('Ctrl Pts',(-0.519844626397983,-10.9904831642121,1.55042123776653));
#208=CARTESIAN_POINT('Ctrl Pts',(-1.01244144996753,-10.9560905861522,1.75470401737724));
#209=CARTESIAN_POINT('Ctrl Pts',(-1.23696203923752,-10.9316911340961,1.90853491449133));
#210=CARTESIAN_POINT('Ctrl Pts',(-1.59147182463776,-10.8857322215096,2.26304469989157));
#211=CARTESIAN_POINT('Ctrl Pts',(-1.74529743824049,-10.8611542689708,2.48756240972061));
#212=CARTESIAN_POINT('Ctrl Pts',(-1.94957638446461,-10.8263515220207,2.98014929028858));
#213=CARTESIAN_POINT('Ctrl Pts',(-2.,-10.816653826392,3.24826788331588));
#214=CARTESIAN_POINT('Ctrl Pts',(-2.,-10.816653826392,3.75173211668412));
#215=CARTESIAN_POINT('Ctrl Pts',(-1.94957638446461,-10.8263515220207,4.01985070971142));
#216=CARTESIAN_POINT('Ctrl Pts',(-1.74529743824049,-10.8611542689708,4.51243759027939));
#217=CARTESIAN_POINT('Ctrl Pts',(-1.59147182463776,-10.8857322215096,4.73695530010843));
#218=CARTESIAN_POINT('Ctrl Pts',(-1.23696203923752,-10.9316911340961,5.09146508550868));
#219=CARTESIAN_POINT('Ctrl Pts',(-1.01244144996753,-10.9560905861522,5.24529598262276));
#220=CARTESIAN_POINT('Ctrl Pts',(-0.519844626397983,-10.9904831642121,5.44957876223347));
#221=CARTESIAN_POINT('Ctrl Pts',(-0.251722546155734,-11.,5.5));
#222=CARTESIAN_POINT('Ctrl Pts',(0.251722546155733,-11.,5.5));
#223=CARTESIAN_POINT('Ctrl Pts',(0.519844626397983,-10.9904831642121,5.44957876223347));
#224=CARTESIAN_POINT('Ctrl Pts',(1.01244144996753,-10.9560905861522,5.24529598262276));
#225=CARTESIAN_POINT('Ctrl Pts',(1.23696203923751,-10.9316911340961,5.09146508550868));
#226=CARTESIAN_POINT('Ctrl Pts',(1.59147182463776,-10.8857322215096,4.73695530010843));
#227=CARTESIAN_POINT('Ctrl Pts',(1.74529743824049,-10.8611542689708,4.51243759027939));
#228=CARTESIAN_POINT('Ctrl Pts',(1.94957638446461,-10.8263515220207,4.01985070971142));
#229=CARTESIAN_POINT('Ctrl Pts',(2.,-10.816653826392,3.75173211668412));
#230=CARTESIAN_POINT('Ctrl Pts',(2.,-10.816653826392,3.5));
#231=CARTESIAN_POINT('Origin',(0.,0.,0.));
#232=CARTESIAN_POINT('',(-2.6,-3.18408167778312E-16,7.));
#233=CARTESIAN_POINT('Origin',(0.,0.,7.));
#234=CARTESIAN_POINT('',(-2.6,-3.18408167778312E-16,0.));
#235=CARTESIAN_POINT('',(-2.6,-3.18408167778312E-16,0.));
#236=CARTESIAN_POINT('Origin',(0.,0.,0.));
#237=CARTESIAN_POINT('Origin',(0.,0.,0.));
#238=CARTESIAN_POINT('',(-11.,-1.34711147906209E-15,7.));
#239=CARTESIAN_POINT('Origin',(0.,0.,7.));
#240=CARTESIAN_POINT('',(-11.,-1.34711147906209E-15,0.));
#241=CARTESIAN_POINT('',(-11.,-1.34711147906209E-15,0.));
#242=CARTESIAN_POINT('Origin',(0.,0.,0.));
#243=CARTESIAN_POINT('Origin',(0.,0.,7.));
#244=CARTESIAN_POINT('Origin',(0.,0.,0.));
#245=UNCERTAINTY_MEASURE_WITH_UNIT(LENGTH_MEASURE(0.01),#249,
'DISTANCE_ACCURACY_VALUE',
'Maximum model space distance between geometric entities at asserted c
onnectivities');
#246=UNCERTAINTY_MEASURE_WITH_UNIT(LENGTH_MEASURE(0.01),#249,
'DISTANCE_ACCURACY_VALUE',
'Maximum model space distance between geometric entities at asserted c
onnectivities');
#247=(
GEOMETRIC_REPRESENTATION_CONTEXT(3)
GLOBAL_UNCERTAINTY_ASSIGNED_CONTEXT((#245))
GLOBAL_UNIT_ASSIGNED_CONTEXT((#249,#251,#252))
REPRESENTATION_CONTEXT('','3D')
);
#248=(
GEOMETRIC_REPRESENTATION_CONTEXT(3)
GLOBAL_UNCERTAINTY_ASSIGNED_CONTEXT((#246))
GLOBAL_UNIT_ASSIGNED_CONTEXT((#249,#251,#252))
REPRESENTATION_CONTEXT('','3D')
);
#249=(
LENGTH_UNIT()
NAMED_UNIT(*)
SI_UNIT(.MILLI.,.METRE.)
);
#250=(
LENGTH_UNIT()
NAMED_UNIT(*)
SI_UNIT($,.METRE.)
);
#251=(
NAMED_UNIT(*)
PLANE_ANGLE_UNIT()
SI_UNIT($,.RADIAN.)
);
#252=(
NAMED_UNIT(*)
SI_UNIT($,.STERADIAN.)
SOLID_ANGLE_UNIT()
);
#253=SHAPE_DEFINITION_REPRESENTATION(#254,#255);
#254=PRODUCT_DEFINITION_SHAPE('',$,#257);
#255=SHAPE_REPRESENTATION('',(#111),#247);
#256=PRODUCT_DEFINITION_CONTEXT('part definition',#261,'design');
#257=PRODUCT_DEFINITION('2026-07-02-20-16-43-945','hub',#258,#256);
#258=PRODUCT_DEFINITION_FORMATION('',$,#263);
#259=PRODUCT_RELATED_PRODUCT_CATEGORY('hub','hub',(#263));
#260=APPLICATION_PROTOCOL_DEFINITION('international standard',
'automotive_design',2009,#261);
#261=APPLICATION_CONTEXT(
'Core Data for Automotive Mechanical Design Process');
#262=PRODUCT_CONTEXT('part definition',#261,'mechanical');
#263=PRODUCT('2026-07-02-20-16-43-945','hub',$,(#262));
#264=PRESENTATION_STYLE_ASSIGNMENT((#265));
#265=SURFACE_STYLE_USAGE(.BOTH.,#266);
#266=SURFACE_SIDE_STYLE('',(#267));
#267=SURFACE_STYLE_FILL_AREA(#268);
#268=FILL_AREA_STYLE('Steel - Satin',(#269));
#269=FILL_AREA_STYLE_COLOUR('Steel - Satin',#270);
#270=COLOUR_RGB('Steel - Satin',0.627450980392157,0.627450980392157,0.627450980392157);
ENDSEC;
END-ISO-10303-21;
